G04 #@! TF.GenerationSoftware,KiCad,Pcbnew,(5.99.0-10229-ge8e7d13299)*
G04 #@! TF.CreationDate,2021-06-16T15:48:42+02:00*
G04 #@! TF.ProjectId,openair2-panelized,6f70656e-6169-4723-922d-70616e656c69,rev?*
G04 #@! TF.SameCoordinates,PX3473bc0PY1312d00*
G04 #@! TF.FileFunction,Legend,Top*
G04 #@! TF.FilePolarity,Positive*
%FSLAX46Y46*%
G04 Gerber Fmt 4.6, Leading zero omitted, Abs format (unit mm)*
G04 Created by KiCad (PCBNEW (5.99.0-10229-ge8e7d13299)) date 2021-06-16 15:48:42*
%MOMM*%
%LPD*%
G01*
G04 APERTURE LIST*
%ADD10C,0.150000*%
%ADD11C,0.300000*%
%ADD12C,0.120000*%
%ADD13C,0.010000*%
%ADD14C,0.200000*%
%ADD15R,1.600000X1.600000*%
%ADD16C,1.600000*%
G04 APERTURE END LIST*
D10*
X23395238Y-45407142D02*
X24004761Y-45407142D01*
X20595238Y-44657142D02*
X21204761Y-44657142D01*
X20900000Y-44961904D02*
X20900000Y-44352380D01*
X19600000Y-103161904D02*
X20057142Y-103161904D01*
X19828571Y-103961904D02*
X19828571Y-103161904D01*
X20247619Y-103161904D02*
X20780952Y-103961904D01*
X20780952Y-103161904D02*
X20247619Y-103961904D01*
X22761904Y-103961904D02*
X22495238Y-103580952D01*
X22304761Y-103961904D02*
X22304761Y-103161904D01*
X22609523Y-103161904D01*
X22685714Y-103200000D01*
X22723809Y-103238095D01*
X22761904Y-103314285D01*
X22761904Y-103428571D01*
X22723809Y-103504761D01*
X22685714Y-103542857D01*
X22609523Y-103580952D01*
X22304761Y-103580952D01*
X23028571Y-103161904D02*
X23561904Y-103961904D01*
X23561904Y-103161904D02*
X23028571Y-103961904D01*
X24895238Y-103200000D02*
X24819047Y-103161904D01*
X24704761Y-103161904D01*
X24590476Y-103200000D01*
X24514285Y-103276190D01*
X24476190Y-103352380D01*
X24438095Y-103504761D01*
X24438095Y-103619047D01*
X24476190Y-103771428D01*
X24514285Y-103847619D01*
X24590476Y-103923809D01*
X24704761Y-103961904D01*
X24780952Y-103961904D01*
X24895238Y-103923809D01*
X24933333Y-103885714D01*
X24933333Y-103619047D01*
X24780952Y-103619047D01*
X25276190Y-103961904D02*
X25276190Y-103161904D01*
X25733333Y-103961904D01*
X25733333Y-103161904D01*
X26114285Y-103961904D02*
X26114285Y-103161904D01*
X26304761Y-103161904D01*
X26419047Y-103200000D01*
X26495238Y-103276190D01*
X26533333Y-103352380D01*
X26571428Y-103504761D01*
X26571428Y-103619047D01*
X26533333Y-103771428D01*
X26495238Y-103847619D01*
X26419047Y-103923809D01*
X26304761Y-103961904D01*
X26114285Y-103961904D01*
X30342857Y-103161904D02*
X29961904Y-103161904D01*
X29923809Y-103542857D01*
X29961904Y-103504761D01*
X30038095Y-103466666D01*
X30228571Y-103466666D01*
X30304761Y-103504761D01*
X30342857Y-103542857D01*
X30380952Y-103619047D01*
X30380952Y-103809523D01*
X30342857Y-103885714D01*
X30304761Y-103923809D01*
X30228571Y-103961904D01*
X30038095Y-103961904D01*
X29961904Y-103923809D01*
X29923809Y-103885714D01*
X30609523Y-103161904D02*
X30876190Y-103961904D01*
X31142857Y-103161904D01*
X34380952Y-103161904D02*
X34876190Y-103161904D01*
X34609523Y-103466666D01*
X34723809Y-103466666D01*
X34800000Y-103504761D01*
X34838095Y-103542857D01*
X34876190Y-103619047D01*
X34876190Y-103809523D01*
X34838095Y-103885714D01*
X34800000Y-103923809D01*
X34723809Y-103961904D01*
X34495238Y-103961904D01*
X34419047Y-103923809D01*
X34380952Y-103885714D01*
X35104761Y-103161904D02*
X35371428Y-103961904D01*
X35638095Y-103161904D01*
X35828571Y-103161904D02*
X36323809Y-103161904D01*
X36057142Y-103466666D01*
X36171428Y-103466666D01*
X36247619Y-103504761D01*
X36285714Y-103542857D01*
X36323809Y-103619047D01*
X36323809Y-103809523D01*
X36285714Y-103885714D01*
X36247619Y-103923809D01*
X36171428Y-103961904D01*
X35942857Y-103961904D01*
X35866666Y-103923809D01*
X35828571Y-103885714D01*
X15080952Y-113002380D02*
X15080952Y-113716666D01*
X15033333Y-113859523D01*
X14938095Y-113954761D01*
X14795238Y-114002380D01*
X14700000Y-114002380D01*
X16033333Y-114002380D02*
X15557142Y-114002380D01*
X15557142Y-113002380D01*
X16938095Y-113907142D02*
X16890476Y-113954761D01*
X16747619Y-114002380D01*
X16652380Y-114002380D01*
X16509523Y-113954761D01*
X16414285Y-113859523D01*
X16366666Y-113764285D01*
X16319047Y-113573809D01*
X16319047Y-113430952D01*
X16366666Y-113240476D01*
X16414285Y-113145238D01*
X16509523Y-113050000D01*
X16652380Y-113002380D01*
X16747619Y-113002380D01*
X16890476Y-113050000D01*
X16938095Y-113097619D01*
X17652380Y-113002380D02*
X17652380Y-113716666D01*
X17604761Y-113859523D01*
X17509523Y-113954761D01*
X17366666Y-114002380D01*
X17271428Y-114002380D01*
X18604761Y-114002380D02*
X18128571Y-114002380D01*
X18128571Y-113002380D01*
X19509523Y-113907142D02*
X19461904Y-113954761D01*
X19319047Y-114002380D01*
X19223809Y-114002380D01*
X19080952Y-113954761D01*
X18985714Y-113859523D01*
X18938095Y-113764285D01*
X18890476Y-113573809D01*
X18890476Y-113430952D01*
X18938095Y-113240476D01*
X18985714Y-113145238D01*
X19080952Y-113050000D01*
X19223809Y-113002380D01*
X19319047Y-113002380D01*
X19461904Y-113050000D01*
X19509523Y-113097619D01*
X20223809Y-113002380D02*
X20223809Y-113716666D01*
X20176190Y-113859523D01*
X20080952Y-113954761D01*
X19938095Y-114002380D01*
X19842857Y-114002380D01*
X21176190Y-114002380D02*
X20700000Y-114002380D01*
X20700000Y-113002380D01*
X22080952Y-113907142D02*
X22033333Y-113954761D01*
X21890476Y-114002380D01*
X21795238Y-114002380D01*
X21652380Y-113954761D01*
X21557142Y-113859523D01*
X21509523Y-113764285D01*
X21461904Y-113573809D01*
X21461904Y-113430952D01*
X21509523Y-113240476D01*
X21557142Y-113145238D01*
X21652380Y-113050000D01*
X21795238Y-113002380D01*
X21890476Y-113002380D01*
X22033333Y-113050000D01*
X22080952Y-113097619D01*
X22795238Y-113002380D02*
X22795238Y-113716666D01*
X22747619Y-113859523D01*
X22652380Y-113954761D01*
X22509523Y-114002380D01*
X22414285Y-114002380D01*
X23747619Y-114002380D02*
X23271428Y-114002380D01*
X23271428Y-113002380D01*
X24652380Y-113907142D02*
X24604761Y-113954761D01*
X24461904Y-114002380D01*
X24366666Y-114002380D01*
X24223809Y-113954761D01*
X24128571Y-113859523D01*
X24080952Y-113764285D01*
X24033333Y-113573809D01*
X24033333Y-113430952D01*
X24080952Y-113240476D01*
X24128571Y-113145238D01*
X24223809Y-113050000D01*
X24366666Y-113002380D01*
X24461904Y-113002380D01*
X24604761Y-113050000D01*
X24652380Y-113097619D01*
D11*
X34363571Y-74464285D02*
X34363571Y-74178571D01*
X34435000Y-74035714D01*
X34577857Y-73892857D01*
X34863571Y-73821428D01*
X35363571Y-73821428D01*
X35649285Y-73892857D01*
X35792142Y-74035714D01*
X35863571Y-74178571D01*
X35863571Y-74464285D01*
X35792142Y-74607142D01*
X35649285Y-74750000D01*
X35363571Y-74821428D01*
X34863571Y-74821428D01*
X34577857Y-74750000D01*
X34435000Y-74607142D01*
X34363571Y-74464285D01*
X34863571Y-73178571D02*
X36363571Y-73178571D01*
X34935000Y-73178571D02*
X34863571Y-73035714D01*
X34863571Y-72750000D01*
X34935000Y-72607142D01*
X35006428Y-72535714D01*
X35149285Y-72464285D01*
X35577857Y-72464285D01*
X35720714Y-72535714D01*
X35792142Y-72607142D01*
X35863571Y-72750000D01*
X35863571Y-73035714D01*
X35792142Y-73178571D01*
X35792142Y-71250000D02*
X35863571Y-71392857D01*
X35863571Y-71678571D01*
X35792142Y-71821428D01*
X35649285Y-71892857D01*
X35077857Y-71892857D01*
X34935000Y-71821428D01*
X34863571Y-71678571D01*
X34863571Y-71392857D01*
X34935000Y-71250000D01*
X35077857Y-71178571D01*
X35220714Y-71178571D01*
X35363571Y-71892857D01*
X34863571Y-70535714D02*
X35863571Y-70535714D01*
X35006428Y-70535714D02*
X34935000Y-70464285D01*
X34863571Y-70321428D01*
X34863571Y-70107142D01*
X34935000Y-69964285D01*
X35077857Y-69892857D01*
X35863571Y-69892857D01*
X35435000Y-69250000D02*
X35435000Y-68535714D01*
X35863571Y-69392857D02*
X34363571Y-68892857D01*
X35863571Y-68392857D01*
X35863571Y-67892857D02*
X34863571Y-67892857D01*
X34363571Y-67892857D02*
X34435000Y-67964285D01*
X34506428Y-67892857D01*
X34435000Y-67821428D01*
X34363571Y-67892857D01*
X34506428Y-67892857D01*
X35863571Y-67178571D02*
X34863571Y-67178571D01*
X35149285Y-67178571D02*
X35006428Y-67107142D01*
X34935000Y-67035714D01*
X34863571Y-66892857D01*
X34863571Y-66750000D01*
X35863571Y-65107142D02*
X34363571Y-65107142D01*
X35863571Y-64250000D01*
X34363571Y-64250000D01*
X35863571Y-63321428D02*
X35792142Y-63464285D01*
X35720714Y-63535714D01*
X35577857Y-63607142D01*
X35149285Y-63607142D01*
X35006428Y-63535714D01*
X34935000Y-63464285D01*
X34863571Y-63321428D01*
X34863571Y-63107142D01*
X34935000Y-62964285D01*
X35006428Y-62892857D01*
X35149285Y-62821428D01*
X35577857Y-62821428D01*
X35720714Y-62892857D01*
X35792142Y-62964285D01*
X35863571Y-63107142D01*
X35863571Y-63321428D01*
X35863571Y-61535714D02*
X34363571Y-61535714D01*
X35792142Y-61535714D02*
X35863571Y-61678571D01*
X35863571Y-61964285D01*
X35792142Y-62107142D01*
X35720714Y-62178571D01*
X35577857Y-62250000D01*
X35149285Y-62250000D01*
X35006428Y-62178571D01*
X34935000Y-62107142D01*
X34863571Y-61964285D01*
X34863571Y-61678571D01*
X34935000Y-61535714D01*
X35792142Y-60250000D02*
X35863571Y-60392857D01*
X35863571Y-60678571D01*
X35792142Y-60821428D01*
X35649285Y-60892857D01*
X35077857Y-60892857D01*
X34935000Y-60821428D01*
X34863571Y-60678571D01*
X34863571Y-60392857D01*
X34935000Y-60250000D01*
X35077857Y-60178571D01*
X35220714Y-60178571D01*
X35363571Y-60892857D01*
X34363571Y-58607142D02*
X35863571Y-58107142D01*
X34363571Y-57607142D01*
X35863571Y-56321428D02*
X35863571Y-57178571D01*
X35863571Y-56750000D02*
X34363571Y-56750000D01*
X34577857Y-56892857D01*
X34720714Y-57035714D01*
X34792142Y-57178571D01*
X35720714Y-55678571D02*
X35792142Y-55607142D01*
X35863571Y-55678571D01*
X35792142Y-55750000D01*
X35720714Y-55678571D01*
X35863571Y-55678571D01*
X34363571Y-54250000D02*
X34363571Y-54964285D01*
X35077857Y-55035714D01*
X35006428Y-54964285D01*
X34935000Y-54821428D01*
X34935000Y-54464285D01*
X35006428Y-54321428D01*
X35077857Y-54250000D01*
X35220714Y-54178571D01*
X35577857Y-54178571D01*
X35720714Y-54250000D01*
X35792142Y-54321428D01*
X35863571Y-54464285D01*
X35863571Y-54821428D01*
X35792142Y-54964285D01*
X35720714Y-55035714D01*
D10*
X35685714Y-82061904D02*
X35419047Y-81680952D01*
X35228571Y-82061904D02*
X35228571Y-81261904D01*
X35533333Y-81261904D01*
X35609523Y-81300000D01*
X35647619Y-81338095D01*
X35685714Y-81414285D01*
X35685714Y-81528571D01*
X35647619Y-81604761D01*
X35609523Y-81642857D01*
X35533333Y-81680952D01*
X35228571Y-81680952D01*
X35990476Y-81338095D02*
X36028571Y-81300000D01*
X36104761Y-81261904D01*
X36295238Y-81261904D01*
X36371428Y-81300000D01*
X36409523Y-81338095D01*
X36447619Y-81414285D01*
X36447619Y-81490476D01*
X36409523Y-81604761D01*
X35952380Y-82061904D01*
X36447619Y-82061904D01*
X36942857Y-81261904D02*
X37019047Y-81261904D01*
X37095238Y-81300000D01*
X37133333Y-81338095D01*
X37171428Y-81414285D01*
X37209523Y-81566666D01*
X37209523Y-81757142D01*
X37171428Y-81909523D01*
X37133333Y-81985714D01*
X37095238Y-82023809D01*
X37019047Y-82061904D01*
X36942857Y-82061904D01*
X36866666Y-82023809D01*
X36828571Y-81985714D01*
X36790476Y-81909523D01*
X36752380Y-81757142D01*
X36752380Y-81566666D01*
X36790476Y-81414285D01*
X36828571Y-81338095D01*
X36866666Y-81300000D01*
X36942857Y-81261904D01*
X13195238Y-44636000D02*
X13995238Y-44636000D01*
X13385714Y-45661904D02*
X13385714Y-44861904D01*
X13576190Y-44861904D01*
X13690476Y-44900000D01*
X13766666Y-44976190D01*
X13804761Y-45052380D01*
X13842857Y-45204761D01*
X13842857Y-45319047D01*
X13804761Y-45471428D01*
X13766666Y-45547619D01*
X13690476Y-45623809D01*
X13576190Y-45661904D01*
X13385714Y-45661904D01*
X13995238Y-44636000D02*
X14604761Y-44636000D01*
X14071428Y-44861904D02*
X14528571Y-44861904D01*
X14300000Y-45661904D02*
X14300000Y-44861904D01*
X14604761Y-44636000D02*
X15404761Y-44636000D01*
X15252380Y-45661904D02*
X14985714Y-45280952D01*
X14795238Y-45661904D02*
X14795238Y-44861904D01*
X15100000Y-44861904D01*
X15176190Y-44900000D01*
X15214285Y-44938095D01*
X15252380Y-45014285D01*
X15252380Y-45128571D01*
X15214285Y-45204761D01*
X15176190Y-45242857D01*
X15100000Y-45280952D01*
X14795238Y-45280952D01*
X22666666Y-50561904D02*
X22400000Y-50180952D01*
X22209523Y-50561904D02*
X22209523Y-49761904D01*
X22514285Y-49761904D01*
X22590476Y-49800000D01*
X22628571Y-49838095D01*
X22666666Y-49914285D01*
X22666666Y-50028571D01*
X22628571Y-50104761D01*
X22590476Y-50142857D01*
X22514285Y-50180952D01*
X22209523Y-50180952D01*
X23428571Y-50561904D02*
X22971428Y-50561904D01*
X23200000Y-50561904D02*
X23200000Y-49761904D01*
X23123809Y-49876190D01*
X23047619Y-49952380D01*
X22971428Y-49990476D01*
X4604761Y-106333333D02*
X4985714Y-106333333D01*
X4528571Y-106561904D02*
X4795238Y-105761904D01*
X5061904Y-106561904D01*
X5328571Y-106561904D02*
X5328571Y-105761904D01*
X5785714Y-106561904D01*
X5785714Y-105761904D01*
X6052380Y-105761904D02*
X6509523Y-105761904D01*
X6280952Y-106561904D02*
X6280952Y-105761904D01*
X7195238Y-106561904D02*
X6738095Y-106561904D01*
X6966666Y-106561904D02*
X6966666Y-105761904D01*
X6890476Y-105876190D01*
X6814285Y-105952380D01*
X6738095Y-105990476D01*
X4866666Y-78685714D02*
X4828571Y-78723809D01*
X4714285Y-78761904D01*
X4638095Y-78761904D01*
X4523809Y-78723809D01*
X4447619Y-78647619D01*
X4409523Y-78571428D01*
X4371428Y-78419047D01*
X4371428Y-78304761D01*
X4409523Y-78152380D01*
X4447619Y-78076190D01*
X4523809Y-78000000D01*
X4638095Y-77961904D01*
X4714285Y-77961904D01*
X4828571Y-78000000D01*
X4866666Y-78038095D01*
X5628571Y-78761904D02*
X5171428Y-78761904D01*
X5400000Y-78761904D02*
X5400000Y-77961904D01*
X5323809Y-78076190D01*
X5247619Y-78152380D01*
X5171428Y-78190476D01*
X29752380Y-94342857D02*
X29485714Y-94342857D01*
X29485714Y-94761904D02*
X29485714Y-93961904D01*
X29866666Y-93961904D01*
X30133333Y-94533333D02*
X30514285Y-94533333D01*
X30057142Y-94761904D02*
X30323809Y-93961904D01*
X30590476Y-94761904D01*
X30857142Y-94761904D02*
X30857142Y-93961904D01*
X31314285Y-94761904D01*
X31314285Y-93961904D01*
X16438095Y-50511904D02*
X16171428Y-50130952D01*
X15980952Y-50511904D02*
X15980952Y-49711904D01*
X16285714Y-49711904D01*
X16361904Y-49750000D01*
X16400000Y-49788095D01*
X16438095Y-49864285D01*
X16438095Y-49978571D01*
X16400000Y-50054761D01*
X16361904Y-50092857D01*
X16285714Y-50130952D01*
X15980952Y-50130952D01*
X16780952Y-50092857D02*
X17047619Y-50092857D01*
X17161904Y-50511904D02*
X16780952Y-50511904D01*
X16780952Y-49711904D01*
X17161904Y-49711904D01*
X17466666Y-50473809D02*
X17580952Y-50511904D01*
X17771428Y-50511904D01*
X17847619Y-50473809D01*
X17885714Y-50435714D01*
X17923809Y-50359523D01*
X17923809Y-50283333D01*
X17885714Y-50207142D01*
X17847619Y-50169047D01*
X17771428Y-50130952D01*
X17619047Y-50092857D01*
X17542857Y-50054761D01*
X17504761Y-50016666D01*
X17466666Y-49940476D01*
X17466666Y-49864285D01*
X17504761Y-49788095D01*
X17542857Y-49750000D01*
X17619047Y-49711904D01*
X17809523Y-49711904D01*
X17923809Y-49750000D01*
X18266666Y-50092857D02*
X18533333Y-50092857D01*
X18647619Y-50511904D02*
X18266666Y-50511904D01*
X18266666Y-49711904D01*
X18647619Y-49711904D01*
X18876190Y-49711904D02*
X19333333Y-49711904D01*
X19104761Y-50511904D02*
X19104761Y-49711904D01*
X20861904Y-97733333D02*
X20480952Y-98000000D01*
X20861904Y-98190476D02*
X20061904Y-98190476D01*
X20061904Y-97885714D01*
X20100000Y-97809523D01*
X20138095Y-97771428D01*
X20214285Y-97733333D01*
X20328571Y-97733333D01*
X20404761Y-97771428D01*
X20442857Y-97809523D01*
X20480952Y-97885714D01*
X20480952Y-98190476D01*
X20328571Y-97047619D02*
X20861904Y-97047619D01*
X20023809Y-97238095D02*
X20595238Y-97428571D01*
X20595238Y-96933333D01*
X9566666Y-102785714D02*
X9528571Y-102823809D01*
X9414285Y-102861904D01*
X9338095Y-102861904D01*
X9223809Y-102823809D01*
X9147619Y-102747619D01*
X9109523Y-102671428D01*
X9071428Y-102519047D01*
X9071428Y-102404761D01*
X9109523Y-102252380D01*
X9147619Y-102176190D01*
X9223809Y-102100000D01*
X9338095Y-102061904D01*
X9414285Y-102061904D01*
X9528571Y-102100000D01*
X9566666Y-102138095D01*
X10290476Y-102061904D02*
X9909523Y-102061904D01*
X9871428Y-102442857D01*
X9909523Y-102404761D01*
X9985714Y-102366666D01*
X10176190Y-102366666D01*
X10252380Y-102404761D01*
X10290476Y-102442857D01*
X10328571Y-102519047D01*
X10328571Y-102709523D01*
X10290476Y-102785714D01*
X10252380Y-102823809D01*
X10176190Y-102861904D01*
X9985714Y-102861904D01*
X9909523Y-102823809D01*
X9871428Y-102785714D01*
X36561904Y-49390476D02*
X36561904Y-48895238D01*
X36866666Y-49161904D01*
X36866666Y-49047619D01*
X36904761Y-48971428D01*
X36942857Y-48933333D01*
X37019047Y-48895238D01*
X37209523Y-48895238D01*
X37285714Y-48933333D01*
X37323809Y-48971428D01*
X37361904Y-49047619D01*
X37361904Y-49276190D01*
X37323809Y-49352380D01*
X37285714Y-49390476D01*
X36561904Y-48666666D02*
X37361904Y-48400000D01*
X36561904Y-48133333D01*
X36561904Y-47942857D02*
X36561904Y-47447619D01*
X36866666Y-47714285D01*
X36866666Y-47600000D01*
X36904761Y-47523809D01*
X36942857Y-47485714D01*
X37019047Y-47447619D01*
X37209523Y-47447619D01*
X37285714Y-47485714D01*
X37323809Y-47523809D01*
X37361904Y-47600000D01*
X37361904Y-47828571D01*
X37323809Y-47904761D01*
X37285714Y-47942857D01*
X12566666Y-54585714D02*
X12528571Y-54623809D01*
X12414285Y-54661904D01*
X12338095Y-54661904D01*
X12223809Y-54623809D01*
X12147619Y-54547619D01*
X12109523Y-54471428D01*
X12071428Y-54319047D01*
X12071428Y-54204761D01*
X12109523Y-54052380D01*
X12147619Y-53976190D01*
X12223809Y-53900000D01*
X12338095Y-53861904D01*
X12414285Y-53861904D01*
X12528571Y-53900000D01*
X12566666Y-53938095D01*
X13252380Y-53861904D02*
X13100000Y-53861904D01*
X13023809Y-53900000D01*
X12985714Y-53938095D01*
X12909523Y-54052380D01*
X12871428Y-54204761D01*
X12871428Y-54509523D01*
X12909523Y-54585714D01*
X12947619Y-54623809D01*
X13023809Y-54661904D01*
X13176190Y-54661904D01*
X13252380Y-54623809D01*
X13290476Y-54585714D01*
X13328571Y-54509523D01*
X13328571Y-54319047D01*
X13290476Y-54242857D01*
X13252380Y-54204761D01*
X13176190Y-54166666D01*
X13023809Y-54166666D01*
X12947619Y-54204761D01*
X12909523Y-54242857D01*
X12871428Y-54319047D01*
X23585714Y-39461904D02*
X23319047Y-39080952D01*
X23128571Y-39461904D02*
X23128571Y-38661904D01*
X23433333Y-38661904D01*
X23509523Y-38700000D01*
X23547619Y-38738095D01*
X23585714Y-38814285D01*
X23585714Y-38928571D01*
X23547619Y-39004761D01*
X23509523Y-39042857D01*
X23433333Y-39080952D01*
X23128571Y-39080952D01*
X24347619Y-39461904D02*
X23890476Y-39461904D01*
X24119047Y-39461904D02*
X24119047Y-38661904D01*
X24042857Y-38776190D01*
X23966666Y-38852380D01*
X23890476Y-38890476D01*
X24614285Y-38661904D02*
X25109523Y-38661904D01*
X24842857Y-38966666D01*
X24957142Y-38966666D01*
X25033333Y-39004761D01*
X25071428Y-39042857D01*
X25109523Y-39119047D01*
X25109523Y-39309523D01*
X25071428Y-39385714D01*
X25033333Y-39423809D01*
X24957142Y-39461904D01*
X24728571Y-39461904D01*
X24652380Y-39423809D01*
X24614285Y-39385714D01*
X27666666Y-74761904D02*
X27400000Y-74380952D01*
X27209523Y-74761904D02*
X27209523Y-73961904D01*
X27514285Y-73961904D01*
X27590476Y-74000000D01*
X27628571Y-74038095D01*
X27666666Y-74114285D01*
X27666666Y-74228571D01*
X27628571Y-74304761D01*
X27590476Y-74342857D01*
X27514285Y-74380952D01*
X27209523Y-74380952D01*
X28352380Y-73961904D02*
X28200000Y-73961904D01*
X28123809Y-74000000D01*
X28085714Y-74038095D01*
X28009523Y-74152380D01*
X27971428Y-74304761D01*
X27971428Y-74609523D01*
X28009523Y-74685714D01*
X28047619Y-74723809D01*
X28123809Y-74761904D01*
X28276190Y-74761904D01*
X28352380Y-74723809D01*
X28390476Y-74685714D01*
X28428571Y-74609523D01*
X28428571Y-74419047D01*
X28390476Y-74342857D01*
X28352380Y-74304761D01*
X28276190Y-74266666D01*
X28123809Y-74266666D01*
X28047619Y-74304761D01*
X28009523Y-74342857D01*
X27971428Y-74419047D01*
X22604761Y-44561904D02*
X22223809Y-44561904D01*
X22223809Y-43761904D01*
X22871428Y-44142857D02*
X23138095Y-44142857D01*
X23252380Y-44561904D02*
X22871428Y-44561904D01*
X22871428Y-43761904D01*
X23252380Y-43761904D01*
X23595238Y-44561904D02*
X23595238Y-43761904D01*
X23785714Y-43761904D01*
X23900000Y-43800000D01*
X23976190Y-43876190D01*
X24014285Y-43952380D01*
X24052380Y-44104761D01*
X24052380Y-44219047D01*
X24014285Y-44371428D01*
X23976190Y-44447619D01*
X23900000Y-44523809D01*
X23785714Y-44561904D01*
X23595238Y-44561904D01*
X24814285Y-44561904D02*
X24357142Y-44561904D01*
X24585714Y-44561904D02*
X24585714Y-43761904D01*
X24509523Y-43876190D01*
X24433333Y-43952380D01*
X24357142Y-43990476D01*
X23961904Y-95633333D02*
X23580952Y-95900000D01*
X23961904Y-96090476D02*
X23161904Y-96090476D01*
X23161904Y-95785714D01*
X23200000Y-95709523D01*
X23238095Y-95671428D01*
X23314285Y-95633333D01*
X23428571Y-95633333D01*
X23504761Y-95671428D01*
X23542857Y-95709523D01*
X23580952Y-95785714D01*
X23580952Y-96090476D01*
X23238095Y-95328571D02*
X23200000Y-95290476D01*
X23161904Y-95214285D01*
X23161904Y-95023809D01*
X23200000Y-94947619D01*
X23238095Y-94909523D01*
X23314285Y-94871428D01*
X23390476Y-94871428D01*
X23504761Y-94909523D01*
X23961904Y-95366666D01*
X23961904Y-94871428D01*
X4335714Y-46061904D02*
X4069047Y-45680952D01*
X3878571Y-46061904D02*
X3878571Y-45261904D01*
X4183333Y-45261904D01*
X4259523Y-45300000D01*
X4297619Y-45338095D01*
X4335714Y-45414285D01*
X4335714Y-45528571D01*
X4297619Y-45604761D01*
X4259523Y-45642857D01*
X4183333Y-45680952D01*
X3878571Y-45680952D01*
X5097619Y-46061904D02*
X4640476Y-46061904D01*
X4869047Y-46061904D02*
X4869047Y-45261904D01*
X4792857Y-45376190D01*
X4716666Y-45452380D01*
X4640476Y-45490476D01*
X5402380Y-45338095D02*
X5440476Y-45300000D01*
X5516666Y-45261904D01*
X5707142Y-45261904D01*
X5783333Y-45300000D01*
X5821428Y-45338095D01*
X5859523Y-45414285D01*
X5859523Y-45490476D01*
X5821428Y-45604761D01*
X5364285Y-46061904D01*
X5859523Y-46061904D01*
X4785714Y-47283333D02*
X4823809Y-47321428D01*
X4861904Y-47435714D01*
X4861904Y-47511904D01*
X4823809Y-47626190D01*
X4747619Y-47702380D01*
X4671428Y-47740476D01*
X4519047Y-47778571D01*
X4404761Y-47778571D01*
X4252380Y-47740476D01*
X4176190Y-47702380D01*
X4100000Y-47626190D01*
X4061904Y-47511904D01*
X4061904Y-47435714D01*
X4100000Y-47321428D01*
X4138095Y-47283333D01*
X4404761Y-46826190D02*
X4366666Y-46902380D01*
X4328571Y-46940476D01*
X4252380Y-46978571D01*
X4214285Y-46978571D01*
X4138095Y-46940476D01*
X4100000Y-46902380D01*
X4061904Y-46826190D01*
X4061904Y-46673809D01*
X4100000Y-46597619D01*
X4138095Y-46559523D01*
X4214285Y-46521428D01*
X4252380Y-46521428D01*
X4328571Y-46559523D01*
X4366666Y-46597619D01*
X4404761Y-46673809D01*
X4404761Y-46826190D01*
X4442857Y-46902380D01*
X4480952Y-46940476D01*
X4557142Y-46978571D01*
X4709523Y-46978571D01*
X4785714Y-46940476D01*
X4823809Y-46902380D01*
X4861904Y-46826190D01*
X4861904Y-46673809D01*
X4823809Y-46597619D01*
X4785714Y-46559523D01*
X4709523Y-46521428D01*
X4557142Y-46521428D01*
X4480952Y-46559523D01*
X4442857Y-46597619D01*
X4404761Y-46673809D01*
X21042857Y-53785714D02*
X21080952Y-53671428D01*
X21119047Y-53633333D01*
X21195238Y-53595238D01*
X21309523Y-53595238D01*
X21385714Y-53633333D01*
X21423809Y-53671428D01*
X21461904Y-53747619D01*
X21461904Y-54052380D01*
X20661904Y-54052380D01*
X20661904Y-53785714D01*
X20700000Y-53709523D01*
X20738095Y-53671428D01*
X20814285Y-53633333D01*
X20890476Y-53633333D01*
X20966666Y-53671428D01*
X21004761Y-53709523D01*
X21042857Y-53785714D01*
X21042857Y-54052380D01*
X20661904Y-53100000D02*
X20661904Y-52947619D01*
X20700000Y-52871428D01*
X20776190Y-52795238D01*
X20928571Y-52757142D01*
X21195238Y-52757142D01*
X21347619Y-52795238D01*
X21423809Y-52871428D01*
X21461904Y-52947619D01*
X21461904Y-53100000D01*
X21423809Y-53176190D01*
X21347619Y-53252380D01*
X21195238Y-53290476D01*
X20928571Y-53290476D01*
X20776190Y-53252380D01*
X20700000Y-53176190D01*
X20661904Y-53100000D01*
X20661904Y-52261904D02*
X20661904Y-52109523D01*
X20700000Y-52033333D01*
X20776190Y-51957142D01*
X20928571Y-51919047D01*
X21195238Y-51919047D01*
X21347619Y-51957142D01*
X21423809Y-52033333D01*
X21461904Y-52109523D01*
X21461904Y-52261904D01*
X21423809Y-52338095D01*
X21347619Y-52414285D01*
X21195238Y-52452380D01*
X20928571Y-52452380D01*
X20776190Y-52414285D01*
X20700000Y-52338095D01*
X20661904Y-52261904D01*
X20661904Y-51690476D02*
X20661904Y-51233333D01*
X21461904Y-51461904D02*
X20661904Y-51461904D01*
X26997619Y-38561904D02*
X26616666Y-38561904D01*
X26578571Y-38942857D01*
X26616666Y-38904761D01*
X26692857Y-38866666D01*
X26883333Y-38866666D01*
X26959523Y-38904761D01*
X26997619Y-38942857D01*
X27035714Y-39019047D01*
X27035714Y-39209523D01*
X26997619Y-39285714D01*
X26959523Y-39323809D01*
X26883333Y-39361904D01*
X26692857Y-39361904D01*
X26616666Y-39323809D01*
X26578571Y-39285714D01*
X27264285Y-38561904D02*
X27530952Y-39361904D01*
X27797619Y-38561904D01*
X36366666Y-40061904D02*
X35985714Y-40061904D01*
X35985714Y-39261904D01*
X37052380Y-40061904D02*
X36595238Y-40061904D01*
X36823809Y-40061904D02*
X36823809Y-39261904D01*
X36747619Y-39376190D01*
X36671428Y-39452380D01*
X36595238Y-39490476D01*
X5785714Y-101333333D02*
X6166666Y-101333333D01*
X5709523Y-101561904D02*
X5976190Y-100761904D01*
X6242857Y-101561904D01*
X6509523Y-101561904D02*
X6509523Y-100761904D01*
X6966666Y-101561904D01*
X6966666Y-100761904D01*
X7233333Y-100761904D02*
X7690476Y-100761904D01*
X7461904Y-101561904D02*
X7461904Y-100761904D01*
X5085714Y-51633333D02*
X5123809Y-51671428D01*
X5161904Y-51785714D01*
X5161904Y-51861904D01*
X5123809Y-51976190D01*
X5047619Y-52052380D01*
X4971428Y-52090476D01*
X4819047Y-52128571D01*
X4704761Y-52128571D01*
X4552380Y-52090476D01*
X4476190Y-52052380D01*
X4400000Y-51976190D01*
X4361904Y-51861904D01*
X4361904Y-51785714D01*
X4400000Y-51671428D01*
X4438095Y-51633333D01*
X4361904Y-51366666D02*
X4361904Y-50833333D01*
X5161904Y-51176190D01*
X27890476Y-101561904D02*
X27890476Y-102209523D01*
X27928571Y-102285714D01*
X27966666Y-102323809D01*
X28042857Y-102361904D01*
X28195238Y-102361904D01*
X28271428Y-102323809D01*
X28309523Y-102285714D01*
X28347619Y-102209523D01*
X28347619Y-101561904D01*
X29147619Y-102361904D02*
X28690476Y-102361904D01*
X28919047Y-102361904D02*
X28919047Y-101561904D01*
X28842857Y-101676190D01*
X28766666Y-101752380D01*
X28690476Y-101790476D01*
X11085714Y-47661904D02*
X10819047Y-47280952D01*
X10628571Y-47661904D02*
X10628571Y-46861904D01*
X10933333Y-46861904D01*
X11009523Y-46900000D01*
X11047619Y-46938095D01*
X11085714Y-47014285D01*
X11085714Y-47128571D01*
X11047619Y-47204761D01*
X11009523Y-47242857D01*
X10933333Y-47280952D01*
X10628571Y-47280952D01*
X11390476Y-46938095D02*
X11428571Y-46900000D01*
X11504761Y-46861904D01*
X11695238Y-46861904D01*
X11771428Y-46900000D01*
X11809523Y-46938095D01*
X11847619Y-47014285D01*
X11847619Y-47090476D01*
X11809523Y-47204761D01*
X11352380Y-47661904D01*
X11847619Y-47661904D01*
X12152380Y-46938095D02*
X12190476Y-46900000D01*
X12266666Y-46861904D01*
X12457142Y-46861904D01*
X12533333Y-46900000D01*
X12571428Y-46938095D01*
X12609523Y-47014285D01*
X12609523Y-47090476D01*
X12571428Y-47204761D01*
X12114285Y-47661904D01*
X12609523Y-47661904D01*
X22185714Y-51761904D02*
X21919047Y-51380952D01*
X21728571Y-51761904D02*
X21728571Y-50961904D01*
X22033333Y-50961904D01*
X22109523Y-51000000D01*
X22147619Y-51038095D01*
X22185714Y-51114285D01*
X22185714Y-51228571D01*
X22147619Y-51304761D01*
X22109523Y-51342857D01*
X22033333Y-51380952D01*
X21728571Y-51380952D01*
X22947619Y-51761904D02*
X22490476Y-51761904D01*
X22719047Y-51761904D02*
X22719047Y-50961904D01*
X22642857Y-51076190D01*
X22566666Y-51152380D01*
X22490476Y-51190476D01*
X23214285Y-50961904D02*
X23747619Y-50961904D01*
X23404761Y-51761904D01*
X27666666Y-73261904D02*
X27400000Y-72880952D01*
X27209523Y-73261904D02*
X27209523Y-72461904D01*
X27514285Y-72461904D01*
X27590476Y-72500000D01*
X27628571Y-72538095D01*
X27666666Y-72614285D01*
X27666666Y-72728571D01*
X27628571Y-72804761D01*
X27590476Y-72842857D01*
X27514285Y-72880952D01*
X27209523Y-72880952D01*
X28123809Y-72804761D02*
X28047619Y-72766666D01*
X28009523Y-72728571D01*
X27971428Y-72652380D01*
X27971428Y-72614285D01*
X28009523Y-72538095D01*
X28047619Y-72500000D01*
X28123809Y-72461904D01*
X28276190Y-72461904D01*
X28352380Y-72500000D01*
X28390476Y-72538095D01*
X28428571Y-72614285D01*
X28428571Y-72652380D01*
X28390476Y-72728571D01*
X28352380Y-72766666D01*
X28276190Y-72804761D01*
X28123809Y-72804761D01*
X28047619Y-72842857D01*
X28009523Y-72880952D01*
X27971428Y-72957142D01*
X27971428Y-73109523D01*
X28009523Y-73185714D01*
X28047619Y-73223809D01*
X28123809Y-73261904D01*
X28276190Y-73261904D01*
X28352380Y-73223809D01*
X28390476Y-73185714D01*
X28428571Y-73109523D01*
X28428571Y-72957142D01*
X28390476Y-72880952D01*
X28352380Y-72842857D01*
X28276190Y-72804761D01*
X17661904Y-41609523D02*
X17661904Y-41152380D01*
X18461904Y-41380952D02*
X17661904Y-41380952D01*
X17661904Y-40961904D02*
X17661904Y-40466666D01*
X17966666Y-40733333D01*
X17966666Y-40619047D01*
X18004761Y-40542857D01*
X18042857Y-40504761D01*
X18119047Y-40466666D01*
X18309523Y-40466666D01*
X18385714Y-40504761D01*
X18423809Y-40542857D01*
X18461904Y-40619047D01*
X18461904Y-40847619D01*
X18423809Y-40923809D01*
X18385714Y-40961904D01*
X34466666Y-39585714D02*
X34428571Y-39623809D01*
X34314285Y-39661904D01*
X34238095Y-39661904D01*
X34123809Y-39623809D01*
X34047619Y-39547619D01*
X34009523Y-39471428D01*
X33971428Y-39319047D01*
X33971428Y-39204761D01*
X34009523Y-39052380D01*
X34047619Y-38976190D01*
X34123809Y-38900000D01*
X34238095Y-38861904D01*
X34314285Y-38861904D01*
X34428571Y-38900000D01*
X34466666Y-38938095D01*
X34733333Y-38861904D02*
X35228571Y-38861904D01*
X34961904Y-39166666D01*
X35076190Y-39166666D01*
X35152380Y-39204761D01*
X35190476Y-39242857D01*
X35228571Y-39319047D01*
X35228571Y-39509523D01*
X35190476Y-39585714D01*
X35152380Y-39623809D01*
X35076190Y-39661904D01*
X34847619Y-39661904D01*
X34771428Y-39623809D01*
X34733333Y-39585714D01*
X31219047Y-44561904D02*
X31219047Y-43761904D01*
X32057142Y-44485714D02*
X32019047Y-44523809D01*
X31904761Y-44561904D01*
X31828571Y-44561904D01*
X31714285Y-44523809D01*
X31638095Y-44447619D01*
X31600000Y-44371428D01*
X31561904Y-44219047D01*
X31561904Y-44104761D01*
X31600000Y-43952380D01*
X31638095Y-43876190D01*
X31714285Y-43800000D01*
X31828571Y-43761904D01*
X31904761Y-43761904D01*
X32019047Y-43800000D01*
X32057142Y-43838095D01*
X32323809Y-43761904D02*
X32819047Y-43761904D01*
X32552380Y-44066666D01*
X32666666Y-44066666D01*
X32742857Y-44104761D01*
X32780952Y-44142857D01*
X32819047Y-44219047D01*
X32819047Y-44409523D01*
X32780952Y-44485714D01*
X32742857Y-44523809D01*
X32666666Y-44561904D01*
X32438095Y-44561904D01*
X32361904Y-44523809D01*
X32323809Y-44485714D01*
X30285714Y-76285714D02*
X30247619Y-76323809D01*
X30133333Y-76361904D01*
X30057142Y-76361904D01*
X29942857Y-76323809D01*
X29866666Y-76247619D01*
X29828571Y-76171428D01*
X29790476Y-76019047D01*
X29790476Y-75904761D01*
X29828571Y-75752380D01*
X29866666Y-75676190D01*
X29942857Y-75600000D01*
X30057142Y-75561904D01*
X30133333Y-75561904D01*
X30247619Y-75600000D01*
X30285714Y-75638095D01*
X31047619Y-76361904D02*
X30590476Y-76361904D01*
X30819047Y-76361904D02*
X30819047Y-75561904D01*
X30742857Y-75676190D01*
X30666666Y-75752380D01*
X30590476Y-75790476D01*
X31314285Y-75561904D02*
X31809523Y-75561904D01*
X31542857Y-75866666D01*
X31657142Y-75866666D01*
X31733333Y-75904761D01*
X31771428Y-75942857D01*
X31809523Y-76019047D01*
X31809523Y-76209523D01*
X31771428Y-76285714D01*
X31733333Y-76323809D01*
X31657142Y-76361904D01*
X31428571Y-76361904D01*
X31352380Y-76323809D01*
X31314285Y-76285714D01*
X35685714Y-77861904D02*
X35419047Y-77480952D01*
X35228571Y-77861904D02*
X35228571Y-77061904D01*
X35533333Y-77061904D01*
X35609523Y-77100000D01*
X35647619Y-77138095D01*
X35685714Y-77214285D01*
X35685714Y-77328571D01*
X35647619Y-77404761D01*
X35609523Y-77442857D01*
X35533333Y-77480952D01*
X35228571Y-77480952D01*
X35990476Y-77138095D02*
X36028571Y-77100000D01*
X36104761Y-77061904D01*
X36295238Y-77061904D01*
X36371428Y-77100000D01*
X36409523Y-77138095D01*
X36447619Y-77214285D01*
X36447619Y-77290476D01*
X36409523Y-77404761D01*
X35952380Y-77861904D01*
X36447619Y-77861904D01*
X37209523Y-77861904D02*
X36752380Y-77861904D01*
X36980952Y-77861904D02*
X36980952Y-77061904D01*
X36904761Y-77176190D01*
X36828571Y-77252380D01*
X36752380Y-77290476D01*
X27666666Y-71661904D02*
X27400000Y-71280952D01*
X27209523Y-71661904D02*
X27209523Y-70861904D01*
X27514285Y-70861904D01*
X27590476Y-70900000D01*
X27628571Y-70938095D01*
X27666666Y-71014285D01*
X27666666Y-71128571D01*
X27628571Y-71204761D01*
X27590476Y-71242857D01*
X27514285Y-71280952D01*
X27209523Y-71280952D01*
X28047619Y-71661904D02*
X28200000Y-71661904D01*
X28276190Y-71623809D01*
X28314285Y-71585714D01*
X28390476Y-71471428D01*
X28428571Y-71319047D01*
X28428571Y-71014285D01*
X28390476Y-70938095D01*
X28352380Y-70900000D01*
X28276190Y-70861904D01*
X28123809Y-70861904D01*
X28047619Y-70900000D01*
X28009523Y-70938095D01*
X27971428Y-71014285D01*
X27971428Y-71204761D01*
X28009523Y-71280952D01*
X28047619Y-71319047D01*
X28123809Y-71357142D01*
X28276190Y-71357142D01*
X28352380Y-71319047D01*
X28390476Y-71280952D01*
X28428571Y-71204761D01*
X20761904Y-84680952D02*
X19961904Y-84680952D01*
X20685714Y-83842857D02*
X20723809Y-83880952D01*
X20761904Y-83995238D01*
X20761904Y-84071428D01*
X20723809Y-84185714D01*
X20647619Y-84261904D01*
X20571428Y-84300000D01*
X20419047Y-84338095D01*
X20304761Y-84338095D01*
X20152380Y-84300000D01*
X20076190Y-84261904D01*
X20000000Y-84185714D01*
X19961904Y-84071428D01*
X19961904Y-83995238D01*
X20000000Y-83880952D01*
X20038095Y-83842857D01*
X19961904Y-83157142D02*
X19961904Y-83309523D01*
X20000000Y-83385714D01*
X20038095Y-83423809D01*
X20152380Y-83500000D01*
X20304761Y-83538095D01*
X20609523Y-83538095D01*
X20685714Y-83500000D01*
X20723809Y-83461904D01*
X20761904Y-83385714D01*
X20761904Y-83233333D01*
X20723809Y-83157142D01*
X20685714Y-83119047D01*
X20609523Y-83080952D01*
X20419047Y-83080952D01*
X20342857Y-83119047D01*
X20304761Y-83157142D01*
X20266666Y-83233333D01*
X20266666Y-83385714D01*
X20304761Y-83461904D01*
X20342857Y-83500000D01*
X20419047Y-83538095D01*
X27685714Y-70061904D02*
X27419047Y-69680952D01*
X27228571Y-70061904D02*
X27228571Y-69261904D01*
X27533333Y-69261904D01*
X27609523Y-69300000D01*
X27647619Y-69338095D01*
X27685714Y-69414285D01*
X27685714Y-69528571D01*
X27647619Y-69604761D01*
X27609523Y-69642857D01*
X27533333Y-69680952D01*
X27228571Y-69680952D01*
X28447619Y-70061904D02*
X27990476Y-70061904D01*
X28219047Y-70061904D02*
X28219047Y-69261904D01*
X28142857Y-69376190D01*
X28066666Y-69452380D01*
X27990476Y-69490476D01*
X28828571Y-70061904D02*
X28980952Y-70061904D01*
X29057142Y-70023809D01*
X29095238Y-69985714D01*
X29171428Y-69871428D01*
X29209523Y-69719047D01*
X29209523Y-69414285D01*
X29171428Y-69338095D01*
X29133333Y-69300000D01*
X29057142Y-69261904D01*
X28904761Y-69261904D01*
X28828571Y-69300000D01*
X28790476Y-69338095D01*
X28752380Y-69414285D01*
X28752380Y-69604761D01*
X28790476Y-69680952D01*
X28828571Y-69719047D01*
X28904761Y-69757142D01*
X29057142Y-69757142D01*
X29133333Y-69719047D01*
X29171428Y-69680952D01*
X29209523Y-69604761D01*
X20861904Y-94833333D02*
X20480952Y-95100000D01*
X20861904Y-95290476D02*
X20061904Y-95290476D01*
X20061904Y-94985714D01*
X20100000Y-94909523D01*
X20138095Y-94871428D01*
X20214285Y-94833333D01*
X20328571Y-94833333D01*
X20404761Y-94871428D01*
X20442857Y-94909523D01*
X20480952Y-94985714D01*
X20480952Y-95290476D01*
X20061904Y-94109523D02*
X20061904Y-94490476D01*
X20442857Y-94528571D01*
X20404761Y-94490476D01*
X20366666Y-94414285D01*
X20366666Y-94223809D01*
X20404761Y-94147619D01*
X20442857Y-94109523D01*
X20519047Y-94071428D01*
X20709523Y-94071428D01*
X20785714Y-94109523D01*
X20823809Y-94147619D01*
X20861904Y-94223809D01*
X20861904Y-94414285D01*
X20823809Y-94490476D01*
X20785714Y-94528571D01*
X16228571Y-53961904D02*
X16228571Y-54609523D01*
X16266666Y-54685714D01*
X16304761Y-54723809D01*
X16380952Y-54761904D01*
X16533333Y-54761904D01*
X16609523Y-54723809D01*
X16647619Y-54685714D01*
X16685714Y-54609523D01*
X16685714Y-53961904D01*
X17028571Y-54723809D02*
X17142857Y-54761904D01*
X17333333Y-54761904D01*
X17409523Y-54723809D01*
X17447619Y-54685714D01*
X17485714Y-54609523D01*
X17485714Y-54533333D01*
X17447619Y-54457142D01*
X17409523Y-54419047D01*
X17333333Y-54380952D01*
X17180952Y-54342857D01*
X17104761Y-54304761D01*
X17066666Y-54266666D01*
X17028571Y-54190476D01*
X17028571Y-54114285D01*
X17066666Y-54038095D01*
X17104761Y-54000000D01*
X17180952Y-53961904D01*
X17371428Y-53961904D01*
X17485714Y-54000000D01*
X17828571Y-54342857D02*
X18095238Y-54342857D01*
X18209523Y-54761904D02*
X17828571Y-54761904D01*
X17828571Y-53961904D01*
X18209523Y-53961904D01*
X19009523Y-54761904D02*
X18742857Y-54380952D01*
X18552380Y-54761904D02*
X18552380Y-53961904D01*
X18857142Y-53961904D01*
X18933333Y-54000000D01*
X18971428Y-54038095D01*
X19009523Y-54114285D01*
X19009523Y-54228571D01*
X18971428Y-54304761D01*
X18933333Y-54342857D01*
X18857142Y-54380952D01*
X18552380Y-54380952D01*
X16135714Y-44461904D02*
X15869047Y-44080952D01*
X15678571Y-44461904D02*
X15678571Y-43661904D01*
X15983333Y-43661904D01*
X16059523Y-43700000D01*
X16097619Y-43738095D01*
X16135714Y-43814285D01*
X16135714Y-43928571D01*
X16097619Y-44004761D01*
X16059523Y-44042857D01*
X15983333Y-44080952D01*
X15678571Y-44080952D01*
X16897619Y-44461904D02*
X16440476Y-44461904D01*
X16669047Y-44461904D02*
X16669047Y-43661904D01*
X16592857Y-43776190D01*
X16516666Y-43852380D01*
X16440476Y-43890476D01*
X17583333Y-43661904D02*
X17430952Y-43661904D01*
X17354761Y-43700000D01*
X17316666Y-43738095D01*
X17240476Y-43852380D01*
X17202380Y-44004761D01*
X17202380Y-44309523D01*
X17240476Y-44385714D01*
X17278571Y-44423809D01*
X17354761Y-44461904D01*
X17507142Y-44461904D01*
X17583333Y-44423809D01*
X17621428Y-44385714D01*
X17659523Y-44309523D01*
X17659523Y-44119047D01*
X17621428Y-44042857D01*
X17583333Y-44004761D01*
X17507142Y-43966666D01*
X17354761Y-43966666D01*
X17278571Y-44004761D01*
X17240476Y-44042857D01*
X17202380Y-44119047D01*
X25185714Y-102285714D02*
X25147619Y-102323809D01*
X25033333Y-102361904D01*
X24957142Y-102361904D01*
X24842857Y-102323809D01*
X24766666Y-102247619D01*
X24728571Y-102171428D01*
X24690476Y-102019047D01*
X24690476Y-101904761D01*
X24728571Y-101752380D01*
X24766666Y-101676190D01*
X24842857Y-101600000D01*
X24957142Y-101561904D01*
X25033333Y-101561904D01*
X25147619Y-101600000D01*
X25185714Y-101638095D01*
X25947619Y-102361904D02*
X25490476Y-102361904D01*
X25719047Y-102361904D02*
X25719047Y-101561904D01*
X25642857Y-101676190D01*
X25566666Y-101752380D01*
X25490476Y-101790476D01*
X26633333Y-101828571D02*
X26633333Y-102361904D01*
X26442857Y-101523809D02*
X26252380Y-102095238D01*
X26747619Y-102095238D01*
X5666666Y-55161904D02*
X5400000Y-54780952D01*
X5209523Y-55161904D02*
X5209523Y-54361904D01*
X5514285Y-54361904D01*
X5590476Y-54400000D01*
X5628571Y-54438095D01*
X5666666Y-54514285D01*
X5666666Y-54628571D01*
X5628571Y-54704761D01*
X5590476Y-54742857D01*
X5514285Y-54780952D01*
X5209523Y-54780952D01*
X5933333Y-54361904D02*
X6466666Y-55161904D01*
X6466666Y-54361904D02*
X5933333Y-55161904D01*
X6771428Y-55161904D02*
X6771428Y-54361904D01*
X6961904Y-54361904D01*
X7076190Y-54400000D01*
X7152380Y-54476190D01*
X7190476Y-54552380D01*
X7228571Y-54704761D01*
X7228571Y-54819047D01*
X7190476Y-54971428D01*
X7152380Y-55047619D01*
X7076190Y-55123809D01*
X6961904Y-55161904D01*
X6771428Y-55161904D01*
X21161904Y-41609523D02*
X21161904Y-41152380D01*
X21961904Y-41380952D02*
X21161904Y-41380952D01*
X21238095Y-40923809D02*
X21200000Y-40885714D01*
X21161904Y-40809523D01*
X21161904Y-40619047D01*
X21200000Y-40542857D01*
X21238095Y-40504761D01*
X21314285Y-40466666D01*
X21390476Y-40466666D01*
X21504761Y-40504761D01*
X21961904Y-40961904D01*
X21961904Y-40466666D01*
X12790476Y-51661904D02*
X13247619Y-51661904D01*
X13019047Y-52461904D02*
X13019047Y-51661904D01*
X13438095Y-51661904D02*
X13971428Y-52461904D01*
X13971428Y-51661904D02*
X13438095Y-52461904D01*
X14276190Y-52461904D02*
X14276190Y-51661904D01*
X14466666Y-51661904D01*
X14580952Y-51700000D01*
X14657142Y-51776190D01*
X14695238Y-51852380D01*
X14733333Y-52004761D01*
X14733333Y-52119047D01*
X14695238Y-52271428D01*
X14657142Y-52347619D01*
X14580952Y-52423809D01*
X14466666Y-52461904D01*
X14276190Y-52461904D01*
X22385714Y-53561904D02*
X22119047Y-53180952D01*
X21928571Y-53561904D02*
X21928571Y-52761904D01*
X22233333Y-52761904D01*
X22309523Y-52800000D01*
X22347619Y-52838095D01*
X22385714Y-52914285D01*
X22385714Y-53028571D01*
X22347619Y-53104761D01*
X22309523Y-53142857D01*
X22233333Y-53180952D01*
X21928571Y-53180952D01*
X23147619Y-53561904D02*
X22690476Y-53561904D01*
X22919047Y-53561904D02*
X22919047Y-52761904D01*
X22842857Y-52876190D01*
X22766666Y-52952380D01*
X22690476Y-52990476D01*
X23604761Y-53104761D02*
X23528571Y-53066666D01*
X23490476Y-53028571D01*
X23452380Y-52952380D01*
X23452380Y-52914285D01*
X23490476Y-52838095D01*
X23528571Y-52800000D01*
X23604761Y-52761904D01*
X23757142Y-52761904D01*
X23833333Y-52800000D01*
X23871428Y-52838095D01*
X23909523Y-52914285D01*
X23909523Y-52952380D01*
X23871428Y-53028571D01*
X23833333Y-53066666D01*
X23757142Y-53104761D01*
X23604761Y-53104761D01*
X23528571Y-53142857D01*
X23490476Y-53180952D01*
X23452380Y-53257142D01*
X23452380Y-53409523D01*
X23490476Y-53485714D01*
X23528571Y-53523809D01*
X23604761Y-53561904D01*
X23757142Y-53561904D01*
X23833333Y-53523809D01*
X23871428Y-53485714D01*
X23909523Y-53409523D01*
X23909523Y-53257142D01*
X23871428Y-53180952D01*
X23833333Y-53142857D01*
X23757142Y-53104761D01*
X8840476Y-47361904D02*
X8840476Y-48009523D01*
X8878571Y-48085714D01*
X8916666Y-48123809D01*
X8992857Y-48161904D01*
X9145238Y-48161904D01*
X9221428Y-48123809D01*
X9259523Y-48085714D01*
X9297619Y-48009523D01*
X9297619Y-47361904D01*
X9640476Y-47438095D02*
X9678571Y-47400000D01*
X9754761Y-47361904D01*
X9945238Y-47361904D01*
X10021428Y-47400000D01*
X10059523Y-47438095D01*
X10097619Y-47514285D01*
X10097619Y-47590476D01*
X10059523Y-47704761D01*
X9602380Y-48161904D01*
X10097619Y-48161904D01*
X6814285Y-78836000D02*
X7614285Y-78836000D01*
X7461904Y-79861904D02*
X7195238Y-79480952D01*
X7004761Y-79861904D02*
X7004761Y-79061904D01*
X7309523Y-79061904D01*
X7385714Y-79100000D01*
X7423809Y-79138095D01*
X7461904Y-79214285D01*
X7461904Y-79328571D01*
X7423809Y-79404761D01*
X7385714Y-79442857D01*
X7309523Y-79480952D01*
X7004761Y-79480952D01*
X7614285Y-78836000D02*
X8376190Y-78836000D01*
X7766666Y-79823809D02*
X7880952Y-79861904D01*
X8071428Y-79861904D01*
X8147619Y-79823809D01*
X8185714Y-79785714D01*
X8223809Y-79709523D01*
X8223809Y-79633333D01*
X8185714Y-79557142D01*
X8147619Y-79519047D01*
X8071428Y-79480952D01*
X7919047Y-79442857D01*
X7842857Y-79404761D01*
X7804761Y-79366666D01*
X7766666Y-79290476D01*
X7766666Y-79214285D01*
X7804761Y-79138095D01*
X7842857Y-79100000D01*
X7919047Y-79061904D01*
X8109523Y-79061904D01*
X8223809Y-79100000D01*
X8376190Y-78836000D02*
X8985714Y-78836000D01*
X8452380Y-79061904D02*
X8909523Y-79061904D01*
X8680952Y-79861904D02*
X8680952Y-79061904D01*
X32985714Y-77861904D02*
X32719047Y-77480952D01*
X32528571Y-77861904D02*
X32528571Y-77061904D01*
X32833333Y-77061904D01*
X32909523Y-77100000D01*
X32947619Y-77138095D01*
X32985714Y-77214285D01*
X32985714Y-77328571D01*
X32947619Y-77404761D01*
X32909523Y-77442857D01*
X32833333Y-77480952D01*
X32528571Y-77480952D01*
X33747619Y-77861904D02*
X33290476Y-77861904D01*
X33519047Y-77861904D02*
X33519047Y-77061904D01*
X33442857Y-77176190D01*
X33366666Y-77252380D01*
X33290476Y-77290476D01*
X34242857Y-77061904D02*
X34319047Y-77061904D01*
X34395238Y-77100000D01*
X34433333Y-77138095D01*
X34471428Y-77214285D01*
X34509523Y-77366666D01*
X34509523Y-77557142D01*
X34471428Y-77709523D01*
X34433333Y-77785714D01*
X34395238Y-77823809D01*
X34319047Y-77861904D01*
X34242857Y-77861904D01*
X34166666Y-77823809D01*
X34128571Y-77785714D01*
X34090476Y-77709523D01*
X34052380Y-77557142D01*
X34052380Y-77366666D01*
X34090476Y-77214285D01*
X34128571Y-77138095D01*
X34166666Y-77100000D01*
X34242857Y-77061904D01*
X12414285Y-49336000D02*
X13214285Y-49336000D01*
X13061904Y-50361904D02*
X12795238Y-49980952D01*
X12604761Y-50361904D02*
X12604761Y-49561904D01*
X12909523Y-49561904D01*
X12985714Y-49600000D01*
X13023809Y-49638095D01*
X13061904Y-49714285D01*
X13061904Y-49828571D01*
X13023809Y-49904761D01*
X12985714Y-49942857D01*
X12909523Y-49980952D01*
X12604761Y-49980952D01*
X13214285Y-49336000D02*
X13823809Y-49336000D01*
X13290476Y-49561904D02*
X13747619Y-49561904D01*
X13519047Y-50361904D02*
X13519047Y-49561904D01*
X13823809Y-49336000D02*
X14585714Y-49336000D01*
X13976190Y-50323809D02*
X14090476Y-50361904D01*
X14280952Y-50361904D01*
X14357142Y-50323809D01*
X14395238Y-50285714D01*
X14433333Y-50209523D01*
X14433333Y-50133333D01*
X14395238Y-50057142D01*
X14357142Y-50019047D01*
X14280952Y-49980952D01*
X14128571Y-49942857D01*
X14052380Y-49904761D01*
X14014285Y-49866666D01*
X13976190Y-49790476D01*
X13976190Y-49714285D01*
X14014285Y-49638095D01*
X14052380Y-49600000D01*
X14128571Y-49561904D01*
X14319047Y-49561904D01*
X14433333Y-49600000D01*
X20861904Y-100533333D02*
X20480952Y-100800000D01*
X20861904Y-100990476D02*
X20061904Y-100990476D01*
X20061904Y-100685714D01*
X20100000Y-100609523D01*
X20138095Y-100571428D01*
X20214285Y-100533333D01*
X20328571Y-100533333D01*
X20404761Y-100571428D01*
X20442857Y-100609523D01*
X20480952Y-100685714D01*
X20480952Y-100990476D01*
X20061904Y-100266666D02*
X20061904Y-99771428D01*
X20366666Y-100038095D01*
X20366666Y-99923809D01*
X20404761Y-99847619D01*
X20442857Y-99809523D01*
X20519047Y-99771428D01*
X20709523Y-99771428D01*
X20785714Y-99809523D01*
X20823809Y-99847619D01*
X20861904Y-99923809D01*
X20861904Y-100152380D01*
X20823809Y-100228571D01*
X20785714Y-100266666D01*
X37185714Y-44833333D02*
X37223809Y-44871428D01*
X37261904Y-44985714D01*
X37261904Y-45061904D01*
X37223809Y-45176190D01*
X37147619Y-45252380D01*
X37071428Y-45290476D01*
X36919047Y-45328571D01*
X36804761Y-45328571D01*
X36652380Y-45290476D01*
X36576190Y-45252380D01*
X36500000Y-45176190D01*
X36461904Y-45061904D01*
X36461904Y-44985714D01*
X36500000Y-44871428D01*
X36538095Y-44833333D01*
X36728571Y-44147619D02*
X37261904Y-44147619D01*
X36423809Y-44338095D02*
X36995238Y-44528571D01*
X36995238Y-44033333D01*
X16309523Y-107261904D02*
X16309523Y-106461904D01*
X16614285Y-106461904D01*
X16690476Y-106500000D01*
X16728571Y-106538095D01*
X16766666Y-106614285D01*
X16766666Y-106728571D01*
X16728571Y-106804761D01*
X16690476Y-106842857D01*
X16614285Y-106880952D01*
X16309523Y-106880952D01*
X17528571Y-107261904D02*
X17071428Y-107261904D01*
X17300000Y-107261904D02*
X17300000Y-106461904D01*
X17223809Y-106576190D01*
X17147619Y-106652380D01*
X17071428Y-106690476D01*
X8909523Y-46101904D02*
X8909523Y-45301904D01*
X9214285Y-45301904D01*
X9290476Y-45340000D01*
X9328571Y-45378095D01*
X9366666Y-45454285D01*
X9366666Y-45568571D01*
X9328571Y-45644761D01*
X9290476Y-45682857D01*
X9214285Y-45720952D01*
X8909523Y-45720952D01*
X10052380Y-45301904D02*
X9900000Y-45301904D01*
X9823809Y-45340000D01*
X9785714Y-45378095D01*
X9709523Y-45492380D01*
X9671428Y-45644761D01*
X9671428Y-45949523D01*
X9709523Y-46025714D01*
X9747619Y-46063809D01*
X9823809Y-46101904D01*
X9976190Y-46101904D01*
X10052380Y-46063809D01*
X10090476Y-46025714D01*
X10128571Y-45949523D01*
X10128571Y-45759047D01*
X10090476Y-45682857D01*
X10052380Y-45644761D01*
X9976190Y-45606666D01*
X9823809Y-45606666D01*
X9747619Y-45644761D01*
X9709523Y-45682857D01*
X9671428Y-45759047D01*
X33266666Y-82061904D02*
X33000000Y-81680952D01*
X32809523Y-82061904D02*
X32809523Y-81261904D01*
X33114285Y-81261904D01*
X33190476Y-81300000D01*
X33228571Y-81338095D01*
X33266666Y-81414285D01*
X33266666Y-81528571D01*
X33228571Y-81604761D01*
X33190476Y-81642857D01*
X33114285Y-81680952D01*
X32809523Y-81680952D01*
X33533333Y-81261904D02*
X34066666Y-81261904D01*
X33723809Y-82061904D01*
X22761904Y-90066666D02*
X21961904Y-90066666D01*
X22533333Y-89800000D01*
X21961904Y-89533333D01*
X22761904Y-89533333D01*
X21961904Y-89000000D02*
X21961904Y-88847619D01*
X22000000Y-88771428D01*
X22076190Y-88695238D01*
X22228571Y-88657142D01*
X22495238Y-88657142D01*
X22647619Y-88695238D01*
X22723809Y-88771428D01*
X22761904Y-88847619D01*
X22761904Y-89000000D01*
X22723809Y-89076190D01*
X22647619Y-89152380D01*
X22495238Y-89190476D01*
X22228571Y-89190476D01*
X22076190Y-89152380D01*
X22000000Y-89076190D01*
X21961904Y-89000000D01*
X22761904Y-88314285D02*
X21961904Y-88314285D01*
X21961904Y-88123809D01*
X22000000Y-88009523D01*
X22076190Y-87933333D01*
X22152380Y-87895238D01*
X22304761Y-87857142D01*
X22419047Y-87857142D01*
X22571428Y-87895238D01*
X22647619Y-87933333D01*
X22723809Y-88009523D01*
X22761904Y-88123809D01*
X22761904Y-88314285D01*
X22761904Y-87095238D02*
X22761904Y-87552380D01*
X22761904Y-87323809D02*
X21961904Y-87323809D01*
X22076190Y-87400000D01*
X22152380Y-87476190D01*
X22190476Y-87552380D01*
X19185714Y-44361904D02*
X18919047Y-43980952D01*
X18728571Y-44361904D02*
X18728571Y-43561904D01*
X19033333Y-43561904D01*
X19109523Y-43600000D01*
X19147619Y-43638095D01*
X19185714Y-43714285D01*
X19185714Y-43828571D01*
X19147619Y-43904761D01*
X19109523Y-43942857D01*
X19033333Y-43980952D01*
X18728571Y-43980952D01*
X19947619Y-44361904D02*
X19490476Y-44361904D01*
X19719047Y-44361904D02*
X19719047Y-43561904D01*
X19642857Y-43676190D01*
X19566666Y-43752380D01*
X19490476Y-43790476D01*
X20671428Y-43561904D02*
X20290476Y-43561904D01*
X20252380Y-43942857D01*
X20290476Y-43904761D01*
X20366666Y-43866666D01*
X20557142Y-43866666D01*
X20633333Y-43904761D01*
X20671428Y-43942857D01*
X20709523Y-44019047D01*
X20709523Y-44209523D01*
X20671428Y-44285714D01*
X20633333Y-44323809D01*
X20557142Y-44361904D01*
X20366666Y-44361904D01*
X20290476Y-44323809D01*
X20252380Y-44285714D01*
X22385714Y-78061904D02*
X22119047Y-77680952D01*
X21928571Y-78061904D02*
X21928571Y-77261904D01*
X22233333Y-77261904D01*
X22309523Y-77300000D01*
X22347619Y-77338095D01*
X22385714Y-77414285D01*
X22385714Y-77528571D01*
X22347619Y-77604761D01*
X22309523Y-77642857D01*
X22233333Y-77680952D01*
X21928571Y-77680952D01*
X22690476Y-77338095D02*
X22728571Y-77300000D01*
X22804761Y-77261904D01*
X22995238Y-77261904D01*
X23071428Y-77300000D01*
X23109523Y-77338095D01*
X23147619Y-77414285D01*
X23147619Y-77490476D01*
X23109523Y-77604761D01*
X22652380Y-78061904D01*
X23147619Y-78061904D01*
X23414285Y-77261904D02*
X23947619Y-77261904D01*
X23604761Y-78061904D01*
X26659523Y-53261904D02*
X26659523Y-52461904D01*
X26964285Y-52461904D01*
X27040476Y-52500000D01*
X27078571Y-52538095D01*
X27116666Y-52614285D01*
X27116666Y-52728571D01*
X27078571Y-52804761D01*
X27040476Y-52842857D01*
X26964285Y-52880952D01*
X26659523Y-52880952D01*
X27840476Y-52461904D02*
X27459523Y-52461904D01*
X27421428Y-52842857D01*
X27459523Y-52804761D01*
X27535714Y-52766666D01*
X27726190Y-52766666D01*
X27802380Y-52804761D01*
X27840476Y-52842857D01*
X27878571Y-52919047D01*
X27878571Y-53109523D01*
X27840476Y-53185714D01*
X27802380Y-53223809D01*
X27726190Y-53261904D01*
X27535714Y-53261904D01*
X27459523Y-53223809D01*
X27421428Y-53185714D01*
X16561904Y-40014285D02*
X16180952Y-40280952D01*
X16561904Y-40471428D02*
X15761904Y-40471428D01*
X15761904Y-40166666D01*
X15800000Y-40090476D01*
X15838095Y-40052380D01*
X15914285Y-40014285D01*
X16028571Y-40014285D01*
X16104761Y-40052380D01*
X16142857Y-40090476D01*
X16180952Y-40166666D01*
X16180952Y-40471428D01*
X16561904Y-39252380D02*
X16561904Y-39709523D01*
X16561904Y-39480952D02*
X15761904Y-39480952D01*
X15876190Y-39557142D01*
X15952380Y-39633333D01*
X15990476Y-39709523D01*
X16028571Y-38566666D02*
X16561904Y-38566666D01*
X15723809Y-38757142D02*
X16295238Y-38947619D01*
X16295238Y-38452380D01*
X5835714Y-47283333D02*
X5873809Y-47321428D01*
X5911904Y-47435714D01*
X5911904Y-47511904D01*
X5873809Y-47626190D01*
X5797619Y-47702380D01*
X5721428Y-47740476D01*
X5569047Y-47778571D01*
X5454761Y-47778571D01*
X5302380Y-47740476D01*
X5226190Y-47702380D01*
X5150000Y-47626190D01*
X5111904Y-47511904D01*
X5111904Y-47435714D01*
X5150000Y-47321428D01*
X5188095Y-47283333D01*
X5188095Y-46978571D02*
X5150000Y-46940476D01*
X5111904Y-46864285D01*
X5111904Y-46673809D01*
X5150000Y-46597619D01*
X5188095Y-46559523D01*
X5264285Y-46521428D01*
X5340476Y-46521428D01*
X5454761Y-46559523D01*
X5911904Y-47016666D01*
X5911904Y-46521428D01*
X5185714Y-54061904D02*
X4919047Y-53680952D01*
X4728571Y-54061904D02*
X4728571Y-53261904D01*
X5033333Y-53261904D01*
X5109523Y-53300000D01*
X5147619Y-53338095D01*
X5185714Y-53414285D01*
X5185714Y-53528571D01*
X5147619Y-53604761D01*
X5109523Y-53642857D01*
X5033333Y-53680952D01*
X4728571Y-53680952D01*
X5947619Y-54061904D02*
X5490476Y-54061904D01*
X5719047Y-54061904D02*
X5719047Y-53261904D01*
X5642857Y-53376190D01*
X5566666Y-53452380D01*
X5490476Y-53490476D01*
X6709523Y-54061904D02*
X6252380Y-54061904D01*
X6480952Y-54061904D02*
X6480952Y-53261904D01*
X6404761Y-53376190D01*
X6328571Y-53452380D01*
X6252380Y-53490476D01*
X30290476Y-45300000D02*
X30214285Y-45261904D01*
X30100000Y-45261904D01*
X29985714Y-45300000D01*
X29909523Y-45376190D01*
X29871428Y-45452380D01*
X29833333Y-45604761D01*
X29833333Y-45719047D01*
X29871428Y-45871428D01*
X29909523Y-45947619D01*
X29985714Y-46023809D01*
X30100000Y-46061904D01*
X30176190Y-46061904D01*
X30290476Y-46023809D01*
X30328571Y-45985714D01*
X30328571Y-45719047D01*
X30176190Y-45719047D01*
X30671428Y-46061904D02*
X30671428Y-45261904D01*
X31128571Y-46061904D01*
X31128571Y-45261904D01*
X31509523Y-46061904D02*
X31509523Y-45261904D01*
X31700000Y-45261904D01*
X31814285Y-45300000D01*
X31890476Y-45376190D01*
X31928571Y-45452380D01*
X31966666Y-45604761D01*
X31966666Y-45719047D01*
X31928571Y-45871428D01*
X31890476Y-45947619D01*
X31814285Y-46023809D01*
X31700000Y-46061904D01*
X31509523Y-46061904D01*
X22285714Y-81261904D02*
X22019047Y-80880952D01*
X21828571Y-81261904D02*
X21828571Y-80461904D01*
X22133333Y-80461904D01*
X22209523Y-80500000D01*
X22247619Y-80538095D01*
X22285714Y-80614285D01*
X22285714Y-80728571D01*
X22247619Y-80804761D01*
X22209523Y-80842857D01*
X22133333Y-80880952D01*
X21828571Y-80880952D01*
X22590476Y-80538095D02*
X22628571Y-80500000D01*
X22704761Y-80461904D01*
X22895238Y-80461904D01*
X22971428Y-80500000D01*
X23009523Y-80538095D01*
X23047619Y-80614285D01*
X23047619Y-80690476D01*
X23009523Y-80804761D01*
X22552380Y-81261904D01*
X23047619Y-81261904D01*
X23733333Y-80461904D02*
X23580952Y-80461904D01*
X23504761Y-80500000D01*
X23466666Y-80538095D01*
X23390476Y-80652380D01*
X23352380Y-80804761D01*
X23352380Y-81109523D01*
X23390476Y-81185714D01*
X23428571Y-81223809D01*
X23504761Y-81261904D01*
X23657142Y-81261904D01*
X23733333Y-81223809D01*
X23771428Y-81185714D01*
X23809523Y-81109523D01*
X23809523Y-80919047D01*
X23771428Y-80842857D01*
X23733333Y-80804761D01*
X23657142Y-80766666D01*
X23504761Y-80766666D01*
X23428571Y-80804761D01*
X23390476Y-80842857D01*
X23352380Y-80919047D01*
X31561904Y-90066666D02*
X30761904Y-90066666D01*
X31333333Y-89800000D01*
X30761904Y-89533333D01*
X31561904Y-89533333D01*
X30761904Y-89000000D02*
X30761904Y-88847619D01*
X30800000Y-88771428D01*
X30876190Y-88695238D01*
X31028571Y-88657142D01*
X31295238Y-88657142D01*
X31447619Y-88695238D01*
X31523809Y-88771428D01*
X31561904Y-88847619D01*
X31561904Y-89000000D01*
X31523809Y-89076190D01*
X31447619Y-89152380D01*
X31295238Y-89190476D01*
X31028571Y-89190476D01*
X30876190Y-89152380D01*
X30800000Y-89076190D01*
X30761904Y-89000000D01*
X31561904Y-88314285D02*
X30761904Y-88314285D01*
X30761904Y-88123809D01*
X30800000Y-88009523D01*
X30876190Y-87933333D01*
X30952380Y-87895238D01*
X31104761Y-87857142D01*
X31219047Y-87857142D01*
X31371428Y-87895238D01*
X31447619Y-87933333D01*
X31523809Y-88009523D01*
X31561904Y-88123809D01*
X31561904Y-88314285D01*
X30838095Y-87552380D02*
X30800000Y-87514285D01*
X30761904Y-87438095D01*
X30761904Y-87247619D01*
X30800000Y-87171428D01*
X30838095Y-87133333D01*
X30914285Y-87095238D01*
X30990476Y-87095238D01*
X31104761Y-87133333D01*
X31561904Y-87590476D01*
X31561904Y-87095238D01*
X29719047Y-79561904D02*
X29719047Y-78761904D01*
X30557142Y-79485714D02*
X30519047Y-79523809D01*
X30404761Y-79561904D01*
X30328571Y-79561904D01*
X30214285Y-79523809D01*
X30138095Y-79447619D01*
X30100000Y-79371428D01*
X30061904Y-79219047D01*
X30061904Y-79104761D01*
X30100000Y-78952380D01*
X30138095Y-78876190D01*
X30214285Y-78800000D01*
X30328571Y-78761904D01*
X30404761Y-78761904D01*
X30519047Y-78800000D01*
X30557142Y-78838095D01*
X31280952Y-78761904D02*
X30900000Y-78761904D01*
X30861904Y-79142857D01*
X30900000Y-79104761D01*
X30976190Y-79066666D01*
X31166666Y-79066666D01*
X31242857Y-79104761D01*
X31280952Y-79142857D01*
X31319047Y-79219047D01*
X31319047Y-79409523D01*
X31280952Y-79485714D01*
X31242857Y-79523809D01*
X31166666Y-79561904D01*
X30976190Y-79561904D01*
X30900000Y-79523809D01*
X30861904Y-79485714D01*
X26409523Y-95661904D02*
X26409523Y-94861904D01*
X26600000Y-94861904D01*
X26714285Y-94900000D01*
X26790476Y-94976190D01*
X26828571Y-95052380D01*
X26866666Y-95204761D01*
X26866666Y-95319047D01*
X26828571Y-95471428D01*
X26790476Y-95547619D01*
X26714285Y-95623809D01*
X26600000Y-95661904D01*
X26409523Y-95661904D01*
X27628571Y-95661904D02*
X27171428Y-95661904D01*
X27400000Y-95661904D02*
X27400000Y-94861904D01*
X27323809Y-94976190D01*
X27247619Y-95052380D01*
X27171428Y-95090476D01*
X20119047Y-76761904D02*
X20119047Y-75961904D01*
X20957142Y-76685714D02*
X20919047Y-76723809D01*
X20804761Y-76761904D01*
X20728571Y-76761904D01*
X20614285Y-76723809D01*
X20538095Y-76647619D01*
X20500000Y-76571428D01*
X20461904Y-76419047D01*
X20461904Y-76304761D01*
X20500000Y-76152380D01*
X20538095Y-76076190D01*
X20614285Y-76000000D01*
X20728571Y-75961904D01*
X20804761Y-75961904D01*
X20919047Y-76000000D01*
X20957142Y-76038095D01*
X21719047Y-76761904D02*
X21261904Y-76761904D01*
X21490476Y-76761904D02*
X21490476Y-75961904D01*
X21414285Y-76076190D01*
X21338095Y-76152380D01*
X21261904Y-76190476D01*
X37000000Y-79850000D02*
X35400000Y-79850000D01*
X37000000Y-80950000D02*
X35400000Y-80950000D01*
X21300000Y-46550000D02*
X22900000Y-46550000D01*
X21300000Y-47650000D02*
X22900000Y-47650000D01*
X5800000Y-77550000D02*
X4200000Y-77550000D01*
X5800000Y-76450000D02*
X4200000Y-76450000D01*
D12*
X15650000Y-49570000D02*
X19550000Y-49570000D01*
X15650000Y-46630000D02*
X19550000Y-46630000D01*
X19550000Y-49570000D02*
X19550000Y-49300000D01*
X15650000Y-49570000D02*
X15650000Y-49300000D01*
X15650000Y-46630000D02*
X15650000Y-46900000D01*
X19550000Y-46630000D02*
X19550000Y-46900000D01*
X18454400Y-48100000D02*
G75*
G03*
X18454400Y-48100000I-854400J0D01*
G01*
D10*
X21250000Y-98300000D02*
X21250000Y-96700000D01*
X22350000Y-98300000D02*
X22350000Y-96700000D01*
X10500000Y-101650000D02*
X8900000Y-101650000D01*
X10500000Y-100550000D02*
X8900000Y-100550000D01*
X9900000Y-54850000D02*
X11500000Y-54850000D01*
X9900000Y-53750000D02*
X11500000Y-53750000D01*
X20800000Y-38900000D02*
X22400000Y-38900000D01*
X20800000Y-40100000D02*
X22400000Y-40100000D01*
X26400000Y-74950000D02*
X24800000Y-74950000D01*
X26400000Y-73850000D02*
X24800000Y-73850000D01*
X21950000Y-45150000D02*
X21950000Y-45650000D01*
X21300000Y-45950000D02*
X22900000Y-45950000D01*
X21300000Y-44850000D02*
X22900000Y-44850000D01*
X22250000Y-45400000D02*
X21950000Y-45150000D01*
X21950000Y-45650000D02*
X22250000Y-45400000D01*
X23050000Y-98300000D02*
X23050000Y-96700000D01*
X24150000Y-98300000D02*
X24150000Y-96700000D01*
X6400000Y-46600000D02*
X8000000Y-46600000D01*
X6400000Y-45500000D02*
X8000000Y-45500000D01*
D13*
X25868569Y-62030848D02*
X25877639Y-62008561D01*
X25877639Y-62008561D02*
X26112153Y-61611712D01*
X26112153Y-61611712D02*
X26472907Y-61208354D01*
X26472907Y-61208354D02*
X26922936Y-60837123D01*
X26922936Y-60837123D02*
X27129175Y-60700391D01*
X27129175Y-60700391D02*
X27620999Y-60396820D01*
X27620999Y-60396820D02*
X27363481Y-59940523D01*
X27363481Y-59940523D02*
X27130457Y-59367854D01*
X27130457Y-59367854D02*
X27047938Y-58767557D01*
X27047938Y-58767557D02*
X27112597Y-58171595D01*
X27112597Y-58171595D02*
X27321106Y-57611930D01*
X27321106Y-57611930D02*
X27655424Y-57136393D01*
X27655424Y-57136393D02*
X27884451Y-56928977D01*
X27884451Y-56928977D02*
X28185744Y-56711595D01*
X28185744Y-56711595D02*
X28513086Y-56511645D01*
X28513086Y-56511645D02*
X28820262Y-56356522D01*
X28820262Y-56356522D02*
X29061057Y-56273621D01*
X29061057Y-56273621D02*
X29122476Y-56266734D01*
X29122476Y-56266734D02*
X29176951Y-56184288D01*
X29176951Y-56184288D02*
X29220705Y-55945665D01*
X29220705Y-55945665D02*
X29251462Y-55563809D01*
X29251462Y-55563809D02*
X29253601Y-55521069D01*
X29253601Y-55521069D02*
X29284460Y-55101148D01*
X29284460Y-55101148D02*
X29336466Y-54801675D01*
X29336466Y-54801675D02*
X29419952Y-54574108D01*
X29419952Y-54574108D02*
X29476959Y-54471749D01*
X29476959Y-54471749D02*
X29770250Y-54145464D01*
X29770250Y-54145464D02*
X30160194Y-53957652D01*
X30160194Y-53957652D02*
X30644651Y-53909262D01*
X30644651Y-53909262D02*
X30735526Y-53914908D01*
X30735526Y-53914908D02*
X31159570Y-53996610D01*
X31159570Y-53996610D02*
X31482256Y-54179051D01*
X31482256Y-54179051D02*
X31742632Y-54489577D01*
X31742632Y-54489577D02*
X31863333Y-54704734D01*
X31863333Y-54704734D02*
X32075000Y-55123667D01*
X32075000Y-55123667D02*
X32094710Y-60246000D01*
X32094710Y-60246000D02*
X32098507Y-61313852D01*
X32098507Y-61313852D02*
X32100833Y-62225961D01*
X32100833Y-62225961D02*
X32101375Y-62995916D01*
X32101375Y-62995916D02*
X32099817Y-63637302D01*
X32099817Y-63637302D02*
X32095844Y-64163708D01*
X32095844Y-64163708D02*
X32089142Y-64588720D01*
X32089142Y-64588720D02*
X32079395Y-64925926D01*
X32079395Y-64925926D02*
X32066288Y-65188913D01*
X32066288Y-65188913D02*
X32049507Y-65391268D01*
X32049507Y-65391268D02*
X32028737Y-65546578D01*
X32028737Y-65546578D02*
X32003662Y-65668431D01*
X32003662Y-65668431D02*
X31973968Y-65770413D01*
X31973968Y-65770413D02*
X31966120Y-65793437D01*
X31966120Y-65793437D02*
X31724948Y-66325119D01*
X31724948Y-66325119D02*
X31421163Y-66707588D01*
X31421163Y-66707588D02*
X31067376Y-66942673D01*
X31067376Y-66942673D02*
X30596312Y-67081081D01*
X30596312Y-67081081D02*
X30394511Y-67070896D01*
X30394511Y-67070896D02*
X30394511Y-66649721D01*
X30394511Y-66649721D02*
X30773093Y-66617962D01*
X30773093Y-66617962D02*
X31103835Y-66433879D01*
X31103835Y-66433879D02*
X31375327Y-66110516D01*
X31375327Y-66110516D02*
X31576160Y-65660918D01*
X31576160Y-65660918D02*
X31684932Y-65174397D01*
X31684932Y-65174397D02*
X31701061Y-64970304D01*
X31701061Y-64970304D02*
X31713845Y-64622245D01*
X31713845Y-64622245D02*
X31723440Y-64149413D01*
X31723440Y-64149413D02*
X31730000Y-63571002D01*
X31730000Y-63571002D02*
X31733682Y-62906206D01*
X31733682Y-62906206D02*
X31734640Y-62174218D01*
X31734640Y-62174218D02*
X31733031Y-61394233D01*
X31733031Y-61394233D02*
X31729010Y-60585443D01*
X31729010Y-60585443D02*
X31722732Y-59767042D01*
X31722732Y-59767042D02*
X31714353Y-58958224D01*
X31714353Y-58958224D02*
X31704029Y-58178183D01*
X31704029Y-58178183D02*
X31691914Y-57446113D01*
X31691914Y-57446113D02*
X31678164Y-56781206D01*
X31678164Y-56781206D02*
X31662935Y-56202657D01*
X31662935Y-56202657D02*
X31646382Y-55729660D01*
X31646382Y-55729660D02*
X31628661Y-55381407D01*
X31628661Y-55381407D02*
X31609928Y-55177093D01*
X31609928Y-55177093D02*
X31603687Y-55145032D01*
X31603687Y-55145032D02*
X31431114Y-54751434D01*
X31431114Y-54751434D02*
X31168118Y-54473855D01*
X31168118Y-54473855D02*
X30837507Y-54332874D01*
X30837507Y-54332874D02*
X30688496Y-54319333D01*
X30688496Y-54319333D02*
X30291219Y-54363257D01*
X30291219Y-54363257D02*
X29999951Y-54504178D01*
X29999951Y-54504178D02*
X29805420Y-54755825D01*
X29805420Y-54755825D02*
X29698349Y-55131925D01*
X29698349Y-55131925D02*
X29669465Y-55646204D01*
X29669465Y-55646204D02*
X29674278Y-55820504D01*
X29674278Y-55820504D02*
X29704333Y-56538955D01*
X29704333Y-56538955D02*
X29238666Y-56684634D01*
X29238666Y-56684634D02*
X28775888Y-56848414D01*
X28775888Y-56848414D02*
X28428024Y-57023924D01*
X28428024Y-57023924D02*
X28141777Y-57242350D01*
X28141777Y-57242350D02*
X27946771Y-57440526D01*
X27946771Y-57440526D02*
X27641715Y-57896581D01*
X27641715Y-57896581D02*
X27483965Y-58407524D01*
X27483965Y-58407524D02*
X27472994Y-58945664D01*
X27472994Y-58945664D02*
X27608277Y-59483309D01*
X27608277Y-59483309D02*
X27889286Y-59992769D01*
X27889286Y-59992769D02*
X27997908Y-60131222D01*
X27997908Y-60131222D02*
X28140140Y-60326091D01*
X28140140Y-60326091D02*
X28217203Y-60483095D01*
X28217203Y-60483095D02*
X28221785Y-60512222D01*
X28221785Y-60512222D02*
X28149906Y-60603176D01*
X28149906Y-60603176D02*
X27962247Y-60731588D01*
X27962247Y-60731588D02*
X27699327Y-60869764D01*
X27699327Y-60869764D02*
X27697465Y-60870631D01*
X27697465Y-60870631D02*
X27222822Y-61144457D01*
X27222822Y-61144457D02*
X26801094Y-61487456D01*
X26801094Y-61487456D02*
X26465341Y-61866231D01*
X26465341Y-61866231D02*
X26248624Y-62247380D01*
X26248624Y-62247380D02*
X26206598Y-62376803D01*
X26206598Y-62376803D02*
X26148145Y-62798205D01*
X26148145Y-62798205D02*
X26202959Y-63208110D01*
X26202959Y-63208110D02*
X26379433Y-63662874D01*
X26379433Y-63662874D02*
X26406271Y-63717333D01*
X26406271Y-63717333D02*
X26721463Y-64191748D01*
X26721463Y-64191748D02*
X27113913Y-64516207D01*
X27113913Y-64516207D02*
X27579240Y-64689104D01*
X27579240Y-64689104D02*
X28113060Y-64708839D01*
X28113060Y-64708839D02*
X28710992Y-64573805D01*
X28710992Y-64573805D02*
X28729507Y-64567474D01*
X28729507Y-64567474D02*
X29054421Y-64475942D01*
X29054421Y-64475942D02*
X29258134Y-64484042D01*
X29258134Y-64484042D02*
X29366614Y-64607653D01*
X29366614Y-64607653D02*
X29405830Y-64862652D01*
X29405830Y-64862652D02*
X29408000Y-64982333D01*
X29408000Y-64982333D02*
X29446427Y-65415110D01*
X29446427Y-65415110D02*
X29550098Y-65838023D01*
X29550098Y-65838023D02*
X29701599Y-66196241D01*
X29701599Y-66196241D02*
X29863815Y-66417412D01*
X29863815Y-66417412D02*
X30088717Y-66558137D01*
X30088717Y-66558137D02*
X30364999Y-66645463D01*
X30364999Y-66645463D02*
X30394511Y-66649721D01*
X30394511Y-66649721D02*
X30394511Y-67070896D01*
X30394511Y-67070896D02*
X30163672Y-67059244D01*
X30163672Y-67059244D02*
X29781316Y-66884155D01*
X29781316Y-66884155D02*
X29461102Y-66562806D01*
X29461102Y-66562806D02*
X29214891Y-66102189D01*
X29214891Y-66102189D02*
X29115243Y-65791743D01*
X29115243Y-65791743D02*
X29044939Y-65497218D01*
X29044939Y-65497218D02*
X28997535Y-65251514D01*
X28997535Y-65251514D02*
X28984666Y-65135042D01*
X28984666Y-65135042D02*
X28962757Y-65038088D01*
X28962757Y-65038088D02*
X28866798Y-65014050D01*
X28866798Y-65014050D02*
X28667166Y-65046997D01*
X28667166Y-65046997D02*
X28007391Y-65120151D01*
X28007391Y-65120151D02*
X27403523Y-65053617D01*
X27403523Y-65053617D02*
X26874494Y-64851950D01*
X26874494Y-64851950D02*
X26439237Y-64519705D01*
X26439237Y-64519705D02*
X26428286Y-64508254D01*
X26428286Y-64508254D02*
X26119187Y-64082661D01*
X26119187Y-64082661D02*
X25898327Y-63575187D01*
X25898327Y-63575187D02*
X25776043Y-63032768D01*
X25776043Y-63032768D02*
X25762678Y-62502343D01*
X25762678Y-62502343D02*
X25868569Y-62030848D01*
X25868569Y-62030848D02*
X25868569Y-62030848D01*
G36*
X29781316Y-66884155D02*
G01*
X29461102Y-66562806D01*
X29214891Y-66102189D01*
X29115243Y-65791743D01*
X29044939Y-65497218D01*
X28997535Y-65251514D01*
X28984666Y-65135042D01*
X28962757Y-65038088D01*
X28866798Y-65014050D01*
X28667166Y-65046997D01*
X28007391Y-65120151D01*
X27403523Y-65053617D01*
X26874494Y-64851950D01*
X26439237Y-64519705D01*
X26428286Y-64508254D01*
X26119187Y-64082661D01*
X25898327Y-63575187D01*
X25776043Y-63032768D01*
X25770133Y-62798205D01*
X26148145Y-62798205D01*
X26202959Y-63208110D01*
X26379433Y-63662874D01*
X26406271Y-63717333D01*
X26721463Y-64191748D01*
X27113913Y-64516207D01*
X27579240Y-64689104D01*
X28113060Y-64708839D01*
X28710992Y-64573805D01*
X28729507Y-64567474D01*
X29054421Y-64475942D01*
X29258134Y-64484042D01*
X29366614Y-64607653D01*
X29405830Y-64862652D01*
X29408000Y-64982333D01*
X29446427Y-65415110D01*
X29550098Y-65838023D01*
X29701599Y-66196241D01*
X29863815Y-66417412D01*
X30088717Y-66558137D01*
X30364999Y-66645463D01*
X30394511Y-66649721D01*
X30773093Y-66617962D01*
X31103835Y-66433879D01*
X31375327Y-66110516D01*
X31576160Y-65660918D01*
X31684932Y-65174397D01*
X31701061Y-64970304D01*
X31713845Y-64622245D01*
X31723440Y-64149413D01*
X31730000Y-63571002D01*
X31733682Y-62906206D01*
X31734640Y-62174218D01*
X31733031Y-61394233D01*
X31729010Y-60585443D01*
X31722732Y-59767042D01*
X31714353Y-58958224D01*
X31704029Y-58178183D01*
X31691914Y-57446113D01*
X31678164Y-56781206D01*
X31662935Y-56202657D01*
X31646382Y-55729660D01*
X31628661Y-55381407D01*
X31609928Y-55177093D01*
X31603687Y-55145032D01*
X31431114Y-54751434D01*
X31168118Y-54473855D01*
X30837507Y-54332874D01*
X30688496Y-54319333D01*
X30291219Y-54363257D01*
X29999951Y-54504178D01*
X29805420Y-54755825D01*
X29698349Y-55131925D01*
X29669465Y-55646204D01*
X29674278Y-55820504D01*
X29704333Y-56538955D01*
X29238666Y-56684634D01*
X28775888Y-56848414D01*
X28428024Y-57023924D01*
X28141777Y-57242350D01*
X27946771Y-57440526D01*
X27641715Y-57896581D01*
X27483965Y-58407524D01*
X27472994Y-58945664D01*
X27608277Y-59483309D01*
X27889286Y-59992769D01*
X27997908Y-60131222D01*
X28140140Y-60326091D01*
X28217203Y-60483095D01*
X28221785Y-60512222D01*
X28149906Y-60603176D01*
X27962247Y-60731588D01*
X27699327Y-60869764D01*
X27697465Y-60870631D01*
X27222822Y-61144457D01*
X26801094Y-61487456D01*
X26465341Y-61866231D01*
X26248624Y-62247380D01*
X26206598Y-62376803D01*
X26148145Y-62798205D01*
X25770133Y-62798205D01*
X25762678Y-62502343D01*
X25868569Y-62030848D01*
X25877639Y-62008561D01*
X26112153Y-61611712D01*
X26472907Y-61208354D01*
X26922936Y-60837123D01*
X27129175Y-60700391D01*
X27620999Y-60396820D01*
X27363481Y-59940523D01*
X27130457Y-59367854D01*
X27047938Y-58767557D01*
X27112597Y-58171595D01*
X27321106Y-57611930D01*
X27655424Y-57136393D01*
X27884451Y-56928977D01*
X28185744Y-56711595D01*
X28513086Y-56511645D01*
X28820262Y-56356522D01*
X29061057Y-56273621D01*
X29122476Y-56266734D01*
X29176951Y-56184288D01*
X29220705Y-55945665D01*
X29251462Y-55563809D01*
X29253601Y-55521069D01*
X29284460Y-55101148D01*
X29336466Y-54801675D01*
X29419952Y-54574108D01*
X29476959Y-54471749D01*
X29770250Y-54145464D01*
X30160194Y-53957652D01*
X30644651Y-53909262D01*
X30735526Y-53914908D01*
X31159570Y-53996610D01*
X31482256Y-54179051D01*
X31742632Y-54489577D01*
X31863333Y-54704734D01*
X32075000Y-55123667D01*
X32094710Y-60246000D01*
X32098507Y-61313852D01*
X32100833Y-62225961D01*
X32101375Y-62995916D01*
X32099817Y-63637302D01*
X32095844Y-64163708D01*
X32089142Y-64588720D01*
X32079395Y-64925926D01*
X32066288Y-65188913D01*
X32049507Y-65391268D01*
X32028737Y-65546578D01*
X32003662Y-65668431D01*
X31973968Y-65770413D01*
X31966120Y-65793437D01*
X31724948Y-66325119D01*
X31421163Y-66707588D01*
X31067376Y-66942673D01*
X30596312Y-67081081D01*
X30394511Y-67070896D01*
X30163672Y-67059244D01*
X29781316Y-66884155D01*
G37*
X29781316Y-66884155D02*
X29461102Y-66562806D01*
X29214891Y-66102189D01*
X29115243Y-65791743D01*
X29044939Y-65497218D01*
X28997535Y-65251514D01*
X28984666Y-65135042D01*
X28962757Y-65038088D01*
X28866798Y-65014050D01*
X28667166Y-65046997D01*
X28007391Y-65120151D01*
X27403523Y-65053617D01*
X26874494Y-64851950D01*
X26439237Y-64519705D01*
X26428286Y-64508254D01*
X26119187Y-64082661D01*
X25898327Y-63575187D01*
X25776043Y-63032768D01*
X25770133Y-62798205D01*
X26148145Y-62798205D01*
X26202959Y-63208110D01*
X26379433Y-63662874D01*
X26406271Y-63717333D01*
X26721463Y-64191748D01*
X27113913Y-64516207D01*
X27579240Y-64689104D01*
X28113060Y-64708839D01*
X28710992Y-64573805D01*
X28729507Y-64567474D01*
X29054421Y-64475942D01*
X29258134Y-64484042D01*
X29366614Y-64607653D01*
X29405830Y-64862652D01*
X29408000Y-64982333D01*
X29446427Y-65415110D01*
X29550098Y-65838023D01*
X29701599Y-66196241D01*
X29863815Y-66417412D01*
X30088717Y-66558137D01*
X30364999Y-66645463D01*
X30394511Y-66649721D01*
X30773093Y-66617962D01*
X31103835Y-66433879D01*
X31375327Y-66110516D01*
X31576160Y-65660918D01*
X31684932Y-65174397D01*
X31701061Y-64970304D01*
X31713845Y-64622245D01*
X31723440Y-64149413D01*
X31730000Y-63571002D01*
X31733682Y-62906206D01*
X31734640Y-62174218D01*
X31733031Y-61394233D01*
X31729010Y-60585443D01*
X31722732Y-59767042D01*
X31714353Y-58958224D01*
X31704029Y-58178183D01*
X31691914Y-57446113D01*
X31678164Y-56781206D01*
X31662935Y-56202657D01*
X31646382Y-55729660D01*
X31628661Y-55381407D01*
X31609928Y-55177093D01*
X31603687Y-55145032D01*
X31431114Y-54751434D01*
X31168118Y-54473855D01*
X30837507Y-54332874D01*
X30688496Y-54319333D01*
X30291219Y-54363257D01*
X29999951Y-54504178D01*
X29805420Y-54755825D01*
X29698349Y-55131925D01*
X29669465Y-55646204D01*
X29674278Y-55820504D01*
X29704333Y-56538955D01*
X29238666Y-56684634D01*
X28775888Y-56848414D01*
X28428024Y-57023924D01*
X28141777Y-57242350D01*
X27946771Y-57440526D01*
X27641715Y-57896581D01*
X27483965Y-58407524D01*
X27472994Y-58945664D01*
X27608277Y-59483309D01*
X27889286Y-59992769D01*
X27997908Y-60131222D01*
X28140140Y-60326091D01*
X28217203Y-60483095D01*
X28221785Y-60512222D01*
X28149906Y-60603176D01*
X27962247Y-60731588D01*
X27699327Y-60869764D01*
X27697465Y-60870631D01*
X27222822Y-61144457D01*
X26801094Y-61487456D01*
X26465341Y-61866231D01*
X26248624Y-62247380D01*
X26206598Y-62376803D01*
X26148145Y-62798205D01*
X25770133Y-62798205D01*
X25762678Y-62502343D01*
X25868569Y-62030848D01*
X25877639Y-62008561D01*
X26112153Y-61611712D01*
X26472907Y-61208354D01*
X26922936Y-60837123D01*
X27129175Y-60700391D01*
X27620999Y-60396820D01*
X27363481Y-59940523D01*
X27130457Y-59367854D01*
X27047938Y-58767557D01*
X27112597Y-58171595D01*
X27321106Y-57611930D01*
X27655424Y-57136393D01*
X27884451Y-56928977D01*
X28185744Y-56711595D01*
X28513086Y-56511645D01*
X28820262Y-56356522D01*
X29061057Y-56273621D01*
X29122476Y-56266734D01*
X29176951Y-56184288D01*
X29220705Y-55945665D01*
X29251462Y-55563809D01*
X29253601Y-55521069D01*
X29284460Y-55101148D01*
X29336466Y-54801675D01*
X29419952Y-54574108D01*
X29476959Y-54471749D01*
X29770250Y-54145464D01*
X30160194Y-53957652D01*
X30644651Y-53909262D01*
X30735526Y-53914908D01*
X31159570Y-53996610D01*
X31482256Y-54179051D01*
X31742632Y-54489577D01*
X31863333Y-54704734D01*
X32075000Y-55123667D01*
X32094710Y-60246000D01*
X32098507Y-61313852D01*
X32100833Y-62225961D01*
X32101375Y-62995916D01*
X32099817Y-63637302D01*
X32095844Y-64163708D01*
X32089142Y-64588720D01*
X32079395Y-64925926D01*
X32066288Y-65188913D01*
X32049507Y-65391268D01*
X32028737Y-65546578D01*
X32003662Y-65668431D01*
X31973968Y-65770413D01*
X31966120Y-65793437D01*
X31724948Y-66325119D01*
X31421163Y-66707588D01*
X31067376Y-66942673D01*
X30596312Y-67081081D01*
X30394511Y-67070896D01*
X30163672Y-67059244D01*
X29781316Y-66884155D01*
D10*
X6200000Y-48050000D02*
X4600000Y-48050000D01*
X6200000Y-49150000D02*
X4600000Y-49150000D01*
X35100000Y-41500000D02*
X35100000Y-42300000D01*
X37100000Y-41500000D02*
X37100000Y-42300000D01*
X6200000Y-49450000D02*
X4600000Y-49450000D01*
X6200000Y-50550000D02*
X4600000Y-50550000D01*
X26600000Y-98150000D02*
X27600000Y-98150000D01*
X26600000Y-101050000D02*
X27600000Y-101050000D01*
D14*
X26700000Y-97800000D02*
G75*
G03*
X26700000Y-97800000I-100000J0D01*
G01*
D10*
X12500000Y-45500000D02*
X10900000Y-45500000D01*
X12500000Y-46600000D02*
X10900000Y-46600000D01*
X22900000Y-49450000D02*
X21300000Y-49450000D01*
X22900000Y-48350000D02*
X21300000Y-48350000D01*
X26400000Y-72350000D02*
X24800000Y-72350000D01*
X26400000Y-73450000D02*
X24800000Y-73450000D01*
X19550000Y-41950000D02*
X19550000Y-43100000D01*
X19550000Y-43100000D02*
X18700000Y-43100000D01*
X16650000Y-41950000D02*
X16650000Y-43100000D01*
X16650000Y-43100000D02*
X17500000Y-43100000D01*
X18450000Y-41800000D02*
X17750000Y-41800000D01*
X31200000Y-38450000D02*
X33200000Y-38450000D01*
X31200000Y-40150000D02*
X33200000Y-40150000D01*
D12*
X32600000Y-40340000D02*
X33400000Y-40340000D01*
X32600000Y-40340000D02*
X30800000Y-40340000D01*
X32600000Y-43460000D02*
X33400000Y-43460000D01*
X32600000Y-43460000D02*
X31800000Y-43460000D01*
D10*
X27500000Y-76550000D02*
X29100000Y-76550000D01*
X27500000Y-75450000D02*
X29100000Y-75450000D01*
X35400000Y-78250000D02*
X37000000Y-78250000D01*
X35400000Y-79350000D02*
X37000000Y-79350000D01*
X26400000Y-71850000D02*
X24800000Y-71850000D01*
X26400000Y-70750000D02*
X24800000Y-70750000D01*
X3600000Y-82600000D02*
X3600000Y-98600000D01*
X19600000Y-82600000D02*
X19600000Y-98600000D01*
X20453553Y-82100000D02*
G75*
G03*
X20453553Y-82100000I-353553J0D01*
G01*
X26400000Y-70250000D02*
X24800000Y-70250000D01*
X26400000Y-69150000D02*
X24800000Y-69150000D01*
X21250000Y-95500000D02*
X21250000Y-93900000D01*
X22350000Y-95500000D02*
X22350000Y-93900000D01*
D12*
X15650000Y-53670000D02*
X15650000Y-53400000D01*
X19550000Y-53670000D02*
X19550000Y-53400000D01*
X19550000Y-53670000D02*
X15650000Y-53670000D01*
X15650000Y-50730000D02*
X15650000Y-51000000D01*
X19550000Y-50730000D02*
X19550000Y-51000000D01*
X19550000Y-50730000D02*
X15650000Y-50730000D01*
X18454400Y-52200000D02*
G75*
G03*
X18454400Y-52200000I-854400J0D01*
G01*
D10*
X17300000Y-44850000D02*
X15700000Y-44850000D01*
X17300000Y-45950000D02*
X15700000Y-45950000D01*
X24450000Y-99400000D02*
X24450000Y-101400000D01*
X22750000Y-99400000D02*
X22750000Y-101400000D01*
X21950000Y-41800000D02*
X21250000Y-41800000D01*
X23050000Y-43100000D02*
X22200000Y-43100000D01*
X20150000Y-41950000D02*
X20150000Y-43100000D01*
X20150000Y-43100000D02*
X21000000Y-43100000D01*
X23050000Y-41950000D02*
X23050000Y-43100000D01*
X22100000Y-53850000D02*
X23700000Y-53850000D01*
X22100000Y-54950000D02*
X23700000Y-54950000D01*
D12*
X7490000Y-53010000D02*
X7965000Y-53010000D01*
X7490000Y-48790000D02*
X7965000Y-48790000D01*
X7490000Y-49265000D02*
X7490000Y-48790000D01*
X7490000Y-52535000D02*
X7490000Y-53010000D01*
X11710000Y-49265000D02*
X11710000Y-48790000D01*
X11710000Y-52535000D02*
X11710000Y-53010000D01*
X11710000Y-53010000D02*
X11235000Y-53010000D01*
D10*
X34200000Y-78250000D02*
X32600000Y-78250000D01*
X34200000Y-79350000D02*
X32600000Y-79350000D01*
X21250000Y-99600000D02*
X21250000Y-101200000D01*
X22350000Y-99600000D02*
X22350000Y-101200000D01*
X35500000Y-43850000D02*
X33500000Y-43850000D01*
X35500000Y-45550000D02*
X33500000Y-45550000D01*
X34200000Y-79850000D02*
X32600000Y-79850000D01*
X34200000Y-80950000D02*
X32600000Y-80950000D01*
X18500000Y-45950000D02*
X20100000Y-45950000D01*
X18500000Y-44850000D02*
X20100000Y-44850000D01*
X25350000Y-78700000D02*
X25350000Y-77100000D01*
X24250000Y-78700000D02*
X24250000Y-77100000D01*
X17300000Y-40100000D02*
X18900000Y-40100000D01*
X17300000Y-38900000D02*
X18900000Y-38900000D01*
X8000000Y-46750000D02*
X6400000Y-46750000D01*
X8000000Y-47850000D02*
X6400000Y-47850000D01*
X5450000Y-51200000D02*
X5450000Y-52800000D01*
X6550000Y-51200000D02*
X6550000Y-52800000D01*
X25350000Y-80000000D02*
X25350000Y-81600000D01*
X24250000Y-80000000D02*
X24250000Y-81600000D01*
X29300000Y-77700000D02*
X29200000Y-77700000D01*
X29200000Y-80700000D02*
X29300000Y-80700000D01*
X26400000Y-80700000D02*
X26300000Y-80700000D01*
X26300000Y-80700000D02*
X26300000Y-77700000D01*
X29300000Y-80700000D02*
X29300000Y-77700000D01*
X26300000Y-77700000D02*
X26400000Y-77700000D01*
X26000000Y-81200000D02*
G75*
G03*
X26000000Y-81200000I-200000J0D01*
G01*
X26500000Y-96000000D02*
X26500000Y-97200000D01*
X26500000Y-97200000D02*
X27500000Y-96600000D01*
X27500000Y-96000000D02*
X27500000Y-97200000D01*
X27500000Y-96600000D02*
X26500000Y-96000000D01*
D15*
X35740000Y-98400000D03*
D16*
X33200000Y-98400000D03*
X30660000Y-98400000D03*
X4700000Y-101200000D03*
D15*
X35300000Y-105600000D03*
D16*
X32800000Y-105600000D03*
X30300000Y-105600000D03*
X27800000Y-105600000D03*
X25300000Y-105600000D03*
X22800000Y-105600000D03*
X20300000Y-105600000D03*
D15*
X24330000Y-84155000D03*
D16*
X26870000Y-85425000D03*
X24330000Y-86695000D03*
X26870000Y-87965000D03*
X24330000Y-89235000D03*
X26870000Y-90505000D03*
X24330000Y-91775000D03*
X26870000Y-93045000D03*
D15*
X27200000Y-42250000D03*
D16*
X27200000Y-44750000D03*
X27200000Y-47250000D03*
X27200000Y-49750000D03*
D15*
X33130000Y-84155000D03*
D16*
X35670000Y-85425000D03*
X33130000Y-86695000D03*
X35670000Y-87965000D03*
X33130000Y-89235000D03*
X35670000Y-90505000D03*
X33130000Y-91775000D03*
X35670000Y-93045000D03*
M02*
