G04 #@! TF.GenerationSoftware,KiCad,Pcbnew,(5.99.0-10229-ge8e7d13299)*
G04 #@! TF.CreationDate,2021-06-16T15:48:42+02:00*
G04 #@! TF.ProjectId,openair2-panelized,6f70656e-6169-4723-922d-70616e656c69,rev?*
G04 #@! TF.SameCoordinates,PX3473bc0PY1312d00*
G04 #@! TF.FileFunction,Soldermask,Top*
G04 #@! TF.FilePolarity,Negative*
%FSLAX46Y46*%
G04 Gerber Fmt 4.6, Leading zero omitted, Abs format (unit mm)*
G04 Created by KiCad (PCBNEW (5.99.0-10229-ge8e7d13299)) date 2021-06-16 15:48:42*
%MOMM*%
%LPD*%
G01*
G04 APERTURE LIST*
G04 Aperture macros list*
%AMRoundRect*
0 Rectangle with rounded corners*
0 $1 Rounding radius*
0 $2 $3 $4 $5 $6 $7 $8 $9 X,Y pos of 4 corners*
0 Add a 4 corners polygon primitive as box body*
4,1,4,$2,$3,$4,$5,$6,$7,$8,$9,$2,$3,0*
0 Add four circle primitives for the rounded corners*
1,1,$1+$1,$2,$3*
1,1,$1+$1,$4,$5*
1,1,$1+$1,$6,$7*
1,1,$1+$1,$8,$9*
0 Add four rect primitives between the rounded corners*
20,1,$1+$1,$2,$3,$4,$5,0*
20,1,$1+$1,$4,$5,$6,$7,0*
20,1,$1+$1,$6,$7,$8,$9,0*
20,1,$1+$1,$8,$9,$2,$3,0*%
G04 Aperture macros list end*
%ADD10C,0.700000*%
%ADD11RoundRect,0.100000X0.350000X0.400000X-0.350000X0.400000X-0.350000X-0.400000X0.350000X-0.400000X0*%
%ADD12C,1.200000*%
%ADD13RoundRect,0.100000X-0.350000X-0.400000X0.350000X-0.400000X0.350000X0.400000X-0.350000X0.400000X0*%
%ADD14RoundRect,0.100000X0.525000X0.525000X-0.525000X0.525000X-0.525000X-0.525000X0.525000X-0.525000X0*%
%ADD15RoundRect,0.100000X0.525000X1.100000X-0.525000X1.100000X-0.525000X-1.100000X0.525000X-1.100000X0*%
%ADD16RoundRect,0.100000X0.800000X0.800000X-0.800000X0.800000X-0.800000X-0.800000X0.800000X-0.800000X0*%
%ADD17C,1.800000*%
%ADD18RoundRect,0.100000X-0.500000X-1.000000X0.500000X-1.000000X0.500000X1.000000X-0.500000X1.000000X0*%
%ADD19RoundRect,0.100000X0.400000X-0.350000X0.400000X0.350000X-0.400000X0.350000X-0.400000X-0.350000X0*%
%ADD20RoundRect,0.100000X-0.482500X-0.400000X0.482500X-0.400000X0.482500X0.400000X-0.482500X0.400000X0*%
%ADD21RoundRect,0.100000X-1.000000X0.400000X-1.000000X-0.400000X1.000000X-0.400000X1.000000X0.400000X0*%
%ADD22RoundRect,0.100000X-0.500000X-0.250000X0.500000X-0.250000X0.500000X0.250000X-0.500000X0.250000X0*%
%ADD23RoundRect,0.100000X-0.300000X0.500000X-0.300000X-0.500000X0.300000X-0.500000X0.300000X0.500000X0*%
%ADD24RoundRect,0.100000X-0.550000X-0.700000X0.550000X-0.700000X0.550000X0.700000X-0.550000X0.700000X0*%
%ADD25RoundRect,0.200000X-0.562500X-0.200000X0.562500X-0.200000X0.562500X0.200000X-0.562500X0.200000X0*%
%ADD26RoundRect,0.100000X-0.600000X1.200000X-0.600000X-1.200000X0.600000X-1.200000X0.600000X1.200000X0*%
%ADD27RoundRect,0.100000X0.500000X1.000000X-0.500000X1.000000X-0.500000X-1.000000X0.500000X-1.000000X0*%
%ADD28RoundRect,0.100000X-0.700000X0.550000X-0.700000X-0.550000X0.700000X-0.550000X0.700000X0.550000X0*%
%ADD29RoundRect,0.112500X-0.112500X0.400000X-0.112500X-0.400000X0.112500X-0.400000X0.112500X0.400000X0*%
%ADD30RoundRect,0.112500X-0.400000X0.112500X-0.400000X-0.112500X0.400000X-0.112500X0.400000X0.112500X0*%
%ADD31RoundRect,0.100000X-1.300000X1.300000X-1.300000X-1.300000X1.300000X-1.300000X1.300000X1.300000X0*%
%ADD32C,6.200000*%
%ADD33RoundRect,0.100000X-0.400000X0.350000X-0.400000X-0.350000X0.400000X-0.350000X0.400000X0.350000X0*%
%ADD34RoundRect,0.100000X0.550000X0.700000X-0.550000X0.700000X-0.550000X-0.700000X0.550000X-0.700000X0*%
%ADD35C,0.850000*%
%ADD36RoundRect,0.100000X0.300000X0.725000X-0.300000X0.725000X-0.300000X-0.725000X0.300000X-0.725000X0*%
%ADD37RoundRect,0.100000X0.150000X0.725000X-0.150000X0.725000X-0.150000X-0.725000X0.150000X-0.725000X0*%
%ADD38RoundRect,0.100000X0.900000X0.725000X-0.900000X0.725000X-0.900000X-0.725000X0.900000X-0.725000X0*%
%ADD39RoundRect,0.100000X0.900000X0.600000X-0.900000X0.600000X-0.900000X-0.600000X0.900000X-0.600000X0*%
%ADD40C,2.200000*%
%ADD41RoundRect,0.100000X-0.800000X0.800000X-0.800000X-0.800000X0.800000X-0.800000X0.800000X0.800000X0*%
%ADD42RoundRect,0.100000X0.225000X-0.475000X0.225000X0.475000X-0.225000X0.475000X-0.225000X-0.475000X0*%
%ADD43RoundRect,0.100000X1.250000X-0.700000X1.250000X0.700000X-1.250000X0.700000X-1.250000X-0.700000X0*%
%ADD44RoundRect,0.100000X-0.550000X-0.550000X0.550000X-0.550000X0.550000X0.550000X-0.550000X0.550000X0*%
%ADD45RoundRect,0.100000X0.500000X-0.750000X0.500000X0.750000X-0.500000X0.750000X-0.500000X-0.750000X0*%
%ADD46RoundRect,0.100000X0.750000X-0.500000X0.750000X0.500000X-0.750000X0.500000X-0.750000X-0.500000X0*%
%ADD47RoundRect,0.100000X3.000000X-3.000000X3.000000X3.000000X-3.000000X3.000000X-3.000000X-3.000000X0*%
G04 APERTURE END LIST*
D10*
X38200000Y-84750000D03*
X38200000Y-84000000D03*
X38200000Y-83250000D03*
X38200000Y-82500000D03*
X38200000Y-81750000D03*
X38200000Y-81000000D03*
X38200000Y-80250000D03*
X27750000Y-108200000D03*
X27000000Y-108200000D03*
X26250000Y-108200000D03*
X25500000Y-108200000D03*
X24750000Y-108200000D03*
X24000000Y-108200000D03*
X23250000Y-108200000D03*
X38200000Y-115350000D03*
X38200000Y-114600000D03*
X38200000Y-113850000D03*
X38200000Y-113100000D03*
X38200000Y-111600000D03*
X38200000Y-112350000D03*
X2800000Y-115350000D03*
X2800000Y-114600000D03*
X2800000Y-113850000D03*
X2800000Y-113100000D03*
X2800000Y-112350000D03*
X2800000Y-111600000D03*
X2800000Y-84750000D03*
X2800000Y-84000000D03*
X2800000Y-83250000D03*
X2800000Y-82500000D03*
X2800000Y-81750000D03*
X2800000Y-81000000D03*
X2800000Y-80250000D03*
X27750000Y-37800000D03*
X27000000Y-37800000D03*
X26250000Y-37800000D03*
X25500000Y-37800000D03*
X24750000Y-37800000D03*
X24000000Y-37800000D03*
X23250000Y-37800000D03*
X38200000Y-30650000D03*
X38200000Y-31400000D03*
X38200000Y-32150000D03*
X38200000Y-32900000D03*
X38200000Y-33650000D03*
X38200000Y-34400000D03*
X2800000Y-34400000D03*
X2800000Y-33650000D03*
X2800000Y-32900000D03*
X2800000Y-32150000D03*
X2800000Y-30650000D03*
X2800000Y-31400000D03*
D11*
X36900000Y-80400000D03*
X35500000Y-80400000D03*
D12*
X14600000Y-46400000D03*
D13*
X21400000Y-47100000D03*
X22800000Y-47100000D03*
D14*
X6000000Y-102597500D03*
D15*
X4525000Y-104100000D03*
X7475000Y-104100000D03*
D12*
X15900000Y-41500000D03*
D11*
X5700000Y-77000000D03*
X4300000Y-77000000D03*
D16*
X35740000Y-98400000D03*
D17*
X33200000Y-98400000D03*
X30660000Y-98400000D03*
D18*
X15400000Y-48100000D03*
X19800000Y-48100000D03*
D19*
X21800000Y-98200000D03*
X21800000Y-96800000D03*
D11*
X10400000Y-101100000D03*
X9000000Y-101100000D03*
D12*
X36700000Y-46500000D03*
D13*
X10000000Y-54300000D03*
X11400000Y-54300000D03*
D20*
X20800000Y-39500000D03*
X22400000Y-39500000D03*
D11*
X26300000Y-74400000D03*
X24900000Y-74400000D03*
D13*
X21400000Y-45400000D03*
X22800000Y-45400000D03*
D19*
X23600000Y-98200000D03*
X23600000Y-96800000D03*
D13*
X6500000Y-46050000D03*
X7900000Y-46050000D03*
D11*
X6100000Y-48600000D03*
X4700000Y-48600000D03*
D12*
X21100000Y-50600000D03*
X28700000Y-38950000D03*
D21*
X36100000Y-40900000D03*
X36100000Y-42900000D03*
D17*
X4700000Y-101200000D03*
D11*
X6100000Y-50000000D03*
X4700000Y-50000000D03*
D22*
X25800000Y-98650000D03*
X25800000Y-99600000D03*
X25800000Y-100550000D03*
X28400000Y-100550000D03*
X28400000Y-98650000D03*
D11*
X12400000Y-46050000D03*
X11000000Y-46050000D03*
X22800000Y-48900000D03*
X21400000Y-48900000D03*
X26300000Y-72900000D03*
X24900000Y-72900000D03*
D23*
X19050000Y-41300000D03*
X17150000Y-41300000D03*
X18100000Y-43600000D03*
D24*
X31325000Y-39300000D03*
X33075000Y-39300000D03*
D25*
X31462500Y-40950000D03*
X31462500Y-41900000D03*
X31462500Y-42850000D03*
X33737500Y-42850000D03*
X33737500Y-40950000D03*
D13*
X27600000Y-76000000D03*
X29000000Y-76000000D03*
X35500000Y-78800000D03*
X36900000Y-78800000D03*
D11*
X26300000Y-71300000D03*
X24900000Y-71300000D03*
D26*
X18600000Y-82600000D03*
X16600000Y-82600000D03*
X14600000Y-82600000D03*
X12600000Y-82600000D03*
X10600000Y-82600000D03*
X8600000Y-82600000D03*
X6600000Y-82600000D03*
X4600000Y-82600000D03*
X4600000Y-98600000D03*
X6600000Y-98600000D03*
X8600000Y-98600000D03*
X10600000Y-98600000D03*
X12600000Y-98600000D03*
X14600000Y-98600000D03*
X16600000Y-98600000D03*
X18600000Y-98600000D03*
D11*
X26300000Y-69700000D03*
X24900000Y-69700000D03*
D19*
X21800000Y-95400000D03*
X21800000Y-94000000D03*
D27*
X19800000Y-52200000D03*
X15400000Y-52200000D03*
D11*
X17200000Y-45400000D03*
X15800000Y-45400000D03*
D28*
X23600000Y-99525000D03*
X23600000Y-101275000D03*
D12*
X8000000Y-54400000D03*
D23*
X22550000Y-41300000D03*
X20650000Y-41300000D03*
X21600000Y-43600000D03*
D12*
X13800000Y-53200000D03*
D13*
X22200000Y-54400000D03*
X23600000Y-54400000D03*
D29*
X10850000Y-48962500D03*
X10350000Y-48962500D03*
X9850000Y-48962500D03*
X9350000Y-48962500D03*
X8850000Y-48962500D03*
X8350000Y-48962500D03*
D30*
X7662500Y-49650000D03*
X7662500Y-50150000D03*
X7662500Y-50650000D03*
X7662500Y-51150000D03*
X7662500Y-51650000D03*
X7662500Y-52150000D03*
D29*
X8350000Y-52837500D03*
X8850000Y-52837500D03*
X9350000Y-52837500D03*
X9850000Y-52837500D03*
X10350000Y-52837500D03*
X10850000Y-52837500D03*
D30*
X11537500Y-52150000D03*
X11537500Y-51650000D03*
X11537500Y-51150000D03*
X11537500Y-50650000D03*
X11537500Y-50150000D03*
X11537500Y-49650000D03*
D31*
X9600000Y-50900000D03*
D32*
X14000000Y-104000000D03*
D12*
X7900000Y-78000000D03*
D11*
X34100000Y-78800000D03*
X32700000Y-78800000D03*
D12*
X13700000Y-48450000D03*
D33*
X21800000Y-99700000D03*
X21800000Y-101100000D03*
D34*
X35375000Y-44700000D03*
X33625000Y-44700000D03*
D16*
X35300000Y-105600000D03*
D17*
X32800000Y-105600000D03*
X30300000Y-105600000D03*
X27800000Y-105600000D03*
X25300000Y-105600000D03*
X22800000Y-105600000D03*
X20300000Y-105600000D03*
D35*
X12390000Y-42800000D03*
X6610000Y-42800000D03*
D36*
X12750000Y-44245000D03*
X11950000Y-44245000D03*
D37*
X10750000Y-44245000D03*
X9750000Y-44245000D03*
X9250000Y-44245000D03*
X8250000Y-44245000D03*
D36*
X7050000Y-44245000D03*
X6250000Y-44245000D03*
D37*
X7750000Y-44245000D03*
X8750000Y-44245000D03*
X10250000Y-44245000D03*
X11250000Y-44245000D03*
D38*
X14570000Y-43330000D03*
D39*
X4430000Y-39150000D03*
D38*
X4430000Y-43330000D03*
D39*
X14570000Y-39150000D03*
D11*
X34100000Y-80400000D03*
X32700000Y-80400000D03*
D40*
X25070000Y-94445000D03*
D41*
X24330000Y-84155000D03*
D17*
X26870000Y-85425000D03*
X24330000Y-86695000D03*
X26870000Y-87965000D03*
X24330000Y-89235000D03*
X26870000Y-90505000D03*
X24330000Y-91775000D03*
X26870000Y-93045000D03*
D13*
X18600000Y-45400000D03*
X20000000Y-45400000D03*
D19*
X24800000Y-78600000D03*
X24800000Y-77200000D03*
D41*
X27200000Y-42250000D03*
D17*
X27200000Y-44750000D03*
X27200000Y-47250000D03*
X27200000Y-49750000D03*
D20*
X17300000Y-39500000D03*
X18900000Y-39500000D03*
D11*
X7900000Y-47300000D03*
X6500000Y-47300000D03*
D33*
X6000000Y-51300000D03*
X6000000Y-52700000D03*
D12*
X30500000Y-44400000D03*
D33*
X24800000Y-80100000D03*
X24800000Y-81500000D03*
D40*
X33870000Y-94445000D03*
D41*
X33130000Y-84155000D03*
D17*
X35670000Y-85425000D03*
X33130000Y-86695000D03*
X35670000Y-87965000D03*
X33130000Y-89235000D03*
X35670000Y-90505000D03*
X33130000Y-91775000D03*
X35670000Y-93045000D03*
D42*
X26800000Y-80700000D03*
X27800000Y-80700000D03*
X28800000Y-80700000D03*
X28800000Y-77700000D03*
X27800000Y-77700000D03*
X26800000Y-77700000D03*
D43*
X27800000Y-79200000D03*
D44*
X25600000Y-96600000D03*
X28400000Y-96600000D03*
D32*
X33000000Y-49000000D03*
D45*
X4600000Y-74750000D03*
X5870000Y-74750000D03*
X7140000Y-74750000D03*
X8410000Y-74750000D03*
X9680000Y-74750000D03*
X10950000Y-74750000D03*
X12220000Y-74750000D03*
X13490000Y-74750000D03*
X14760000Y-74750000D03*
X16030000Y-74750000D03*
X17300000Y-74750000D03*
X18570000Y-74750000D03*
X19840000Y-74750000D03*
X21110000Y-74750000D03*
D46*
X22850000Y-71200000D03*
X22850000Y-69930000D03*
X22850000Y-68660000D03*
X22850000Y-67390000D03*
X22850000Y-66120000D03*
X22850000Y-64850000D03*
X22850000Y-63580000D03*
X22850000Y-62310000D03*
X22850000Y-61040000D03*
X22850000Y-59770000D03*
D45*
X21110000Y-56250000D03*
X19840000Y-56250000D03*
X18570000Y-56250000D03*
X17300000Y-56250000D03*
X16030000Y-56250000D03*
X14760000Y-56250000D03*
X13490000Y-56250000D03*
X12220000Y-56250000D03*
X10950000Y-56250000D03*
X9680000Y-56250000D03*
X8410000Y-56250000D03*
X7140000Y-56250000D03*
X5870000Y-56250000D03*
X4600000Y-56250000D03*
D47*
X12300000Y-65500000D03*
M02*
