G04 #@! TF.GenerationSoftware,KiCad,Pcbnew,(5.99.0-10229-ge8e7d13299)*
G04 #@! TF.CreationDate,2021-06-16T15:48:42+02:00*
G04 #@! TF.ProjectId,openair2-panelized,6f70656e-6169-4723-922d-70616e656c69,rev?*
G04 #@! TF.SameCoordinates,PX3473bc0PY1312d00*
G04 #@! TF.FileFunction,Soldermask,Bot*
G04 #@! TF.FilePolarity,Negative*
%FSLAX46Y46*%
G04 Gerber Fmt 4.6, Leading zero omitted, Abs format (unit mm)*
G04 Created by KiCad (PCBNEW (5.99.0-10229-ge8e7d13299)) date 2021-06-16 15:48:42*
%MOMM*%
%LPD*%
G01*
G04 APERTURE LIST*
G04 Aperture macros list*
%AMRoundRect*
0 Rectangle with rounded corners*
0 $1 Rounding radius*
0 $2 $3 $4 $5 $6 $7 $8 $9 X,Y pos of 4 corners*
0 Add a 4 corners polygon primitive as box body*
4,1,4,$2,$3,$4,$5,$6,$7,$8,$9,$2,$3,0*
0 Add four circle primitives for the rounded corners*
1,1,$1+$1,$2,$3*
1,1,$1+$1,$4,$5*
1,1,$1+$1,$6,$7*
1,1,$1+$1,$8,$9*
0 Add four rect primitives between the rounded corners*
20,1,$1+$1,$2,$3,$4,$5,0*
20,1,$1+$1,$4,$5,$6,$7,0*
20,1,$1+$1,$6,$7,$8,$9,0*
20,1,$1+$1,$8,$9,$2,$3,0*%
G04 Aperture macros list end*
%ADD10C,0.700000*%
%ADD11RoundRect,0.100000X0.800000X0.800000X-0.800000X0.800000X-0.800000X-0.800000X0.800000X-0.800000X0*%
%ADD12C,1.800000*%
%ADD13C,6.200000*%
%ADD14C,0.850000*%
%ADD15C,2.200000*%
%ADD16RoundRect,0.100000X-0.800000X0.800000X-0.800000X-0.800000X0.800000X-0.800000X0.800000X0.800000X0*%
G04 APERTURE END LIST*
D10*
X38200000Y-84750000D03*
X38200000Y-84000000D03*
X38200000Y-83250000D03*
X38200000Y-82500000D03*
X38200000Y-81750000D03*
X38200000Y-81000000D03*
X38200000Y-80250000D03*
X27750000Y-108200000D03*
X27000000Y-108200000D03*
X26250000Y-108200000D03*
X25500000Y-108200000D03*
X24750000Y-108200000D03*
X24000000Y-108200000D03*
X23250000Y-108200000D03*
X38200000Y-115350000D03*
X38200000Y-114600000D03*
X38200000Y-113850000D03*
X38200000Y-113100000D03*
X38200000Y-111600000D03*
X38200000Y-112350000D03*
X2800000Y-115350000D03*
X2800000Y-114600000D03*
X2800000Y-113850000D03*
X2800000Y-113100000D03*
X2800000Y-112350000D03*
X2800000Y-111600000D03*
X2800000Y-84750000D03*
X2800000Y-84000000D03*
X2800000Y-83250000D03*
X2800000Y-82500000D03*
X2800000Y-81750000D03*
X2800000Y-81000000D03*
X2800000Y-80250000D03*
X27750000Y-37800000D03*
X27000000Y-37800000D03*
X26250000Y-37800000D03*
X25500000Y-37800000D03*
X24750000Y-37800000D03*
X24000000Y-37800000D03*
X23250000Y-37800000D03*
X38200000Y-30650000D03*
X38200000Y-31400000D03*
X38200000Y-32150000D03*
X38200000Y-32900000D03*
X38200000Y-33650000D03*
X38200000Y-34400000D03*
X2800000Y-34400000D03*
X2800000Y-33650000D03*
X2800000Y-32900000D03*
X2800000Y-32150000D03*
X2800000Y-30650000D03*
X2800000Y-31400000D03*
D11*
X35740000Y-98400000D03*
D12*
X33200000Y-98400000D03*
X30660000Y-98400000D03*
X4700000Y-101200000D03*
D13*
X14000000Y-104000000D03*
D11*
X35300000Y-105600000D03*
D12*
X32800000Y-105600000D03*
X30300000Y-105600000D03*
X27800000Y-105600000D03*
X25300000Y-105600000D03*
X22800000Y-105600000D03*
X20300000Y-105600000D03*
D14*
X12390000Y-42800000D03*
X6610000Y-42800000D03*
D15*
X25070000Y-94445000D03*
D16*
X24330000Y-84155000D03*
D12*
X26870000Y-85425000D03*
X24330000Y-86695000D03*
X26870000Y-87965000D03*
X24330000Y-89235000D03*
X26870000Y-90505000D03*
X24330000Y-91775000D03*
X26870000Y-93045000D03*
D16*
X27200000Y-42250000D03*
D12*
X27200000Y-44750000D03*
X27200000Y-47250000D03*
X27200000Y-49750000D03*
D15*
X33870000Y-94445000D03*
D16*
X33130000Y-84155000D03*
D12*
X35670000Y-85425000D03*
X33130000Y-86695000D03*
X35670000Y-87965000D03*
X33130000Y-89235000D03*
X35670000Y-90505000D03*
X33130000Y-91775000D03*
X35670000Y-93045000D03*
D13*
X33000000Y-49000000D03*
M02*
