G04 #@! TF.GenerationSoftware,KiCad,Pcbnew,(5.99.0-10229-ge8e7d13299)*
G04 #@! TF.CreationDate,2021-06-16T15:48:42+02:00*
G04 #@! TF.ProjectId,openair2-panelized,6f70656e-6169-4723-922d-70616e656c69,rev?*
G04 #@! TF.SameCoordinates,PX3473bc0PY1312d00*
G04 #@! TF.FileFunction,Legend,Bot*
G04 #@! TF.FilePolarity,Positive*
%FSLAX46Y46*%
G04 Gerber Fmt 4.6, Leading zero omitted, Abs format (unit mm)*
G04 Created by KiCad (PCBNEW (5.99.0-10229-ge8e7d13299)) date 2021-06-16 15:48:42*
%MOMM*%
%LPD*%
G01*
G04 APERTURE LIST*
%ADD10C,0.150000*%
%ADD11C,0.200000*%
G04 APERTURE END LIST*
D10*
X36361904Y-103161904D02*
X35866666Y-103161904D01*
X36133333Y-103466666D01*
X36019047Y-103466666D01*
X35942857Y-103504761D01*
X35904761Y-103542857D01*
X35866666Y-103619047D01*
X35866666Y-103809523D01*
X35904761Y-103885714D01*
X35942857Y-103923809D01*
X36019047Y-103961904D01*
X36247619Y-103961904D01*
X36323809Y-103923809D01*
X36361904Y-103885714D01*
X35638095Y-103161904D02*
X35371428Y-103961904D01*
X35104761Y-103161904D01*
X34914285Y-103161904D02*
X34419047Y-103161904D01*
X34685714Y-103466666D01*
X34571428Y-103466666D01*
X34495238Y-103504761D01*
X34457142Y-103542857D01*
X34419047Y-103619047D01*
X34419047Y-103809523D01*
X34457142Y-103885714D01*
X34495238Y-103923809D01*
X34571428Y-103961904D01*
X34800000Y-103961904D01*
X34876190Y-103923809D01*
X34914285Y-103885714D01*
X30647619Y-103161904D02*
X31028571Y-103161904D01*
X31066666Y-103542857D01*
X31028571Y-103504761D01*
X30952380Y-103466666D01*
X30761904Y-103466666D01*
X30685714Y-103504761D01*
X30647619Y-103542857D01*
X30609523Y-103619047D01*
X30609523Y-103809523D01*
X30647619Y-103885714D01*
X30685714Y-103923809D01*
X30761904Y-103961904D01*
X30952380Y-103961904D01*
X31028571Y-103923809D01*
X31066666Y-103885714D01*
X30380952Y-103161904D02*
X30114285Y-103961904D01*
X29847619Y-103161904D01*
X26114285Y-103200000D02*
X26190476Y-103161904D01*
X26304761Y-103161904D01*
X26419047Y-103200000D01*
X26495238Y-103276190D01*
X26533333Y-103352380D01*
X26571428Y-103504761D01*
X26571428Y-103619047D01*
X26533333Y-103771428D01*
X26495238Y-103847619D01*
X26419047Y-103923809D01*
X26304761Y-103961904D01*
X26228571Y-103961904D01*
X26114285Y-103923809D01*
X26076190Y-103885714D01*
X26076190Y-103619047D01*
X26228571Y-103619047D01*
X25733333Y-103961904D02*
X25733333Y-103161904D01*
X25276190Y-103961904D01*
X25276190Y-103161904D01*
X24895238Y-103961904D02*
X24895238Y-103161904D01*
X24704761Y-103161904D01*
X24590476Y-103200000D01*
X24514285Y-103276190D01*
X24476190Y-103352380D01*
X24438095Y-103504761D01*
X24438095Y-103619047D01*
X24476190Y-103771428D01*
X24514285Y-103847619D01*
X24590476Y-103923809D01*
X24704761Y-103961904D01*
X24895238Y-103961904D01*
X23028571Y-103961904D02*
X23295238Y-103580952D01*
X23485714Y-103961904D02*
X23485714Y-103161904D01*
X23180952Y-103161904D01*
X23104761Y-103200000D01*
X23066666Y-103238095D01*
X23028571Y-103314285D01*
X23028571Y-103428571D01*
X23066666Y-103504761D01*
X23104761Y-103542857D01*
X23180952Y-103580952D01*
X23485714Y-103580952D01*
X22761904Y-103161904D02*
X22228571Y-103961904D01*
X22228571Y-103161904D02*
X22761904Y-103961904D01*
X20819047Y-103161904D02*
X20361904Y-103161904D01*
X20590476Y-103961904D02*
X20590476Y-103161904D01*
X20171428Y-103161904D02*
X19638095Y-103961904D01*
X19638095Y-103161904D02*
X20171428Y-103961904D01*
X29057142Y-41542857D02*
X29057142Y-42152380D01*
X29361904Y-41847619D02*
X28752380Y-41847619D01*
X28561904Y-42914285D02*
X28561904Y-42533333D01*
X28942857Y-42495238D01*
X28904761Y-42533333D01*
X28866666Y-42609523D01*
X28866666Y-42800000D01*
X28904761Y-42876190D01*
X28942857Y-42914285D01*
X29019047Y-42952380D01*
X29209523Y-42952380D01*
X29285714Y-42914285D01*
X29323809Y-42876190D01*
X29361904Y-42800000D01*
X29361904Y-42609523D01*
X29323809Y-42533333D01*
X29285714Y-42495238D01*
X28600000Y-44323809D02*
X28561904Y-44247619D01*
X28561904Y-44133333D01*
X28600000Y-44019047D01*
X28676190Y-43942857D01*
X28752380Y-43904761D01*
X28904761Y-43866666D01*
X29019047Y-43866666D01*
X29171428Y-43904761D01*
X29247619Y-43942857D01*
X29323809Y-44019047D01*
X29361904Y-44133333D01*
X29361904Y-44209523D01*
X29323809Y-44323809D01*
X29285714Y-44361904D01*
X29019047Y-44361904D01*
X29019047Y-44209523D01*
X29361904Y-44704761D02*
X28561904Y-44704761D01*
X29361904Y-45161904D01*
X28561904Y-45161904D01*
X29361904Y-45542857D02*
X28561904Y-45542857D01*
X28561904Y-45733333D01*
X28600000Y-45847619D01*
X28676190Y-45923809D01*
X28752380Y-45961904D01*
X28904761Y-46000000D01*
X29019047Y-46000000D01*
X29171428Y-45961904D01*
X29247619Y-45923809D01*
X29323809Y-45847619D01*
X29361904Y-45733333D01*
X29361904Y-45542857D01*
X29361904Y-47333333D02*
X29361904Y-46952380D01*
X28561904Y-46952380D01*
X29057142Y-47600000D02*
X29057142Y-48209523D01*
X29361904Y-49580952D02*
X29361904Y-49200000D01*
X28561904Y-49200000D01*
X29057142Y-49847619D02*
X29057142Y-50457142D01*
X29361904Y-50152380D02*
X28752380Y-50152380D01*
D11*
X20602380Y-52548571D02*
X19602380Y-52548571D01*
X19602380Y-52786666D01*
X19650000Y-52929523D01*
X19745238Y-53024761D01*
X19840476Y-53072380D01*
X20030952Y-53120000D01*
X20173809Y-53120000D01*
X20364285Y-53072380D01*
X20459523Y-53024761D01*
X20554761Y-52929523D01*
X20602380Y-52786666D01*
X20602380Y-52548571D01*
X20554761Y-53929523D02*
X20602380Y-53834285D01*
X20602380Y-53643809D01*
X20554761Y-53548571D01*
X20459523Y-53500952D01*
X20078571Y-53500952D01*
X19983333Y-53548571D01*
X19935714Y-53643809D01*
X19935714Y-53834285D01*
X19983333Y-53929523D01*
X20078571Y-53977142D01*
X20173809Y-53977142D01*
X20269047Y-53500952D01*
X20554761Y-54358095D02*
X20602380Y-54453333D01*
X20602380Y-54643809D01*
X20554761Y-54739047D01*
X20459523Y-54786666D01*
X20411904Y-54786666D01*
X20316666Y-54739047D01*
X20269047Y-54643809D01*
X20269047Y-54500952D01*
X20221428Y-54405714D01*
X20126190Y-54358095D01*
X20078571Y-54358095D01*
X19983333Y-54405714D01*
X19935714Y-54500952D01*
X19935714Y-54643809D01*
X19983333Y-54739047D01*
X20602380Y-55215238D02*
X19935714Y-55215238D01*
X19602380Y-55215238D02*
X19650000Y-55167619D01*
X19697619Y-55215238D01*
X19650000Y-55262857D01*
X19602380Y-55215238D01*
X19697619Y-55215238D01*
X19935714Y-56120000D02*
X20745238Y-56120000D01*
X20840476Y-56072380D01*
X20888095Y-56024761D01*
X20935714Y-55929523D01*
X20935714Y-55786666D01*
X20888095Y-55691428D01*
X20554761Y-56120000D02*
X20602380Y-56024761D01*
X20602380Y-55834285D01*
X20554761Y-55739047D01*
X20507142Y-55691428D01*
X20411904Y-55643809D01*
X20126190Y-55643809D01*
X20030952Y-55691428D01*
X19983333Y-55739047D01*
X19935714Y-55834285D01*
X19935714Y-56024761D01*
X19983333Y-56120000D01*
X19935714Y-56596190D02*
X20602380Y-56596190D01*
X20030952Y-56596190D02*
X19983333Y-56643809D01*
X19935714Y-56739047D01*
X19935714Y-56881904D01*
X19983333Y-56977142D01*
X20078571Y-57024761D01*
X20602380Y-57024761D01*
X20554761Y-57881904D02*
X20602380Y-57786666D01*
X20602380Y-57596190D01*
X20554761Y-57500952D01*
X20459523Y-57453333D01*
X20078571Y-57453333D01*
X19983333Y-57500952D01*
X19935714Y-57596190D01*
X19935714Y-57786666D01*
X19983333Y-57881904D01*
X20078571Y-57929523D01*
X20173809Y-57929523D01*
X20269047Y-57453333D01*
X20602380Y-58786666D02*
X19602380Y-58786666D01*
X20554761Y-58786666D02*
X20602380Y-58691428D01*
X20602380Y-58500952D01*
X20554761Y-58405714D01*
X20507142Y-58358095D01*
X20411904Y-58310476D01*
X20126190Y-58310476D01*
X20030952Y-58358095D01*
X19983333Y-58405714D01*
X19935714Y-58500952D01*
X19935714Y-58691428D01*
X19983333Y-58786666D01*
X19935714Y-59929523D02*
X20602380Y-60120000D01*
X20126190Y-60310476D01*
X20602380Y-60500952D01*
X19935714Y-60691428D01*
X20602380Y-61072380D02*
X19935714Y-61072380D01*
X19602380Y-61072380D02*
X19650000Y-61024761D01*
X19697619Y-61072380D01*
X19650000Y-61120000D01*
X19602380Y-61072380D01*
X19697619Y-61072380D01*
X19935714Y-61405714D02*
X19935714Y-61786666D01*
X19602380Y-61548571D02*
X20459523Y-61548571D01*
X20554761Y-61596190D01*
X20602380Y-61691428D01*
X20602380Y-61786666D01*
X20602380Y-62120000D02*
X19602380Y-62120000D01*
X20602380Y-62548571D02*
X20078571Y-62548571D01*
X19983333Y-62500952D01*
X19935714Y-62405714D01*
X19935714Y-62262857D01*
X19983333Y-62167619D01*
X20030952Y-62120000D01*
X20602380Y-64262857D02*
X20602380Y-63786666D01*
X19602380Y-63786666D01*
X20602380Y-64739047D02*
X20554761Y-64643809D01*
X20507142Y-64596190D01*
X20411904Y-64548571D01*
X20126190Y-64548571D01*
X20030952Y-64596190D01*
X19983333Y-64643809D01*
X19935714Y-64739047D01*
X19935714Y-64881904D01*
X19983333Y-64977142D01*
X20030952Y-65024761D01*
X20126190Y-65072380D01*
X20411904Y-65072380D01*
X20507142Y-65024761D01*
X20554761Y-64977142D01*
X20602380Y-64881904D01*
X20602380Y-64739047D01*
X19935714Y-65405714D02*
X20602380Y-65643809D01*
X19935714Y-65881904D01*
X20554761Y-66643809D02*
X20602380Y-66548571D01*
X20602380Y-66358095D01*
X20554761Y-66262857D01*
X20459523Y-66215238D01*
X20078571Y-66215238D01*
X19983333Y-66262857D01*
X19935714Y-66358095D01*
X19935714Y-66548571D01*
X19983333Y-66643809D01*
X20078571Y-66691428D01*
X20173809Y-66691428D01*
X20269047Y-66215238D01*
X20602380Y-67881904D02*
X19935714Y-67881904D01*
X19602380Y-67881904D02*
X19650000Y-67834285D01*
X19697619Y-67881904D01*
X19650000Y-67929523D01*
X19602380Y-67881904D01*
X19697619Y-67881904D01*
X19935714Y-68358095D02*
X20602380Y-68358095D01*
X20030952Y-68358095D02*
X19983333Y-68405714D01*
X19935714Y-68500952D01*
X19935714Y-68643809D01*
X19983333Y-68739047D01*
X20078571Y-68786666D01*
X20602380Y-68786666D01*
X20507142Y-70596190D02*
X20554761Y-70548571D01*
X20602380Y-70405714D01*
X20602380Y-70310476D01*
X20554761Y-70167619D01*
X20459523Y-70072380D01*
X20364285Y-70024761D01*
X20173809Y-69977142D01*
X20030952Y-69977142D01*
X19840476Y-70024761D01*
X19745238Y-70072380D01*
X19650000Y-70167619D01*
X19602380Y-70310476D01*
X19602380Y-70405714D01*
X19650000Y-70548571D01*
X19697619Y-70596190D01*
X20602380Y-71167619D02*
X20554761Y-71072380D01*
X20507142Y-71024761D01*
X20411904Y-70977142D01*
X20126190Y-70977142D01*
X20030952Y-71024761D01*
X19983333Y-71072380D01*
X19935714Y-71167619D01*
X19935714Y-71310476D01*
X19983333Y-71405714D01*
X20030952Y-71453333D01*
X20126190Y-71500952D01*
X20411904Y-71500952D01*
X20507142Y-71453333D01*
X20554761Y-71405714D01*
X20602380Y-71310476D01*
X20602380Y-71167619D01*
X20602380Y-72072380D02*
X20554761Y-71977142D01*
X20459523Y-71929523D01*
X19602380Y-71929523D01*
X20602380Y-72596190D02*
X20554761Y-72500952D01*
X20507142Y-72453333D01*
X20411904Y-72405714D01*
X20126190Y-72405714D01*
X20030952Y-72453333D01*
X19983333Y-72500952D01*
X19935714Y-72596190D01*
X19935714Y-72739047D01*
X19983333Y-72834285D01*
X20030952Y-72881904D01*
X20126190Y-72929523D01*
X20411904Y-72929523D01*
X20507142Y-72881904D01*
X20554761Y-72834285D01*
X20602380Y-72739047D01*
X20602380Y-72596190D01*
X19935714Y-73786666D02*
X20745238Y-73786666D01*
X20840476Y-73739047D01*
X20888095Y-73691428D01*
X20935714Y-73596190D01*
X20935714Y-73453333D01*
X20888095Y-73358095D01*
X20554761Y-73786666D02*
X20602380Y-73691428D01*
X20602380Y-73500952D01*
X20554761Y-73405714D01*
X20507142Y-73358095D01*
X20411904Y-73310476D01*
X20126190Y-73310476D01*
X20030952Y-73358095D01*
X19983333Y-73405714D01*
X19935714Y-73500952D01*
X19935714Y-73691428D01*
X19983333Y-73786666D01*
X19935714Y-74262857D02*
X20602380Y-74262857D01*
X20030952Y-74262857D02*
X19983333Y-74310476D01*
X19935714Y-74405714D01*
X19935714Y-74548571D01*
X19983333Y-74643809D01*
X20078571Y-74691428D01*
X20602380Y-74691428D01*
X20554761Y-75548571D02*
X20602380Y-75453333D01*
X20602380Y-75262857D01*
X20554761Y-75167619D01*
X20459523Y-75119999D01*
X20078571Y-75119999D01*
X19983333Y-75167619D01*
X19935714Y-75262857D01*
X19935714Y-75453333D01*
X19983333Y-75548571D01*
X20078571Y-75596190D01*
X20173809Y-75596190D01*
X20269047Y-75119999D01*
X20602380Y-76786666D02*
X19602380Y-76786666D01*
X19983333Y-76786666D02*
X19935714Y-76881904D01*
X19935714Y-77072380D01*
X19983333Y-77167619D01*
X20030952Y-77215238D01*
X20126190Y-77262857D01*
X20411904Y-77262857D01*
X20507142Y-77215238D01*
X20554761Y-77167619D01*
X20602380Y-77072380D01*
X20602380Y-76881904D01*
X20554761Y-76786666D01*
X19935714Y-77596190D02*
X20602380Y-77834285D01*
X19935714Y-78072380D02*
X20602380Y-77834285D01*
X20840476Y-77739047D01*
X20888095Y-77691428D01*
X20935714Y-77596190D01*
X20602380Y-79215238D02*
X19602380Y-79215238D01*
X19602380Y-79596190D01*
X19650000Y-79691428D01*
X19697619Y-79739047D01*
X19792857Y-79786666D01*
X19935714Y-79786666D01*
X20030952Y-79739047D01*
X20078571Y-79691428D01*
X20126190Y-79596190D01*
X20126190Y-79215238D01*
X20602380Y-80215238D02*
X19935714Y-80215238D01*
X20126190Y-80215238D02*
X20030952Y-80262857D01*
X19983333Y-80310476D01*
X19935714Y-80405714D01*
X19935714Y-80500952D01*
X20554761Y-81215238D02*
X20602380Y-81119999D01*
X20602380Y-80929523D01*
X20554761Y-80834285D01*
X20459523Y-80786666D01*
X20078571Y-80786666D01*
X19983333Y-80834285D01*
X19935714Y-80929523D01*
X19935714Y-81119999D01*
X19983333Y-81215238D01*
X20078571Y-81262857D01*
X20173809Y-81262857D01*
X20269047Y-80786666D01*
X20554761Y-81643809D02*
X20602380Y-81739047D01*
X20602380Y-81929523D01*
X20554761Y-82024761D01*
X20459523Y-82072380D01*
X20411904Y-82072380D01*
X20316666Y-82024761D01*
X20269047Y-81929523D01*
X20269047Y-81786666D01*
X20221428Y-81691428D01*
X20126190Y-81643809D01*
X20078571Y-81643809D01*
X19983333Y-81691428D01*
X19935714Y-81786666D01*
X19935714Y-81929523D01*
X19983333Y-82024761D01*
X20554761Y-82453333D02*
X20602380Y-82548571D01*
X20602380Y-82739047D01*
X20554761Y-82834285D01*
X20459523Y-82881904D01*
X20411904Y-82881904D01*
X20316666Y-82834285D01*
X20269047Y-82739047D01*
X20269047Y-82596190D01*
X20221428Y-82500952D01*
X20126190Y-82453333D01*
X20078571Y-82453333D01*
X19983333Y-82500952D01*
X19935714Y-82596190D01*
X19935714Y-82739047D01*
X19983333Y-82834285D01*
X20078571Y-84072380D02*
X20078571Y-84405714D01*
X20602380Y-84548571D02*
X20602380Y-84072380D01*
X19602380Y-84072380D01*
X19602380Y-84548571D01*
X19935714Y-84881904D02*
X20602380Y-85119999D01*
X19935714Y-85358095D01*
X20554761Y-86119999D02*
X20602380Y-86024761D01*
X20602380Y-85834285D01*
X20554761Y-85739047D01*
X20459523Y-85691428D01*
X20078571Y-85691428D01*
X19983333Y-85739047D01*
X19935714Y-85834285D01*
X19935714Y-86024761D01*
X19983333Y-86119999D01*
X20078571Y-86167619D01*
X20173809Y-86167619D01*
X20269047Y-85691428D01*
X20602380Y-86596190D02*
X19935714Y-86596190D01*
X20126190Y-86596190D02*
X20030952Y-86643809D01*
X19983333Y-86691428D01*
X19935714Y-86786666D01*
X19935714Y-86881904D01*
X19935714Y-87119999D02*
X20602380Y-87358095D01*
X19935714Y-87596190D02*
X20602380Y-87358095D01*
X20840476Y-87262857D01*
X20888095Y-87215238D01*
X20935714Y-87119999D01*
X20602380Y-88739047D02*
X19602380Y-88739047D01*
X20602380Y-89310476D02*
X20030952Y-88881904D01*
X19602380Y-89310476D02*
X20173809Y-88739047D01*
X20554761Y-90119999D02*
X20602380Y-90024761D01*
X20602380Y-89834285D01*
X20554761Y-89739047D01*
X20459523Y-89691428D01*
X20078571Y-89691428D01*
X19983333Y-89739047D01*
X19935714Y-89834285D01*
X19935714Y-90024761D01*
X19983333Y-90119999D01*
X20078571Y-90167619D01*
X20173809Y-90167619D01*
X20269047Y-89691428D01*
X19935714Y-90500952D02*
X20602380Y-90739047D01*
X19935714Y-90977142D02*
X20602380Y-90739047D01*
X20840476Y-90643809D01*
X20888095Y-90596190D01*
X20935714Y-90500952D01*
M02*
