M48
; DRILL file {KiCad (5.99.0-10229-ge8e7d13299)} date Wednesday, June 16, 2021 at 03:16:49 PM
; FORMAT={-:-/ absolute / metric / decimal}
; #@! TF.CreationDate,2021-06-16T15:16:49+02:00
; #@! TF.GenerationSoftware,Kicad,Pcbnew,(5.99.0-10229-ge8e7d13299)
; #@! TF.FileFunction,MixedPlating,1,2
FMAT,2
METRIC
; #@! TA.AperFunction,Plated,PTH,ViaDrill
T1C0.300
; #@! TA.AperFunction,Plated,PTH,ComponentDrill
T2C0.850
; #@! TA.AperFunction,Plated,PTH,ComponentDrill
T3C1.000
; #@! TA.AperFunction,NonPlated,NPTH,ComponentDrill
T4C0.500
; #@! TA.AperFunction,NonPlated,NPTH,ComponentDrill
T5C0.650
; #@! TA.AperFunction,NonPlated,NPTH,ComponentDrill
T6C1.500
; #@! TA.AperFunction,NonPlated,NPTH,ComponentDrill
T7C3.200
%
G90
G05
T1
X4.0Y-49.3
X4.5Y-44.9
X4.5Y-106.0
X4.568Y-85.572
X4.6Y-54.9
X4.6Y-69.7
X4.6Y-70.9
X4.6Y-80.2
X4.782Y-51.4
X5.4Y-44.9
X5.4Y-71.5
X5.5Y-106.0
X5.7Y-46.7
X5.7Y-84.8
X6.1Y-89.7
X6.4Y-41.4
X6.5Y-101.0
X6.5Y-106.0
X6.6Y-96.6
X6.8Y-73.0
X6.85Y-49.65
X7.5Y-102.0
X7.5Y-106.0
X8.3Y-42.4
X8.4Y-48.0
X8.5Y-103.0
X8.5Y-104.0
X8.5Y-105.0
X8.653Y-43.146
X9.3Y-85.1
X9.75Y-43.15
X10.2Y-106.2
X10.3Y-47.5
X10.7Y-42.4
X10.8Y-84.6
X10.9Y-48.098
X10.9Y-95.1
X11.3Y-87.9
X11.4Y-47.4
X11.45Y-70.257
X11.5Y-41.9
X11.5Y-53.3
X11.704Y-84.599
X11.9Y-57.6
X12.2Y-52.8
X12.2Y-53.8
X12.3Y-61.9
X12.6Y-41.5
X12.6Y-47.4
X12.6Y-48.3
X12.9Y-49.6
X13.052Y-46.648
X13.6Y-44.8
X14.2Y-50.9
X14.9Y-54.6
X15.6Y-93.0
X16.0Y-85.4
X16.1Y-72.2
X16.3Y-78.7
X16.439Y-46.147
X16.655Y-65.978
X18.2Y-71.6
X18.2Y-77.2
X18.6Y-80.9
X18.7Y-49.0
X18.7Y-95.4
X18.713Y-79.302
X18.9Y-72.3
X18.903Y-77.727
X19.246Y-79.905
X19.5Y-67.5
X19.5Y-68.3
X19.6Y-71.6
X19.822Y-80.468
X20.3Y-72.3
X21.0Y-71.6
X21.6Y-72.3
X21.6Y-76.0
X21.8Y-103.6
X22.4Y-80.9
X22.85Y-72.05
X23.6Y-57.1
X23.827Y-80.903
X24.4Y-67.5
X24.4Y-68.3
X24.5Y-63.3
X24.5Y-96.1
X24.7Y-48.5
X24.852Y-100.072
X24.852Y-101.048
X24.9Y-41.6
X25.0Y-53.4
X25.85Y-79.35
X28.1Y-67.8
X28.6Y-82.2
X28.8Y-45.8
X28.8Y-59.1
X28.8Y-93.9
X29.3Y-76.8
X29.5Y-89.6
X29.675Y-85.425
X29.7Y-38.825
X29.7Y-84.2
X30.05Y-82.696
X31.327Y-79.6
X31.4Y-45.4
X31.5Y-100.7
X32.403Y-81.8
X32.5Y-41.9
X32.7Y-76.6
X34.2Y-39.8
X34.5Y-66.1
X34.7Y-73.6
X34.8Y-79.6
X35.0Y-53.3
X36.0Y-96.1
X36.259Y-81.6
X36.3Y-51.2
T2
X24.33Y-84.155
X24.33Y-86.695
X24.33Y-89.235
X24.33Y-91.775
X26.87Y-85.425
X26.87Y-87.965
X26.87Y-90.505
X26.87Y-93.045
X33.13Y-84.155
X33.13Y-86.695
X33.13Y-89.235
X33.13Y-91.775
X35.67Y-85.425
X35.67Y-87.965
X35.67Y-90.505
X35.67Y-93.045
T3
X4.7Y-101.2
X20.3Y-105.6
X22.8Y-105.6
X25.3Y-105.6
X27.2Y-42.25
X27.2Y-44.75
X27.2Y-47.25
X27.2Y-49.75
X27.8Y-105.6
X30.3Y-105.6
X30.66Y-98.4
X32.8Y-105.6
X33.2Y-98.4
X35.3Y-105.6
X35.74Y-98.4
T4
X2.8Y-30.65
X2.8Y-31.4
X2.8Y-32.15
X2.8Y-32.9
X2.8Y-33.65
X2.8Y-34.4
X2.8Y-80.25
X2.8Y-81.0
X2.8Y-81.75
X2.8Y-82.5
X2.8Y-83.25
X2.8Y-84.0
X2.8Y-84.75
X2.8Y-111.6
X2.8Y-112.35
X2.8Y-113.1
X2.8Y-113.85
X2.8Y-114.6
X2.8Y-115.35
X23.25Y-37.8
X23.25Y-108.2
X24.0Y-37.8
X24.0Y-108.2
X24.75Y-37.8
X24.75Y-108.2
X25.5Y-37.8
X25.5Y-108.2
X26.25Y-37.8
X26.25Y-108.2
X27.0Y-37.8
X27.0Y-108.2
X27.75Y-37.8
X27.75Y-108.2
X38.2Y-30.65
X38.2Y-31.4
X38.2Y-32.15
X38.2Y-32.9
X38.2Y-33.65
X38.2Y-34.4
X38.2Y-80.25
X38.2Y-81.0
X38.2Y-81.75
X38.2Y-82.5
X38.2Y-83.25
X38.2Y-84.0
X38.2Y-84.75
X38.2Y-111.6
X38.2Y-112.35
X38.2Y-113.1
X38.2Y-113.85
X38.2Y-114.6
X38.2Y-115.35
T5
X6.61Y-42.8
X12.39Y-42.8
T6
X25.07Y-94.445
X33.87Y-94.445
T7
X14.0Y-104.0
X33.0Y-49.0
T0
M30
