G04 #@! TF.GenerationSoftware,KiCad,Pcbnew,(5.99.0-10229-ge8e7d13299)*
G04 #@! TF.CreationDate,2021-06-15T20:07:50+02:00*
G04 #@! TF.ProjectId,openair2,6f70656e-6169-4723-922e-6b696361645f,rev?*
G04 #@! TF.SameCoordinates,PX3473bc0PY1312d00*
G04 #@! TF.FileFunction,Soldermask,Top*
G04 #@! TF.FilePolarity,Negative*
%FSLAX46Y46*%
G04 Gerber Fmt 4.6, Leading zero omitted, Abs format (unit mm)*
G04 Created by KiCad (PCBNEW (5.99.0-10229-ge8e7d13299)) date 2021-06-15 20:07:50*
%MOMM*%
%LPD*%
G01*
G04 APERTURE LIST*
G04 Aperture macros list*
%AMRoundRect*
0 Rectangle with rounded corners*
0 $1 Rounding radius*
0 $2 $3 $4 $5 $6 $7 $8 $9 X,Y pos of 4 corners*
0 Add a 4 corners polygon primitive as box body*
4,1,4,$2,$3,$4,$5,$6,$7,$8,$9,$2,$3,0*
0 Add four circle primitives for the rounded corners*
1,1,$1+$1,$2,$3*
1,1,$1+$1,$4,$5*
1,1,$1+$1,$6,$7*
1,1,$1+$1,$8,$9*
0 Add four rect primitives between the rounded corners*
20,1,$1+$1,$2,$3,$4,$5,0*
20,1,$1+$1,$4,$5,$6,$7,0*
20,1,$1+$1,$6,$7,$8,$9,0*
20,1,$1+$1,$8,$9,$2,$3,0*%
G04 Aperture macros list end*
%ADD10RoundRect,0.100000X0.350000X0.400000X-0.350000X0.400000X-0.350000X-0.400000X0.350000X-0.400000X0*%
%ADD11RoundRect,0.100000X-0.482500X-0.400000X0.482500X-0.400000X0.482500X0.400000X-0.482500X0.400000X0*%
%ADD12RoundRect,0.100000X-0.300000X0.500000X-0.300000X-0.500000X0.300000X-0.500000X0.300000X0.500000X0*%
%ADD13RoundRect,0.100000X-0.350000X-0.400000X0.350000X-0.400000X0.350000X0.400000X-0.350000X0.400000X0*%
%ADD14C,6.200000*%
%ADD15RoundRect,0.100000X0.500000X-0.750000X0.500000X0.750000X-0.500000X0.750000X-0.500000X-0.750000X0*%
%ADD16RoundRect,0.100000X0.750000X-0.500000X0.750000X0.500000X-0.750000X0.500000X-0.750000X-0.500000X0*%
%ADD17RoundRect,0.100000X3.000000X-3.000000X3.000000X3.000000X-3.000000X3.000000X-3.000000X-3.000000X0*%
%ADD18RoundRect,0.100000X0.225000X-0.475000X0.225000X0.475000X-0.225000X0.475000X-0.225000X-0.475000X0*%
%ADD19RoundRect,0.100000X1.250000X-0.700000X1.250000X0.700000X-1.250000X0.700000X-1.250000X-0.700000X0*%
%ADD20RoundRect,0.100000X-0.400000X0.350000X-0.400000X-0.350000X0.400000X-0.350000X0.400000X0.350000X0*%
%ADD21RoundRect,0.100000X0.400000X-0.350000X0.400000X0.350000X-0.400000X0.350000X-0.400000X-0.350000X0*%
%ADD22C,1.200000*%
%ADD23RoundRect,0.100000X-0.600000X1.200000X-0.600000X-1.200000X0.600000X-1.200000X0.600000X1.200000X0*%
%ADD24RoundRect,0.100000X-0.500000X-1.000000X0.500000X-1.000000X0.500000X1.000000X-0.500000X1.000000X0*%
%ADD25RoundRect,0.100000X0.500000X1.000000X-0.500000X1.000000X-0.500000X-1.000000X0.500000X-1.000000X0*%
%ADD26C,2.200000*%
%ADD27RoundRect,0.100000X-0.800000X0.800000X-0.800000X-0.800000X0.800000X-0.800000X0.800000X0.800000X0*%
%ADD28C,1.800000*%
%ADD29RoundRect,0.100000X-0.550000X-0.550000X0.550000X-0.550000X0.550000X0.550000X-0.550000X0.550000X0*%
%ADD30RoundRect,0.100000X0.800000X0.800000X-0.800000X0.800000X-0.800000X-0.800000X0.800000X-0.800000X0*%
%ADD31RoundRect,0.100000X0.525000X0.525000X-0.525000X0.525000X-0.525000X-0.525000X0.525000X-0.525000X0*%
%ADD32RoundRect,0.100000X0.525000X1.100000X-0.525000X1.100000X-0.525000X-1.100000X0.525000X-1.100000X0*%
%ADD33RoundRect,0.100000X-0.500000X-0.250000X0.500000X-0.250000X0.500000X0.250000X-0.500000X0.250000X0*%
%ADD34RoundRect,0.100000X0.550000X0.700000X-0.550000X0.700000X-0.550000X-0.700000X0.550000X-0.700000X0*%
%ADD35RoundRect,0.100000X-0.700000X0.550000X-0.700000X-0.550000X0.700000X-0.550000X0.700000X0.550000X0*%
%ADD36RoundRect,0.100000X-0.550000X-0.700000X0.550000X-0.700000X0.550000X0.700000X-0.550000X0.700000X0*%
%ADD37RoundRect,0.100000X-1.000000X0.400000X-1.000000X-0.400000X1.000000X-0.400000X1.000000X0.400000X0*%
%ADD38RoundRect,0.200000X-0.562500X-0.200000X0.562500X-0.200000X0.562500X0.200000X-0.562500X0.200000X0*%
%ADD39C,0.850000*%
%ADD40RoundRect,0.100000X0.300000X0.725000X-0.300000X0.725000X-0.300000X-0.725000X0.300000X-0.725000X0*%
%ADD41RoundRect,0.100000X0.150000X0.725000X-0.150000X0.725000X-0.150000X-0.725000X0.150000X-0.725000X0*%
%ADD42RoundRect,0.100000X0.900000X0.725000X-0.900000X0.725000X-0.900000X-0.725000X0.900000X-0.725000X0*%
%ADD43RoundRect,0.100000X0.900000X0.600000X-0.900000X0.600000X-0.900000X-0.600000X0.900000X-0.600000X0*%
%ADD44RoundRect,0.112500X-0.112500X0.400000X-0.112500X-0.400000X0.112500X-0.400000X0.112500X0.400000X0*%
%ADD45RoundRect,0.112500X-0.400000X0.112500X-0.400000X-0.112500X0.400000X-0.112500X0.400000X0.112500X0*%
%ADD46RoundRect,0.100000X-1.300000X1.300000X-1.300000X-1.300000X1.300000X-1.300000X1.300000X1.300000X0*%
G04 APERTURE END LIST*
D10*
X2700000Y-39000000D03*
X1300000Y-39000000D03*
D11*
X17800000Y-1500000D03*
X19400000Y-1500000D03*
X14300000Y-1500000D03*
X15900000Y-1500000D03*
D12*
X19550000Y-3300000D03*
X17650000Y-3300000D03*
X18600000Y-5600000D03*
X16050000Y-3300000D03*
X14150000Y-3300000D03*
X15100000Y-5600000D03*
D13*
X15600000Y-7400000D03*
X17000000Y-7400000D03*
D10*
X14200000Y-7400000D03*
X12800000Y-7400000D03*
D13*
X18400000Y-7400000D03*
X19800000Y-7400000D03*
D10*
X19800000Y-10900000D03*
X18400000Y-10900000D03*
D13*
X19200000Y-16400000D03*
X20600000Y-16400000D03*
D14*
X11000000Y-66000000D03*
X30000000Y-11000000D03*
D15*
X1600000Y-36750000D03*
X2870000Y-36750000D03*
X4140000Y-36750000D03*
X5410000Y-36750000D03*
X6680000Y-36750000D03*
X7950000Y-36750000D03*
X9220000Y-36750000D03*
X10490000Y-36750000D03*
X11760000Y-36750000D03*
X13030000Y-36750000D03*
X14300000Y-36750000D03*
X15570000Y-36750000D03*
X16840000Y-36750000D03*
X18110000Y-36750000D03*
D16*
X19850000Y-33200000D03*
X19850000Y-31930000D03*
X19850000Y-30660000D03*
X19850000Y-29390000D03*
X19850000Y-28120000D03*
X19850000Y-26850000D03*
X19850000Y-25580000D03*
X19850000Y-24310000D03*
X19850000Y-23040000D03*
X19850000Y-21770000D03*
D15*
X18110000Y-18250000D03*
X16840000Y-18250000D03*
X15570000Y-18250000D03*
X14300000Y-18250000D03*
X13030000Y-18250000D03*
X11760000Y-18250000D03*
X10490000Y-18250000D03*
X9220000Y-18250000D03*
X7950000Y-18250000D03*
X6680000Y-18250000D03*
X5410000Y-18250000D03*
X4140000Y-18250000D03*
X2870000Y-18250000D03*
X1600000Y-18250000D03*
D17*
X9300000Y-27500000D03*
D13*
X18400000Y-9100000D03*
X19800000Y-9100000D03*
D10*
X7400000Y-63100000D03*
X6000000Y-63100000D03*
D18*
X23800000Y-42700000D03*
X24800000Y-42700000D03*
X25800000Y-42700000D03*
X25800000Y-39700000D03*
X24800000Y-39700000D03*
X23800000Y-39700000D03*
D19*
X24800000Y-41200000D03*
D20*
X21800000Y-42100000D03*
X21800000Y-43500000D03*
D21*
X21800000Y-40600000D03*
X21800000Y-39200000D03*
D13*
X24600000Y-38000000D03*
X26000000Y-38000000D03*
D22*
X33700000Y-8500000D03*
X27500000Y-6400000D03*
X10800000Y-15200000D03*
X10700000Y-10450000D03*
X5000000Y-16400000D03*
X11600000Y-8400000D03*
D23*
X15600000Y-44600000D03*
X13600000Y-44600000D03*
X11600000Y-44600000D03*
X9600000Y-44600000D03*
X7600000Y-44600000D03*
X5600000Y-44600000D03*
X3600000Y-44600000D03*
X1600000Y-44600000D03*
X1600000Y-60600000D03*
X3600000Y-60600000D03*
X5600000Y-60600000D03*
X7600000Y-60600000D03*
X9600000Y-60600000D03*
X11600000Y-60600000D03*
X13600000Y-60600000D03*
X15600000Y-60600000D03*
D22*
X12900000Y-3500000D03*
D24*
X12400000Y-10100000D03*
X16800000Y-10100000D03*
D25*
X16800000Y-14200000D03*
X12400000Y-14200000D03*
D26*
X22070000Y-56445000D03*
D27*
X21330000Y-46155000D03*
D28*
X23870000Y-47425000D03*
X21330000Y-48695000D03*
X23870000Y-49965000D03*
X21330000Y-51235000D03*
X23870000Y-52505000D03*
X21330000Y-53775000D03*
X23870000Y-55045000D03*
D26*
X30870000Y-56445000D03*
D27*
X30130000Y-46155000D03*
D28*
X32670000Y-47425000D03*
X30130000Y-48695000D03*
X32670000Y-49965000D03*
X30130000Y-51235000D03*
X32670000Y-52505000D03*
X30130000Y-53775000D03*
X32670000Y-55045000D03*
D29*
X22600000Y-58600000D03*
X25400000Y-58600000D03*
D30*
X32740000Y-60400000D03*
D28*
X30200000Y-60400000D03*
X27660000Y-60400000D03*
D21*
X20600000Y-60200000D03*
X20600000Y-58800000D03*
D20*
X18800000Y-61700000D03*
X18800000Y-63100000D03*
D31*
X3000000Y-64597500D03*
D32*
X1525000Y-66100000D03*
X4475000Y-66100000D03*
D28*
X1700000Y-63200000D03*
D33*
X22800000Y-60650000D03*
X22800000Y-61600000D03*
X22800000Y-62550000D03*
X25400000Y-62550000D03*
X25400000Y-60650000D03*
D22*
X4900000Y-40000000D03*
X18100000Y-12600000D03*
D34*
X32375000Y-6700000D03*
X30625000Y-6700000D03*
D35*
X20600000Y-61525000D03*
X20600000Y-63275000D03*
D36*
X28325000Y-1300000D03*
X30075000Y-1300000D03*
D37*
X33100000Y-2900000D03*
X33100000Y-4900000D03*
D30*
X32300000Y-67600000D03*
D28*
X29800000Y-67600000D03*
X27300000Y-67600000D03*
X24800000Y-67600000D03*
X22300000Y-67600000D03*
X19800000Y-67600000D03*
X17300000Y-67600000D03*
D27*
X24200000Y-4250000D03*
D28*
X24200000Y-6750000D03*
X24200000Y-9250000D03*
X24200000Y-11750000D03*
D21*
X18800000Y-60200000D03*
X18800000Y-58800000D03*
D38*
X28462500Y-2950000D03*
X28462500Y-3900000D03*
X28462500Y-4850000D03*
X30737500Y-4850000D03*
X30737500Y-2950000D03*
D10*
X23300000Y-36400000D03*
X21900000Y-36400000D03*
X31100000Y-42400000D03*
X29700000Y-42400000D03*
X23300000Y-34900000D03*
X21900000Y-34900000D03*
X23300000Y-33300000D03*
X21900000Y-33300000D03*
X23300000Y-31700000D03*
X21900000Y-31700000D03*
X33900000Y-42400000D03*
X32500000Y-42400000D03*
D13*
X32500000Y-40800000D03*
X33900000Y-40800000D03*
D21*
X18800000Y-57400000D03*
X18800000Y-56000000D03*
D10*
X31100000Y-40800000D03*
X29700000Y-40800000D03*
D22*
X25700000Y-950000D03*
D10*
X3100000Y-12000000D03*
X1700000Y-12000000D03*
D13*
X3500000Y-8050000D03*
X4900000Y-8050000D03*
D10*
X4900000Y-9300000D03*
X3500000Y-9300000D03*
D39*
X9390000Y-4800000D03*
X3610000Y-4800000D03*
D40*
X9750000Y-6245000D03*
X8950000Y-6245000D03*
D41*
X7750000Y-6245000D03*
X6750000Y-6245000D03*
X6250000Y-6245000D03*
X5250000Y-6245000D03*
D40*
X4050000Y-6245000D03*
X3250000Y-6245000D03*
D41*
X4750000Y-6245000D03*
X5750000Y-6245000D03*
X7250000Y-6245000D03*
X8250000Y-6245000D03*
D42*
X1430000Y-5330000D03*
D43*
X1430000Y-1150000D03*
X11570000Y-1150000D03*
D42*
X11570000Y-5330000D03*
D20*
X3000000Y-13300000D03*
X3000000Y-14700000D03*
D10*
X9400000Y-8050000D03*
X8000000Y-8050000D03*
D13*
X7000000Y-16300000D03*
X8400000Y-16300000D03*
D44*
X7850000Y-10962500D03*
X7350000Y-10962500D03*
X6850000Y-10962500D03*
X6350000Y-10962500D03*
X5850000Y-10962500D03*
X5350000Y-10962500D03*
D45*
X4662500Y-11650000D03*
X4662500Y-12150000D03*
X4662500Y-12650000D03*
X4662500Y-13150000D03*
X4662500Y-13650000D03*
X4662500Y-14150000D03*
D44*
X5350000Y-14837500D03*
X5850000Y-14837500D03*
X6350000Y-14837500D03*
X6850000Y-14837500D03*
X7350000Y-14837500D03*
X7850000Y-14837500D03*
D45*
X8537500Y-14150000D03*
X8537500Y-13650000D03*
X8537500Y-13150000D03*
X8537500Y-12650000D03*
X8537500Y-12150000D03*
X8537500Y-11650000D03*
D46*
X6600000Y-12900000D03*
D10*
X3100000Y-10600000D03*
X1700000Y-10600000D03*
M02*
