G04 #@! TF.GenerationSoftware,KiCad,Pcbnew,(5.99.0-10229-ge8e7d13299)*
G04 #@! TF.CreationDate,2021-06-15T20:07:49+02:00*
G04 #@! TF.ProjectId,openair2,6f70656e-6169-4723-922e-6b696361645f,rev?*
G04 #@! TF.SameCoordinates,PX3473bc0PY1312d00*
G04 #@! TF.FileFunction,Copper,L2,Bot*
G04 #@! TF.FilePolarity,Positive*
%FSLAX46Y46*%
G04 Gerber Fmt 4.6, Leading zero omitted, Abs format (unit mm)*
G04 Created by KiCad (PCBNEW (5.99.0-10229-ge8e7d13299)) date 2021-06-15 20:07:49*
%MOMM*%
%LPD*%
G01*
G04 APERTURE LIST*
G04 #@! TA.AperFunction,WasherPad*
%ADD10C,6.000000*%
G04 #@! TD*
G04 #@! TA.AperFunction,WasherPad*
%ADD11C,2.000000*%
G04 #@! TD*
G04 #@! TA.AperFunction,ComponentPad*
%ADD12R,1.600000X1.600000*%
G04 #@! TD*
G04 #@! TA.AperFunction,ComponentPad*
%ADD13C,1.600000*%
G04 #@! TD*
G04 #@! TA.AperFunction,ViaPad*
%ADD14C,0.604800*%
G04 #@! TD*
G04 #@! TA.AperFunction,ViaPad*
%ADD15C,0.600000*%
G04 #@! TD*
G04 #@! TA.AperFunction,Conductor*
%ADD16C,0.200000*%
G04 #@! TD*
G04 #@! TA.AperFunction,Conductor*
%ADD17C,0.600000*%
G04 #@! TD*
G04 #@! TA.AperFunction,Conductor*
%ADD18C,0.150000*%
G04 #@! TD*
G04 APERTURE END LIST*
D10*
X11000000Y-66000000D03*
X30000000Y-11000000D03*
D11*
X22070000Y-56445000D03*
D12*
X21330000Y-46155000D03*
D13*
X23870000Y-47425000D03*
X21330000Y-48695000D03*
X23870000Y-49965000D03*
X21330000Y-51235000D03*
X23870000Y-52505000D03*
X21330000Y-53775000D03*
X23870000Y-55045000D03*
D11*
X30870000Y-56445000D03*
D12*
X30130000Y-46155000D03*
D13*
X32670000Y-47425000D03*
X30130000Y-48695000D03*
X32670000Y-49965000D03*
X30130000Y-51235000D03*
X32670000Y-52505000D03*
X30130000Y-53775000D03*
X32670000Y-55045000D03*
D12*
X32740000Y-60400000D03*
D13*
X30200000Y-60400000D03*
X27660000Y-60400000D03*
X1700000Y-63200000D03*
D12*
X32300000Y-67600000D03*
D13*
X29800000Y-67600000D03*
X27300000Y-67600000D03*
X24800000Y-67600000D03*
X22300000Y-67600000D03*
X19800000Y-67600000D03*
X17300000Y-67600000D03*
D12*
X24200000Y-4250000D03*
D13*
X24200000Y-6750000D03*
X24200000Y-9250000D03*
X24200000Y-11750000D03*
D14*
X13439300Y-8147160D03*
X7900000Y-10098084D03*
X26700000Y-46200000D03*
X33258745Y-43600000D03*
X9600000Y-9400000D03*
X5400000Y-10000000D03*
X1600000Y-42200000D03*
X1568015Y-47572002D03*
X33300000Y-13200000D03*
X21500000Y-58100000D03*
X31200000Y-1800000D03*
X5300000Y-4400000D03*
X4500000Y-68000000D03*
D15*
X19850000Y-34050000D03*
D14*
X1000000Y-11300000D03*
X1600000Y-16900000D03*
X13100000Y-34200000D03*
X8300000Y-49900000D03*
X7700000Y-4400000D03*
X29700000Y-38600000D03*
X21700000Y-10500000D03*
X10051911Y-8648089D03*
X32000000Y-15300000D03*
X29500000Y-3900000D03*
X25800000Y-7800000D03*
X8500000Y-15300000D03*
X21500000Y-25300000D03*
X33000000Y-58100000D03*
X3600000Y-58600000D03*
X7300000Y-9500000D03*
X20600000Y-19100000D03*
D15*
X3800000Y-35000000D03*
D14*
X2700000Y-8700000D03*
X31700000Y-35600000D03*
X15600000Y-42900000D03*
X9600000Y-3500000D03*
X5500000Y-67000000D03*
D15*
X8449751Y-32257493D03*
D14*
X25800000Y-55900000D03*
X3100000Y-51700000D03*
X1500000Y-6900000D03*
X26500000Y-51600000D03*
X25100000Y-29800000D03*
X5500000Y-65000000D03*
X15700000Y-11000000D03*
X7900000Y-57100000D03*
X25600000Y-44200000D03*
X26300000Y-38800000D03*
X10600000Y-6800000D03*
X2700000Y-46800000D03*
X25800000Y-21100000D03*
X1500000Y-68000000D03*
X9600000Y-10300000D03*
X9200000Y-15800000D03*
X7200000Y-68200000D03*
X3500000Y-68000000D03*
X2500000Y-68000000D03*
X2400000Y-6900000D03*
X28500000Y-62700000D03*
X4500000Y-64000000D03*
X5500000Y-66000000D03*
X13000000Y-47400000D03*
X31500000Y-28100000D03*
D15*
X9300000Y-23900000D03*
D14*
X11200000Y-12900000D03*
X6300000Y-47100000D03*
X15700000Y-57400000D03*
X3500000Y-63000000D03*
X22000000Y-15400000D03*
X1781699Y-13400000D03*
X22850000Y-41350000D03*
X3400000Y-3400000D03*
X21852400Y-63047600D03*
X21900000Y-3600000D03*
X18800000Y-65600000D03*
D15*
X13655372Y-27978023D03*
D14*
X21852400Y-62071797D03*
X12600000Y-55000000D03*
X28400000Y-7400000D03*
X11900000Y-16600000D03*
X8900000Y-19600000D03*
X26700000Y-825000D03*
X26675000Y-47425000D03*
X8400000Y-9400000D03*
X8500000Y-3900000D03*
X3850000Y-11650000D03*
X16246442Y-41905180D03*
D15*
X17300000Y-34300000D03*
D14*
X16821816Y-42467911D03*
D15*
X18000000Y-33600000D03*
D14*
X15903433Y-39727410D03*
X19400000Y-42900000D03*
X20827410Y-42903500D03*
D15*
X15900000Y-34300000D03*
X15200000Y-33600000D03*
D14*
X15200000Y-39200000D03*
X7800000Y-46600000D03*
D15*
X2400000Y-33500000D03*
D14*
X8704219Y-46598696D03*
D15*
X1600000Y-32900000D03*
D14*
X18600000Y-38000000D03*
X18600000Y-34300000D03*
X15713153Y-41302416D03*
X16600000Y-33600000D03*
X13300001Y-40699999D03*
X1600000Y-31700000D03*
X21400000Y-29500000D03*
X16500000Y-29500000D03*
X27050342Y-44695530D03*
X29403153Y-43800000D03*
X31800000Y-41600000D03*
X21400000Y-30300000D03*
X16500000Y-30300000D03*
X28327443Y-41600000D03*
X9200000Y-14800000D03*
X9900000Y-11600000D03*
X6750000Y-5150000D03*
X5653000Y-5145560D03*
D16*
X5700000Y-11600000D02*
X5900000Y-11800000D01*
D17*
X33300000Y-13200000D02*
X33300000Y-43558745D01*
X33258745Y-43558745D02*
X33258745Y-43600000D01*
D16*
X7100000Y-11800000D02*
X7900000Y-11000000D01*
D17*
X26700000Y-46200000D02*
X30085000Y-46200000D01*
X30085000Y-46200000D02*
X30130000Y-46155000D01*
X1600000Y-42200000D02*
X1600000Y-47540017D01*
X1600000Y-47540017D02*
X1568015Y-47572002D01*
D16*
X12186460Y-9400000D02*
X13439300Y-8147160D01*
X5700000Y-10300000D02*
X5700000Y-11600000D01*
X5400000Y-10000000D02*
X5700000Y-10300000D01*
D17*
X33300000Y-43558745D02*
X33258745Y-43600000D01*
D16*
X9600000Y-9400000D02*
X12186460Y-9400000D01*
X5900000Y-11800000D02*
X7100000Y-11800000D01*
X7900000Y-11000000D02*
X7900000Y-10098084D01*
D17*
X31439999Y-59099999D02*
X32740000Y-60400000D01*
X22700000Y-32000000D02*
X22700000Y-35200000D01*
X2700000Y-8700000D02*
X4400000Y-7000000D01*
X15600000Y-42900000D02*
X14900000Y-42200000D01*
X7900000Y-7600000D02*
X8948089Y-8648089D01*
X22700000Y-35200000D02*
X22700000Y-38000000D01*
X17535000Y-44900000D02*
X17535000Y-44835000D01*
X8449751Y-32681757D02*
X8449751Y-32257493D01*
X19900000Y-57312446D02*
X20287554Y-57700000D01*
X2700000Y-46800000D02*
X3839614Y-47939614D01*
X21852400Y-61644139D02*
X21852400Y-62071797D01*
X8874015Y-32257493D02*
X8449751Y-32257493D01*
X3800000Y-29400000D02*
X5592258Y-29400000D01*
X7648089Y-9300000D02*
X7500000Y-9300000D01*
X20287554Y-57700000D02*
X21800000Y-59212446D01*
X7900000Y-7000000D02*
X7900000Y-7600000D01*
X8948089Y-8648089D02*
X8039082Y-8648089D01*
X3800000Y-29400000D02*
X12233395Y-29400000D01*
X7900000Y-5100000D02*
X7900000Y-7000000D01*
X15600000Y-53012446D02*
X19900000Y-57312446D01*
X21852400Y-59264846D02*
X21852400Y-61644139D01*
X12450000Y-6750000D02*
X10551911Y-8648089D01*
X1781699Y-13400000D02*
X1781699Y-9618301D01*
X21330000Y-48695000D02*
X17535000Y-44900000D01*
X22600000Y-20300000D02*
X22350000Y-20550000D01*
X21852400Y-63447600D02*
X21600000Y-63700000D01*
X24300001Y-59099999D02*
X31439999Y-59099999D01*
X15600000Y-42900000D02*
X15600000Y-46600000D01*
X8039082Y-8648089D02*
X7648089Y-9039082D01*
X25600000Y-44200000D02*
X25600000Y-42700000D01*
X10551911Y-8648089D02*
X10051911Y-8648089D01*
X13378023Y-27978023D02*
X13655372Y-27978023D01*
X21800000Y-59212446D02*
X21852400Y-59264846D01*
X24200000Y-6750000D02*
X12450000Y-6750000D01*
X3600000Y-62900000D02*
X3500000Y-63000000D01*
X17535000Y-44835000D02*
X16700000Y-44000000D01*
X29700000Y-38600000D02*
X29120000Y-38600000D01*
X10642507Y-32257493D02*
X8874015Y-32257493D01*
X12233395Y-29400000D02*
X13355373Y-28278022D01*
X1781699Y-9618301D02*
X2700000Y-8700000D01*
X10560386Y-47939614D02*
X15297601Y-43202399D01*
X3800000Y-29400000D02*
X1781699Y-27381699D01*
X22350000Y-20550000D02*
X10642507Y-32257493D01*
X22700000Y-20400000D02*
X22600000Y-20300000D01*
X7648089Y-9039082D02*
X7648089Y-9300000D01*
X29035000Y-38515000D02*
X29035000Y-31035000D01*
X3600000Y-58600000D02*
X3600000Y-62900000D01*
X22700000Y-23200000D02*
X22700000Y-24700000D01*
X4099999Y-29699999D02*
X3800000Y-29400000D01*
X5592258Y-29400000D02*
X8149752Y-31957494D01*
X9300000Y-23900000D02*
X13378023Y-27978023D01*
X4400000Y-7000000D02*
X7900000Y-7000000D01*
X15600000Y-46600000D02*
X15600000Y-53012446D01*
X13355373Y-28278022D02*
X13655372Y-27978023D01*
X20274264Y-34050000D02*
X19850000Y-34050000D01*
X15297601Y-43202399D02*
X15600000Y-42900000D01*
X22700000Y-24700000D02*
X22700000Y-31767981D01*
X16700000Y-44000000D02*
X15600000Y-42900000D01*
X25900000Y-17000000D02*
X22350000Y-20550000D01*
X25900000Y-15800000D02*
X25900000Y-10950000D01*
X1781699Y-27381699D02*
X1781699Y-13400000D01*
X24300001Y-59099999D02*
X21912447Y-59099999D01*
X20417981Y-34050000D02*
X20274264Y-34050000D01*
X8149752Y-31957494D02*
X8449751Y-32257493D01*
X14900000Y-40800000D02*
X8449751Y-34349751D01*
X25900000Y-15800000D02*
X25900000Y-17000000D01*
X15600000Y-46600000D02*
X3600000Y-58600000D01*
X21852400Y-62071797D02*
X21852400Y-63047600D01*
X21852400Y-63047600D02*
X21852400Y-63447600D01*
X8449751Y-34349751D02*
X8449751Y-32681757D01*
X22300000Y-67600000D02*
X22300000Y-64400000D01*
X10051911Y-8648089D02*
X8948089Y-8648089D01*
X21912447Y-59099999D02*
X21800000Y-59212446D01*
X25900000Y-10950000D02*
X24200000Y-9250000D01*
X25600000Y-42700000D02*
X29700000Y-38600000D01*
X22700000Y-38000000D02*
X16700000Y-44000000D01*
X24200000Y-6750000D02*
X24200000Y-9250000D01*
X3839614Y-47939614D02*
X10560386Y-47939614D01*
X14900000Y-42200000D02*
X14900000Y-40800000D01*
X29120000Y-38600000D02*
X29035000Y-38515000D01*
X22700000Y-31767981D02*
X20417981Y-34050000D01*
X3800000Y-29400000D02*
X3800000Y-35000000D01*
X29035000Y-31035000D02*
X22700000Y-24700000D01*
X22700000Y-23200000D02*
X22700000Y-20400000D01*
D18*
X8900000Y-19600000D02*
X11900000Y-16600000D01*
D17*
X24202401Y-797598D02*
X30899999Y-797598D01*
X34145001Y-47425000D02*
X34170001Y-47400000D01*
X34200000Y-1900000D02*
X33097598Y-797598D01*
D16*
X3850000Y-11650000D02*
X5000000Y-12800000D01*
D17*
X24200000Y-799999D02*
X9800001Y-799999D01*
X31040002Y-64800000D02*
X34200000Y-61640002D01*
X32670000Y-47425000D02*
X26675000Y-47425000D01*
X34170001Y-61670001D02*
X31040002Y-64800000D01*
X34170001Y-47400000D02*
X34170001Y-61670001D01*
X32670000Y-47425000D02*
X34145001Y-47425000D01*
X31040002Y-64800000D02*
X30572418Y-65267584D01*
D16*
X8500000Y-9500000D02*
X8400000Y-9400000D01*
D17*
X27300000Y-67600000D02*
X29632416Y-65267584D01*
D16*
X5000000Y-12800000D02*
X7300000Y-12800000D01*
D17*
X24200000Y-799999D02*
X24202401Y-797598D01*
X9800001Y-799999D02*
X8500000Y-2100000D01*
X29632416Y-65267584D02*
X30572418Y-65267584D01*
D16*
X7300000Y-12800000D02*
X8500000Y-11600000D01*
D17*
X8500000Y-2100000D02*
X8500000Y-3900000D01*
D16*
X8500000Y-11600000D02*
X8500000Y-9500000D01*
D17*
X34200000Y-61640002D02*
X34200000Y-1900000D01*
X24200000Y-4250000D02*
X24200000Y-799999D01*
X33097598Y-797598D02*
X30899999Y-797598D01*
D18*
X17300000Y-40851622D02*
X16246442Y-41905180D01*
X17300000Y-34300000D02*
X17300000Y-40851622D01*
X18000000Y-41289727D02*
X16821816Y-42467911D01*
X18000000Y-33600000D02*
X18000000Y-41289727D01*
X20823910Y-42900000D02*
X20827410Y-42903500D01*
X19400000Y-42900000D02*
X20823910Y-42900000D01*
X15900000Y-34300000D02*
X15900000Y-39723977D01*
X15900000Y-39723977D02*
X15903433Y-39727410D01*
X19300000Y-42900000D02*
X19400000Y-42900000D01*
X15200000Y-33600000D02*
X15200000Y-39200000D01*
X2400000Y-33500000D02*
X2400000Y-41200000D01*
X2400000Y-41200000D02*
X2400000Y-41050000D01*
X2400000Y-41200000D02*
X7800000Y-46600000D01*
X7510847Y-47202401D02*
X8100515Y-47202401D01*
X1600000Y-41291554D02*
X7510847Y-47202401D01*
X8100515Y-47202401D02*
X8704219Y-46598696D01*
X1600000Y-32900000D02*
X1600000Y-41291554D01*
X18600000Y-37900000D02*
X18500000Y-38000000D01*
X18500000Y-38000000D02*
X18600000Y-38000000D01*
X18600000Y-34300000D02*
X18600000Y-37900000D01*
X16600000Y-33600000D02*
X16600000Y-40415569D01*
X16600000Y-40415569D02*
X15713153Y-41302416D01*
X3199990Y-33299990D02*
X1600000Y-31700000D01*
X8651457Y-40699999D02*
X3199990Y-35248532D01*
X3199990Y-35248532D02*
X3199990Y-33299990D01*
X13300001Y-40699999D02*
X8651457Y-40699999D01*
X29403153Y-43800000D02*
X27945872Y-43800000D01*
X27352741Y-44393131D02*
X27050342Y-44695530D01*
X27945872Y-43800000D02*
X27352741Y-44393131D01*
X20972342Y-29500000D02*
X16500000Y-29500000D01*
X21400000Y-29500000D02*
X20972342Y-29500000D01*
X31800000Y-41600000D02*
X28327443Y-41600000D01*
X21400000Y-30300000D02*
X16500000Y-30300000D01*
X9900000Y-14100000D02*
X9900000Y-11600000D01*
X9200000Y-14800000D02*
X9900000Y-14100000D01*
X5657440Y-5150000D02*
X5653000Y-5145560D01*
X6750000Y-5150000D02*
X5657440Y-5150000D01*
G04 #@! TA.AperFunction,Conductor*
G36*
X9211369Y-518907D02*
G01*
X9247333Y-568407D01*
X9247333Y-629593D01*
X9223182Y-669004D01*
X8193118Y-1699068D01*
X8183649Y-1706634D01*
X8183711Y-1706707D01*
X8178339Y-1711279D01*
X8172375Y-1715042D01*
X8140888Y-1750695D01*
X8138358Y-1753559D01*
X8134158Y-1758028D01*
X8121405Y-1770781D01*
X8119293Y-1773599D01*
X8119286Y-1773607D01*
X8114013Y-1780643D01*
X8108998Y-1786802D01*
X8077499Y-1822469D01*
X8074505Y-1828847D01*
X8074502Y-1828851D01*
X8073142Y-1831749D01*
X8062749Y-1849046D01*
X8056602Y-1857247D01*
X8046594Y-1883943D01*
X8039895Y-1901812D01*
X8036810Y-1909133D01*
X8016588Y-1952206D01*
X8015503Y-1959177D01*
X8015011Y-1962335D01*
X8009892Y-1981847D01*
X8006292Y-1991451D01*
X8005770Y-1998482D01*
X8002765Y-2038914D01*
X8001859Y-2046803D01*
X7999500Y-2061955D01*
X7999500Y-2079178D01*
X7999228Y-2086514D01*
X7995671Y-2134382D01*
X7997144Y-2141283D01*
X7997319Y-2142105D01*
X7999500Y-2162770D01*
X7999500Y-3838853D01*
X7998321Y-3854084D01*
X7992138Y-3893795D01*
X8010810Y-4036584D01*
X8068807Y-4168394D01*
X8073344Y-4173791D01*
X8073345Y-4173793D01*
X8127137Y-4237785D01*
X8161468Y-4278627D01*
X8167339Y-4282535D01*
X8167340Y-4282536D01*
X8275472Y-4354515D01*
X8281343Y-4358423D01*
X8288073Y-4360526D01*
X8288076Y-4360527D01*
X8412063Y-4399264D01*
X8412067Y-4399265D01*
X8418796Y-4401367D01*
X8485476Y-4402589D01*
X8555723Y-4403876D01*
X8555725Y-4403876D01*
X8562777Y-4404005D01*
X8569581Y-4402150D01*
X8569582Y-4402150D01*
X8648574Y-4380614D01*
X8701711Y-4366128D01*
X8824430Y-4290778D01*
X8831890Y-4282536D01*
X8916336Y-4189242D01*
X8916336Y-4189241D01*
X8921068Y-4184014D01*
X8983857Y-4054418D01*
X9007748Y-3912409D01*
X9007900Y-3900000D01*
X9001500Y-3855310D01*
X9000500Y-3841276D01*
X9000500Y-2348322D01*
X9019407Y-2290131D01*
X9029496Y-2278318D01*
X9978319Y-1329495D01*
X10032836Y-1301718D01*
X10048323Y-1300499D01*
X23600500Y-1300499D01*
X23658691Y-1319406D01*
X23694655Y-1368906D01*
X23699500Y-1399499D01*
X23699500Y-3145500D01*
X23680593Y-3203691D01*
X23631093Y-3239655D01*
X23600500Y-3244500D01*
X23400000Y-3244500D01*
X23356200Y-3253213D01*
X23330924Y-3258240D01*
X23330922Y-3258241D01*
X23321359Y-3260143D01*
X23254690Y-3304690D01*
X23210143Y-3371359D01*
X23194500Y-3450000D01*
X23194500Y-5050000D01*
X23210143Y-5128641D01*
X23254690Y-5195310D01*
X23321359Y-5239857D01*
X23330922Y-5241759D01*
X23330924Y-5241760D01*
X23356200Y-5246787D01*
X23400000Y-5255500D01*
X25000000Y-5255500D01*
X25043800Y-5246787D01*
X25069076Y-5241760D01*
X25069078Y-5241759D01*
X25078641Y-5239857D01*
X25145310Y-5195310D01*
X25189857Y-5128641D01*
X25205500Y-5050000D01*
X25205500Y-3450000D01*
X25189857Y-3371359D01*
X25145310Y-3304690D01*
X25078641Y-3260143D01*
X25069078Y-3258241D01*
X25069076Y-3258240D01*
X25043800Y-3253213D01*
X25000000Y-3244500D01*
X24799500Y-3244500D01*
X24741309Y-3225593D01*
X24705345Y-3176093D01*
X24700500Y-3145500D01*
X24700500Y-1397098D01*
X24719407Y-1338907D01*
X24768907Y-1302943D01*
X24799500Y-1298098D01*
X26513210Y-1298098D01*
X26542727Y-1302601D01*
X26618796Y-1326367D01*
X26685476Y-1327589D01*
X26755723Y-1328876D01*
X26755725Y-1328876D01*
X26762777Y-1329005D01*
X26769581Y-1327150D01*
X26769582Y-1327150D01*
X26859624Y-1302602D01*
X26863358Y-1301584D01*
X26889398Y-1298098D01*
X32849276Y-1298098D01*
X32907467Y-1317005D01*
X32919280Y-1327094D01*
X33670504Y-2078318D01*
X33698281Y-2132835D01*
X33699500Y-2148322D01*
X33699500Y-12677652D01*
X33680593Y-12735843D01*
X33631093Y-12771807D01*
X33569907Y-12771807D01*
X33546653Y-12760727D01*
X33535818Y-12753704D01*
X33513040Y-12738940D01*
X33375072Y-12697679D01*
X33291959Y-12697171D01*
X33238121Y-12696842D01*
X33238120Y-12696842D01*
X33231070Y-12696799D01*
X33224293Y-12698736D01*
X33224292Y-12698736D01*
X33099389Y-12734434D01*
X33099388Y-12734435D01*
X33092609Y-12736372D01*
X33086645Y-12740135D01*
X32976788Y-12809449D01*
X32976786Y-12809451D01*
X32970820Y-12813215D01*
X32875493Y-12921151D01*
X32814293Y-13051504D01*
X32792138Y-13193795D01*
X32793053Y-13200792D01*
X32793053Y-13200793D01*
X32798664Y-13243701D01*
X32799500Y-13256538D01*
X32799500Y-43337392D01*
X32790115Y-43379466D01*
X32775333Y-43410951D01*
X32758245Y-43520700D01*
X32758245Y-43538853D01*
X32757066Y-43554084D01*
X32750883Y-43593795D01*
X32751798Y-43600792D01*
X32751798Y-43600794D01*
X32754178Y-43618994D01*
X32754785Y-43625096D01*
X32754939Y-43627349D01*
X32754416Y-43634382D01*
X32755888Y-43641278D01*
X32758167Y-43651955D01*
X32759511Y-43659780D01*
X32769555Y-43736584D01*
X32779784Y-43759831D01*
X32782077Y-43765514D01*
X32782863Y-43767651D01*
X32784336Y-43774549D01*
X32787686Y-43780757D01*
X32792873Y-43790370D01*
X32796363Y-43797510D01*
X32827552Y-43868394D01*
X32832089Y-43873792D01*
X32832090Y-43873793D01*
X32843907Y-43887851D01*
X32847704Y-43892663D01*
X32849046Y-43894476D01*
X32852395Y-43900683D01*
X32857350Y-43905699D01*
X32857354Y-43905704D01*
X32865023Y-43913467D01*
X32870377Y-43919340D01*
X32920213Y-43978627D01*
X32941381Y-43992718D01*
X32946370Y-43996267D01*
X32948163Y-43997628D01*
X32953120Y-44002646D01*
X32959285Y-44006070D01*
X32959286Y-44006071D01*
X32968830Y-44011372D01*
X32975617Y-44015507D01*
X33034215Y-44054514D01*
X33034217Y-44054515D01*
X33040088Y-44058423D01*
X33064368Y-44066009D01*
X33070142Y-44068012D01*
X33072248Y-44068816D01*
X33078414Y-44072241D01*
X33085288Y-44073796D01*
X33085292Y-44073798D01*
X33095932Y-44076205D01*
X33103608Y-44078269D01*
X33170804Y-44099263D01*
X33170809Y-44099264D01*
X33177541Y-44101367D01*
X33191013Y-44101614D01*
X33202950Y-44101833D01*
X33209072Y-44102135D01*
X33211330Y-44102317D01*
X33218204Y-44103872D01*
X33236140Y-44102759D01*
X33244086Y-44102586D01*
X33314469Y-44103876D01*
X33314471Y-44103876D01*
X33321522Y-44104005D01*
X33328325Y-44102150D01*
X33328327Y-44102150D01*
X33346050Y-44097318D01*
X33352019Y-44095888D01*
X33354214Y-44095433D01*
X33361254Y-44094997D01*
X33367887Y-44092603D01*
X33367890Y-44092602D01*
X33378157Y-44088896D01*
X33385729Y-44086501D01*
X33394851Y-44084014D01*
X33460456Y-44066128D01*
X33466466Y-44062438D01*
X33466470Y-44062436D01*
X33482119Y-44052827D01*
X33487445Y-44049780D01*
X33489432Y-44048723D01*
X33496063Y-44046330D01*
X33510571Y-44035732D01*
X33517166Y-44031308D01*
X33533996Y-44020974D01*
X33548699Y-44011947D01*
X33608179Y-43997610D01*
X33664728Y-44020974D01*
X33696744Y-44073115D01*
X33699500Y-44096312D01*
X33699500Y-46825500D01*
X33680593Y-46883691D01*
X33631093Y-46919655D01*
X33600500Y-46924500D01*
X33594641Y-46924500D01*
X33536450Y-46905593D01*
X33508054Y-46873497D01*
X33495666Y-46851148D01*
X33417082Y-46759463D01*
X33366678Y-46700655D01*
X33366676Y-46700653D01*
X33363412Y-46696845D01*
X33202834Y-46572288D01*
X33020489Y-46482563D01*
X32906309Y-46452821D01*
X32828685Y-46432601D01*
X32828681Y-46432600D01*
X32823827Y-46431336D01*
X32818815Y-46431073D01*
X32818813Y-46431073D01*
X32747342Y-46427328D01*
X32620882Y-46420700D01*
X32615923Y-46421450D01*
X32424899Y-46450340D01*
X32424896Y-46450341D01*
X32419942Y-46451090D01*
X32229218Y-46521263D01*
X32190226Y-46545439D01*
X32061104Y-46625498D01*
X32056499Y-46628353D01*
X31908841Y-46767986D01*
X31905967Y-46772091D01*
X31905964Y-46772094D01*
X31828809Y-46882284D01*
X31779944Y-46919106D01*
X31747713Y-46924500D01*
X31234500Y-46924500D01*
X31176309Y-46905593D01*
X31140345Y-46856093D01*
X31135500Y-46825500D01*
X31135500Y-45355000D01*
X31119857Y-45276359D01*
X31075310Y-45209690D01*
X31008641Y-45165143D01*
X30999078Y-45163241D01*
X30999076Y-45163240D01*
X30972576Y-45157969D01*
X30930000Y-45149500D01*
X29330000Y-45149500D01*
X29287424Y-45157969D01*
X29260924Y-45163240D01*
X29260922Y-45163241D01*
X29251359Y-45165143D01*
X29184690Y-45209690D01*
X29140143Y-45276359D01*
X29124500Y-45355000D01*
X29124500Y-45600500D01*
X29105593Y-45658691D01*
X29056093Y-45694655D01*
X29025500Y-45699500D01*
X26787848Y-45699500D01*
X26778951Y-45698839D01*
X26775072Y-45697679D01*
X26691959Y-45697171D01*
X26638121Y-45696842D01*
X26638120Y-45696842D01*
X26631070Y-45696799D01*
X26624293Y-45698736D01*
X26624292Y-45698736D01*
X26584453Y-45710122D01*
X26571285Y-45712933D01*
X26558123Y-45714818D01*
X26551702Y-45717737D01*
X26551700Y-45717738D01*
X26548060Y-45719393D01*
X26534294Y-45724457D01*
X26499392Y-45734433D01*
X26499390Y-45734434D01*
X26492609Y-45736372D01*
X26451612Y-45762240D01*
X26439761Y-45768634D01*
X26427651Y-45774140D01*
X26422306Y-45778746D01*
X26422304Y-45778747D01*
X26419280Y-45781353D01*
X26407485Y-45790081D01*
X26370820Y-45813215D01*
X26366153Y-45818500D01*
X26366150Y-45818502D01*
X26338726Y-45849554D01*
X26329147Y-45859017D01*
X26324418Y-45863092D01*
X26324416Y-45863094D01*
X26319074Y-45867697D01*
X26313066Y-45876966D01*
X26304196Y-45888651D01*
X26275493Y-45921151D01*
X26272495Y-45927537D01*
X26254888Y-45965040D01*
X26248350Y-45976810D01*
X26241118Y-45987967D01*
X26237950Y-45998559D01*
X26232719Y-46012257D01*
X26217291Y-46045117D01*
X26217290Y-46045120D01*
X26214293Y-46051504D01*
X26208990Y-46085562D01*
X26206834Y-46099408D01*
X26203863Y-46112538D01*
X26200052Y-46125282D01*
X26199993Y-46135068D01*
X26199985Y-46136328D01*
X26198808Y-46150958D01*
X26192138Y-46193795D01*
X26193053Y-46200793D01*
X26193053Y-46200794D01*
X26198424Y-46241868D01*
X26199258Y-46255306D01*
X26199177Y-46268604D01*
X26201116Y-46275388D01*
X26202214Y-46279230D01*
X26205189Y-46293598D01*
X26210810Y-46336584D01*
X26229532Y-46379133D01*
X26230336Y-46380961D01*
X26234906Y-46393621D01*
X26238562Y-46406411D01*
X26244459Y-46415757D01*
X26251345Y-46428709D01*
X26261955Y-46452821D01*
X26268807Y-46468394D01*
X26273346Y-46473794D01*
X26273348Y-46473797D01*
X26300004Y-46505509D01*
X26307946Y-46516379D01*
X26315042Y-46527625D01*
X26323325Y-46534940D01*
X26333568Y-46545435D01*
X26361468Y-46578627D01*
X26397365Y-46602522D01*
X26401824Y-46605490D01*
X26412502Y-46613698D01*
X26422469Y-46622501D01*
X26428851Y-46625498D01*
X26428852Y-46625498D01*
X26432473Y-46627198D01*
X26445252Y-46634399D01*
X26481343Y-46658423D01*
X26522491Y-46671279D01*
X26527624Y-46672883D01*
X26540168Y-46677761D01*
X26545702Y-46680358D01*
X26552206Y-46683412D01*
X26563120Y-46685111D01*
X26577406Y-46688436D01*
X26612064Y-46699264D01*
X26612065Y-46699264D01*
X26618796Y-46701367D01*
X26690786Y-46702686D01*
X26755723Y-46703876D01*
X26755725Y-46703876D01*
X26762777Y-46704005D01*
X26769581Y-46702150D01*
X26776582Y-46701278D01*
X26776688Y-46702126D01*
X26788887Y-46700500D01*
X29025500Y-46700500D01*
X29083691Y-46719407D01*
X29119655Y-46768907D01*
X29124500Y-46799500D01*
X29124500Y-46825500D01*
X29105593Y-46883691D01*
X29056093Y-46919655D01*
X29025500Y-46924500D01*
X26762848Y-46924500D01*
X26753951Y-46923839D01*
X26750072Y-46922679D01*
X26666959Y-46922171D01*
X26613121Y-46921842D01*
X26613120Y-46921842D01*
X26606070Y-46921799D01*
X26599293Y-46923736D01*
X26599292Y-46923736D01*
X26559453Y-46935122D01*
X26546285Y-46937933D01*
X26533123Y-46939818D01*
X26526702Y-46942737D01*
X26526700Y-46942738D01*
X26523060Y-46944393D01*
X26509294Y-46949457D01*
X26474392Y-46959433D01*
X26474390Y-46959434D01*
X26467609Y-46961372D01*
X26431362Y-46984243D01*
X26426612Y-46987240D01*
X26414761Y-46993634D01*
X26402651Y-46999140D01*
X26397306Y-47003746D01*
X26397304Y-47003747D01*
X26394280Y-47006353D01*
X26382485Y-47015081D01*
X26345820Y-47038215D01*
X26341153Y-47043500D01*
X26341150Y-47043502D01*
X26313726Y-47074554D01*
X26304147Y-47084017D01*
X26299418Y-47088092D01*
X26299416Y-47088094D01*
X26294074Y-47092697D01*
X26288792Y-47100846D01*
X26288066Y-47101966D01*
X26279196Y-47113651D01*
X26256422Y-47139438D01*
X26250493Y-47146151D01*
X26243757Y-47160500D01*
X26229888Y-47190040D01*
X26223350Y-47201810D01*
X26216118Y-47212967D01*
X26212950Y-47223559D01*
X26207719Y-47237257D01*
X26192291Y-47270117D01*
X26192290Y-47270120D01*
X26189293Y-47276504D01*
X26183301Y-47314987D01*
X26181834Y-47324408D01*
X26178863Y-47337538D01*
X26175052Y-47350282D01*
X26175009Y-47357338D01*
X26174985Y-47361328D01*
X26173808Y-47375958D01*
X26167138Y-47418795D01*
X26168053Y-47425793D01*
X26168053Y-47425794D01*
X26173424Y-47466868D01*
X26174258Y-47480306D01*
X26174177Y-47493604D01*
X26176116Y-47500388D01*
X26177214Y-47504230D01*
X26180189Y-47518598D01*
X26181424Y-47528038D01*
X26185810Y-47561584D01*
X26203196Y-47601097D01*
X26205336Y-47605961D01*
X26209906Y-47618621D01*
X26213562Y-47631411D01*
X26219459Y-47640757D01*
X26226345Y-47653709D01*
X26238285Y-47680844D01*
X26243807Y-47693394D01*
X26248346Y-47698794D01*
X26248348Y-47698797D01*
X26275004Y-47730509D01*
X26282946Y-47741379D01*
X26290042Y-47752625D01*
X26298325Y-47759940D01*
X26308568Y-47770435D01*
X26336468Y-47803627D01*
X26372409Y-47827551D01*
X26376824Y-47830490D01*
X26387502Y-47838698D01*
X26397469Y-47847501D01*
X26403851Y-47850498D01*
X26403852Y-47850498D01*
X26407473Y-47852198D01*
X26420252Y-47859399D01*
X26426285Y-47863415D01*
X26456343Y-47883423D01*
X26496937Y-47896106D01*
X26502624Y-47897883D01*
X26515168Y-47902761D01*
X26520702Y-47905358D01*
X26527206Y-47908412D01*
X26538120Y-47910111D01*
X26552406Y-47913436D01*
X26587064Y-47924264D01*
X26587065Y-47924264D01*
X26593796Y-47926367D01*
X26665786Y-47927686D01*
X26730723Y-47928876D01*
X26730725Y-47928876D01*
X26737777Y-47929005D01*
X26744581Y-47927150D01*
X26751582Y-47926278D01*
X26751688Y-47927126D01*
X26763887Y-47925500D01*
X29258035Y-47925500D01*
X29316226Y-47944407D01*
X29352190Y-47993907D01*
X29352190Y-48055093D01*
X29339131Y-48081284D01*
X29255588Y-48200595D01*
X29250723Y-48209299D01*
X29174032Y-48386522D01*
X29171019Y-48396022D01*
X29131531Y-48585039D01*
X29130487Y-48594967D01*
X29129814Y-48788051D01*
X29130788Y-48797989D01*
X29168953Y-48987268D01*
X29171905Y-48996805D01*
X29247354Y-49174549D01*
X29252158Y-49183288D01*
X29341664Y-49313035D01*
X29352260Y-49321136D01*
X29352702Y-49321147D01*
X29359286Y-49317222D01*
X30059996Y-48616512D01*
X30114513Y-48588735D01*
X30174945Y-48598306D01*
X30200004Y-48616512D01*
X30896699Y-49313207D01*
X30908582Y-49319261D01*
X30911954Y-49318727D01*
X30914040Y-49317098D01*
X30947938Y-49278102D01*
X30953695Y-49269942D01*
X31048484Y-49101719D01*
X31052478Y-49092576D01*
X31111503Y-48908731D01*
X31113580Y-48898960D01*
X31134696Y-48704594D01*
X31134985Y-48699418D01*
X31134991Y-48697602D01*
X31134737Y-48692414D01*
X31114980Y-48497904D01*
X31112974Y-48488135D01*
X31055230Y-48303871D01*
X31051299Y-48294701D01*
X30957687Y-48125821D01*
X30951994Y-48117630D01*
X30927393Y-48088927D01*
X30903880Y-48032440D01*
X30918059Y-47972920D01*
X30964516Y-47933102D01*
X31002561Y-47925500D01*
X31748002Y-47925500D01*
X31806193Y-47944407D01*
X31829491Y-47968282D01*
X31904273Y-48076685D01*
X31907890Y-48080153D01*
X31907892Y-48080156D01*
X32047330Y-48213872D01*
X32050952Y-48217345D01*
X32222919Y-48325638D01*
X32227616Y-48327403D01*
X32227619Y-48327405D01*
X32408453Y-48395376D01*
X32413149Y-48397141D01*
X32418105Y-48397926D01*
X32608912Y-48428147D01*
X32608916Y-48428147D01*
X32613871Y-48428932D01*
X32695746Y-48425214D01*
X32811874Y-48419941D01*
X32811878Y-48419940D01*
X32816886Y-48419713D01*
X32906091Y-48397141D01*
X33009036Y-48371092D01*
X33013901Y-48369861D01*
X33119493Y-48318816D01*
X33192359Y-48283591D01*
X33192361Y-48283590D01*
X33196868Y-48281411D01*
X33358312Y-48157978D01*
X33361599Y-48154197D01*
X33361603Y-48154193D01*
X33452970Y-48049086D01*
X33490431Y-48005992D01*
X33490433Y-48005991D01*
X33491639Y-48004603D01*
X33491939Y-48004864D01*
X33538592Y-47969958D01*
X33599771Y-47969101D01*
X33649770Y-48004367D01*
X33669501Y-48063675D01*
X33669501Y-49326332D01*
X33650594Y-49384523D01*
X33601094Y-49420487D01*
X33539908Y-49420487D01*
X33495333Y-49390759D01*
X33366678Y-49240655D01*
X33366676Y-49240653D01*
X33363412Y-49236845D01*
X33202834Y-49112288D01*
X33020489Y-49022563D01*
X32906309Y-48992821D01*
X32828685Y-48972601D01*
X32828681Y-48972600D01*
X32823827Y-48971336D01*
X32818815Y-48971073D01*
X32818813Y-48971073D01*
X32747342Y-48967328D01*
X32620882Y-48960700D01*
X32615923Y-48961450D01*
X32424899Y-48990340D01*
X32424896Y-48990341D01*
X32419942Y-48991090D01*
X32229218Y-49061263D01*
X32056499Y-49168353D01*
X31908841Y-49307986D01*
X31905967Y-49312091D01*
X31905964Y-49312094D01*
X31850883Y-49390759D01*
X31792277Y-49474457D01*
X31790288Y-49479053D01*
X31790287Y-49479055D01*
X31785712Y-49489628D01*
X31711567Y-49660967D01*
X31710543Y-49665866D01*
X31710542Y-49665871D01*
X31691288Y-49758034D01*
X31670008Y-49859897D01*
X31669299Y-50063120D01*
X31670291Y-50068038D01*
X31703241Y-50231450D01*
X31709468Y-50262334D01*
X31788874Y-50449403D01*
X31791719Y-50453527D01*
X31791720Y-50453529D01*
X31901426Y-50612559D01*
X31901430Y-50612563D01*
X31904273Y-50616685D01*
X31907890Y-50620153D01*
X31907892Y-50620156D01*
X32042307Y-50749055D01*
X32050952Y-50757345D01*
X32222919Y-50865638D01*
X32227616Y-50867403D01*
X32227619Y-50867405D01*
X32384496Y-50926371D01*
X32413149Y-50937141D01*
X32418105Y-50937926D01*
X32608912Y-50968147D01*
X32608916Y-50968147D01*
X32613871Y-50968932D01*
X32695746Y-50965214D01*
X32811874Y-50959941D01*
X32811878Y-50959940D01*
X32816886Y-50959713D01*
X32906091Y-50937141D01*
X32930490Y-50930967D01*
X33013901Y-50909861D01*
X33169784Y-50834504D01*
X33192359Y-50823591D01*
X33192361Y-50823590D01*
X33196868Y-50821411D01*
X33358312Y-50697978D01*
X33361599Y-50694197D01*
X33361603Y-50694193D01*
X33488348Y-50548389D01*
X33488349Y-50548388D01*
X33490438Y-50545984D01*
X33490440Y-50545983D01*
X33491639Y-50544603D01*
X33491937Y-50544862D01*
X33538599Y-50509957D01*
X33599779Y-50509104D01*
X33649775Y-50544375D01*
X33669501Y-50603676D01*
X33669501Y-51866332D01*
X33650594Y-51924523D01*
X33601094Y-51960487D01*
X33539908Y-51960487D01*
X33495333Y-51930759D01*
X33366678Y-51780655D01*
X33366676Y-51780653D01*
X33363412Y-51776845D01*
X33202834Y-51652288D01*
X33020489Y-51562563D01*
X32904439Y-51532334D01*
X32828685Y-51512601D01*
X32828681Y-51512600D01*
X32823827Y-51511336D01*
X32818815Y-51511073D01*
X32818813Y-51511073D01*
X32747342Y-51507328D01*
X32620882Y-51500700D01*
X32615923Y-51501450D01*
X32424899Y-51530340D01*
X32424896Y-51530341D01*
X32419942Y-51531090D01*
X32229218Y-51601263D01*
X32056499Y-51708353D01*
X31908841Y-51847986D01*
X31905967Y-51852091D01*
X31905964Y-51852094D01*
X31850883Y-51930759D01*
X31792277Y-52014457D01*
X31711567Y-52200967D01*
X31710543Y-52205866D01*
X31710542Y-52205871D01*
X31691288Y-52298034D01*
X31670008Y-52399897D01*
X31669299Y-52603120D01*
X31670291Y-52608038D01*
X31703241Y-52771450D01*
X31709468Y-52802334D01*
X31788874Y-52989403D01*
X31791719Y-52993527D01*
X31791720Y-52993529D01*
X31901426Y-53152559D01*
X31901430Y-53152563D01*
X31904273Y-53156685D01*
X31907890Y-53160153D01*
X31907892Y-53160156D01*
X32042307Y-53289055D01*
X32050952Y-53297345D01*
X32222919Y-53405638D01*
X32227616Y-53407403D01*
X32227619Y-53407405D01*
X32384496Y-53466371D01*
X32413149Y-53477141D01*
X32418105Y-53477926D01*
X32608912Y-53508147D01*
X32608916Y-53508147D01*
X32613871Y-53508932D01*
X32695746Y-53505214D01*
X32811874Y-53499941D01*
X32811878Y-53499940D01*
X32816886Y-53499713D01*
X32906091Y-53477141D01*
X32930490Y-53470967D01*
X33013901Y-53449861D01*
X33169784Y-53374504D01*
X33192359Y-53363591D01*
X33192361Y-53363590D01*
X33196868Y-53361411D01*
X33358312Y-53237978D01*
X33361599Y-53234197D01*
X33361603Y-53234193D01*
X33488348Y-53088389D01*
X33488349Y-53088388D01*
X33490438Y-53085984D01*
X33490440Y-53085983D01*
X33491639Y-53084603D01*
X33491937Y-53084862D01*
X33538599Y-53049957D01*
X33599779Y-53049104D01*
X33649775Y-53084375D01*
X33669501Y-53143676D01*
X33669501Y-54406332D01*
X33650594Y-54464523D01*
X33601094Y-54500487D01*
X33539908Y-54500487D01*
X33495333Y-54470759D01*
X33366678Y-54320655D01*
X33366676Y-54320653D01*
X33363412Y-54316845D01*
X33202834Y-54192288D01*
X33020489Y-54102563D01*
X32904439Y-54072334D01*
X32828685Y-54052601D01*
X32828681Y-54052600D01*
X32823827Y-54051336D01*
X32818815Y-54051073D01*
X32818813Y-54051073D01*
X32747342Y-54047328D01*
X32620882Y-54040700D01*
X32615923Y-54041450D01*
X32424899Y-54070340D01*
X32424896Y-54070341D01*
X32419942Y-54071090D01*
X32229218Y-54141263D01*
X32056499Y-54248353D01*
X31908841Y-54387986D01*
X31905967Y-54392091D01*
X31905964Y-54392094D01*
X31850883Y-54470759D01*
X31792277Y-54554457D01*
X31711567Y-54740967D01*
X31710543Y-54745866D01*
X31710542Y-54745871D01*
X31691288Y-54838034D01*
X31670008Y-54939897D01*
X31669299Y-55143120D01*
X31709468Y-55342334D01*
X31711430Y-55346955D01*
X31712784Y-55351330D01*
X31711931Y-55412510D01*
X31675281Y-55461504D01*
X31616832Y-55479598D01*
X31565384Y-55464335D01*
X31421123Y-55373313D01*
X31417286Y-55370892D01*
X31212380Y-55289143D01*
X30996009Y-55246104D01*
X30887318Y-55244681D01*
X30779958Y-55243275D01*
X30779953Y-55243275D01*
X30775418Y-55243216D01*
X30770945Y-55243985D01*
X30770940Y-55243985D01*
X30684520Y-55258835D01*
X30557994Y-55280576D01*
X30351019Y-55356933D01*
X30161425Y-55469730D01*
X30158010Y-55472725D01*
X30158007Y-55472727D01*
X29999369Y-55611849D01*
X29995561Y-55615189D01*
X29858983Y-55788438D01*
X29856870Y-55792453D01*
X29856870Y-55792454D01*
X29775346Y-55947405D01*
X29756263Y-55983675D01*
X29690843Y-56194362D01*
X29664913Y-56413444D01*
X29679342Y-56633582D01*
X29733646Y-56847404D01*
X29826006Y-57047750D01*
X29953331Y-57227910D01*
X30111354Y-57381849D01*
X30294785Y-57504414D01*
X30497480Y-57591499D01*
X30712651Y-57640187D01*
X30822871Y-57644517D01*
X30928558Y-57648670D01*
X30928559Y-57648670D01*
X30933091Y-57648848D01*
X31042254Y-57633020D01*
X31146924Y-57617844D01*
X31146928Y-57617843D01*
X31151418Y-57617192D01*
X31168960Y-57611237D01*
X31356024Y-57547738D01*
X31356027Y-57547736D01*
X31360321Y-57546279D01*
X31552803Y-57438484D01*
X31722417Y-57297417D01*
X31863484Y-57127803D01*
X31971279Y-56935321D01*
X32042192Y-56726418D01*
X32055016Y-56637977D01*
X32073428Y-56510990D01*
X32073428Y-56510984D01*
X32073848Y-56508091D01*
X32075500Y-56445000D01*
X32073017Y-56417971D01*
X32055729Y-56229833D01*
X32055314Y-56225315D01*
X31995431Y-56012987D01*
X31994831Y-56011770D01*
X31991677Y-55951609D01*
X32025000Y-55900294D01*
X32082121Y-55878367D01*
X32140058Y-55893458D01*
X32222919Y-55945638D01*
X32227616Y-55947403D01*
X32227619Y-55947405D01*
X32401363Y-56012711D01*
X32413149Y-56017141D01*
X32418105Y-56017926D01*
X32608912Y-56048147D01*
X32608916Y-56048147D01*
X32613871Y-56048932D01*
X32695746Y-56045214D01*
X32811874Y-56039941D01*
X32811878Y-56039940D01*
X32816886Y-56039713D01*
X32906091Y-56017141D01*
X33009036Y-55991092D01*
X33013901Y-55989861D01*
X33119493Y-55938816D01*
X33192359Y-55903591D01*
X33192361Y-55903590D01*
X33196868Y-55901411D01*
X33344631Y-55788438D01*
X33354327Y-55781025D01*
X33354328Y-55781024D01*
X33358312Y-55777978D01*
X33361599Y-55774197D01*
X33361603Y-55774193D01*
X33488348Y-55628389D01*
X33488349Y-55628388D01*
X33490438Y-55625984D01*
X33490440Y-55625983D01*
X33491639Y-55624603D01*
X33491937Y-55624862D01*
X33538599Y-55589957D01*
X33599779Y-55589104D01*
X33649775Y-55624375D01*
X33669501Y-55683676D01*
X33669501Y-59300127D01*
X33650594Y-59358318D01*
X33601094Y-59394282D01*
X33551189Y-59397225D01*
X33544769Y-59395948D01*
X33535142Y-59395000D01*
X32860680Y-59395000D01*
X32847995Y-59399122D01*
X32845000Y-59403243D01*
X32845000Y-61389320D01*
X32849122Y-61402005D01*
X32853243Y-61405000D01*
X33488180Y-61405000D01*
X33546371Y-61423907D01*
X33582335Y-61473407D01*
X33582335Y-61534593D01*
X33558184Y-61574004D01*
X30394100Y-64738088D01*
X30339583Y-64765865D01*
X30324096Y-64767084D01*
X29698919Y-64767084D01*
X29686874Y-64765738D01*
X29686866Y-64765834D01*
X29679834Y-64765268D01*
X29672956Y-64763712D01*
X29625113Y-64766680D01*
X29621667Y-64766894D01*
X29615537Y-64767084D01*
X29597502Y-64767084D01*
X29594016Y-64767583D01*
X29594005Y-64767584D01*
X29585307Y-64768830D01*
X29577405Y-64769640D01*
X29536943Y-64772150D01*
X29536940Y-64772151D01*
X29529906Y-64772587D01*
X29523275Y-64774981D01*
X29523270Y-64774982D01*
X29520264Y-64776067D01*
X29500687Y-64780949D01*
X29499503Y-64781118D01*
X29497521Y-64781402D01*
X29497520Y-64781402D01*
X29490539Y-64782402D01*
X29484121Y-64785320D01*
X29484118Y-64785321D01*
X29461316Y-64795689D01*
X29447212Y-64802101D01*
X29439858Y-64805095D01*
X29401731Y-64818859D01*
X29401729Y-64818860D01*
X29395098Y-64821254D01*
X29389404Y-64825414D01*
X29389400Y-64825416D01*
X29386824Y-64827298D01*
X29369398Y-64837481D01*
X29366489Y-64838804D01*
X29366488Y-64838805D01*
X29360067Y-64841724D01*
X29354726Y-64846326D01*
X29354723Y-64846328D01*
X29324006Y-64872795D01*
X29317786Y-64877734D01*
X29308497Y-64884520D01*
X29308493Y-64884524D01*
X29305411Y-64886775D01*
X29293231Y-64898955D01*
X29287851Y-64903950D01*
X29251490Y-64935281D01*
X29247196Y-64941905D01*
X29234128Y-64958058D01*
X27598658Y-66593528D01*
X27544141Y-66621305D01*
X27503700Y-66619327D01*
X27489246Y-66615562D01*
X27458685Y-66607601D01*
X27458681Y-66607600D01*
X27453827Y-66606336D01*
X27448815Y-66606073D01*
X27448813Y-66606073D01*
X27377342Y-66602328D01*
X27250882Y-66595700D01*
X27245923Y-66596450D01*
X27054899Y-66625340D01*
X27054896Y-66625341D01*
X27049942Y-66626090D01*
X26859218Y-66696263D01*
X26686499Y-66803353D01*
X26538841Y-66942986D01*
X26535967Y-66947091D01*
X26535964Y-66947094D01*
X26483078Y-67022624D01*
X26422277Y-67109457D01*
X26420288Y-67114053D01*
X26420287Y-67114055D01*
X26408704Y-67140822D01*
X26341567Y-67295967D01*
X26340543Y-67300866D01*
X26340542Y-67300871D01*
X26313938Y-67428220D01*
X26300008Y-67494897D01*
X26299299Y-67698120D01*
X26315026Y-67776116D01*
X26338447Y-67892268D01*
X26339468Y-67897334D01*
X26418874Y-68084403D01*
X26421719Y-68088527D01*
X26421720Y-68088529D01*
X26531426Y-68247559D01*
X26531430Y-68247563D01*
X26534273Y-68251685D01*
X26537890Y-68255153D01*
X26537892Y-68255156D01*
X26675517Y-68387133D01*
X26680952Y-68392345D01*
X26852919Y-68500638D01*
X26857616Y-68502403D01*
X26857619Y-68502405D01*
X26992962Y-68553277D01*
X27043149Y-68572141D01*
X27048105Y-68572926D01*
X27238912Y-68603147D01*
X27238916Y-68603147D01*
X27243871Y-68603932D01*
X27325746Y-68600214D01*
X27441874Y-68594941D01*
X27441878Y-68594940D01*
X27446886Y-68594713D01*
X27536091Y-68572141D01*
X27639036Y-68546092D01*
X27643901Y-68544861D01*
X27799006Y-68469880D01*
X27822359Y-68458591D01*
X27822361Y-68458590D01*
X27826868Y-68456411D01*
X27988312Y-68332978D01*
X27991599Y-68329197D01*
X27991603Y-68329193D01*
X28118346Y-68183391D01*
X28121639Y-68179603D01*
X28124266Y-68174942D01*
X28218942Y-68006919D01*
X28218943Y-68006917D01*
X28221403Y-68002551D01*
X28283527Y-67809055D01*
X28295578Y-67698120D01*
X28799299Y-67698120D01*
X28815026Y-67776116D01*
X28838447Y-67892268D01*
X28839468Y-67897334D01*
X28918874Y-68084403D01*
X28921719Y-68088527D01*
X28921720Y-68088529D01*
X29031426Y-68247559D01*
X29031430Y-68247563D01*
X29034273Y-68251685D01*
X29037890Y-68255153D01*
X29037892Y-68255156D01*
X29175517Y-68387133D01*
X29180952Y-68392345D01*
X29352919Y-68500638D01*
X29357616Y-68502403D01*
X29357619Y-68502405D01*
X29492962Y-68553277D01*
X29543149Y-68572141D01*
X29548105Y-68572926D01*
X29738912Y-68603147D01*
X29738916Y-68603147D01*
X29743871Y-68603932D01*
X29825746Y-68600214D01*
X29941874Y-68594941D01*
X29941878Y-68594940D01*
X29946886Y-68594713D01*
X30036091Y-68572141D01*
X30139036Y-68546092D01*
X30143901Y-68544861D01*
X30299006Y-68469880D01*
X30322359Y-68458591D01*
X30322361Y-68458590D01*
X30326868Y-68456411D01*
X30488312Y-68332978D01*
X30491599Y-68329197D01*
X30491603Y-68329193D01*
X30618346Y-68183391D01*
X30621639Y-68179603D01*
X30624266Y-68174942D01*
X30718942Y-68006919D01*
X30718943Y-68006917D01*
X30721403Y-68002551D01*
X30783527Y-67809055D01*
X30805475Y-67607020D01*
X30805500Y-67600000D01*
X30805238Y-67597414D01*
X30785470Y-67402803D01*
X30785469Y-67402799D01*
X30784963Y-67397816D01*
X30724191Y-67203891D01*
X30625666Y-67026148D01*
X30493412Y-66871845D01*
X30400790Y-66800000D01*
X31294500Y-66800000D01*
X31294500Y-68400000D01*
X31303213Y-68443800D01*
X31306071Y-68458168D01*
X31310143Y-68478641D01*
X31354690Y-68545310D01*
X31362800Y-68550729D01*
X31366613Y-68553277D01*
X31421359Y-68589857D01*
X31430922Y-68591759D01*
X31430924Y-68591760D01*
X31446917Y-68594941D01*
X31500000Y-68605500D01*
X33100000Y-68605500D01*
X33153083Y-68594941D01*
X33169076Y-68591760D01*
X33169078Y-68591759D01*
X33178641Y-68589857D01*
X33233387Y-68553277D01*
X33237200Y-68550729D01*
X33245310Y-68545310D01*
X33289857Y-68478641D01*
X33293930Y-68458168D01*
X33296787Y-68443800D01*
X33305500Y-68400000D01*
X33305500Y-66800000D01*
X33289857Y-66721359D01*
X33245310Y-66654690D01*
X33178641Y-66610143D01*
X33169078Y-66608241D01*
X33169076Y-66608240D01*
X33143800Y-66603213D01*
X33100000Y-66594500D01*
X31500000Y-66594500D01*
X31456200Y-66603213D01*
X31430924Y-66608240D01*
X31430922Y-66608241D01*
X31421359Y-66610143D01*
X31354690Y-66654690D01*
X31310143Y-66721359D01*
X31294500Y-66800000D01*
X30400790Y-66800000D01*
X30332834Y-66747288D01*
X30150489Y-66657563D01*
X30057025Y-66633217D01*
X29958685Y-66607601D01*
X29958681Y-66607600D01*
X29953827Y-66606336D01*
X29948815Y-66606073D01*
X29948813Y-66606073D01*
X29877342Y-66602328D01*
X29750882Y-66595700D01*
X29745923Y-66596450D01*
X29554899Y-66625340D01*
X29554896Y-66625341D01*
X29549942Y-66626090D01*
X29359218Y-66696263D01*
X29186499Y-66803353D01*
X29038841Y-66942986D01*
X29035967Y-66947091D01*
X29035964Y-66947094D01*
X28983078Y-67022624D01*
X28922277Y-67109457D01*
X28920288Y-67114053D01*
X28920287Y-67114055D01*
X28908704Y-67140822D01*
X28841567Y-67295967D01*
X28840543Y-67300866D01*
X28840542Y-67300871D01*
X28813938Y-67428220D01*
X28800008Y-67494897D01*
X28799299Y-67698120D01*
X28295578Y-67698120D01*
X28305475Y-67607020D01*
X28305500Y-67600000D01*
X28305238Y-67597414D01*
X28285470Y-67402808D01*
X28284963Y-67397816D01*
X28283462Y-67393027D01*
X28282485Y-67388266D01*
X28289305Y-67327462D01*
X28309459Y-67298355D01*
X29810734Y-65797080D01*
X29865251Y-65769303D01*
X29880738Y-65768084D01*
X30505914Y-65768084D01*
X30517959Y-65769430D01*
X30517967Y-65769334D01*
X30524999Y-65769900D01*
X30531877Y-65771456D01*
X30583165Y-65768274D01*
X30589296Y-65768084D01*
X30607332Y-65768084D01*
X30610822Y-65767584D01*
X30610825Y-65767584D01*
X30617211Y-65766669D01*
X30619526Y-65766338D01*
X30627428Y-65765528D01*
X30667889Y-65763018D01*
X30667891Y-65763018D01*
X30674927Y-65762581D01*
X30684563Y-65759102D01*
X30704148Y-65754219D01*
X30714295Y-65752766D01*
X30720718Y-65749846D01*
X30720720Y-65749845D01*
X30757626Y-65733065D01*
X30764986Y-65730069D01*
X30803100Y-65716310D01*
X30803102Y-65716309D01*
X30809736Y-65713914D01*
X30815432Y-65709753D01*
X30815437Y-65709750D01*
X30818010Y-65707870D01*
X30835436Y-65697687D01*
X30838345Y-65696364D01*
X30838346Y-65696363D01*
X30844767Y-65693444D01*
X30850108Y-65688842D01*
X30850111Y-65688840D01*
X30880828Y-65662373D01*
X30887048Y-65657434D01*
X30896337Y-65650648D01*
X30896341Y-65650644D01*
X30899423Y-65648393D01*
X30911603Y-65636213D01*
X30916983Y-65631218D01*
X30948002Y-65604490D01*
X30953344Y-65599887D01*
X30957638Y-65593263D01*
X30970706Y-65577110D01*
X34330996Y-62216820D01*
X34385513Y-62189043D01*
X34445945Y-62198614D01*
X34489210Y-62241879D01*
X34500000Y-62286824D01*
X34500000Y-69401000D01*
X34481093Y-69459191D01*
X34431593Y-69495155D01*
X34401000Y-69500000D01*
X599000Y-69500000D01*
X540809Y-69481093D01*
X504845Y-69431593D01*
X500000Y-69401000D01*
X500000Y-65955244D01*
X7794812Y-65955244D01*
X7809799Y-66312802D01*
X7864548Y-66666461D01*
X7906210Y-66819802D01*
X7949874Y-66980512D01*
X7958378Y-67011813D01*
X7959396Y-67014385D01*
X7959398Y-67014390D01*
X8083352Y-67327462D01*
X8090119Y-67344554D01*
X8091408Y-67346979D01*
X8091413Y-67346989D01*
X8231048Y-67609603D01*
X8258130Y-67660536D01*
X8259692Y-67662817D01*
X8458755Y-67953541D01*
X8458760Y-67953547D01*
X8460316Y-67955820D01*
X8462113Y-67957902D01*
X8462117Y-67957907D01*
X8574659Y-68088288D01*
X8694156Y-68226727D01*
X8956737Y-68469880D01*
X9244786Y-68682248D01*
X9554712Y-68861184D01*
X9882652Y-69004457D01*
X9885286Y-69005272D01*
X9885285Y-69005272D01*
X10221878Y-69109466D01*
X10221887Y-69109468D01*
X10224519Y-69110283D01*
X10576052Y-69177341D01*
X10932869Y-69204797D01*
X10935621Y-69204701D01*
X10935626Y-69204701D01*
X11152217Y-69197137D01*
X11290523Y-69192307D01*
X11644555Y-69140028D01*
X11647224Y-69139323D01*
X11647228Y-69139322D01*
X11987894Y-69049315D01*
X11987897Y-69049314D01*
X11990554Y-69048612D01*
X12324206Y-68919196D01*
X12641353Y-68753396D01*
X12938042Y-68553277D01*
X12941036Y-68550729D01*
X13208471Y-68323124D01*
X13208474Y-68323121D01*
X13210575Y-68321333D01*
X13455555Y-68060456D01*
X13502596Y-67997576D01*
X13668269Y-67776116D01*
X13669929Y-67773897D01*
X13671325Y-67771517D01*
X13671330Y-67771510D01*
X13714387Y-67698120D01*
X16299299Y-67698120D01*
X16315026Y-67776116D01*
X16338447Y-67892268D01*
X16339468Y-67897334D01*
X16418874Y-68084403D01*
X16421719Y-68088527D01*
X16421720Y-68088529D01*
X16531426Y-68247559D01*
X16531430Y-68247563D01*
X16534273Y-68251685D01*
X16537890Y-68255153D01*
X16537892Y-68255156D01*
X16675517Y-68387133D01*
X16680952Y-68392345D01*
X16852919Y-68500638D01*
X16857616Y-68502403D01*
X16857619Y-68502405D01*
X16992962Y-68553277D01*
X17043149Y-68572141D01*
X17048105Y-68572926D01*
X17238912Y-68603147D01*
X17238916Y-68603147D01*
X17243871Y-68603932D01*
X17325746Y-68600214D01*
X17441874Y-68594941D01*
X17441878Y-68594940D01*
X17446886Y-68594713D01*
X17536091Y-68572141D01*
X17639036Y-68546092D01*
X17643901Y-68544861D01*
X17799006Y-68469880D01*
X17822359Y-68458591D01*
X17822361Y-68458590D01*
X17826868Y-68456411D01*
X17988312Y-68332978D01*
X17991599Y-68329197D01*
X17991603Y-68329193D01*
X18118346Y-68183391D01*
X18121639Y-68179603D01*
X18124266Y-68174942D01*
X18218942Y-68006919D01*
X18218943Y-68006917D01*
X18221403Y-68002551D01*
X18283527Y-67809055D01*
X18295578Y-67698120D01*
X18799299Y-67698120D01*
X18815026Y-67776116D01*
X18838447Y-67892268D01*
X18839468Y-67897334D01*
X18918874Y-68084403D01*
X18921719Y-68088527D01*
X18921720Y-68088529D01*
X19031426Y-68247559D01*
X19031430Y-68247563D01*
X19034273Y-68251685D01*
X19037890Y-68255153D01*
X19037892Y-68255156D01*
X19175517Y-68387133D01*
X19180952Y-68392345D01*
X19352919Y-68500638D01*
X19357616Y-68502403D01*
X19357619Y-68502405D01*
X19492962Y-68553277D01*
X19543149Y-68572141D01*
X19548105Y-68572926D01*
X19738912Y-68603147D01*
X19738916Y-68603147D01*
X19743871Y-68603932D01*
X19825746Y-68600214D01*
X19941874Y-68594941D01*
X19941878Y-68594940D01*
X19946886Y-68594713D01*
X20036091Y-68572141D01*
X20139036Y-68546092D01*
X20143901Y-68544861D01*
X20299006Y-68469880D01*
X20322359Y-68458591D01*
X20322361Y-68458590D01*
X20326868Y-68456411D01*
X20425963Y-68380647D01*
X21673674Y-68380647D01*
X21674409Y-68385289D01*
X21674645Y-68385607D01*
X21677635Y-68388475D01*
X21685511Y-68394628D01*
X21848892Y-68497514D01*
X21857840Y-68501956D01*
X22038585Y-68569894D01*
X22048230Y-68572442D01*
X22238940Y-68602648D01*
X22248914Y-68603205D01*
X22441802Y-68594447D01*
X22451675Y-68592989D01*
X22638873Y-68545620D01*
X22648240Y-68542211D01*
X22822093Y-68458168D01*
X22830588Y-68452941D01*
X22916660Y-68387133D01*
X22924235Y-68376152D01*
X22924192Y-68374405D01*
X22921267Y-68369759D01*
X22311086Y-67759578D01*
X22299203Y-67753524D01*
X22294172Y-67754320D01*
X21679728Y-68368764D01*
X21673674Y-68380647D01*
X20425963Y-68380647D01*
X20488312Y-68332978D01*
X20491599Y-68329197D01*
X20491603Y-68329193D01*
X20618346Y-68183391D01*
X20621639Y-68179603D01*
X20624266Y-68174942D01*
X20718942Y-68006919D01*
X20718943Y-68006917D01*
X20721403Y-68002551D01*
X20783527Y-67809055D01*
X20796129Y-67693051D01*
X21299814Y-67693051D01*
X21300788Y-67702989D01*
X21338953Y-67892268D01*
X21341905Y-67901805D01*
X21417354Y-68079549D01*
X21422158Y-68088288D01*
X21511664Y-68218035D01*
X21522260Y-68226136D01*
X21522702Y-68226147D01*
X21529286Y-68222222D01*
X22140422Y-67611086D01*
X22145664Y-67600797D01*
X22453524Y-67600797D01*
X22454320Y-67605828D01*
X23066699Y-68218207D01*
X23078582Y-68224261D01*
X23081954Y-68223727D01*
X23084040Y-68222098D01*
X23117938Y-68183102D01*
X23123695Y-68174942D01*
X23218484Y-68006719D01*
X23222478Y-67997576D01*
X23281503Y-67813731D01*
X23283580Y-67803960D01*
X23295078Y-67698120D01*
X23799299Y-67698120D01*
X23815026Y-67776116D01*
X23838447Y-67892268D01*
X23839468Y-67897334D01*
X23918874Y-68084403D01*
X23921719Y-68088527D01*
X23921720Y-68088529D01*
X24031426Y-68247559D01*
X24031430Y-68247563D01*
X24034273Y-68251685D01*
X24037890Y-68255153D01*
X24037892Y-68255156D01*
X24175517Y-68387133D01*
X24180952Y-68392345D01*
X24352919Y-68500638D01*
X24357616Y-68502403D01*
X24357619Y-68502405D01*
X24492962Y-68553277D01*
X24543149Y-68572141D01*
X24548105Y-68572926D01*
X24738912Y-68603147D01*
X24738916Y-68603147D01*
X24743871Y-68603932D01*
X24825746Y-68600214D01*
X24941874Y-68594941D01*
X24941878Y-68594940D01*
X24946886Y-68594713D01*
X25036091Y-68572141D01*
X25139036Y-68546092D01*
X25143901Y-68544861D01*
X25299006Y-68469880D01*
X25322359Y-68458591D01*
X25322361Y-68458590D01*
X25326868Y-68456411D01*
X25488312Y-68332978D01*
X25491599Y-68329197D01*
X25491603Y-68329193D01*
X25618346Y-68183391D01*
X25621639Y-68179603D01*
X25624266Y-68174942D01*
X25718942Y-68006919D01*
X25718943Y-68006917D01*
X25721403Y-68002551D01*
X25783527Y-67809055D01*
X25805475Y-67607020D01*
X25805500Y-67600000D01*
X25805238Y-67597414D01*
X25785470Y-67402803D01*
X25785469Y-67402799D01*
X25784963Y-67397816D01*
X25724191Y-67203891D01*
X25625666Y-67026148D01*
X25493412Y-66871845D01*
X25332834Y-66747288D01*
X25150489Y-66657563D01*
X25057025Y-66633217D01*
X24958685Y-66607601D01*
X24958681Y-66607600D01*
X24953827Y-66606336D01*
X24948815Y-66606073D01*
X24948813Y-66606073D01*
X24877342Y-66602328D01*
X24750882Y-66595700D01*
X24745923Y-66596450D01*
X24554899Y-66625340D01*
X24554896Y-66625341D01*
X24549942Y-66626090D01*
X24359218Y-66696263D01*
X24186499Y-66803353D01*
X24038841Y-66942986D01*
X24035967Y-66947091D01*
X24035964Y-66947094D01*
X23983078Y-67022624D01*
X23922277Y-67109457D01*
X23920288Y-67114053D01*
X23920287Y-67114055D01*
X23908704Y-67140822D01*
X23841567Y-67295967D01*
X23840543Y-67300866D01*
X23840542Y-67300871D01*
X23813938Y-67428220D01*
X23800008Y-67494897D01*
X23799299Y-67698120D01*
X23295078Y-67698120D01*
X23304696Y-67609594D01*
X23304985Y-67604418D01*
X23304991Y-67602602D01*
X23304737Y-67597414D01*
X23284980Y-67402904D01*
X23282974Y-67393135D01*
X23225230Y-67208871D01*
X23221299Y-67199701D01*
X23127689Y-67030824D01*
X23121990Y-67022624D01*
X23087832Y-66982771D01*
X23076446Y-66975821D01*
X23073224Y-66976080D01*
X23070767Y-66977725D01*
X22459578Y-67588914D01*
X22453524Y-67600797D01*
X22145664Y-67600797D01*
X22146476Y-67599203D01*
X22145680Y-67594172D01*
X21532020Y-66980512D01*
X21520137Y-66974458D01*
X21519515Y-66974556D01*
X21513962Y-66979383D01*
X21425588Y-67105595D01*
X21420723Y-67114299D01*
X21344032Y-67291522D01*
X21341019Y-67301022D01*
X21301531Y-67490039D01*
X21300487Y-67499967D01*
X21299814Y-67693051D01*
X20796129Y-67693051D01*
X20805475Y-67607020D01*
X20805500Y-67600000D01*
X20805238Y-67597414D01*
X20785470Y-67402803D01*
X20785469Y-67402799D01*
X20784963Y-67397816D01*
X20724191Y-67203891D01*
X20625666Y-67026148D01*
X20493412Y-66871845D01*
X20428488Y-66821485D01*
X21674047Y-66821485D01*
X21674629Y-66825967D01*
X21675038Y-66826546D01*
X22288914Y-67440422D01*
X22300797Y-67446476D01*
X22305828Y-67445680D01*
X22917912Y-66833596D01*
X22923966Y-66821713D01*
X22923664Y-66819802D01*
X22920362Y-66815811D01*
X22836529Y-66750784D01*
X22828075Y-66745501D01*
X22654814Y-66660246D01*
X22645460Y-66656767D01*
X22458609Y-66608095D01*
X22448737Y-66606567D01*
X22255917Y-66596463D01*
X22245946Y-66596950D01*
X22055029Y-66625824D01*
X22045357Y-66628307D01*
X21864140Y-66694982D01*
X21855177Y-66699353D01*
X21691067Y-66801106D01*
X21683161Y-66807194D01*
X21680432Y-66809775D01*
X21674047Y-66821485D01*
X20428488Y-66821485D01*
X20332834Y-66747288D01*
X20150489Y-66657563D01*
X20057025Y-66633217D01*
X19958685Y-66607601D01*
X19958681Y-66607600D01*
X19953827Y-66606336D01*
X19948815Y-66606073D01*
X19948813Y-66606073D01*
X19877342Y-66602328D01*
X19750882Y-66595700D01*
X19745923Y-66596450D01*
X19554899Y-66625340D01*
X19554896Y-66625341D01*
X19549942Y-66626090D01*
X19359218Y-66696263D01*
X19186499Y-66803353D01*
X19038841Y-66942986D01*
X19035967Y-66947091D01*
X19035964Y-66947094D01*
X18983078Y-67022624D01*
X18922277Y-67109457D01*
X18920288Y-67114053D01*
X18920287Y-67114055D01*
X18908704Y-67140822D01*
X18841567Y-67295967D01*
X18840543Y-67300866D01*
X18840542Y-67300871D01*
X18813938Y-67428220D01*
X18800008Y-67494897D01*
X18799299Y-67698120D01*
X18295578Y-67698120D01*
X18305475Y-67607020D01*
X18305500Y-67600000D01*
X18305238Y-67597414D01*
X18285470Y-67402803D01*
X18285469Y-67402799D01*
X18284963Y-67397816D01*
X18224191Y-67203891D01*
X18125666Y-67026148D01*
X17993412Y-66871845D01*
X17832834Y-66747288D01*
X17650489Y-66657563D01*
X17557025Y-66633217D01*
X17458685Y-66607601D01*
X17458681Y-66607600D01*
X17453827Y-66606336D01*
X17448815Y-66606073D01*
X17448813Y-66606073D01*
X17377342Y-66602328D01*
X17250882Y-66595700D01*
X17245923Y-66596450D01*
X17054899Y-66625340D01*
X17054896Y-66625341D01*
X17049942Y-66626090D01*
X16859218Y-66696263D01*
X16686499Y-66803353D01*
X16538841Y-66942986D01*
X16535967Y-66947091D01*
X16535964Y-66947094D01*
X16483078Y-67022624D01*
X16422277Y-67109457D01*
X16420288Y-67114053D01*
X16420287Y-67114055D01*
X16408704Y-67140822D01*
X16341567Y-67295967D01*
X16340543Y-67300866D01*
X16340542Y-67300871D01*
X16313938Y-67428220D01*
X16300008Y-67494897D01*
X16299299Y-67698120D01*
X13714387Y-67698120D01*
X13849625Y-67467611D01*
X13851024Y-67465227D01*
X13996584Y-67138295D01*
X14007035Y-67105351D01*
X14103956Y-66799813D01*
X14104793Y-66797175D01*
X14125028Y-66694982D01*
X14173768Y-66448828D01*
X14173769Y-66448821D01*
X14174304Y-66446119D01*
X14204250Y-66089503D01*
X14205500Y-66000000D01*
X14190484Y-65731421D01*
X14185677Y-65645440D01*
X14185523Y-65642686D01*
X14125841Y-65289826D01*
X14027198Y-64945818D01*
X13890824Y-64614949D01*
X13718418Y-64301344D01*
X13690183Y-64261318D01*
X13513718Y-64011163D01*
X13513714Y-64011159D01*
X13512129Y-64008911D01*
X13274529Y-63741295D01*
X13272480Y-63739450D01*
X13272476Y-63739446D01*
X13010642Y-63503689D01*
X13010636Y-63503685D01*
X13008579Y-63501832D01*
X12850393Y-63388582D01*
X12719848Y-63295121D01*
X12719843Y-63295118D01*
X12717593Y-63293507D01*
X12715176Y-63292156D01*
X12715171Y-63292153D01*
X12407619Y-63120268D01*
X12407612Y-63120265D01*
X12405199Y-63118916D01*
X12402651Y-63117845D01*
X12402643Y-63117841D01*
X12200950Y-63033058D01*
X12075290Y-62980235D01*
X11731979Y-62879193D01*
X11511609Y-62840336D01*
X11382262Y-62817528D01*
X11382257Y-62817527D01*
X11379544Y-62817049D01*
X11022378Y-62794578D01*
X11019617Y-62794713D01*
X11019613Y-62794713D01*
X10715016Y-62809611D01*
X10664934Y-62812060D01*
X10311666Y-62869277D01*
X9966977Y-62965516D01*
X9919166Y-62984833D01*
X9637725Y-63098542D01*
X9637721Y-63098544D01*
X9635164Y-63099577D01*
X9632740Y-63100888D01*
X9632735Y-63100890D01*
X9322792Y-63268475D01*
X9322783Y-63268480D01*
X9320363Y-63269789D01*
X9026497Y-63474032D01*
X8757229Y-63709758D01*
X8515915Y-63974030D01*
X8305564Y-64263554D01*
X8304197Y-64265961D01*
X8304196Y-64265962D01*
X8130164Y-64572313D01*
X8130161Y-64572320D01*
X8128796Y-64574722D01*
X7987815Y-64903654D01*
X7987019Y-64906289D01*
X7987018Y-64906293D01*
X7936097Y-65074953D01*
X7884379Y-65246252D01*
X7883882Y-65248960D01*
X7883881Y-65248964D01*
X7820690Y-65593266D01*
X7819776Y-65598244D01*
X7816668Y-65642686D01*
X7807900Y-65768084D01*
X7794812Y-65955244D01*
X500000Y-65955244D01*
X500000Y-63893622D01*
X518907Y-63835431D01*
X568407Y-63799467D01*
X629593Y-63799467D01*
X679847Y-63836485D01*
X780705Y-63979196D01*
X780712Y-63979204D01*
X783331Y-63982910D01*
X786585Y-63986079D01*
X786585Y-63986080D01*
X851095Y-64048923D01*
X941354Y-64136849D01*
X1124785Y-64259414D01*
X1327480Y-64346499D01*
X1542651Y-64395187D01*
X1652871Y-64399517D01*
X1758558Y-64403670D01*
X1758559Y-64403670D01*
X1763091Y-64403848D01*
X1872254Y-64388020D01*
X1976924Y-64372844D01*
X1976928Y-64372843D01*
X1981418Y-64372192D01*
X1998960Y-64366237D01*
X2186024Y-64302738D01*
X2186027Y-64302736D01*
X2190321Y-64301279D01*
X2382803Y-64193484D01*
X2552417Y-64052417D01*
X2693484Y-63882803D01*
X2801279Y-63690321D01*
X2872192Y-63481418D01*
X2899635Y-63292153D01*
X2903428Y-63265990D01*
X2903428Y-63265984D01*
X2903848Y-63263091D01*
X2905500Y-63200000D01*
X2902601Y-63168444D01*
X2885729Y-62984833D01*
X2885314Y-62980315D01*
X2825431Y-62767987D01*
X2742301Y-62599415D01*
X2729869Y-62574205D01*
X2729867Y-62574201D01*
X2727858Y-62570128D01*
X2595861Y-62393363D01*
X2433862Y-62243613D01*
X2408685Y-62227727D01*
X2251123Y-62128313D01*
X2247286Y-62125892D01*
X2042380Y-62044143D01*
X1826009Y-62001104D01*
X1717318Y-61999681D01*
X1609958Y-61998275D01*
X1609953Y-61998275D01*
X1605418Y-61998216D01*
X1600945Y-61998985D01*
X1600940Y-61998985D01*
X1493033Y-62017527D01*
X1387994Y-62035576D01*
X1181019Y-62111933D01*
X991425Y-62224730D01*
X988010Y-62227725D01*
X988007Y-62227727D01*
X971870Y-62241879D01*
X825561Y-62370189D01*
X688983Y-62543438D01*
X686870Y-62547453D01*
X686870Y-62547454D01*
X686615Y-62547939D01*
X686452Y-62548098D01*
X684395Y-62551265D01*
X683679Y-62550800D01*
X642789Y-62590634D01*
X582237Y-62599415D01*
X528088Y-62570928D01*
X501025Y-62516053D01*
X500000Y-62501845D01*
X500000Y-60498120D01*
X26659299Y-60498120D01*
X26699468Y-60697334D01*
X26778874Y-60884403D01*
X26781719Y-60888527D01*
X26781720Y-60888529D01*
X26891426Y-61047559D01*
X26891430Y-61047563D01*
X26894273Y-61051685D01*
X26897890Y-61055153D01*
X26897892Y-61055156D01*
X26982222Y-61136025D01*
X27040952Y-61192345D01*
X27212919Y-61300638D01*
X27217616Y-61302403D01*
X27217619Y-61302405D01*
X27345244Y-61350376D01*
X27403149Y-61372141D01*
X27408105Y-61372926D01*
X27598912Y-61403147D01*
X27598916Y-61403147D01*
X27603871Y-61403932D01*
X27685746Y-61400214D01*
X27801874Y-61394941D01*
X27801878Y-61394940D01*
X27806886Y-61394713D01*
X27896091Y-61372141D01*
X27999036Y-61346092D01*
X28003901Y-61344861D01*
X28124508Y-61286557D01*
X28182359Y-61258591D01*
X28182361Y-61258590D01*
X28186868Y-61256411D01*
X28348312Y-61132978D01*
X28351599Y-61129197D01*
X28351603Y-61129193D01*
X28478346Y-60983391D01*
X28481639Y-60979603D01*
X28581403Y-60802551D01*
X28643527Y-60609055D01*
X28655578Y-60498120D01*
X29199299Y-60498120D01*
X29239468Y-60697334D01*
X29318874Y-60884403D01*
X29321719Y-60888527D01*
X29321720Y-60888529D01*
X29431426Y-61047559D01*
X29431430Y-61047563D01*
X29434273Y-61051685D01*
X29437890Y-61055153D01*
X29437892Y-61055156D01*
X29522222Y-61136025D01*
X29580952Y-61192345D01*
X29752919Y-61300638D01*
X29757616Y-61302403D01*
X29757619Y-61302405D01*
X29885244Y-61350376D01*
X29943149Y-61372141D01*
X29948105Y-61372926D01*
X30138912Y-61403147D01*
X30138916Y-61403147D01*
X30143871Y-61403932D01*
X30225746Y-61400214D01*
X30341874Y-61394941D01*
X30341878Y-61394940D01*
X30346886Y-61394713D01*
X30436091Y-61372141D01*
X30539036Y-61346092D01*
X30543901Y-61344861D01*
X30664508Y-61286557D01*
X30722359Y-61258591D01*
X30722361Y-61258590D01*
X30726868Y-61256411D01*
X30888312Y-61132978D01*
X30891599Y-61129197D01*
X30891603Y-61129193D01*
X31018346Y-60983391D01*
X31021639Y-60979603D01*
X31121403Y-60802551D01*
X31183527Y-60609055D01*
X31193936Y-60513243D01*
X31735000Y-60513243D01*
X31735000Y-61195142D01*
X31735948Y-61204763D01*
X31748703Y-61268888D01*
X31756022Y-61286557D01*
X31789624Y-61336847D01*
X31803153Y-61350376D01*
X31853443Y-61383978D01*
X31871112Y-61391297D01*
X31935237Y-61404052D01*
X31944858Y-61405000D01*
X32619320Y-61405000D01*
X32632005Y-61400878D01*
X32635000Y-61396757D01*
X32635000Y-60520680D01*
X32630878Y-60507995D01*
X32626757Y-60505000D01*
X31750680Y-60505000D01*
X31737995Y-60509122D01*
X31735000Y-60513243D01*
X31193936Y-60513243D01*
X31205475Y-60407020D01*
X31205500Y-60400000D01*
X31194825Y-60294897D01*
X31185470Y-60202803D01*
X31185469Y-60202799D01*
X31184963Y-60197816D01*
X31124191Y-60003891D01*
X31025666Y-59826148D01*
X30893412Y-59671845D01*
X30807053Y-59604858D01*
X31735000Y-59604858D01*
X31735000Y-60279320D01*
X31739122Y-60292005D01*
X31743243Y-60295000D01*
X32619320Y-60295000D01*
X32632005Y-60290878D01*
X32635000Y-60286757D01*
X32635000Y-59410680D01*
X32630878Y-59397995D01*
X32626757Y-59395000D01*
X31944858Y-59395000D01*
X31935237Y-59395948D01*
X31871112Y-59408703D01*
X31853443Y-59416022D01*
X31803153Y-59449624D01*
X31789624Y-59463153D01*
X31756022Y-59513443D01*
X31748703Y-59531112D01*
X31735948Y-59595237D01*
X31735000Y-59604858D01*
X30807053Y-59604858D01*
X30732834Y-59547288D01*
X30550489Y-59457563D01*
X30436309Y-59427821D01*
X30358685Y-59407601D01*
X30358681Y-59407600D01*
X30353827Y-59406336D01*
X30348815Y-59406073D01*
X30348813Y-59406073D01*
X30277342Y-59402328D01*
X30150882Y-59395700D01*
X30145923Y-59396450D01*
X29954899Y-59425340D01*
X29954896Y-59425341D01*
X29949942Y-59426090D01*
X29759218Y-59496263D01*
X29586499Y-59603353D01*
X29438841Y-59742986D01*
X29435967Y-59747091D01*
X29435964Y-59747094D01*
X29380610Y-59826148D01*
X29322277Y-59909457D01*
X29241567Y-60095967D01*
X29200008Y-60294897D01*
X29199299Y-60498120D01*
X28655578Y-60498120D01*
X28665475Y-60407020D01*
X28665500Y-60400000D01*
X28654825Y-60294897D01*
X28645470Y-60202803D01*
X28645469Y-60202799D01*
X28644963Y-60197816D01*
X28584191Y-60003891D01*
X28485666Y-59826148D01*
X28353412Y-59671845D01*
X28192834Y-59547288D01*
X28010489Y-59457563D01*
X27896309Y-59427821D01*
X27818685Y-59407601D01*
X27818681Y-59407600D01*
X27813827Y-59406336D01*
X27808815Y-59406073D01*
X27808813Y-59406073D01*
X27737342Y-59402328D01*
X27610882Y-59395700D01*
X27605923Y-59396450D01*
X27414899Y-59425340D01*
X27414896Y-59425341D01*
X27409942Y-59426090D01*
X27219218Y-59496263D01*
X27046499Y-59603353D01*
X26898841Y-59742986D01*
X26895967Y-59747091D01*
X26895964Y-59747094D01*
X26840610Y-59826148D01*
X26782277Y-59909457D01*
X26701567Y-60095967D01*
X26660008Y-60294897D01*
X26659299Y-60498120D01*
X500000Y-60498120D01*
X500000Y-56413444D01*
X20864913Y-56413444D01*
X20879342Y-56633582D01*
X20933646Y-56847404D01*
X21026006Y-57047750D01*
X21153331Y-57227910D01*
X21311354Y-57381849D01*
X21494785Y-57504414D01*
X21697480Y-57591499D01*
X21912651Y-57640187D01*
X22022871Y-57644517D01*
X22128558Y-57648670D01*
X22128559Y-57648670D01*
X22133091Y-57648848D01*
X22242254Y-57633020D01*
X22346924Y-57617844D01*
X22346928Y-57617843D01*
X22351418Y-57617192D01*
X22368960Y-57611237D01*
X22556024Y-57547738D01*
X22556027Y-57547736D01*
X22560321Y-57546279D01*
X22752803Y-57438484D01*
X22922417Y-57297417D01*
X23063484Y-57127803D01*
X23171279Y-56935321D01*
X23242192Y-56726418D01*
X23255016Y-56637977D01*
X23273428Y-56510990D01*
X23273428Y-56510984D01*
X23273848Y-56508091D01*
X23275500Y-56445000D01*
X23273017Y-56417971D01*
X23255729Y-56229833D01*
X23255314Y-56225315D01*
X23195431Y-56012987D01*
X23194831Y-56011770D01*
X23191677Y-55951609D01*
X23225000Y-55900294D01*
X23282121Y-55878367D01*
X23340058Y-55893458D01*
X23422919Y-55945638D01*
X23427616Y-55947403D01*
X23427619Y-55947405D01*
X23601363Y-56012711D01*
X23613149Y-56017141D01*
X23618105Y-56017926D01*
X23808912Y-56048147D01*
X23808916Y-56048147D01*
X23813871Y-56048932D01*
X23895746Y-56045214D01*
X24011874Y-56039941D01*
X24011878Y-56039940D01*
X24016886Y-56039713D01*
X24106091Y-56017141D01*
X24209036Y-55991092D01*
X24213901Y-55989861D01*
X24319493Y-55938816D01*
X24392359Y-55903591D01*
X24392361Y-55903590D01*
X24396868Y-55901411D01*
X24544631Y-55788438D01*
X24554327Y-55781025D01*
X24554328Y-55781024D01*
X24558312Y-55777978D01*
X24561599Y-55774197D01*
X24561603Y-55774193D01*
X24688346Y-55628391D01*
X24691639Y-55624603D01*
X24711162Y-55589957D01*
X24788942Y-55451919D01*
X24788943Y-55451917D01*
X24791403Y-55447551D01*
X24853527Y-55254055D01*
X24875475Y-55052020D01*
X24875500Y-55045000D01*
X24864825Y-54939897D01*
X24855470Y-54847803D01*
X24855469Y-54847799D01*
X24854963Y-54842816D01*
X24794191Y-54648891D01*
X24695666Y-54471148D01*
X24621435Y-54384541D01*
X24566678Y-54320655D01*
X24566676Y-54320653D01*
X24563412Y-54316845D01*
X24402834Y-54192288D01*
X24220489Y-54102563D01*
X24104439Y-54072334D01*
X24028685Y-54052601D01*
X24028681Y-54052600D01*
X24023827Y-54051336D01*
X24018815Y-54051073D01*
X24018813Y-54051073D01*
X23947342Y-54047328D01*
X23820882Y-54040700D01*
X23815923Y-54041450D01*
X23624899Y-54070340D01*
X23624896Y-54070341D01*
X23619942Y-54071090D01*
X23429218Y-54141263D01*
X23256499Y-54248353D01*
X23108841Y-54387986D01*
X23105967Y-54392091D01*
X23105964Y-54392094D01*
X23050883Y-54470759D01*
X22992277Y-54554457D01*
X22911567Y-54740967D01*
X22910543Y-54745866D01*
X22910542Y-54745871D01*
X22891288Y-54838034D01*
X22870008Y-54939897D01*
X22869299Y-55143120D01*
X22909468Y-55342334D01*
X22911430Y-55346955D01*
X22912784Y-55351330D01*
X22911931Y-55412510D01*
X22875281Y-55461504D01*
X22816832Y-55479598D01*
X22765384Y-55464335D01*
X22621123Y-55373313D01*
X22617286Y-55370892D01*
X22412380Y-55289143D01*
X22196009Y-55246104D01*
X22087318Y-55244681D01*
X21979958Y-55243275D01*
X21979953Y-55243275D01*
X21975418Y-55243216D01*
X21970945Y-55243985D01*
X21970940Y-55243985D01*
X21884520Y-55258835D01*
X21757994Y-55280576D01*
X21551019Y-55356933D01*
X21361425Y-55469730D01*
X21358010Y-55472725D01*
X21358007Y-55472727D01*
X21199369Y-55611849D01*
X21195561Y-55615189D01*
X21058983Y-55788438D01*
X21056870Y-55792453D01*
X21056870Y-55792454D01*
X20975346Y-55947405D01*
X20956263Y-55983675D01*
X20890843Y-56194362D01*
X20864913Y-56413444D01*
X500000Y-56413444D01*
X500000Y-53873120D01*
X20329299Y-53873120D01*
X20330291Y-53878038D01*
X20363241Y-54041450D01*
X20369468Y-54072334D01*
X20448874Y-54259403D01*
X20451719Y-54263527D01*
X20451720Y-54263529D01*
X20561426Y-54422559D01*
X20561430Y-54422563D01*
X20564273Y-54426685D01*
X20567890Y-54430153D01*
X20567892Y-54430156D01*
X20702307Y-54559055D01*
X20710952Y-54567345D01*
X20882919Y-54675638D01*
X20887616Y-54677403D01*
X20887619Y-54677405D01*
X21044496Y-54736371D01*
X21073149Y-54747141D01*
X21078105Y-54747926D01*
X21268912Y-54778147D01*
X21268916Y-54778147D01*
X21273871Y-54778932D01*
X21355746Y-54775214D01*
X21471874Y-54769941D01*
X21471878Y-54769940D01*
X21476886Y-54769713D01*
X21566091Y-54747141D01*
X21590490Y-54740967D01*
X21673901Y-54719861D01*
X21829784Y-54644504D01*
X21852359Y-54633591D01*
X21852361Y-54633590D01*
X21856868Y-54631411D01*
X22018312Y-54507978D01*
X22021599Y-54504197D01*
X22021603Y-54504193D01*
X22148346Y-54358391D01*
X22151639Y-54354603D01*
X22174649Y-54313768D01*
X22248942Y-54181919D01*
X22248943Y-54181917D01*
X22251403Y-54177551D01*
X22313527Y-53984055D01*
X22325578Y-53873120D01*
X29129299Y-53873120D01*
X29130291Y-53878038D01*
X29163241Y-54041450D01*
X29169468Y-54072334D01*
X29248874Y-54259403D01*
X29251719Y-54263527D01*
X29251720Y-54263529D01*
X29361426Y-54422559D01*
X29361430Y-54422563D01*
X29364273Y-54426685D01*
X29367890Y-54430153D01*
X29367892Y-54430156D01*
X29502307Y-54559055D01*
X29510952Y-54567345D01*
X29682919Y-54675638D01*
X29687616Y-54677403D01*
X29687619Y-54677405D01*
X29844496Y-54736371D01*
X29873149Y-54747141D01*
X29878105Y-54747926D01*
X30068912Y-54778147D01*
X30068916Y-54778147D01*
X30073871Y-54778932D01*
X30155746Y-54775214D01*
X30271874Y-54769941D01*
X30271878Y-54769940D01*
X30276886Y-54769713D01*
X30366091Y-54747141D01*
X30390490Y-54740967D01*
X30473901Y-54719861D01*
X30629784Y-54644504D01*
X30652359Y-54633591D01*
X30652361Y-54633590D01*
X30656868Y-54631411D01*
X30818312Y-54507978D01*
X30821599Y-54504197D01*
X30821603Y-54504193D01*
X30948346Y-54358391D01*
X30951639Y-54354603D01*
X30974649Y-54313768D01*
X31048942Y-54181919D01*
X31048943Y-54181917D01*
X31051403Y-54177551D01*
X31113527Y-53984055D01*
X31135475Y-53782020D01*
X31135500Y-53775000D01*
X31124825Y-53669897D01*
X31115470Y-53577803D01*
X31115469Y-53577799D01*
X31114963Y-53572816D01*
X31054191Y-53378891D01*
X30955666Y-53201148D01*
X30881435Y-53114541D01*
X30826678Y-53050655D01*
X30826676Y-53050653D01*
X30823412Y-53046845D01*
X30662834Y-52922288D01*
X30480489Y-52832563D01*
X30364439Y-52802334D01*
X30288685Y-52782601D01*
X30288681Y-52782600D01*
X30283827Y-52781336D01*
X30278815Y-52781073D01*
X30278813Y-52781073D01*
X30207342Y-52777328D01*
X30080882Y-52770700D01*
X30075923Y-52771450D01*
X29884899Y-52800340D01*
X29884896Y-52800341D01*
X29879942Y-52801090D01*
X29689218Y-52871263D01*
X29516499Y-52978353D01*
X29368841Y-53117986D01*
X29365967Y-53122091D01*
X29365964Y-53122094D01*
X29310610Y-53201148D01*
X29252277Y-53284457D01*
X29171567Y-53470967D01*
X29170543Y-53475866D01*
X29170542Y-53475871D01*
X29151288Y-53568034D01*
X29130008Y-53669897D01*
X29129299Y-53873120D01*
X22325578Y-53873120D01*
X22335475Y-53782020D01*
X22335500Y-53775000D01*
X22324825Y-53669897D01*
X22315470Y-53577803D01*
X22315469Y-53577799D01*
X22314963Y-53572816D01*
X22254191Y-53378891D01*
X22155666Y-53201148D01*
X22081435Y-53114541D01*
X22026678Y-53050655D01*
X22026676Y-53050653D01*
X22023412Y-53046845D01*
X21862834Y-52922288D01*
X21680489Y-52832563D01*
X21564439Y-52802334D01*
X21488685Y-52782601D01*
X21488681Y-52782600D01*
X21483827Y-52781336D01*
X21478815Y-52781073D01*
X21478813Y-52781073D01*
X21407342Y-52777328D01*
X21280882Y-52770700D01*
X21275923Y-52771450D01*
X21084899Y-52800340D01*
X21084896Y-52800341D01*
X21079942Y-52801090D01*
X20889218Y-52871263D01*
X20716499Y-52978353D01*
X20568841Y-53117986D01*
X20565967Y-53122091D01*
X20565964Y-53122094D01*
X20510610Y-53201148D01*
X20452277Y-53284457D01*
X20371567Y-53470967D01*
X20370543Y-53475866D01*
X20370542Y-53475871D01*
X20351288Y-53568034D01*
X20330008Y-53669897D01*
X20329299Y-53873120D01*
X500000Y-53873120D01*
X500000Y-52603120D01*
X22869299Y-52603120D01*
X22870291Y-52608038D01*
X22903241Y-52771450D01*
X22909468Y-52802334D01*
X22988874Y-52989403D01*
X22991719Y-52993527D01*
X22991720Y-52993529D01*
X23101426Y-53152559D01*
X23101430Y-53152563D01*
X23104273Y-53156685D01*
X23107890Y-53160153D01*
X23107892Y-53160156D01*
X23242307Y-53289055D01*
X23250952Y-53297345D01*
X23422919Y-53405638D01*
X23427616Y-53407403D01*
X23427619Y-53407405D01*
X23584496Y-53466371D01*
X23613149Y-53477141D01*
X23618105Y-53477926D01*
X23808912Y-53508147D01*
X23808916Y-53508147D01*
X23813871Y-53508932D01*
X23895746Y-53505214D01*
X24011874Y-53499941D01*
X24011878Y-53499940D01*
X24016886Y-53499713D01*
X24106091Y-53477141D01*
X24130490Y-53470967D01*
X24213901Y-53449861D01*
X24369784Y-53374504D01*
X24392359Y-53363591D01*
X24392361Y-53363590D01*
X24396868Y-53361411D01*
X24558312Y-53237978D01*
X24561599Y-53234197D01*
X24561603Y-53234193D01*
X24688346Y-53088391D01*
X24691639Y-53084603D01*
X24711162Y-53049957D01*
X24788942Y-52911919D01*
X24788943Y-52911917D01*
X24791403Y-52907551D01*
X24853527Y-52714055D01*
X24875475Y-52512020D01*
X24875500Y-52505000D01*
X24864825Y-52399897D01*
X24855470Y-52307803D01*
X24855469Y-52307799D01*
X24854963Y-52302816D01*
X24794191Y-52108891D01*
X24695666Y-51931148D01*
X24621435Y-51844541D01*
X24566678Y-51780655D01*
X24566676Y-51780653D01*
X24563412Y-51776845D01*
X24402834Y-51652288D01*
X24220489Y-51562563D01*
X24104439Y-51532334D01*
X24028685Y-51512601D01*
X24028681Y-51512600D01*
X24023827Y-51511336D01*
X24018815Y-51511073D01*
X24018813Y-51511073D01*
X23947342Y-51507328D01*
X23820882Y-51500700D01*
X23815923Y-51501450D01*
X23624899Y-51530340D01*
X23624896Y-51530341D01*
X23619942Y-51531090D01*
X23429218Y-51601263D01*
X23256499Y-51708353D01*
X23108841Y-51847986D01*
X23105967Y-51852091D01*
X23105964Y-51852094D01*
X23050883Y-51930759D01*
X22992277Y-52014457D01*
X22911567Y-52200967D01*
X22910543Y-52205866D01*
X22910542Y-52205871D01*
X22891288Y-52298034D01*
X22870008Y-52399897D01*
X22869299Y-52603120D01*
X500000Y-52603120D01*
X500000Y-51333120D01*
X20329299Y-51333120D01*
X20330291Y-51338038D01*
X20363241Y-51501450D01*
X20369468Y-51532334D01*
X20448874Y-51719403D01*
X20451719Y-51723527D01*
X20451720Y-51723529D01*
X20561426Y-51882559D01*
X20561430Y-51882563D01*
X20564273Y-51886685D01*
X20567890Y-51890153D01*
X20567892Y-51890156D01*
X20702307Y-52019055D01*
X20710952Y-52027345D01*
X20882919Y-52135638D01*
X20887616Y-52137403D01*
X20887619Y-52137405D01*
X21044496Y-52196371D01*
X21073149Y-52207141D01*
X21078105Y-52207926D01*
X21268912Y-52238147D01*
X21268916Y-52238147D01*
X21273871Y-52238932D01*
X21355746Y-52235214D01*
X21471874Y-52229941D01*
X21471878Y-52229940D01*
X21476886Y-52229713D01*
X21566091Y-52207141D01*
X21590490Y-52200967D01*
X21673901Y-52179861D01*
X21829784Y-52104504D01*
X21852359Y-52093591D01*
X21852361Y-52093590D01*
X21856868Y-52091411D01*
X22018312Y-51967978D01*
X22021599Y-51964197D01*
X22021603Y-51964193D01*
X22148346Y-51818391D01*
X22151639Y-51814603D01*
X22174649Y-51773768D01*
X22248942Y-51641919D01*
X22248943Y-51641917D01*
X22251403Y-51637551D01*
X22313527Y-51444055D01*
X22325578Y-51333120D01*
X29129299Y-51333120D01*
X29130291Y-51338038D01*
X29163241Y-51501450D01*
X29169468Y-51532334D01*
X29248874Y-51719403D01*
X29251719Y-51723527D01*
X29251720Y-51723529D01*
X29361426Y-51882559D01*
X29361430Y-51882563D01*
X29364273Y-51886685D01*
X29367890Y-51890153D01*
X29367892Y-51890156D01*
X29502307Y-52019055D01*
X29510952Y-52027345D01*
X29682919Y-52135638D01*
X29687616Y-52137403D01*
X29687619Y-52137405D01*
X29844496Y-52196371D01*
X29873149Y-52207141D01*
X29878105Y-52207926D01*
X30068912Y-52238147D01*
X30068916Y-52238147D01*
X30073871Y-52238932D01*
X30155746Y-52235214D01*
X30271874Y-52229941D01*
X30271878Y-52229940D01*
X30276886Y-52229713D01*
X30366091Y-52207141D01*
X30390490Y-52200967D01*
X30473901Y-52179861D01*
X30629784Y-52104504D01*
X30652359Y-52093591D01*
X30652361Y-52093590D01*
X30656868Y-52091411D01*
X30818312Y-51967978D01*
X30821599Y-51964197D01*
X30821603Y-51964193D01*
X30948346Y-51818391D01*
X30951639Y-51814603D01*
X30974649Y-51773768D01*
X31048942Y-51641919D01*
X31048943Y-51641917D01*
X31051403Y-51637551D01*
X31113527Y-51444055D01*
X31135475Y-51242020D01*
X31135500Y-51235000D01*
X31124825Y-51129897D01*
X31115470Y-51037803D01*
X31115469Y-51037799D01*
X31114963Y-51032816D01*
X31054191Y-50838891D01*
X30955666Y-50661148D01*
X30881435Y-50574541D01*
X30826678Y-50510655D01*
X30826676Y-50510653D01*
X30823412Y-50506845D01*
X30662834Y-50382288D01*
X30480489Y-50292563D01*
X30364439Y-50262334D01*
X30288685Y-50242601D01*
X30288681Y-50242600D01*
X30283827Y-50241336D01*
X30278815Y-50241073D01*
X30278813Y-50241073D01*
X30207342Y-50237328D01*
X30080882Y-50230700D01*
X30075923Y-50231450D01*
X29884899Y-50260340D01*
X29884896Y-50260341D01*
X29879942Y-50261090D01*
X29689218Y-50331263D01*
X29516499Y-50438353D01*
X29368841Y-50577986D01*
X29365967Y-50582091D01*
X29365964Y-50582094D01*
X29310610Y-50661148D01*
X29252277Y-50744457D01*
X29171567Y-50930967D01*
X29170543Y-50935866D01*
X29170542Y-50935871D01*
X29151288Y-51028034D01*
X29130008Y-51129897D01*
X29129299Y-51333120D01*
X22325578Y-51333120D01*
X22335475Y-51242020D01*
X22335500Y-51235000D01*
X22324825Y-51129897D01*
X22315470Y-51037803D01*
X22315469Y-51037799D01*
X22314963Y-51032816D01*
X22254191Y-50838891D01*
X22155666Y-50661148D01*
X22081435Y-50574541D01*
X22026678Y-50510655D01*
X22026676Y-50510653D01*
X22023412Y-50506845D01*
X21862834Y-50382288D01*
X21680489Y-50292563D01*
X21564439Y-50262334D01*
X21488685Y-50242601D01*
X21488681Y-50242600D01*
X21483827Y-50241336D01*
X21478815Y-50241073D01*
X21478813Y-50241073D01*
X21407342Y-50237328D01*
X21280882Y-50230700D01*
X21275923Y-50231450D01*
X21084899Y-50260340D01*
X21084896Y-50260341D01*
X21079942Y-50261090D01*
X20889218Y-50331263D01*
X20716499Y-50438353D01*
X20568841Y-50577986D01*
X20565967Y-50582091D01*
X20565964Y-50582094D01*
X20510610Y-50661148D01*
X20452277Y-50744457D01*
X20371567Y-50930967D01*
X20370543Y-50935866D01*
X20370542Y-50935871D01*
X20351288Y-51028034D01*
X20330008Y-51129897D01*
X20329299Y-51333120D01*
X500000Y-51333120D01*
X500000Y-50063120D01*
X22869299Y-50063120D01*
X22870291Y-50068038D01*
X22903241Y-50231450D01*
X22909468Y-50262334D01*
X22988874Y-50449403D01*
X22991719Y-50453527D01*
X22991720Y-50453529D01*
X23101426Y-50612559D01*
X23101430Y-50612563D01*
X23104273Y-50616685D01*
X23107890Y-50620153D01*
X23107892Y-50620156D01*
X23242307Y-50749055D01*
X23250952Y-50757345D01*
X23422919Y-50865638D01*
X23427616Y-50867403D01*
X23427619Y-50867405D01*
X23584496Y-50926371D01*
X23613149Y-50937141D01*
X23618105Y-50937926D01*
X23808912Y-50968147D01*
X23808916Y-50968147D01*
X23813871Y-50968932D01*
X23895746Y-50965214D01*
X24011874Y-50959941D01*
X24011878Y-50959940D01*
X24016886Y-50959713D01*
X24106091Y-50937141D01*
X24130490Y-50930967D01*
X24213901Y-50909861D01*
X24369784Y-50834504D01*
X24392359Y-50823591D01*
X24392361Y-50823590D01*
X24396868Y-50821411D01*
X24558312Y-50697978D01*
X24561599Y-50694197D01*
X24561603Y-50694193D01*
X24688346Y-50548391D01*
X24691639Y-50544603D01*
X24711162Y-50509957D01*
X24788942Y-50371919D01*
X24788943Y-50371917D01*
X24791403Y-50367551D01*
X24853527Y-50174055D01*
X24875475Y-49972020D01*
X24875500Y-49965000D01*
X24864825Y-49859897D01*
X24855470Y-49767803D01*
X24855469Y-49767799D01*
X24854963Y-49762816D01*
X24794191Y-49568891D01*
X24742505Y-49475647D01*
X29503674Y-49475647D01*
X29504409Y-49480289D01*
X29504645Y-49480607D01*
X29507635Y-49483475D01*
X29515511Y-49489628D01*
X29678892Y-49592514D01*
X29687840Y-49596956D01*
X29868585Y-49664894D01*
X29878230Y-49667442D01*
X30068940Y-49697648D01*
X30078914Y-49698205D01*
X30271802Y-49689447D01*
X30281675Y-49687989D01*
X30468873Y-49640620D01*
X30478240Y-49637211D01*
X30652093Y-49553168D01*
X30660588Y-49547941D01*
X30746660Y-49482133D01*
X30754235Y-49471152D01*
X30754192Y-49469405D01*
X30751267Y-49464759D01*
X30141086Y-48854578D01*
X30129203Y-48848524D01*
X30124172Y-48849320D01*
X29509728Y-49463764D01*
X29503674Y-49475647D01*
X24742505Y-49475647D01*
X24695666Y-49391148D01*
X24563412Y-49236845D01*
X24402834Y-49112288D01*
X24220489Y-49022563D01*
X24106309Y-48992821D01*
X24028685Y-48972601D01*
X24028681Y-48972600D01*
X24023827Y-48971336D01*
X24018815Y-48971073D01*
X24018813Y-48971073D01*
X23947342Y-48967328D01*
X23820882Y-48960700D01*
X23815923Y-48961450D01*
X23624899Y-48990340D01*
X23624896Y-48990341D01*
X23619942Y-48991090D01*
X23429218Y-49061263D01*
X23256499Y-49168353D01*
X23108841Y-49307986D01*
X23105967Y-49312091D01*
X23105964Y-49312094D01*
X23050883Y-49390759D01*
X22992277Y-49474457D01*
X22990288Y-49479053D01*
X22990287Y-49479055D01*
X22985712Y-49489628D01*
X22911567Y-49660967D01*
X22910543Y-49665866D01*
X22910542Y-49665871D01*
X22891288Y-49758034D01*
X22870008Y-49859897D01*
X22869299Y-50063120D01*
X500000Y-50063120D01*
X500000Y-49475647D01*
X20703674Y-49475647D01*
X20704409Y-49480289D01*
X20704645Y-49480607D01*
X20707635Y-49483475D01*
X20715511Y-49489628D01*
X20878892Y-49592514D01*
X20887840Y-49596956D01*
X21068585Y-49664894D01*
X21078230Y-49667442D01*
X21268940Y-49697648D01*
X21278914Y-49698205D01*
X21471802Y-49689447D01*
X21481675Y-49687989D01*
X21668873Y-49640620D01*
X21678240Y-49637211D01*
X21852093Y-49553168D01*
X21860588Y-49547941D01*
X21946660Y-49482133D01*
X21954235Y-49471152D01*
X21954192Y-49469405D01*
X21951267Y-49464759D01*
X21341086Y-48854578D01*
X21329203Y-48848524D01*
X21324172Y-48849320D01*
X20709728Y-49463764D01*
X20703674Y-49475647D01*
X500000Y-49475647D01*
X500000Y-48788051D01*
X20329814Y-48788051D01*
X20330788Y-48797989D01*
X20368953Y-48987268D01*
X20371905Y-48996805D01*
X20447354Y-49174549D01*
X20452158Y-49183288D01*
X20541664Y-49313035D01*
X20552260Y-49321136D01*
X20552702Y-49321147D01*
X20559286Y-49317222D01*
X21170422Y-48706086D01*
X21175664Y-48695797D01*
X21483524Y-48695797D01*
X21484320Y-48700828D01*
X22096699Y-49313207D01*
X22108582Y-49319261D01*
X22111954Y-49318727D01*
X22114040Y-49317098D01*
X22147938Y-49278102D01*
X22153695Y-49269942D01*
X22248484Y-49101719D01*
X22252478Y-49092576D01*
X22311503Y-48908731D01*
X22313580Y-48898960D01*
X22334696Y-48704594D01*
X22334985Y-48699418D01*
X22334991Y-48697602D01*
X22334737Y-48692414D01*
X22314980Y-48497904D01*
X22312974Y-48488135D01*
X22255230Y-48303871D01*
X22251299Y-48294701D01*
X22157689Y-48125824D01*
X22151990Y-48117624D01*
X22117832Y-48077771D01*
X22106446Y-48070821D01*
X22103224Y-48071080D01*
X22100767Y-48072725D01*
X21489578Y-48683914D01*
X21483524Y-48695797D01*
X21175664Y-48695797D01*
X21176476Y-48694203D01*
X21175680Y-48689172D01*
X20562020Y-48075512D01*
X20550137Y-48069458D01*
X20549515Y-48069556D01*
X20543962Y-48074383D01*
X20455588Y-48200595D01*
X20450723Y-48209299D01*
X20374032Y-48386522D01*
X20371019Y-48396022D01*
X20331531Y-48585039D01*
X20330487Y-48594967D01*
X20329814Y-48788051D01*
X500000Y-48788051D01*
X500000Y-47565797D01*
X1060153Y-47565797D01*
X1061068Y-47572794D01*
X1061068Y-47572796D01*
X1063448Y-47590996D01*
X1064055Y-47597098D01*
X1064209Y-47599351D01*
X1063686Y-47606384D01*
X1065158Y-47613280D01*
X1067437Y-47623957D01*
X1068781Y-47631782D01*
X1070768Y-47646977D01*
X1078825Y-47708586D01*
X1089054Y-47731833D01*
X1091347Y-47737516D01*
X1092133Y-47739653D01*
X1093606Y-47746551D01*
X1100827Y-47759934D01*
X1102143Y-47762372D01*
X1105634Y-47769514D01*
X1123962Y-47811168D01*
X1136822Y-47840396D01*
X1141359Y-47845794D01*
X1141360Y-47845795D01*
X1153177Y-47859853D01*
X1156974Y-47864665D01*
X1158316Y-47866478D01*
X1161665Y-47872685D01*
X1166620Y-47877701D01*
X1166624Y-47877706D01*
X1174293Y-47885469D01*
X1179647Y-47891342D01*
X1196376Y-47911243D01*
X1229483Y-47950629D01*
X1250651Y-47964720D01*
X1255640Y-47968269D01*
X1257433Y-47969630D01*
X1262390Y-47974648D01*
X1268555Y-47978072D01*
X1268556Y-47978073D01*
X1278100Y-47983374D01*
X1284887Y-47987509D01*
X1343485Y-48026516D01*
X1343487Y-48026517D01*
X1349358Y-48030425D01*
X1373638Y-48038011D01*
X1379412Y-48040014D01*
X1381518Y-48040818D01*
X1387684Y-48044243D01*
X1394558Y-48045798D01*
X1394562Y-48045800D01*
X1405202Y-48048207D01*
X1412878Y-48050271D01*
X1480074Y-48071265D01*
X1480079Y-48071266D01*
X1486811Y-48073369D01*
X1500283Y-48073616D01*
X1512220Y-48073835D01*
X1518342Y-48074137D01*
X1520600Y-48074319D01*
X1527474Y-48075874D01*
X1545410Y-48074761D01*
X1553356Y-48074588D01*
X1623739Y-48075878D01*
X1623741Y-48075878D01*
X1630792Y-48076007D01*
X1637595Y-48074152D01*
X1637597Y-48074152D01*
X1655320Y-48069320D01*
X1661289Y-48067890D01*
X1663484Y-48067435D01*
X1670524Y-48066999D01*
X1677157Y-48064605D01*
X1677160Y-48064604D01*
X1687427Y-48060898D01*
X1694999Y-48058503D01*
X1707506Y-48055093D01*
X1769726Y-48038130D01*
X1775736Y-48034440D01*
X1775740Y-48034438D01*
X1791389Y-48024829D01*
X1796715Y-48021782D01*
X1798702Y-48020725D01*
X1805333Y-48018332D01*
X1819841Y-48007734D01*
X1826431Y-48003313D01*
X1892445Y-47962780D01*
X1899907Y-47954536D01*
X1924290Y-47927598D01*
X1925821Y-47926113D01*
X1927625Y-47924975D01*
X1935124Y-47916485D01*
X20704047Y-47916485D01*
X20704629Y-47920967D01*
X20705038Y-47921546D01*
X21318914Y-48535422D01*
X21330797Y-48541476D01*
X21335828Y-48540680D01*
X21947912Y-47928596D01*
X21953966Y-47916713D01*
X21953664Y-47914802D01*
X21950362Y-47910811D01*
X21866529Y-47845784D01*
X21858075Y-47840501D01*
X21684814Y-47755246D01*
X21675460Y-47751767D01*
X21488609Y-47703095D01*
X21478737Y-47701567D01*
X21285917Y-47691463D01*
X21275946Y-47691950D01*
X21085029Y-47720824D01*
X21075357Y-47723307D01*
X20894140Y-47789982D01*
X20885177Y-47794353D01*
X20721067Y-47896106D01*
X20713161Y-47902194D01*
X20710432Y-47904775D01*
X20704047Y-47916485D01*
X1935124Y-47916485D01*
X1936610Y-47914802D01*
X1961642Y-47886458D01*
X1965842Y-47881989D01*
X1978595Y-47869236D01*
X1982961Y-47863410D01*
X1983242Y-47863069D01*
X1983718Y-47862400D01*
X1985711Y-47859740D01*
X1985714Y-47859737D01*
X1985884Y-47859865D01*
X1988794Y-47856335D01*
X1989091Y-47856007D01*
X1989206Y-47856111D01*
X1990700Y-47853555D01*
X1991899Y-47852198D01*
X2022501Y-47817548D01*
X2026858Y-47808268D01*
X2037252Y-47790970D01*
X2043398Y-47782770D01*
X2060106Y-47738201D01*
X2063191Y-47730882D01*
X2080416Y-47694193D01*
X2080417Y-47694191D01*
X2083412Y-47687811D01*
X2084988Y-47677690D01*
X2090108Y-47658171D01*
X2091235Y-47655166D01*
X2091236Y-47655163D01*
X2093709Y-47648565D01*
X2096331Y-47613280D01*
X2097236Y-47601097D01*
X2098142Y-47593203D01*
X2098486Y-47590996D01*
X2100500Y-47578062D01*
X2100500Y-47560843D01*
X2100772Y-47553507D01*
X2103030Y-47523120D01*
X22869299Y-47523120D01*
X22881139Y-47581839D01*
X22905589Y-47703095D01*
X22909468Y-47722334D01*
X22970630Y-47866422D01*
X22986910Y-47904775D01*
X22988874Y-47909403D01*
X22991719Y-47913527D01*
X22991720Y-47913529D01*
X23101426Y-48072559D01*
X23101430Y-48072563D01*
X23104273Y-48076685D01*
X23107890Y-48080153D01*
X23107892Y-48080156D01*
X23247330Y-48213872D01*
X23250952Y-48217345D01*
X23422919Y-48325638D01*
X23427616Y-48327403D01*
X23427619Y-48327405D01*
X23608453Y-48395376D01*
X23613149Y-48397141D01*
X23618105Y-48397926D01*
X23808912Y-48428147D01*
X23808916Y-48428147D01*
X23813871Y-48428932D01*
X23895746Y-48425214D01*
X24011874Y-48419941D01*
X24011878Y-48419940D01*
X24016886Y-48419713D01*
X24106091Y-48397141D01*
X24209036Y-48371092D01*
X24213901Y-48369861D01*
X24319493Y-48318816D01*
X24392359Y-48283591D01*
X24392361Y-48283590D01*
X24396868Y-48281411D01*
X24558312Y-48157978D01*
X24561599Y-48154197D01*
X24561603Y-48154193D01*
X24674057Y-48024829D01*
X24691639Y-48004603D01*
X24702515Y-47985303D01*
X24788942Y-47831919D01*
X24788943Y-47831917D01*
X24791403Y-47827551D01*
X24853527Y-47634055D01*
X24875475Y-47432020D01*
X24875500Y-47425000D01*
X24874483Y-47414981D01*
X24855470Y-47227803D01*
X24855469Y-47227799D01*
X24854963Y-47222816D01*
X24794191Y-47028891D01*
X24695666Y-46851148D01*
X24617082Y-46759463D01*
X24566678Y-46700655D01*
X24566676Y-46700653D01*
X24563412Y-46696845D01*
X24402834Y-46572288D01*
X24220489Y-46482563D01*
X24106309Y-46452821D01*
X24028685Y-46432601D01*
X24028681Y-46432600D01*
X24023827Y-46431336D01*
X24018815Y-46431073D01*
X24018813Y-46431073D01*
X23947342Y-46427328D01*
X23820882Y-46420700D01*
X23815923Y-46421450D01*
X23624899Y-46450340D01*
X23624896Y-46450341D01*
X23619942Y-46451090D01*
X23429218Y-46521263D01*
X23390226Y-46545439D01*
X23261104Y-46625498D01*
X23256499Y-46628353D01*
X23108841Y-46767986D01*
X23105967Y-46772091D01*
X23105964Y-46772094D01*
X23024850Y-46887938D01*
X22992277Y-46934457D01*
X22990288Y-46939053D01*
X22990287Y-46939055D01*
X22961165Y-47006353D01*
X22911567Y-47120967D01*
X22910543Y-47125866D01*
X22910542Y-47125871D01*
X22883938Y-47253220D01*
X22870008Y-47319897D01*
X22869991Y-47324911D01*
X22869990Y-47324916D01*
X22869687Y-47411822D01*
X22869299Y-47523120D01*
X2103030Y-47523120D01*
X2103806Y-47512669D01*
X2104329Y-47505635D01*
X2102856Y-47498734D01*
X2102681Y-47497912D01*
X2100500Y-47477247D01*
X2100500Y-42420677D01*
X2119407Y-42362486D01*
X2168907Y-42326522D01*
X2230093Y-42326522D01*
X2269504Y-42350673D01*
X7291373Y-47372542D01*
X7303684Y-47387544D01*
X7312504Y-47400744D01*
X7403504Y-47461549D01*
X7413067Y-47463451D01*
X7413069Y-47463452D01*
X7482422Y-47477247D01*
X7485710Y-47477901D01*
X7485713Y-47477901D01*
X7485720Y-47477902D01*
X7510847Y-47482900D01*
X7520409Y-47480998D01*
X7526417Y-47479803D01*
X7545731Y-47477901D01*
X8065631Y-47477901D01*
X8084945Y-47479803D01*
X8100515Y-47482900D01*
X8116086Y-47479803D01*
X8125643Y-47477902D01*
X8125651Y-47477901D01*
X8125654Y-47477901D01*
X8125659Y-47477900D01*
X8198293Y-47463452D01*
X8198295Y-47463451D01*
X8207858Y-47461549D01*
X8252051Y-47432020D01*
X8277549Y-47414983D01*
X8277551Y-47414981D01*
X8298858Y-47400744D01*
X8307678Y-47387544D01*
X8319989Y-47372543D01*
X8422415Y-47270117D01*
X8563267Y-47129264D01*
X8617784Y-47101486D01*
X8635083Y-47100284D01*
X8684110Y-47101182D01*
X8759943Y-47102572D01*
X8759945Y-47102572D01*
X8766996Y-47102701D01*
X8773800Y-47100846D01*
X8773801Y-47100846D01*
X8899129Y-47066678D01*
X8899128Y-47066678D01*
X8905930Y-47064824D01*
X9028649Y-46989474D01*
X9033384Y-46984243D01*
X9120555Y-46887938D01*
X9120555Y-46887937D01*
X9125287Y-46882710D01*
X9188076Y-46753114D01*
X9211967Y-46611105D01*
X9212119Y-46598696D01*
X9191704Y-46456145D01*
X9140277Y-46343036D01*
X9135022Y-46331478D01*
X9135021Y-46331477D01*
X9132101Y-46325054D01*
X9060423Y-46241868D01*
X9042705Y-46221305D01*
X9042704Y-46221304D01*
X9038100Y-46215961D01*
X8917259Y-46137636D01*
X8779291Y-46096375D01*
X8696178Y-46095867D01*
X8642340Y-46095538D01*
X8642339Y-46095538D01*
X8635289Y-46095495D01*
X8628512Y-46097432D01*
X8628511Y-46097432D01*
X8503608Y-46133130D01*
X8503607Y-46133131D01*
X8496828Y-46135068D01*
X8490864Y-46138831D01*
X8381007Y-46208145D01*
X8381005Y-46208147D01*
X8375039Y-46211911D01*
X8370367Y-46217201D01*
X8325761Y-46267707D01*
X8273069Y-46298807D01*
X8212161Y-46292995D01*
X8176559Y-46266795D01*
X8138486Y-46222609D01*
X8138485Y-46222608D01*
X8133881Y-46217265D01*
X8013040Y-46138940D01*
X7875072Y-46097679D01*
X7731070Y-46096799D01*
X7731084Y-46094546D01*
X7681154Y-46085562D01*
X7657933Y-46068317D01*
X6944616Y-45355000D01*
X20324500Y-45355000D01*
X20324500Y-46955000D01*
X20340143Y-47033641D01*
X20384690Y-47100310D01*
X20451359Y-47144857D01*
X20460922Y-47146759D01*
X20460924Y-47146760D01*
X20486200Y-47151787D01*
X20530000Y-47160500D01*
X22130000Y-47160500D01*
X22173800Y-47151787D01*
X22199076Y-47146760D01*
X22199078Y-47146759D01*
X22208641Y-47144857D01*
X22275310Y-47100310D01*
X22319857Y-47033641D01*
X22335500Y-46955000D01*
X22335500Y-45355000D01*
X22319857Y-45276359D01*
X22275310Y-45209690D01*
X22208641Y-45165143D01*
X22199078Y-45163241D01*
X22199076Y-45163240D01*
X22172576Y-45157969D01*
X22130000Y-45149500D01*
X20530000Y-45149500D01*
X20487424Y-45157969D01*
X20460924Y-45163240D01*
X20460922Y-45163241D01*
X20451359Y-45165143D01*
X20384690Y-45209690D01*
X20340143Y-45276359D01*
X20324500Y-45355000D01*
X6944616Y-45355000D01*
X6278941Y-44689325D01*
X26542480Y-44689325D01*
X26561152Y-44832114D01*
X26619149Y-44963924D01*
X26623686Y-44969321D01*
X26623687Y-44969323D01*
X26677479Y-45033315D01*
X26711810Y-45074157D01*
X26717681Y-45078065D01*
X26717682Y-45078066D01*
X26730064Y-45086308D01*
X26831685Y-45153953D01*
X26838415Y-45156056D01*
X26838418Y-45156057D01*
X26962405Y-45194794D01*
X26962409Y-45194795D01*
X26969138Y-45196897D01*
X27035818Y-45198119D01*
X27106065Y-45199406D01*
X27106067Y-45199406D01*
X27113119Y-45199535D01*
X27119923Y-45197680D01*
X27119924Y-45197680D01*
X27245252Y-45163512D01*
X27245251Y-45163512D01*
X27252053Y-45161658D01*
X27374772Y-45086308D01*
X27385771Y-45074157D01*
X27466678Y-44984772D01*
X27466678Y-44984771D01*
X27471410Y-44979544D01*
X27534199Y-44849948D01*
X27558090Y-44707939D01*
X27558242Y-44695530D01*
X27557699Y-44691737D01*
X27550445Y-44641084D01*
X27560912Y-44580801D01*
X27578442Y-44557046D01*
X28030993Y-44104496D01*
X28085509Y-44076719D01*
X28100996Y-44075500D01*
X28931821Y-44075500D01*
X28990012Y-44094407D01*
X29007603Y-44110797D01*
X29060081Y-44173227D01*
X29060084Y-44173230D01*
X29064621Y-44178627D01*
X29070492Y-44182535D01*
X29070493Y-44182536D01*
X29141743Y-44229964D01*
X29184496Y-44258423D01*
X29191226Y-44260526D01*
X29191229Y-44260527D01*
X29315216Y-44299264D01*
X29315220Y-44299265D01*
X29321949Y-44301367D01*
X29388629Y-44302589D01*
X29458876Y-44303876D01*
X29458878Y-44303876D01*
X29465930Y-44304005D01*
X29472734Y-44302150D01*
X29472735Y-44302150D01*
X29598063Y-44267982D01*
X29598062Y-44267982D01*
X29604864Y-44266128D01*
X29727583Y-44190778D01*
X29738582Y-44178627D01*
X29819489Y-44089242D01*
X29819489Y-44089241D01*
X29824221Y-44084014D01*
X29887010Y-43954418D01*
X29910901Y-43812409D01*
X29911053Y-43800000D01*
X29890638Y-43657449D01*
X29843641Y-43554084D01*
X29833956Y-43532782D01*
X29833955Y-43532781D01*
X29831035Y-43526358D01*
X29737034Y-43417265D01*
X29616193Y-43338940D01*
X29478225Y-43297679D01*
X29395112Y-43297171D01*
X29341274Y-43296842D01*
X29341273Y-43296842D01*
X29334223Y-43296799D01*
X29327446Y-43298736D01*
X29327445Y-43298736D01*
X29202542Y-43334434D01*
X29202541Y-43334435D01*
X29195762Y-43336372D01*
X29189798Y-43340135D01*
X29079941Y-43409449D01*
X29079939Y-43409451D01*
X29073973Y-43413215D01*
X29005243Y-43491036D01*
X28952552Y-43522135D01*
X28931041Y-43524500D01*
X27980756Y-43524500D01*
X27961442Y-43522598D01*
X27955434Y-43521403D01*
X27945872Y-43519501D01*
X27936310Y-43521403D01*
X27920745Y-43524499D01*
X27920738Y-43524500D01*
X27920735Y-43524500D01*
X27838529Y-43540852D01*
X27809556Y-43560211D01*
X27768839Y-43587417D01*
X27768836Y-43587420D01*
X27747529Y-43601657D01*
X27742110Y-43609767D01*
X27738711Y-43614854D01*
X27726400Y-43629856D01*
X27455574Y-43900683D01*
X27192066Y-44164191D01*
X27137549Y-44191968D01*
X27121459Y-44193185D01*
X27032197Y-44192639D01*
X26988463Y-44192372D01*
X26988462Y-44192372D01*
X26981412Y-44192329D01*
X26974635Y-44194266D01*
X26974634Y-44194266D01*
X26849731Y-44229964D01*
X26849730Y-44229965D01*
X26842951Y-44231902D01*
X26836987Y-44235665D01*
X26727130Y-44304979D01*
X26727128Y-44304981D01*
X26721162Y-44308745D01*
X26625835Y-44416681D01*
X26564635Y-44547034D01*
X26542480Y-44689325D01*
X6278941Y-44689325D01*
X2704496Y-41114881D01*
X2676719Y-41060364D01*
X2675500Y-41044877D01*
X2675500Y-33973419D01*
X2694407Y-33915228D01*
X2712539Y-33898426D01*
X2711460Y-33897126D01*
X2716884Y-33892623D01*
X2722897Y-33888931D01*
X2752092Y-33856677D01*
X2805161Y-33826223D01*
X2865994Y-33832778D01*
X2911356Y-33873838D01*
X2924490Y-33923113D01*
X2924490Y-35213648D01*
X2922588Y-35232962D01*
X2919491Y-35248532D01*
X2924490Y-35273664D01*
X2924490Y-35273669D01*
X2940842Y-35355875D01*
X3001647Y-35446875D01*
X3009757Y-35452294D01*
X3014847Y-35455695D01*
X3029849Y-35468006D01*
X8431985Y-40870143D01*
X8444296Y-40885145D01*
X8453114Y-40898342D01*
X8474421Y-40912579D01*
X8474424Y-40912582D01*
X8544115Y-40959148D01*
X8553675Y-40961050D01*
X8553676Y-40961050D01*
X8641895Y-40978597D01*
X8651457Y-40980499D01*
X8661019Y-40978597D01*
X8661021Y-40978597D01*
X8667034Y-40977401D01*
X8686346Y-40975499D01*
X12828669Y-40975499D01*
X12886860Y-40994406D01*
X12904451Y-41010796D01*
X12956929Y-41073226D01*
X12956932Y-41073229D01*
X12961469Y-41078626D01*
X12967340Y-41082534D01*
X12967341Y-41082535D01*
X13064992Y-41147537D01*
X13081344Y-41158422D01*
X13088074Y-41160525D01*
X13088077Y-41160526D01*
X13212064Y-41199263D01*
X13212068Y-41199264D01*
X13218797Y-41201366D01*
X13285477Y-41202588D01*
X13355724Y-41203875D01*
X13355726Y-41203875D01*
X13362778Y-41204004D01*
X13369582Y-41202149D01*
X13369583Y-41202149D01*
X13494911Y-41167981D01*
X13494910Y-41167981D01*
X13501712Y-41166127D01*
X13624431Y-41090777D01*
X13635430Y-41078626D01*
X13716337Y-40989241D01*
X13716337Y-40989240D01*
X13721069Y-40984013D01*
X13783858Y-40854417D01*
X13807749Y-40712408D01*
X13807901Y-40699999D01*
X13787486Y-40557448D01*
X13727883Y-40426357D01*
X13633882Y-40317264D01*
X13513041Y-40238939D01*
X13375073Y-40197678D01*
X13291960Y-40197170D01*
X13238122Y-40196841D01*
X13238121Y-40196841D01*
X13231071Y-40196798D01*
X13224294Y-40198735D01*
X13224293Y-40198735D01*
X13099390Y-40234433D01*
X13099389Y-40234434D01*
X13092610Y-40236371D01*
X13086646Y-40240134D01*
X12976789Y-40309448D01*
X12976787Y-40309450D01*
X12970821Y-40313214D01*
X12902091Y-40391035D01*
X12849400Y-40422134D01*
X12827889Y-40424499D01*
X8806581Y-40424499D01*
X8748390Y-40405592D01*
X8736577Y-40395503D01*
X7534869Y-39193795D01*
X14692138Y-39193795D01*
X14693053Y-39200792D01*
X14693053Y-39200793D01*
X14706629Y-39304609D01*
X14710810Y-39336584D01*
X14768807Y-39468394D01*
X14861468Y-39578627D01*
X14981343Y-39658423D01*
X14988073Y-39660526D01*
X14988076Y-39660527D01*
X15112063Y-39699264D01*
X15112067Y-39699265D01*
X15118796Y-39701367D01*
X15185476Y-39702589D01*
X15255723Y-39703876D01*
X15255725Y-39703876D01*
X15262777Y-39704005D01*
X15269584Y-39702149D01*
X15269586Y-39702149D01*
X15279341Y-39699490D01*
X15340455Y-39702426D01*
X15388172Y-39740724D01*
X15403543Y-39782168D01*
X15414243Y-39863994D01*
X15472240Y-39995804D01*
X15564901Y-40106037D01*
X15684776Y-40185833D01*
X15691506Y-40187936D01*
X15691509Y-40187937D01*
X15815496Y-40226674D01*
X15815500Y-40226675D01*
X15822229Y-40228777D01*
X15888909Y-40229999D01*
X15959156Y-40231286D01*
X15959158Y-40231286D01*
X15966210Y-40231415D01*
X15973014Y-40229560D01*
X15973015Y-40229560D01*
X16052007Y-40208024D01*
X16105144Y-40193538D01*
X16173699Y-40151445D01*
X16233181Y-40137109D01*
X16289730Y-40160475D01*
X16321744Y-40212616D01*
X16324500Y-40235811D01*
X16324500Y-40260446D01*
X16305593Y-40318637D01*
X16295504Y-40330450D01*
X15854877Y-40771077D01*
X15800360Y-40798854D01*
X15784270Y-40800071D01*
X15695008Y-40799525D01*
X15651274Y-40799258D01*
X15651273Y-40799258D01*
X15644223Y-40799215D01*
X15637446Y-40801152D01*
X15637445Y-40801152D01*
X15512542Y-40836850D01*
X15512541Y-40836851D01*
X15505762Y-40838788D01*
X15499798Y-40842551D01*
X15389941Y-40911865D01*
X15389939Y-40911867D01*
X15383973Y-40915631D01*
X15288646Y-41023567D01*
X15227446Y-41153920D01*
X15205291Y-41296211D01*
X15206206Y-41303208D01*
X15206206Y-41303209D01*
X15219145Y-41402154D01*
X15223963Y-41439000D01*
X15281960Y-41570810D01*
X15286497Y-41576207D01*
X15286498Y-41576209D01*
X15340290Y-41640201D01*
X15374621Y-41681043D01*
X15380492Y-41684951D01*
X15380493Y-41684952D01*
X15484850Y-41754418D01*
X15494496Y-41760839D01*
X15501226Y-41762942D01*
X15501229Y-41762943D01*
X15625216Y-41801680D01*
X15625220Y-41801681D01*
X15631949Y-41803783D01*
X15642335Y-41803973D01*
X15644948Y-41804875D01*
X15645964Y-41805040D01*
X15645935Y-41805216D01*
X15700170Y-41823941D01*
X15735222Y-41874090D01*
X15738682Y-41898318D01*
X15738580Y-41898975D01*
X15739495Y-41905972D01*
X15751068Y-41994470D01*
X15757252Y-42041764D01*
X15815249Y-42173574D01*
X15819786Y-42178971D01*
X15819787Y-42178973D01*
X15837462Y-42200000D01*
X15907910Y-42283807D01*
X16027785Y-42363603D01*
X16034515Y-42365706D01*
X16034518Y-42365707D01*
X16158505Y-42404444D01*
X16158509Y-42404445D01*
X16165238Y-42406547D01*
X16221791Y-42407583D01*
X16279626Y-42427553D01*
X16314677Y-42477703D01*
X16318141Y-42493726D01*
X16321677Y-42520765D01*
X16330747Y-42590124D01*
X16332626Y-42604495D01*
X16390623Y-42736305D01*
X16395160Y-42741702D01*
X16395161Y-42741704D01*
X16417209Y-42767933D01*
X16483284Y-42846538D01*
X16489155Y-42850446D01*
X16489156Y-42850447D01*
X16568856Y-42903500D01*
X16603159Y-42926334D01*
X16609889Y-42928437D01*
X16609892Y-42928438D01*
X16733879Y-42967175D01*
X16733883Y-42967176D01*
X16740612Y-42969278D01*
X16807292Y-42970500D01*
X16877539Y-42971787D01*
X16877541Y-42971787D01*
X16884593Y-42971916D01*
X16891397Y-42970061D01*
X16891398Y-42970061D01*
X17016726Y-42935893D01*
X17016725Y-42935893D01*
X17023527Y-42934039D01*
X17089071Y-42893795D01*
X18892138Y-42893795D01*
X18893053Y-42900792D01*
X18893053Y-42900793D01*
X18902354Y-42971916D01*
X18910810Y-43036584D01*
X18968807Y-43168394D01*
X18973344Y-43173791D01*
X18973345Y-43173793D01*
X19027137Y-43237785D01*
X19061468Y-43278627D01*
X19067339Y-43282535D01*
X19067340Y-43282536D01*
X19157840Y-43342778D01*
X19181343Y-43358423D01*
X19188073Y-43360526D01*
X19188076Y-43360527D01*
X19312063Y-43399264D01*
X19312067Y-43399265D01*
X19318796Y-43401367D01*
X19385476Y-43402589D01*
X19455723Y-43403876D01*
X19455725Y-43403876D01*
X19462777Y-43404005D01*
X19469581Y-43402150D01*
X19469582Y-43402150D01*
X19582072Y-43371482D01*
X19601711Y-43366128D01*
X19724430Y-43290778D01*
X19732261Y-43282127D01*
X19799299Y-43208064D01*
X19852367Y-43177610D01*
X19872697Y-43175500D01*
X20353136Y-43175500D01*
X20411327Y-43194407D01*
X20428918Y-43210797D01*
X20484338Y-43276727D01*
X20484341Y-43276730D01*
X20488878Y-43282127D01*
X20494749Y-43286035D01*
X20494750Y-43286036D01*
X20579992Y-43342778D01*
X20608753Y-43361923D01*
X20615483Y-43364026D01*
X20615486Y-43364027D01*
X20739473Y-43402764D01*
X20739477Y-43402765D01*
X20746206Y-43404867D01*
X20812886Y-43406089D01*
X20883133Y-43407376D01*
X20883135Y-43407376D01*
X20890187Y-43407505D01*
X20896991Y-43405650D01*
X20896992Y-43405650D01*
X21022320Y-43371482D01*
X21022319Y-43371482D01*
X21029121Y-43369628D01*
X21151840Y-43294278D01*
X21166007Y-43278627D01*
X21243746Y-43192742D01*
X21243746Y-43192741D01*
X21248478Y-43187514D01*
X21311267Y-43057918D01*
X21335158Y-42915909D01*
X21335310Y-42903500D01*
X21314895Y-42760949D01*
X21255292Y-42629858D01*
X21161291Y-42520765D01*
X21040450Y-42442440D01*
X20902482Y-42401179D01*
X20819369Y-42400671D01*
X20765531Y-42400342D01*
X20765530Y-42400342D01*
X20758480Y-42400299D01*
X20751703Y-42402236D01*
X20751702Y-42402236D01*
X20626799Y-42437934D01*
X20626798Y-42437935D01*
X20620019Y-42439872D01*
X20614055Y-42443635D01*
X20504198Y-42512949D01*
X20504196Y-42512951D01*
X20498230Y-42516715D01*
X20433397Y-42590124D01*
X20432592Y-42591035D01*
X20379900Y-42622135D01*
X20358389Y-42624500D01*
X19871659Y-42624500D01*
X19813468Y-42605593D01*
X19796663Y-42590127D01*
X19733881Y-42517265D01*
X19613040Y-42438940D01*
X19475072Y-42397679D01*
X19391959Y-42397171D01*
X19338121Y-42396842D01*
X19338120Y-42396842D01*
X19331070Y-42396799D01*
X19324293Y-42398736D01*
X19324292Y-42398736D01*
X19199389Y-42434434D01*
X19199388Y-42434435D01*
X19192609Y-42436372D01*
X19186645Y-42440135D01*
X19076788Y-42509449D01*
X19076786Y-42509451D01*
X19070820Y-42513215D01*
X18975493Y-42621151D01*
X18914293Y-42751504D01*
X18892138Y-42893795D01*
X17089071Y-42893795D01*
X17146246Y-42858689D01*
X17157245Y-42846538D01*
X17238152Y-42757153D01*
X17238152Y-42757152D01*
X17242884Y-42751925D01*
X17305673Y-42622329D01*
X17329564Y-42480320D01*
X17329716Y-42467911D01*
X17329173Y-42464118D01*
X17321919Y-42413465D01*
X17332386Y-42353182D01*
X17349915Y-42329427D01*
X17751809Y-41927534D01*
X18085548Y-41593795D01*
X27819581Y-41593795D01*
X27820496Y-41600792D01*
X27820496Y-41600793D01*
X27835726Y-41717256D01*
X27838253Y-41736584D01*
X27896250Y-41868394D01*
X27900787Y-41873791D01*
X27900788Y-41873793D01*
X27936153Y-41915864D01*
X27988911Y-41978627D01*
X27994782Y-41982535D01*
X27994783Y-41982536D01*
X28007165Y-41990778D01*
X28108786Y-42058423D01*
X28115516Y-42060526D01*
X28115519Y-42060527D01*
X28239506Y-42099264D01*
X28239510Y-42099265D01*
X28246239Y-42101367D01*
X28312919Y-42102589D01*
X28383166Y-42103876D01*
X28383168Y-42103876D01*
X28390220Y-42104005D01*
X28397024Y-42102150D01*
X28397025Y-42102150D01*
X28522353Y-42067982D01*
X28522352Y-42067982D01*
X28529154Y-42066128D01*
X28651873Y-41990778D01*
X28726742Y-41908064D01*
X28779810Y-41877610D01*
X28800140Y-41875500D01*
X31328668Y-41875500D01*
X31386859Y-41894407D01*
X31404450Y-41910797D01*
X31456928Y-41973227D01*
X31456931Y-41973230D01*
X31461468Y-41978627D01*
X31467339Y-41982535D01*
X31467340Y-41982536D01*
X31479722Y-41990778D01*
X31581343Y-42058423D01*
X31588073Y-42060526D01*
X31588076Y-42060527D01*
X31712063Y-42099264D01*
X31712067Y-42099265D01*
X31718796Y-42101367D01*
X31785476Y-42102589D01*
X31855723Y-42103876D01*
X31855725Y-42103876D01*
X31862777Y-42104005D01*
X31869581Y-42102150D01*
X31869582Y-42102150D01*
X31994910Y-42067982D01*
X31994909Y-42067982D01*
X32001711Y-42066128D01*
X32124430Y-41990778D01*
X32139387Y-41974254D01*
X32216336Y-41889242D01*
X32216336Y-41889241D01*
X32221068Y-41884014D01*
X32283857Y-41754418D01*
X32307748Y-41612409D01*
X32307900Y-41600000D01*
X32287485Y-41457449D01*
X32227882Y-41326358D01*
X32133881Y-41217265D01*
X32013040Y-41138940D01*
X31875072Y-41097679D01*
X31791959Y-41097171D01*
X31738121Y-41096842D01*
X31738120Y-41096842D01*
X31731070Y-41096799D01*
X31724293Y-41098736D01*
X31724292Y-41098736D01*
X31599389Y-41134434D01*
X31599388Y-41134435D01*
X31592609Y-41136372D01*
X31586645Y-41140135D01*
X31476788Y-41209449D01*
X31476786Y-41209451D01*
X31470820Y-41213215D01*
X31402090Y-41291036D01*
X31349399Y-41322135D01*
X31327888Y-41324500D01*
X28799102Y-41324500D01*
X28740911Y-41305593D01*
X28724106Y-41290127D01*
X28661324Y-41217265D01*
X28540483Y-41138940D01*
X28402515Y-41097679D01*
X28319402Y-41097171D01*
X28265564Y-41096842D01*
X28265563Y-41096842D01*
X28258513Y-41096799D01*
X28251736Y-41098736D01*
X28251735Y-41098736D01*
X28126832Y-41134434D01*
X28126831Y-41134435D01*
X28120052Y-41136372D01*
X28114088Y-41140135D01*
X28004231Y-41209449D01*
X28004229Y-41209451D01*
X27998263Y-41213215D01*
X27902936Y-41321151D01*
X27841736Y-41451504D01*
X27819581Y-41593795D01*
X18085548Y-41593795D01*
X18170144Y-41509199D01*
X18185146Y-41496888D01*
X18190233Y-41493489D01*
X18198343Y-41488070D01*
X18212580Y-41466763D01*
X18212583Y-41466760D01*
X18250670Y-41409758D01*
X18259148Y-41397070D01*
X18275500Y-41314864D01*
X18275500Y-41314863D01*
X18280500Y-41289727D01*
X18277402Y-41274151D01*
X18275500Y-41254839D01*
X18275500Y-38560004D01*
X18294407Y-38501813D01*
X18343907Y-38465849D01*
X18404020Y-38465508D01*
X18518796Y-38501367D01*
X18585476Y-38502589D01*
X18655723Y-38503876D01*
X18655725Y-38503876D01*
X18662777Y-38504005D01*
X18669581Y-38502150D01*
X18669582Y-38502150D01*
X18794910Y-38467982D01*
X18794909Y-38467982D01*
X18801711Y-38466128D01*
X18924430Y-38390778D01*
X19021068Y-38284014D01*
X19083857Y-38154418D01*
X19107748Y-38012409D01*
X19107900Y-38000000D01*
X19087485Y-37857449D01*
X19027882Y-37726358D01*
X18933881Y-37617265D01*
X18920653Y-37608691D01*
X18882106Y-37561175D01*
X18875500Y-37525616D01*
X18875500Y-34776207D01*
X18894407Y-34718016D01*
X18913860Y-34700017D01*
X18912993Y-34698973D01*
X18918417Y-34694470D01*
X18924430Y-34690778D01*
X19021068Y-34584014D01*
X19083857Y-34454418D01*
X19107748Y-34312409D01*
X19107900Y-34300000D01*
X19087485Y-34157449D01*
X19027882Y-34026358D01*
X18950309Y-33936330D01*
X18938486Y-33922609D01*
X18938485Y-33922608D01*
X18933881Y-33917265D01*
X18813040Y-33838940D01*
X18675072Y-33797679D01*
X18649127Y-33797520D01*
X18590698Y-33797163D01*
X18532624Y-33777900D01*
X18496963Y-33728181D01*
X18493675Y-33681740D01*
X18504715Y-33616120D01*
X18504715Y-33616117D01*
X18505349Y-33612350D01*
X18505500Y-33600000D01*
X18485182Y-33458123D01*
X18479271Y-33445121D01*
X18428780Y-33334073D01*
X18428780Y-33334072D01*
X18425860Y-33327651D01*
X18332303Y-33219074D01*
X18212033Y-33141118D01*
X18205275Y-33139097D01*
X18205273Y-33139096D01*
X18081479Y-33102074D01*
X18074718Y-33100052D01*
X17988694Y-33099527D01*
X17938448Y-33099220D01*
X17931396Y-33099177D01*
X17924620Y-33101114D01*
X17924617Y-33101114D01*
X17800369Y-33136624D01*
X17800367Y-33136625D01*
X17793589Y-33138562D01*
X17672375Y-33215042D01*
X17577499Y-33322469D01*
X17516588Y-33452206D01*
X17494538Y-33593824D01*
X17495453Y-33600822D01*
X17507675Y-33694289D01*
X17496473Y-33754440D01*
X17452053Y-33796518D01*
X17391384Y-33804451D01*
X17381679Y-33802104D01*
X17381480Y-33802074D01*
X17374718Y-33800052D01*
X17288694Y-33799527D01*
X17238448Y-33799220D01*
X17231396Y-33799177D01*
X17224616Y-33801115D01*
X17224614Y-33801115D01*
X17219358Y-33802617D01*
X17158211Y-33800427D01*
X17110030Y-33762715D01*
X17093217Y-33703885D01*
X17094526Y-33691004D01*
X17107113Y-33616183D01*
X17107748Y-33612409D01*
X17107900Y-33600000D01*
X17087485Y-33457449D01*
X17027882Y-33326358D01*
X16933881Y-33217265D01*
X16813040Y-33138940D01*
X16675072Y-33097679D01*
X16591959Y-33097171D01*
X16538121Y-33096842D01*
X16538120Y-33096842D01*
X16531070Y-33096799D01*
X16524293Y-33098736D01*
X16524292Y-33098736D01*
X16399389Y-33134434D01*
X16399388Y-33134435D01*
X16392609Y-33136372D01*
X16386645Y-33140135D01*
X16276788Y-33209449D01*
X16276786Y-33209451D01*
X16270820Y-33213215D01*
X16175493Y-33321151D01*
X16172497Y-33327533D01*
X16172496Y-33327534D01*
X16160913Y-33352206D01*
X16114293Y-33451504D01*
X16092138Y-33593795D01*
X16104945Y-33691728D01*
X16105182Y-33693542D01*
X16093980Y-33753693D01*
X16049561Y-33795772D01*
X15988892Y-33803706D01*
X15983221Y-33802334D01*
X15981477Y-33802073D01*
X15974718Y-33800052D01*
X15888694Y-33799527D01*
X15838448Y-33799220D01*
X15831396Y-33799177D01*
X15824620Y-33801114D01*
X15824617Y-33801114D01*
X15820350Y-33802334D01*
X15816830Y-33803340D01*
X15755684Y-33801153D01*
X15707502Y-33763443D01*
X15690686Y-33704613D01*
X15691995Y-33691728D01*
X15704714Y-33616123D01*
X15705349Y-33612350D01*
X15705500Y-33600000D01*
X15685182Y-33458123D01*
X15679271Y-33445121D01*
X15628780Y-33334073D01*
X15628780Y-33334072D01*
X15625860Y-33327651D01*
X15532303Y-33219074D01*
X15412033Y-33141118D01*
X15405275Y-33139097D01*
X15405273Y-33139096D01*
X15281479Y-33102074D01*
X15274718Y-33100052D01*
X15188694Y-33099527D01*
X15138448Y-33099220D01*
X15131396Y-33099177D01*
X15124620Y-33101114D01*
X15124617Y-33101114D01*
X15000369Y-33136624D01*
X15000367Y-33136625D01*
X14993589Y-33138562D01*
X14872375Y-33215042D01*
X14777499Y-33322469D01*
X14716588Y-33452206D01*
X14694538Y-33593824D01*
X14695453Y-33600822D01*
X14712107Y-33728181D01*
X14713121Y-33735939D01*
X14715962Y-33742395D01*
X14715962Y-33742396D01*
X14760132Y-33842778D01*
X14770845Y-33867126D01*
X14775382Y-33872523D01*
X14775383Y-33872525D01*
X14817907Y-33923113D01*
X14863068Y-33976838D01*
X14880358Y-33988347D01*
X14918321Y-34036330D01*
X14924500Y-34070758D01*
X14924500Y-38724752D01*
X14905593Y-38782943D01*
X14878326Y-38808479D01*
X14870820Y-38813215D01*
X14866152Y-38818500D01*
X14866149Y-38818503D01*
X14819472Y-38871355D01*
X14775493Y-38921151D01*
X14714293Y-39051504D01*
X14692138Y-39193795D01*
X7534869Y-39193795D01*
X3504486Y-35163413D01*
X3476709Y-35108896D01*
X3475490Y-35093409D01*
X3475490Y-33334879D01*
X3477392Y-33315567D01*
X3478588Y-33309554D01*
X3478588Y-33309552D01*
X3480490Y-33299990D01*
X3474811Y-33271438D01*
X3461041Y-33202209D01*
X3461041Y-33202208D01*
X3459139Y-33192648D01*
X3412573Y-33122957D01*
X3412570Y-33122954D01*
X3398333Y-33101647D01*
X3385136Y-33092829D01*
X3370134Y-33080518D01*
X2128615Y-31839000D01*
X2100838Y-31784483D01*
X2100991Y-31752571D01*
X2107114Y-31716179D01*
X2107114Y-31716176D01*
X2107748Y-31712409D01*
X2107900Y-31700000D01*
X2087485Y-31557449D01*
X2027882Y-31426358D01*
X1933881Y-31317265D01*
X1813040Y-31238940D01*
X1675072Y-31197679D01*
X1591959Y-31197171D01*
X1538121Y-31196842D01*
X1538120Y-31196842D01*
X1531070Y-31196799D01*
X1524293Y-31198736D01*
X1524292Y-31198736D01*
X1399389Y-31234434D01*
X1399388Y-31234435D01*
X1392609Y-31236372D01*
X1386645Y-31240135D01*
X1276788Y-31309449D01*
X1276786Y-31309451D01*
X1270820Y-31313215D01*
X1175493Y-31421151D01*
X1114293Y-31551504D01*
X1092138Y-31693795D01*
X1110810Y-31836584D01*
X1168807Y-31968394D01*
X1261468Y-32078627D01*
X1381343Y-32158423D01*
X1388073Y-32160526D01*
X1388076Y-32160527D01*
X1512063Y-32199264D01*
X1512067Y-32199265D01*
X1518796Y-32201367D01*
X1527697Y-32201530D01*
X1530944Y-32201590D01*
X1588778Y-32221562D01*
X1623827Y-32271714D01*
X1622704Y-32332889D01*
X1585838Y-32381720D01*
X1542560Y-32398657D01*
X1538448Y-32399220D01*
X1531396Y-32399177D01*
X1524619Y-32401114D01*
X1524618Y-32401114D01*
X1400369Y-32436624D01*
X1400367Y-32436625D01*
X1393589Y-32438562D01*
X1272375Y-32515042D01*
X1177499Y-32622469D01*
X1116588Y-32752206D01*
X1094538Y-32893824D01*
X1113121Y-33035939D01*
X1115962Y-33042395D01*
X1115962Y-33042396D01*
X1160132Y-33142778D01*
X1170845Y-33167126D01*
X1175382Y-33172523D01*
X1175383Y-33172525D01*
X1228087Y-33235223D01*
X1263068Y-33276838D01*
X1280358Y-33288347D01*
X1318321Y-33336330D01*
X1324500Y-33370758D01*
X1324500Y-41256670D01*
X1322598Y-41275984D01*
X1319501Y-41291554D01*
X1322642Y-41307343D01*
X1324500Y-41316686D01*
X1324500Y-41316691D01*
X1335514Y-41372059D01*
X1340852Y-41398897D01*
X1401657Y-41489897D01*
X1409767Y-41495316D01*
X1414857Y-41498717D01*
X1429859Y-41511028D01*
X1477873Y-41559042D01*
X1505650Y-41613559D01*
X1496079Y-41673991D01*
X1452814Y-41717256D01*
X1435075Y-41724234D01*
X1399394Y-41734432D01*
X1399389Y-41734434D01*
X1392609Y-41736372D01*
X1386645Y-41740135D01*
X1276788Y-41809449D01*
X1276786Y-41809451D01*
X1270820Y-41813215D01*
X1175493Y-41921151D01*
X1114293Y-42051504D01*
X1092138Y-42193795D01*
X1093053Y-42200792D01*
X1093053Y-42200793D01*
X1098664Y-42243701D01*
X1099500Y-42256538D01*
X1099500Y-47364804D01*
X1090114Y-47406879D01*
X1085305Y-47417122D01*
X1082308Y-47423506D01*
X1081223Y-47430474D01*
X1081222Y-47430478D01*
X1078396Y-47448625D01*
X1077266Y-47454653D01*
X1076783Y-47456848D01*
X1074307Y-47463453D01*
X1073784Y-47470488D01*
X1073784Y-47470489D01*
X1072975Y-47481378D01*
X1072068Y-47489272D01*
X1060153Y-47565797D01*
X500000Y-47565797D01*
X500000Y-29493795D01*
X15992138Y-29493795D01*
X16010810Y-29636584D01*
X16068807Y-29768394D01*
X16073344Y-29773791D01*
X16073345Y-29773793D01*
X16126035Y-29836474D01*
X16149006Y-29893184D01*
X16134256Y-29952565D01*
X16124456Y-29965712D01*
X16089234Y-30005593D01*
X16075493Y-30021151D01*
X16014293Y-30151504D01*
X15992138Y-30293795D01*
X16010810Y-30436584D01*
X16068807Y-30568394D01*
X16073344Y-30573791D01*
X16073345Y-30573793D01*
X16127137Y-30637785D01*
X16161468Y-30678627D01*
X16167339Y-30682535D01*
X16167340Y-30682536D01*
X16179722Y-30690778D01*
X16281343Y-30758423D01*
X16288073Y-30760526D01*
X16288076Y-30760527D01*
X16412063Y-30799264D01*
X16412067Y-30799265D01*
X16418796Y-30801367D01*
X16485476Y-30802589D01*
X16555723Y-30803876D01*
X16555725Y-30803876D01*
X16562777Y-30804005D01*
X16569581Y-30802150D01*
X16569582Y-30802150D01*
X16694910Y-30767982D01*
X16694909Y-30767982D01*
X16701711Y-30766128D01*
X16824430Y-30690778D01*
X16899299Y-30608064D01*
X16952367Y-30577610D01*
X16972697Y-30575500D01*
X20928668Y-30575500D01*
X20986859Y-30594407D01*
X21004450Y-30610797D01*
X21056928Y-30673227D01*
X21056931Y-30673230D01*
X21061468Y-30678627D01*
X21067339Y-30682535D01*
X21067340Y-30682536D01*
X21079722Y-30690778D01*
X21181343Y-30758423D01*
X21188073Y-30760526D01*
X21188076Y-30760527D01*
X21312063Y-30799264D01*
X21312067Y-30799265D01*
X21318796Y-30801367D01*
X21385476Y-30802589D01*
X21455723Y-30803876D01*
X21455725Y-30803876D01*
X21462777Y-30804005D01*
X21469581Y-30802150D01*
X21469582Y-30802150D01*
X21594910Y-30767982D01*
X21594909Y-30767982D01*
X21601711Y-30766128D01*
X21724430Y-30690778D01*
X21735429Y-30678627D01*
X21816336Y-30589242D01*
X21816336Y-30589241D01*
X21821068Y-30584014D01*
X21883857Y-30454418D01*
X21907748Y-30312409D01*
X21907900Y-30300000D01*
X21887485Y-30157449D01*
X21827882Y-30026358D01*
X21774653Y-29964583D01*
X21750992Y-29908158D01*
X21765016Y-29848602D01*
X21776254Y-29833524D01*
X21816336Y-29789242D01*
X21816336Y-29789241D01*
X21821068Y-29784014D01*
X21883857Y-29654418D01*
X21907748Y-29512409D01*
X21907900Y-29500000D01*
X21887485Y-29357449D01*
X21827882Y-29226358D01*
X21733881Y-29117265D01*
X21613040Y-29038940D01*
X21475072Y-28997679D01*
X21391959Y-28997171D01*
X21338121Y-28996842D01*
X21338120Y-28996842D01*
X21331070Y-28996799D01*
X21324293Y-28998736D01*
X21324292Y-28998736D01*
X21199389Y-29034434D01*
X21199388Y-29034435D01*
X21192609Y-29036372D01*
X21186645Y-29040135D01*
X21076788Y-29109449D01*
X21076786Y-29109451D01*
X21070820Y-29113215D01*
X21002090Y-29191036D01*
X20949399Y-29222135D01*
X20927888Y-29224500D01*
X16971659Y-29224500D01*
X16913468Y-29205593D01*
X16896663Y-29190127D01*
X16833881Y-29117265D01*
X16713040Y-29038940D01*
X16575072Y-28997679D01*
X16491959Y-28997171D01*
X16438121Y-28996842D01*
X16438120Y-28996842D01*
X16431070Y-28996799D01*
X16424293Y-28998736D01*
X16424292Y-28998736D01*
X16299389Y-29034434D01*
X16299388Y-29034435D01*
X16292609Y-29036372D01*
X16286645Y-29040135D01*
X16176788Y-29109449D01*
X16176786Y-29109451D01*
X16170820Y-29113215D01*
X16075493Y-29221151D01*
X16014293Y-29351504D01*
X15992138Y-29493795D01*
X500000Y-29493795D01*
X500000Y-19593795D01*
X8392138Y-19593795D01*
X8410810Y-19736584D01*
X8468807Y-19868394D01*
X8473344Y-19873791D01*
X8473345Y-19873793D01*
X8527137Y-19937785D01*
X8561468Y-19978627D01*
X8567339Y-19982535D01*
X8567340Y-19982536D01*
X8579722Y-19990778D01*
X8681343Y-20058423D01*
X8688073Y-20060526D01*
X8688076Y-20060527D01*
X8812063Y-20099264D01*
X8812067Y-20099265D01*
X8818796Y-20101367D01*
X8885476Y-20102589D01*
X8955723Y-20103876D01*
X8955725Y-20103876D01*
X8962777Y-20104005D01*
X8969581Y-20102150D01*
X8969582Y-20102150D01*
X9094910Y-20067982D01*
X9094909Y-20067982D01*
X9101711Y-20066128D01*
X9224430Y-19990778D01*
X9235429Y-19978627D01*
X9316336Y-19889242D01*
X9316336Y-19889241D01*
X9321068Y-19884014D01*
X9383857Y-19754418D01*
X9407748Y-19612409D01*
X9407900Y-19600000D01*
X9407357Y-19596207D01*
X9400103Y-19545554D01*
X9410570Y-19485271D01*
X9428099Y-19461516D01*
X11759049Y-17130567D01*
X11813566Y-17102790D01*
X11830865Y-17101588D01*
X11883479Y-17102552D01*
X11955724Y-17103876D01*
X11955726Y-17103876D01*
X11962777Y-17104005D01*
X11969581Y-17102150D01*
X11969582Y-17102150D01*
X12094910Y-17067982D01*
X12094909Y-17067982D01*
X12101711Y-17066128D01*
X12224430Y-16990778D01*
X12321068Y-16884014D01*
X12383857Y-16754418D01*
X12407748Y-16612409D01*
X12407900Y-16600000D01*
X12387485Y-16457449D01*
X12327882Y-16326358D01*
X12233881Y-16217265D01*
X12113040Y-16138940D01*
X11975072Y-16097679D01*
X11891959Y-16097171D01*
X11838121Y-16096842D01*
X11838120Y-16096842D01*
X11831070Y-16096799D01*
X11824293Y-16098736D01*
X11824292Y-16098736D01*
X11699389Y-16134434D01*
X11699388Y-16134435D01*
X11692609Y-16136372D01*
X11686645Y-16140135D01*
X11576788Y-16209449D01*
X11576786Y-16209451D01*
X11570820Y-16213215D01*
X11475493Y-16321151D01*
X11414293Y-16451504D01*
X11392138Y-16593795D01*
X11393053Y-16600792D01*
X11393053Y-16600795D01*
X11400206Y-16655498D01*
X11389003Y-16715649D01*
X11372046Y-16738338D01*
X9041724Y-19068661D01*
X8987207Y-19096438D01*
X8971117Y-19097655D01*
X8881855Y-19097109D01*
X8838121Y-19096842D01*
X8838120Y-19096842D01*
X8831070Y-19096799D01*
X8824293Y-19098736D01*
X8824292Y-19098736D01*
X8699389Y-19134434D01*
X8699388Y-19134435D01*
X8692609Y-19136372D01*
X8686645Y-19140135D01*
X8576788Y-19209449D01*
X8576786Y-19209451D01*
X8570820Y-19213215D01*
X8475493Y-19321151D01*
X8414293Y-19451504D01*
X8392138Y-19593795D01*
X500000Y-19593795D01*
X500000Y-14793795D01*
X8692138Y-14793795D01*
X8710810Y-14936584D01*
X8768807Y-15068394D01*
X8773344Y-15073791D01*
X8773345Y-15073793D01*
X8827137Y-15137785D01*
X8861468Y-15178627D01*
X8867339Y-15182535D01*
X8867340Y-15182536D01*
X8879722Y-15190778D01*
X8981343Y-15258423D01*
X8988073Y-15260526D01*
X8988076Y-15260527D01*
X9112063Y-15299264D01*
X9112067Y-15299265D01*
X9118796Y-15301367D01*
X9185476Y-15302589D01*
X9255723Y-15303876D01*
X9255725Y-15303876D01*
X9262777Y-15304005D01*
X9269581Y-15302150D01*
X9269582Y-15302150D01*
X9394910Y-15267982D01*
X9394909Y-15267982D01*
X9401711Y-15266128D01*
X9524430Y-15190778D01*
X9535429Y-15178627D01*
X9616336Y-15089242D01*
X9616336Y-15089241D01*
X9621068Y-15084014D01*
X9683857Y-14954418D01*
X9707748Y-14812409D01*
X9707900Y-14800000D01*
X9707357Y-14796207D01*
X9700103Y-14745553D01*
X9710570Y-14685270D01*
X9728100Y-14661515D01*
X10070142Y-14319474D01*
X10085143Y-14307163D01*
X10090233Y-14303762D01*
X10098343Y-14298343D01*
X10112580Y-14277036D01*
X10112582Y-14277034D01*
X10118178Y-14268660D01*
X10153732Y-14215449D01*
X10153732Y-14215448D01*
X10159148Y-14207343D01*
X10165116Y-14177341D01*
X10175500Y-14125137D01*
X10175500Y-14125133D01*
X10180499Y-14100000D01*
X10177402Y-14084430D01*
X10175500Y-14065116D01*
X10175500Y-12076207D01*
X10194407Y-12018016D01*
X10213860Y-12000017D01*
X10212993Y-11998973D01*
X10218417Y-11994470D01*
X10224430Y-11990778D01*
X10231892Y-11982534D01*
X10316336Y-11889242D01*
X10316336Y-11889241D01*
X10321068Y-11884014D01*
X10338458Y-11848120D01*
X23199299Y-11848120D01*
X23200291Y-11853038D01*
X23237019Y-12035186D01*
X23239468Y-12047334D01*
X23318874Y-12234403D01*
X23321719Y-12238527D01*
X23321720Y-12238529D01*
X23431426Y-12397559D01*
X23431430Y-12397563D01*
X23434273Y-12401685D01*
X23437890Y-12405153D01*
X23437892Y-12405156D01*
X23577330Y-12538872D01*
X23580952Y-12542345D01*
X23752919Y-12650638D01*
X23757616Y-12652403D01*
X23757619Y-12652405D01*
X23938453Y-12720376D01*
X23943149Y-12722141D01*
X23948105Y-12722926D01*
X24138912Y-12753147D01*
X24138916Y-12753147D01*
X24143871Y-12753932D01*
X24225746Y-12750214D01*
X24341874Y-12744941D01*
X24341878Y-12744940D01*
X24346886Y-12744713D01*
X24436091Y-12722141D01*
X24539036Y-12696092D01*
X24543901Y-12694861D01*
X24649493Y-12643816D01*
X24722359Y-12608591D01*
X24722361Y-12608590D01*
X24726868Y-12606411D01*
X24866702Y-12499500D01*
X24884327Y-12486025D01*
X24884328Y-12486024D01*
X24888312Y-12482978D01*
X24891599Y-12479197D01*
X24891603Y-12479193D01*
X25018346Y-12333391D01*
X25021639Y-12329603D01*
X25109573Y-12173547D01*
X25118942Y-12156919D01*
X25118943Y-12156917D01*
X25121403Y-12152551D01*
X25183527Y-11959055D01*
X25205475Y-11757020D01*
X25205500Y-11750000D01*
X25205044Y-11745503D01*
X25185470Y-11552803D01*
X25185469Y-11552799D01*
X25184963Y-11547816D01*
X25124191Y-11353891D01*
X25025666Y-11176148D01*
X24893412Y-11021845D01*
X24807550Y-10955244D01*
X26794812Y-10955244D01*
X26804500Y-11186372D01*
X26807867Y-11266698D01*
X26809799Y-11312802D01*
X26810220Y-11315524D01*
X26810221Y-11315530D01*
X26838701Y-11499500D01*
X26864548Y-11666461D01*
X26906795Y-11821956D01*
X26954884Y-11998952D01*
X26958378Y-12011813D01*
X26959396Y-12014385D01*
X26959398Y-12014390D01*
X27085699Y-12333391D01*
X27090119Y-12344554D01*
X27091408Y-12346979D01*
X27091413Y-12346989D01*
X27256834Y-12658099D01*
X27258130Y-12660536D01*
X27305940Y-12730360D01*
X27458755Y-12953541D01*
X27458760Y-12953547D01*
X27460316Y-12955820D01*
X27462113Y-12957902D01*
X27462117Y-12957907D01*
X27585980Y-13101404D01*
X27694156Y-13226727D01*
X27956737Y-13469880D01*
X28244786Y-13682248D01*
X28554712Y-13861184D01*
X28882652Y-14004457D01*
X28885286Y-14005272D01*
X28885285Y-14005272D01*
X29221878Y-14109466D01*
X29221887Y-14109468D01*
X29224519Y-14110283D01*
X29576052Y-14177341D01*
X29932869Y-14204797D01*
X29935621Y-14204701D01*
X29935626Y-14204701D01*
X30152217Y-14197137D01*
X30290523Y-14192307D01*
X30644555Y-14140028D01*
X30647224Y-14139323D01*
X30647228Y-14139322D01*
X30987894Y-14049315D01*
X30987897Y-14049314D01*
X30990554Y-14048612D01*
X31324206Y-13919196D01*
X31641353Y-13753396D01*
X31938042Y-13553277D01*
X32036033Y-13469880D01*
X32208471Y-13323124D01*
X32208474Y-13323121D01*
X32210575Y-13321333D01*
X32455555Y-13060456D01*
X32458423Y-13056623D01*
X32668269Y-12776116D01*
X32669929Y-12773897D01*
X32671325Y-12771517D01*
X32671330Y-12771510D01*
X32838822Y-12486025D01*
X32851024Y-12465227D01*
X32988292Y-12156919D01*
X32995459Y-12140822D01*
X32995460Y-12140821D01*
X32996584Y-12138295D01*
X33005393Y-12110527D01*
X33090225Y-11843100D01*
X33104793Y-11797175D01*
X33110184Y-11769948D01*
X33173768Y-11448828D01*
X33173769Y-11448821D01*
X33174304Y-11446119D01*
X33204250Y-11089503D01*
X33205500Y-11000000D01*
X33199929Y-10900360D01*
X33185677Y-10645440D01*
X33185523Y-10642686D01*
X33125841Y-10289826D01*
X33056065Y-10046488D01*
X33027961Y-9948478D01*
X33027960Y-9948474D01*
X33027198Y-9945818D01*
X32890824Y-9614949D01*
X32876438Y-9588780D01*
X32719750Y-9303767D01*
X32718418Y-9301344D01*
X32688177Y-9258474D01*
X32513718Y-9011163D01*
X32513714Y-9011159D01*
X32512129Y-9008911D01*
X32274529Y-8741295D01*
X32272480Y-8739450D01*
X32272476Y-8739446D01*
X32010642Y-8503689D01*
X32010636Y-8503685D01*
X32008579Y-8501832D01*
X31737735Y-8307927D01*
X31719848Y-8295121D01*
X31719843Y-8295118D01*
X31717593Y-8293507D01*
X31715176Y-8292156D01*
X31715171Y-8292153D01*
X31407619Y-8120268D01*
X31407612Y-8120265D01*
X31405199Y-8118916D01*
X31402651Y-8117845D01*
X31402643Y-8117841D01*
X31200950Y-8033058D01*
X31075290Y-7980235D01*
X30731979Y-7879193D01*
X30511609Y-7840336D01*
X30382262Y-7817528D01*
X30382257Y-7817527D01*
X30379544Y-7817049D01*
X30022378Y-7794578D01*
X30019617Y-7794713D01*
X30019613Y-7794713D01*
X29715016Y-7809611D01*
X29664934Y-7812060D01*
X29311666Y-7869277D01*
X28966977Y-7965516D01*
X28852932Y-8011593D01*
X28637725Y-8098542D01*
X28637721Y-8098544D01*
X28635164Y-8099577D01*
X28632740Y-8100888D01*
X28632735Y-8100890D01*
X28322792Y-8268475D01*
X28322783Y-8268480D01*
X28320363Y-8269789D01*
X28026497Y-8474032D01*
X27757229Y-8709758D01*
X27515915Y-8974030D01*
X27305564Y-9263554D01*
X27304197Y-9265961D01*
X27304196Y-9265962D01*
X27130164Y-9572313D01*
X27130161Y-9572320D01*
X27128796Y-9574722D01*
X27127703Y-9577271D01*
X27127703Y-9577272D01*
X27109801Y-9619040D01*
X26987815Y-9903654D01*
X26987019Y-9906289D01*
X26987018Y-9906293D01*
X26958487Y-10000793D01*
X26884379Y-10246252D01*
X26883882Y-10248960D01*
X26883881Y-10248964D01*
X26822660Y-10582531D01*
X26819776Y-10598244D01*
X26816668Y-10642686D01*
X26798359Y-10904525D01*
X26794812Y-10955244D01*
X24807550Y-10955244D01*
X24732834Y-10897288D01*
X24550489Y-10807563D01*
X24436309Y-10777821D01*
X24358685Y-10757601D01*
X24358681Y-10757600D01*
X24353827Y-10756336D01*
X24348815Y-10756073D01*
X24348813Y-10756073D01*
X24277342Y-10752328D01*
X24150882Y-10745700D01*
X24145923Y-10746450D01*
X23954899Y-10775340D01*
X23954896Y-10775341D01*
X23949942Y-10776090D01*
X23759218Y-10846263D01*
X23586499Y-10953353D01*
X23438841Y-11092986D01*
X23435967Y-11097091D01*
X23435964Y-11097094D01*
X23368966Y-11192778D01*
X23322277Y-11259457D01*
X23320288Y-11264053D01*
X23320287Y-11264055D01*
X23296279Y-11319534D01*
X23241567Y-11445967D01*
X23240543Y-11450866D01*
X23240542Y-11450871D01*
X23219759Y-11550354D01*
X23200008Y-11644897D01*
X23199991Y-11649911D01*
X23199990Y-11649916D01*
X23199702Y-11732636D01*
X23199299Y-11848120D01*
X10338458Y-11848120D01*
X10371661Y-11779590D01*
X10380781Y-11760767D01*
X10383857Y-11754418D01*
X10407748Y-11612409D01*
X10407900Y-11600000D01*
X10387485Y-11457449D01*
X10351150Y-11377534D01*
X10330803Y-11332782D01*
X10330802Y-11332781D01*
X10327882Y-11326358D01*
X10233881Y-11217265D01*
X10113040Y-11138940D01*
X9975072Y-11097679D01*
X9891959Y-11097171D01*
X9838121Y-11096842D01*
X9838120Y-11096842D01*
X9831070Y-11096799D01*
X9824293Y-11098736D01*
X9824292Y-11098736D01*
X9699389Y-11134434D01*
X9699388Y-11134435D01*
X9692609Y-11136372D01*
X9686645Y-11140135D01*
X9576788Y-11209449D01*
X9576786Y-11209451D01*
X9570820Y-11213215D01*
X9475493Y-11321151D01*
X9472497Y-11327533D01*
X9472496Y-11327534D01*
X9452018Y-11371151D01*
X9414293Y-11451504D01*
X9392138Y-11593795D01*
X9393053Y-11600792D01*
X9393053Y-11600793D01*
X9406578Y-11704218D01*
X9410810Y-11736584D01*
X9468807Y-11868394D01*
X9473344Y-11873791D01*
X9473345Y-11873793D01*
X9505409Y-11911937D01*
X9561468Y-11978627D01*
X9580358Y-11991201D01*
X9618321Y-12039183D01*
X9624500Y-12073612D01*
X9624500Y-13944877D01*
X9605593Y-14003068D01*
X9595504Y-14014880D01*
X9341725Y-14268660D01*
X9287208Y-14296438D01*
X9271118Y-14297655D01*
X9182868Y-14297116D01*
X9138121Y-14296842D01*
X9138120Y-14296842D01*
X9131070Y-14296799D01*
X9124293Y-14298736D01*
X9124292Y-14298736D01*
X8999389Y-14334434D01*
X8999388Y-14334435D01*
X8992609Y-14336372D01*
X8986645Y-14340135D01*
X8876788Y-14409449D01*
X8876786Y-14409451D01*
X8870820Y-14413215D01*
X8775493Y-14521151D01*
X8714293Y-14651504D01*
X8692138Y-14793795D01*
X500000Y-14793795D01*
X500000Y-11643795D01*
X3342138Y-11643795D01*
X3343053Y-11650792D01*
X3343053Y-11650793D01*
X3359704Y-11778124D01*
X3360810Y-11786584D01*
X3418807Y-11918394D01*
X3511468Y-12028627D01*
X3517339Y-12032535D01*
X3517340Y-12032536D01*
X3624553Y-12103903D01*
X3631343Y-12108423D01*
X3638073Y-12110526D01*
X3638076Y-12110527D01*
X3762063Y-12149264D01*
X3762067Y-12149265D01*
X3768796Y-12151367D01*
X3814305Y-12152201D01*
X3889395Y-12153577D01*
X3947229Y-12173547D01*
X3957585Y-12182556D01*
X4750668Y-12975639D01*
X4752720Y-12978017D01*
X4754739Y-12982147D01*
X4761439Y-12988362D01*
X4787042Y-13012112D01*
X4789718Y-13014689D01*
X4806498Y-13031469D01*
X4810255Y-13034047D01*
X4812340Y-13035779D01*
X4816394Y-13039340D01*
X4830052Y-13052010D01*
X4830055Y-13052012D01*
X4836755Y-13058227D01*
X4845246Y-13061615D01*
X4845247Y-13061615D01*
X4847439Y-13062490D01*
X4866750Y-13072802D01*
X4868689Y-13074132D01*
X4876230Y-13079305D01*
X4885124Y-13081416D01*
X4885125Y-13081416D01*
X4902120Y-13085449D01*
X4915949Y-13089823D01*
X4934171Y-13097093D01*
X4934173Y-13097093D01*
X4940661Y-13099682D01*
X4949004Y-13100500D01*
X4953954Y-13100500D01*
X4975073Y-13102971D01*
X4976183Y-13103025D01*
X4985077Y-13105136D01*
X5006481Y-13102223D01*
X5012500Y-13101404D01*
X5025850Y-13100500D01*
X7247892Y-13100500D01*
X7251024Y-13100730D01*
X7255372Y-13102223D01*
X7264508Y-13101880D01*
X7299401Y-13100570D01*
X7303115Y-13100500D01*
X7326846Y-13100500D01*
X7331330Y-13099665D01*
X7334004Y-13099418D01*
X7339389Y-13099069D01*
X7358029Y-13098369D01*
X7358030Y-13098369D01*
X7367162Y-13098026D01*
X7375557Y-13094420D01*
X7375559Y-13094419D01*
X7377730Y-13093486D01*
X7398674Y-13087123D01*
X7400168Y-13086844D01*
X7400992Y-13086691D01*
X7400993Y-13086691D01*
X7409979Y-13085017D01*
X7417761Y-13080220D01*
X7417764Y-13080219D01*
X7432636Y-13071052D01*
X7445499Y-13064370D01*
X7469948Y-13053866D01*
X7476426Y-13048545D01*
X7479929Y-13045042D01*
X7496604Y-13031861D01*
X7497429Y-13031113D01*
X7505211Y-13026316D01*
X7521957Y-13004294D01*
X7530756Y-12994215D01*
X8675639Y-11849332D01*
X8678017Y-11847280D01*
X8682147Y-11845261D01*
X8712112Y-11812958D01*
X8714689Y-11810282D01*
X8731468Y-11793503D01*
X8734041Y-11789751D01*
X8735763Y-11787679D01*
X8739328Y-11783618D01*
X8752011Y-11769946D01*
X8752011Y-11769945D01*
X8758227Y-11763245D01*
X8761613Y-11754758D01*
X8761615Y-11754755D01*
X8762488Y-11752566D01*
X8772803Y-11733248D01*
X8774133Y-11731309D01*
X8779304Y-11723771D01*
X8785447Y-11697885D01*
X8789821Y-11684056D01*
X8797093Y-11665829D01*
X8797093Y-11665827D01*
X8799682Y-11659339D01*
X8800500Y-11650996D01*
X8800500Y-11646042D01*
X8802970Y-11624937D01*
X8803025Y-11623816D01*
X8805135Y-11614924D01*
X8801404Y-11587509D01*
X8800500Y-11574159D01*
X8800500Y-10030647D01*
X23573674Y-10030647D01*
X23574409Y-10035289D01*
X23574645Y-10035607D01*
X23577635Y-10038475D01*
X23585511Y-10044628D01*
X23748892Y-10147514D01*
X23757840Y-10151956D01*
X23938585Y-10219894D01*
X23948230Y-10222442D01*
X24138940Y-10252648D01*
X24148914Y-10253205D01*
X24341802Y-10244447D01*
X24351675Y-10242989D01*
X24538873Y-10195620D01*
X24548240Y-10192211D01*
X24722093Y-10108168D01*
X24730588Y-10102941D01*
X24816660Y-10037133D01*
X24824235Y-10026152D01*
X24824192Y-10024405D01*
X24821267Y-10019759D01*
X24211086Y-9409578D01*
X24199203Y-9403524D01*
X24194172Y-9404320D01*
X23579728Y-10018764D01*
X23573674Y-10030647D01*
X8800500Y-10030647D01*
X8800500Y-9742987D01*
X8817235Y-9688249D01*
X8821068Y-9684014D01*
X8883857Y-9554418D01*
X8885156Y-9546702D01*
X8902966Y-9440834D01*
X8923913Y-9400679D01*
X8923458Y-9400226D01*
X9076542Y-9400226D01*
X9089231Y-9413161D01*
X9098758Y-9444421D01*
X9105861Y-9498736D01*
X9110810Y-9536584D01*
X9168807Y-9668394D01*
X9173344Y-9673791D01*
X9173345Y-9673793D01*
X9208710Y-9715864D01*
X9261468Y-9778627D01*
X9267339Y-9782535D01*
X9267340Y-9782536D01*
X9332061Y-9825618D01*
X9381343Y-9858423D01*
X9388073Y-9860526D01*
X9388076Y-9860527D01*
X9512063Y-9899264D01*
X9512067Y-9899265D01*
X9518796Y-9901367D01*
X9585476Y-9902589D01*
X9655723Y-9903876D01*
X9655725Y-9903876D01*
X9662777Y-9904005D01*
X9669581Y-9902150D01*
X9669582Y-9902150D01*
X9771879Y-9874261D01*
X9801711Y-9866128D01*
X9924430Y-9790778D01*
X9976671Y-9733064D01*
X10029738Y-9702610D01*
X10050068Y-9700500D01*
X12134352Y-9700500D01*
X12137484Y-9700730D01*
X12141832Y-9702223D01*
X12150968Y-9701880D01*
X12185861Y-9700570D01*
X12189575Y-9700500D01*
X12213306Y-9700500D01*
X12217790Y-9699665D01*
X12220464Y-9699418D01*
X12225849Y-9699069D01*
X12244489Y-9698369D01*
X12244490Y-9698369D01*
X12253622Y-9698026D01*
X12262017Y-9694420D01*
X12262019Y-9694419D01*
X12264190Y-9693486D01*
X12285134Y-9687123D01*
X12286628Y-9686844D01*
X12287452Y-9686691D01*
X12287453Y-9686691D01*
X12296439Y-9685017D01*
X12304221Y-9680220D01*
X12304224Y-9680219D01*
X12319096Y-9671052D01*
X12331959Y-9664370D01*
X12356408Y-9653866D01*
X12362886Y-9648545D01*
X12366389Y-9645042D01*
X12383064Y-9631861D01*
X12383889Y-9631113D01*
X12391671Y-9626316D01*
X12408417Y-9604294D01*
X12417216Y-9594215D01*
X12668380Y-9343051D01*
X23199814Y-9343051D01*
X23200788Y-9352989D01*
X23238953Y-9542268D01*
X23241905Y-9551805D01*
X23317354Y-9729549D01*
X23322158Y-9738288D01*
X23411664Y-9868035D01*
X23422260Y-9876136D01*
X23422702Y-9876147D01*
X23429286Y-9872222D01*
X24040422Y-9261086D01*
X24045664Y-9250797D01*
X24353524Y-9250797D01*
X24354320Y-9255828D01*
X24966699Y-9868207D01*
X24978582Y-9874261D01*
X24981954Y-9873727D01*
X24984040Y-9872098D01*
X25017938Y-9833102D01*
X25023695Y-9824942D01*
X25118484Y-9656719D01*
X25122478Y-9647576D01*
X25181503Y-9463731D01*
X25183580Y-9453960D01*
X25204696Y-9259594D01*
X25204985Y-9254418D01*
X25204991Y-9252602D01*
X25204737Y-9247414D01*
X25184980Y-9052904D01*
X25182974Y-9043135D01*
X25125230Y-8858871D01*
X25121299Y-8849701D01*
X25027689Y-8680824D01*
X25021990Y-8672624D01*
X24987832Y-8632771D01*
X24976446Y-8625821D01*
X24973224Y-8626080D01*
X24970767Y-8627725D01*
X24359578Y-9238914D01*
X24353524Y-9250797D01*
X24045664Y-9250797D01*
X24046476Y-9249203D01*
X24045680Y-9244172D01*
X23432020Y-8630512D01*
X23420137Y-8624458D01*
X23419515Y-8624556D01*
X23413962Y-8629383D01*
X23325588Y-8755595D01*
X23320723Y-8764299D01*
X23244032Y-8941522D01*
X23241019Y-8951022D01*
X23201531Y-9140039D01*
X23200487Y-9149967D01*
X23199814Y-9343051D01*
X12668380Y-9343051D01*
X13333067Y-8678364D01*
X13387584Y-8650587D01*
X13404884Y-8649385D01*
X13495023Y-8651036D01*
X13495025Y-8651036D01*
X13502077Y-8651165D01*
X13508880Y-8649310D01*
X13508883Y-8649310D01*
X13634210Y-8615142D01*
X13634209Y-8615142D01*
X13641011Y-8613288D01*
X13763730Y-8537938D01*
X13796412Y-8501832D01*
X13823881Y-8471485D01*
X23574047Y-8471485D01*
X23574629Y-8475967D01*
X23575038Y-8476546D01*
X24188914Y-9090422D01*
X24200797Y-9096476D01*
X24205828Y-9095680D01*
X24817912Y-8483596D01*
X24823966Y-8471713D01*
X24823664Y-8469802D01*
X24820362Y-8465811D01*
X24736529Y-8400784D01*
X24728075Y-8395501D01*
X24554814Y-8310246D01*
X24545460Y-8306767D01*
X24358609Y-8258095D01*
X24348737Y-8256567D01*
X24155917Y-8246463D01*
X24145946Y-8246950D01*
X23955029Y-8275824D01*
X23945357Y-8278307D01*
X23764140Y-8344982D01*
X23755177Y-8349353D01*
X23591067Y-8451106D01*
X23583161Y-8457194D01*
X23580432Y-8459775D01*
X23574047Y-8471485D01*
X13823881Y-8471485D01*
X13855636Y-8436402D01*
X13855636Y-8436401D01*
X13860368Y-8431174D01*
X13923157Y-8301578D01*
X13947048Y-8159569D01*
X13947200Y-8147160D01*
X13926785Y-8004609D01*
X13867182Y-7873518D01*
X13773181Y-7764425D01*
X13652340Y-7686100D01*
X13514372Y-7644839D01*
X13431259Y-7644331D01*
X13377421Y-7644002D01*
X13377420Y-7644002D01*
X13370370Y-7643959D01*
X13363593Y-7645896D01*
X13363592Y-7645896D01*
X13238689Y-7681594D01*
X13238688Y-7681595D01*
X13231909Y-7683532D01*
X13225945Y-7687295D01*
X13116088Y-7756609D01*
X13116086Y-7756611D01*
X13110120Y-7760375D01*
X13014793Y-7868311D01*
X12953593Y-7998664D01*
X12931438Y-8140955D01*
X12934366Y-8163341D01*
X12935418Y-8171389D01*
X12924216Y-8231540D01*
X12907258Y-8254230D01*
X12090984Y-9070504D01*
X12036467Y-9098281D01*
X12020980Y-9099500D01*
X10050118Y-9099500D01*
X9991927Y-9080593D01*
X9975119Y-9065123D01*
X9938488Y-9022610D01*
X9938482Y-9022605D01*
X9933881Y-9017265D01*
X9813040Y-8938940D01*
X9675072Y-8897679D01*
X9591959Y-8897171D01*
X9538121Y-8896842D01*
X9538120Y-8896842D01*
X9531070Y-8896799D01*
X9524293Y-8898736D01*
X9524292Y-8898736D01*
X9399389Y-8934434D01*
X9399388Y-8934435D01*
X9392609Y-8936372D01*
X9386645Y-8940135D01*
X9276788Y-9009449D01*
X9276786Y-9009451D01*
X9270820Y-9013215D01*
X9175493Y-9121151D01*
X9114293Y-9251504D01*
X9112801Y-9261086D01*
X9097619Y-9358591D01*
X9076542Y-9400226D01*
X8923458Y-9400226D01*
X8911706Y-9388536D01*
X8901798Y-9357394D01*
X8893771Y-9301344D01*
X8887485Y-9257449D01*
X8838616Y-9149967D01*
X8830803Y-9132782D01*
X8830802Y-9132781D01*
X8827882Y-9126358D01*
X8733881Y-9017265D01*
X8613040Y-8938940D01*
X8475072Y-8897679D01*
X8391959Y-8897171D01*
X8338121Y-8896842D01*
X8338120Y-8896842D01*
X8331070Y-8896799D01*
X8324293Y-8898736D01*
X8324292Y-8898736D01*
X8199389Y-8934434D01*
X8199388Y-8934435D01*
X8192609Y-8936372D01*
X8186645Y-8940135D01*
X8076788Y-9009449D01*
X8076786Y-9009451D01*
X8070820Y-9013215D01*
X7975493Y-9121151D01*
X7914293Y-9251504D01*
X7892138Y-9393795D01*
X7893053Y-9400792D01*
X7893053Y-9400794D01*
X7904267Y-9486551D01*
X7893065Y-9546702D01*
X7848646Y-9588780D01*
X7830845Y-9594097D01*
X7831070Y-9594883D01*
X7699389Y-9632518D01*
X7699388Y-9632519D01*
X7692609Y-9634456D01*
X7686645Y-9638219D01*
X7576788Y-9707533D01*
X7576786Y-9707535D01*
X7570820Y-9711299D01*
X7475493Y-9819235D01*
X7472497Y-9825617D01*
X7472496Y-9825618D01*
X7452582Y-9868035D01*
X7414293Y-9949588D01*
X7392138Y-10091879D01*
X7393053Y-10098876D01*
X7393053Y-10098877D01*
X7409473Y-10224441D01*
X7410810Y-10234668D01*
X7468807Y-10366478D01*
X7561468Y-10476711D01*
X7566671Y-10480174D01*
X7597264Y-10532737D01*
X7599500Y-10553659D01*
X7599500Y-10834521D01*
X7580593Y-10892712D01*
X7570504Y-10904525D01*
X7004524Y-11470504D01*
X6950007Y-11498281D01*
X6934520Y-11499500D01*
X6099500Y-11499500D01*
X6041309Y-11480593D01*
X6005345Y-11431093D01*
X6000500Y-11400500D01*
X6000500Y-10352108D01*
X6000730Y-10348976D01*
X6002223Y-10344628D01*
X6000570Y-10300599D01*
X6000500Y-10296885D01*
X6000500Y-10273154D01*
X5999665Y-10268670D01*
X5999418Y-10265996D01*
X5999069Y-10260611D01*
X5998369Y-10241971D01*
X5998369Y-10241970D01*
X5998026Y-10232838D01*
X5993486Y-10222270D01*
X5987122Y-10201324D01*
X5986691Y-10199008D01*
X5986691Y-10199007D01*
X5985017Y-10190021D01*
X5980220Y-10182239D01*
X5980219Y-10182236D01*
X5971052Y-10167364D01*
X5964368Y-10154497D01*
X5953866Y-10130052D01*
X5948545Y-10123574D01*
X5945042Y-10120071D01*
X5931861Y-10103395D01*
X5931111Y-10102569D01*
X5926316Y-10094789D01*
X5926315Y-10094788D01*
X5927235Y-10094221D01*
X5905784Y-10046488D01*
X5906576Y-10019378D01*
X5907113Y-10016184D01*
X5907113Y-10016182D01*
X5907748Y-10012409D01*
X5907900Y-10000000D01*
X5887485Y-9857449D01*
X5827882Y-9726358D01*
X5751936Y-9638219D01*
X5738486Y-9622609D01*
X5738485Y-9622608D01*
X5733881Y-9617265D01*
X5613040Y-9538940D01*
X5475072Y-9497679D01*
X5391959Y-9497171D01*
X5338121Y-9496842D01*
X5338120Y-9496842D01*
X5331070Y-9496799D01*
X5324293Y-9498736D01*
X5324292Y-9498736D01*
X5199389Y-9534434D01*
X5199388Y-9534435D01*
X5192609Y-9536372D01*
X5186645Y-9540135D01*
X5076788Y-9609449D01*
X5076786Y-9609451D01*
X5070820Y-9613215D01*
X4975493Y-9721151D01*
X4914293Y-9851504D01*
X4892138Y-9993795D01*
X4893053Y-10000792D01*
X4893053Y-10000793D01*
X4909109Y-10123574D01*
X4910810Y-10136584D01*
X4968807Y-10268394D01*
X4973344Y-10273791D01*
X4973345Y-10273793D01*
X4989108Y-10292545D01*
X5061468Y-10378627D01*
X5181343Y-10458423D01*
X5188073Y-10460526D01*
X5188076Y-10460527D01*
X5275399Y-10487808D01*
X5318796Y-10501367D01*
X5319087Y-10501372D01*
X5370745Y-10527919D01*
X5398334Y-10582531D01*
X5399500Y-10597680D01*
X5399500Y-11547892D01*
X5399270Y-11551024D01*
X5397777Y-11555372D01*
X5398120Y-11564508D01*
X5399430Y-11599401D01*
X5399500Y-11603115D01*
X5399500Y-11626846D01*
X5400335Y-11631330D01*
X5400582Y-11634004D01*
X5400931Y-11639389D01*
X5401367Y-11650996D01*
X5401974Y-11667162D01*
X5405580Y-11675557D01*
X5405581Y-11675559D01*
X5406514Y-11677730D01*
X5412877Y-11698674D01*
X5414983Y-11709979D01*
X5419780Y-11717761D01*
X5419781Y-11717764D01*
X5428948Y-11732636D01*
X5435630Y-11745499D01*
X5446134Y-11769948D01*
X5451455Y-11776426D01*
X5454958Y-11779929D01*
X5468139Y-11796604D01*
X5468887Y-11797429D01*
X5473684Y-11805211D01*
X5480959Y-11810743D01*
X5480960Y-11810744D01*
X5495705Y-11821956D01*
X5505785Y-11830756D01*
X5650668Y-11975639D01*
X5652720Y-11978017D01*
X5654739Y-11982147D01*
X5661439Y-11988362D01*
X5687042Y-12012112D01*
X5689718Y-12014689D01*
X5706498Y-12031469D01*
X5710255Y-12034047D01*
X5712340Y-12035779D01*
X5716394Y-12039340D01*
X5730052Y-12052010D01*
X5730055Y-12052012D01*
X5736755Y-12058227D01*
X5745246Y-12061615D01*
X5745247Y-12061615D01*
X5747439Y-12062490D01*
X5766750Y-12072802D01*
X5767931Y-12073612D01*
X5776230Y-12079305D01*
X5785124Y-12081416D01*
X5785125Y-12081416D01*
X5802120Y-12085449D01*
X5815949Y-12089823D01*
X5834171Y-12097093D01*
X5834173Y-12097093D01*
X5840661Y-12099682D01*
X5849004Y-12100500D01*
X5853954Y-12100500D01*
X5875073Y-12102971D01*
X5876183Y-12103025D01*
X5885077Y-12105136D01*
X5906481Y-12102223D01*
X5912500Y-12101404D01*
X5925850Y-12100500D01*
X7047892Y-12100500D01*
X7051024Y-12100730D01*
X7055372Y-12102223D01*
X7064508Y-12101880D01*
X7099401Y-12100570D01*
X7103115Y-12100500D01*
X7126846Y-12100500D01*
X7131330Y-12099665D01*
X7134004Y-12099418D01*
X7139389Y-12099069D01*
X7158029Y-12098369D01*
X7158030Y-12098369D01*
X7167162Y-12098026D01*
X7175557Y-12094420D01*
X7175559Y-12094419D01*
X7177730Y-12093486D01*
X7198674Y-12087123D01*
X7200168Y-12086844D01*
X7200992Y-12086691D01*
X7200993Y-12086691D01*
X7209979Y-12085017D01*
X7217761Y-12080220D01*
X7217764Y-12080219D01*
X7232636Y-12071052D01*
X7245499Y-12064370D01*
X7269948Y-12053866D01*
X7276426Y-12048545D01*
X7279929Y-12045042D01*
X7296604Y-12031861D01*
X7297429Y-12031113D01*
X7305211Y-12026316D01*
X7311523Y-12018016D01*
X7321956Y-12004295D01*
X7330756Y-11994215D01*
X8030496Y-11294475D01*
X8085013Y-11266698D01*
X8145445Y-11276269D01*
X8188710Y-11319534D01*
X8199500Y-11364479D01*
X8199500Y-11434521D01*
X8180593Y-11492712D01*
X8170504Y-11504525D01*
X7204524Y-12470504D01*
X7150007Y-12498281D01*
X7134520Y-12499500D01*
X5165479Y-12499500D01*
X5107288Y-12480593D01*
X5095475Y-12470504D01*
X4383707Y-11758735D01*
X4355930Y-11704218D01*
X4356083Y-11672308D01*
X4357113Y-11666185D01*
X4357113Y-11666182D01*
X4357748Y-11662409D01*
X4357900Y-11650000D01*
X4337485Y-11507449D01*
X4277882Y-11376358D01*
X4207327Y-11294475D01*
X4188486Y-11272609D01*
X4188485Y-11272608D01*
X4183881Y-11267265D01*
X4063040Y-11188940D01*
X3925072Y-11147679D01*
X3841959Y-11147171D01*
X3788121Y-11146842D01*
X3788120Y-11146842D01*
X3781070Y-11146799D01*
X3774293Y-11148736D01*
X3774292Y-11148736D01*
X3649389Y-11184434D01*
X3649388Y-11184435D01*
X3642609Y-11186372D01*
X3636645Y-11190135D01*
X3526788Y-11259449D01*
X3526786Y-11259451D01*
X3520820Y-11263215D01*
X3425493Y-11371151D01*
X3364293Y-11501504D01*
X3342138Y-11643795D01*
X500000Y-11643795D01*
X500000Y-7530647D01*
X23573674Y-7530647D01*
X23574409Y-7535289D01*
X23574645Y-7535607D01*
X23577635Y-7538475D01*
X23585511Y-7544628D01*
X23748892Y-7647514D01*
X23757840Y-7651956D01*
X23938585Y-7719894D01*
X23948230Y-7722442D01*
X24138940Y-7752648D01*
X24148914Y-7753205D01*
X24341802Y-7744447D01*
X24351675Y-7742989D01*
X24538873Y-7695620D01*
X24548240Y-7692211D01*
X24722093Y-7608168D01*
X24730588Y-7602941D01*
X24816660Y-7537133D01*
X24824235Y-7526152D01*
X24824192Y-7524405D01*
X24821267Y-7519759D01*
X24211086Y-6909578D01*
X24199203Y-6903524D01*
X24194172Y-6904320D01*
X23579728Y-7518764D01*
X23573674Y-7530647D01*
X500000Y-7530647D01*
X500000Y-6843051D01*
X23199814Y-6843051D01*
X23200788Y-6852989D01*
X23238953Y-7042268D01*
X23241905Y-7051805D01*
X23317354Y-7229549D01*
X23322158Y-7238288D01*
X23411664Y-7368035D01*
X23422260Y-7376136D01*
X23422702Y-7376147D01*
X23429286Y-7372222D01*
X24040422Y-6761086D01*
X24045664Y-6750797D01*
X24353524Y-6750797D01*
X24354320Y-6755828D01*
X24966699Y-7368207D01*
X24978582Y-7374261D01*
X24981954Y-7373727D01*
X24984040Y-7372098D01*
X25017938Y-7333102D01*
X25023695Y-7324942D01*
X25118484Y-7156719D01*
X25122478Y-7147576D01*
X25181503Y-6963731D01*
X25183580Y-6953960D01*
X25204696Y-6759594D01*
X25204985Y-6754418D01*
X25204991Y-6752602D01*
X25204737Y-6747414D01*
X25184980Y-6552904D01*
X25182974Y-6543135D01*
X25125230Y-6358871D01*
X25121299Y-6349701D01*
X25027689Y-6180824D01*
X25021990Y-6172624D01*
X24987832Y-6132771D01*
X24976446Y-6125821D01*
X24973224Y-6126080D01*
X24970767Y-6127725D01*
X24359578Y-6738914D01*
X24353524Y-6750797D01*
X24045664Y-6750797D01*
X24046476Y-6749203D01*
X24045680Y-6744172D01*
X23432020Y-6130512D01*
X23420137Y-6124458D01*
X23419515Y-6124556D01*
X23413962Y-6129383D01*
X23325588Y-6255595D01*
X23320723Y-6264299D01*
X23244032Y-6441522D01*
X23241019Y-6451022D01*
X23201531Y-6640039D01*
X23200487Y-6649967D01*
X23199814Y-6843051D01*
X500000Y-6843051D01*
X500000Y-5971485D01*
X23574047Y-5971485D01*
X23574629Y-5975967D01*
X23575038Y-5976546D01*
X24188914Y-6590422D01*
X24200797Y-6596476D01*
X24205828Y-6595680D01*
X24817912Y-5983596D01*
X24823966Y-5971713D01*
X24823664Y-5969802D01*
X24820362Y-5965811D01*
X24736529Y-5900784D01*
X24728075Y-5895501D01*
X24554814Y-5810246D01*
X24545460Y-5806767D01*
X24358609Y-5758095D01*
X24348737Y-5756567D01*
X24155917Y-5746463D01*
X24145946Y-5746950D01*
X23955029Y-5775824D01*
X23945357Y-5778307D01*
X23764140Y-5844982D01*
X23755177Y-5849353D01*
X23591067Y-5951106D01*
X23583161Y-5957194D01*
X23580432Y-5959775D01*
X23574047Y-5971485D01*
X500000Y-5971485D01*
X500000Y-4866489D01*
X3083683Y-4866489D01*
X3085428Y-4873000D01*
X3085428Y-4873003D01*
X3105167Y-4946666D01*
X3120952Y-5005577D01*
X3124388Y-5011387D01*
X3167483Y-5084256D01*
X3194251Y-5129519D01*
X3199120Y-5134188D01*
X3199123Y-5134192D01*
X3292097Y-5223350D01*
X3298180Y-5229184D01*
X3425083Y-5297228D01*
X3431662Y-5298699D01*
X3431666Y-5298700D01*
X3559023Y-5327167D01*
X3559024Y-5327167D01*
X3565609Y-5328639D01*
X3572348Y-5328286D01*
X3572350Y-5328286D01*
X3619620Y-5325808D01*
X3709406Y-5321103D01*
X3775976Y-5298700D01*
X3839485Y-5277327D01*
X3839486Y-5277326D01*
X3845879Y-5275175D01*
X3964974Y-5194238D01*
X3969328Y-5189086D01*
X3969330Y-5189084D01*
X4011353Y-5139355D01*
X5145138Y-5139355D01*
X5146053Y-5146352D01*
X5146053Y-5146353D01*
X5162403Y-5271383D01*
X5163810Y-5282144D01*
X5221807Y-5413954D01*
X5226344Y-5419351D01*
X5226345Y-5419353D01*
X5261183Y-5460797D01*
X5314468Y-5524187D01*
X5320339Y-5528095D01*
X5320340Y-5528096D01*
X5428472Y-5600075D01*
X5434343Y-5603983D01*
X5441073Y-5606086D01*
X5441076Y-5606087D01*
X5565063Y-5644824D01*
X5565067Y-5644825D01*
X5571796Y-5646927D01*
X5638476Y-5648149D01*
X5708723Y-5649436D01*
X5708725Y-5649436D01*
X5715777Y-5649565D01*
X5722581Y-5647710D01*
X5722582Y-5647710D01*
X5847910Y-5613542D01*
X5847909Y-5613542D01*
X5854711Y-5611688D01*
X5977430Y-5536338D01*
X5989298Y-5523227D01*
X6048280Y-5458064D01*
X6101348Y-5427610D01*
X6121678Y-5425500D01*
X6278668Y-5425500D01*
X6336859Y-5444407D01*
X6354450Y-5460797D01*
X6406928Y-5523227D01*
X6406931Y-5523230D01*
X6411468Y-5528627D01*
X6417339Y-5532535D01*
X6417340Y-5532536D01*
X6423052Y-5536338D01*
X6531343Y-5608423D01*
X6538073Y-5610526D01*
X6538076Y-5610527D01*
X6662063Y-5649264D01*
X6662067Y-5649265D01*
X6668796Y-5651367D01*
X6735476Y-5652589D01*
X6805723Y-5653876D01*
X6805725Y-5653876D01*
X6812777Y-5654005D01*
X6819581Y-5652150D01*
X6819582Y-5652150D01*
X6944910Y-5617982D01*
X6944909Y-5617982D01*
X6951711Y-5616128D01*
X7074430Y-5540778D01*
X7085909Y-5528096D01*
X7166336Y-5439242D01*
X7166336Y-5439241D01*
X7171068Y-5434014D01*
X7233857Y-5304418D01*
X7257748Y-5162409D01*
X7257900Y-5150000D01*
X7237485Y-5007449D01*
X7177882Y-4876358D01*
X7169378Y-4866489D01*
X8863683Y-4866489D01*
X8865428Y-4873000D01*
X8865428Y-4873003D01*
X8885167Y-4946666D01*
X8900952Y-5005577D01*
X8904388Y-5011387D01*
X8947483Y-5084256D01*
X8974251Y-5129519D01*
X8979120Y-5134188D01*
X8979123Y-5134192D01*
X9072097Y-5223350D01*
X9078180Y-5229184D01*
X9205083Y-5297228D01*
X9211662Y-5298699D01*
X9211666Y-5298700D01*
X9339023Y-5327167D01*
X9339024Y-5327167D01*
X9345609Y-5328639D01*
X9352348Y-5328286D01*
X9352350Y-5328286D01*
X9399620Y-5325808D01*
X9489406Y-5321103D01*
X9555976Y-5298700D01*
X9619485Y-5277327D01*
X9619486Y-5277326D01*
X9625879Y-5275175D01*
X9744974Y-5194238D01*
X9749328Y-5189086D01*
X9749330Y-5189084D01*
X9804576Y-5123708D01*
X9837916Y-5084256D01*
X9873938Y-5005577D01*
X9895049Y-4959467D01*
X9895050Y-4959465D01*
X9897858Y-4953331D01*
X9920384Y-4811110D01*
X9920500Y-4800000D01*
X9900958Y-4657338D01*
X9898281Y-4651152D01*
X9898280Y-4651148D01*
X9846452Y-4531381D01*
X9846450Y-4531377D01*
X9843771Y-4525187D01*
X9753152Y-4413282D01*
X9635779Y-4329869D01*
X9500297Y-4281093D01*
X9476078Y-4279314D01*
X9363424Y-4271041D01*
X9363420Y-4271041D01*
X9356690Y-4270547D01*
X9350075Y-4271881D01*
X9350072Y-4271881D01*
X9256353Y-4290778D01*
X9215536Y-4299008D01*
X9087236Y-4364380D01*
X9082267Y-4368949D01*
X9082266Y-4368950D01*
X9046873Y-4401496D01*
X8981243Y-4461847D01*
X8977686Y-4467584D01*
X8977685Y-4467585D01*
X8908921Y-4578489D01*
X8905364Y-4584226D01*
X8903481Y-4590708D01*
X8874595Y-4690135D01*
X8865191Y-4722503D01*
X8865120Y-4729250D01*
X8865120Y-4729252D01*
X8864762Y-4763428D01*
X8863683Y-4866489D01*
X7169378Y-4866489D01*
X7117271Y-4806016D01*
X7088486Y-4772609D01*
X7088485Y-4772608D01*
X7083881Y-4767265D01*
X6963040Y-4688940D01*
X6825072Y-4647679D01*
X6741959Y-4647171D01*
X6688121Y-4646842D01*
X6688120Y-4646842D01*
X6681070Y-4646799D01*
X6674293Y-4648736D01*
X6674292Y-4648736D01*
X6549389Y-4684434D01*
X6549388Y-4684435D01*
X6542609Y-4686372D01*
X6536645Y-4690135D01*
X6426788Y-4759449D01*
X6426786Y-4759451D01*
X6420820Y-4763215D01*
X6352090Y-4841036D01*
X6299399Y-4872135D01*
X6277888Y-4874500D01*
X6128485Y-4874500D01*
X6070294Y-4855593D01*
X6053486Y-4840124D01*
X6025357Y-4807478D01*
X5986881Y-4762825D01*
X5866040Y-4684500D01*
X5728072Y-4643239D01*
X5644959Y-4642731D01*
X5591121Y-4642402D01*
X5591120Y-4642402D01*
X5584070Y-4642359D01*
X5577293Y-4644296D01*
X5577292Y-4644296D01*
X5452389Y-4679994D01*
X5452388Y-4679995D01*
X5445609Y-4681932D01*
X5439645Y-4685695D01*
X5329788Y-4755009D01*
X5329786Y-4755011D01*
X5323820Y-4758775D01*
X5228493Y-4866711D01*
X5167293Y-4997064D01*
X5145138Y-5139355D01*
X4011353Y-5139355D01*
X4024576Y-5123708D01*
X4057916Y-5084256D01*
X4093938Y-5005577D01*
X4115049Y-4959467D01*
X4115050Y-4959465D01*
X4117858Y-4953331D01*
X4140384Y-4811110D01*
X4140500Y-4800000D01*
X4120958Y-4657338D01*
X4118281Y-4651152D01*
X4118280Y-4651148D01*
X4066452Y-4531381D01*
X4066450Y-4531377D01*
X4063771Y-4525187D01*
X3973152Y-4413282D01*
X3855779Y-4329869D01*
X3720297Y-4281093D01*
X3696078Y-4279314D01*
X3583424Y-4271041D01*
X3583420Y-4271041D01*
X3576690Y-4270547D01*
X3570075Y-4271881D01*
X3570072Y-4271881D01*
X3476353Y-4290778D01*
X3435536Y-4299008D01*
X3307236Y-4364380D01*
X3302267Y-4368949D01*
X3302266Y-4368950D01*
X3266873Y-4401496D01*
X3201243Y-4461847D01*
X3197686Y-4467584D01*
X3197685Y-4467585D01*
X3128921Y-4578489D01*
X3125364Y-4584226D01*
X3123481Y-4590708D01*
X3094595Y-4690135D01*
X3085191Y-4722503D01*
X3085120Y-4729250D01*
X3085120Y-4729252D01*
X3084762Y-4763428D01*
X3083683Y-4866489D01*
X500000Y-4866489D01*
X500000Y-599000D01*
X518907Y-540809D01*
X568407Y-504845D01*
X599000Y-500000D01*
X9153178Y-500000D01*
X9211369Y-518907D01*
G37*
G04 #@! TD.AperFunction*
M02*
