M48
; DRILL file {KiCad (5.99.0-10229-ge8e7d13299)} date Tuesday, June 15, 2021 at 08:08:20 PM
; FORMAT={-:-/ absolute / metric / decimal}
; #@! TF.CreationDate,2021-06-15T20:08:20+02:00
; #@! TF.GenerationSoftware,Kicad,Pcbnew,(5.99.0-10229-ge8e7d13299)
; #@! TF.FileFunction,MixedPlating,1,2
FMAT,2
METRIC
; #@! TA.AperFunction,Plated,PTH,ViaDrill
T1C0.300
; #@! TA.AperFunction,Plated,PTH,ComponentDrill
T2C0.850
; #@! TA.AperFunction,Plated,PTH,ComponentDrill
T3C1.000
; #@! TA.AperFunction,NonPlated,NPTH,ComponentDrill
T4C0.650
; #@! TA.AperFunction,NonPlated,NPTH,ComponentDrill
T5C1.500
; #@! TA.AperFunction,NonPlated,NPTH,ComponentDrill
T6C3.200
%
G90
G05
T1
X1.0Y-11.3
X1.5Y-6.9
X1.5Y-68.0
X1.568Y-47.572
X1.6Y-16.9
X1.6Y-31.7
X1.6Y-32.9
X1.6Y-42.2
X1.782Y-13.4
X2.4Y-6.9
X2.4Y-33.5
X2.5Y-68.0
X2.7Y-8.7
X2.7Y-46.8
X3.1Y-51.7
X3.4Y-3.4
X3.5Y-63.0
X3.5Y-68.0
X3.6Y-58.6
X3.8Y-35.0
X3.85Y-11.65
X4.5Y-64.0
X4.5Y-68.0
X5.3Y-4.4
X5.4Y-10.0
X5.5Y-65.0
X5.5Y-66.0
X5.5Y-67.0
X5.653Y-5.146
X6.3Y-47.1
X6.75Y-5.15
X7.2Y-68.2
X7.3Y-9.5
X7.7Y-4.4
X7.8Y-46.6
X7.9Y-10.098
X7.9Y-57.1
X8.3Y-49.9
X8.4Y-9.4
X8.45Y-32.257
X8.5Y-3.9
X8.5Y-15.3
X8.704Y-46.599
X8.9Y-19.6
X9.2Y-14.8
X9.2Y-15.8
X9.3Y-23.9
X9.6Y-3.5
X9.6Y-9.4
X9.6Y-10.3
X9.9Y-11.6
X10.052Y-8.648
X10.6Y-6.8
X11.2Y-12.9
X11.9Y-16.6
X12.6Y-55.0
X13.0Y-47.4
X13.1Y-34.2
X13.3Y-40.7
X13.439Y-8.147
X13.655Y-27.978
X15.2Y-33.6
X15.2Y-39.2
X15.6Y-42.9
X15.7Y-11.0
X15.7Y-57.4
X15.713Y-41.302
X15.9Y-34.3
X15.903Y-39.727
X16.246Y-41.905
X16.5Y-29.5
X16.5Y-30.3
X16.6Y-33.6
X16.822Y-42.468
X17.3Y-34.3
X18.0Y-33.6
X18.6Y-34.3
X18.6Y-38.0
X18.8Y-65.6
X19.4Y-42.9
X19.85Y-34.05
X20.6Y-19.1
X20.827Y-42.904
X21.4Y-29.5
X21.4Y-30.3
X21.5Y-25.3
X21.5Y-58.1
X21.7Y-10.5
X21.852Y-62.072
X21.852Y-63.048
X21.9Y-3.6
X22.0Y-15.4
X22.85Y-41.35
X25.1Y-29.8
X25.6Y-44.2
X25.8Y-7.8
X25.8Y-21.1
X25.8Y-55.9
X26.3Y-38.8
X26.5Y-51.6
X26.675Y-47.425
X26.7Y-0.825
X26.7Y-46.2
X27.05Y-44.696
X28.327Y-41.6
X28.4Y-7.4
X28.5Y-62.7
X29.403Y-43.8
X29.5Y-3.9
X29.7Y-38.6
X31.2Y-1.8
X31.5Y-28.1
X31.7Y-35.6
X31.8Y-41.6
X32.0Y-15.3
X33.0Y-58.1
X33.259Y-43.6
X33.3Y-13.2
T2
X21.33Y-46.155
X21.33Y-48.695
X21.33Y-51.235
X21.33Y-53.775
X23.87Y-47.425
X23.87Y-49.965
X23.87Y-52.505
X23.87Y-55.045
X30.13Y-46.155
X30.13Y-48.695
X30.13Y-51.235
X30.13Y-53.775
X32.67Y-47.425
X32.67Y-49.965
X32.67Y-52.505
X32.67Y-55.045
T3
X1.7Y-63.2
X17.3Y-67.6
X19.8Y-67.6
X22.3Y-67.6
X24.2Y-4.25
X24.2Y-6.75
X24.2Y-9.25
X24.2Y-11.75
X24.8Y-67.6
X27.3Y-67.6
X27.66Y-60.4
X29.8Y-67.6
X30.2Y-60.4
X32.3Y-67.6
X32.74Y-60.4
T4
X3.61Y-4.8
X9.39Y-4.8
T5
X22.07Y-56.445
X30.87Y-56.445
T6
X11.0Y-66.0
X30.0Y-11.0
T0
M30
