G04 #@! TF.GenerationSoftware,KiCad,Pcbnew,(5.99.0-10229-ge8e7d13299)*
G04 #@! TF.CreationDate,2021-06-15T20:07:50+02:00*
G04 #@! TF.ProjectId,openair2,6f70656e-6169-4723-922e-6b696361645f,rev?*
G04 #@! TF.SameCoordinates,PX3473bc0PY1312d00*
G04 #@! TF.FileFunction,Legend,Top*
G04 #@! TF.FilePolarity,Positive*
%FSLAX46Y46*%
G04 Gerber Fmt 4.6, Leading zero omitted, Abs format (unit mm)*
G04 Created by KiCad (PCBNEW (5.99.0-10229-ge8e7d13299)) date 2021-06-15 20:07:50*
%MOMM*%
%LPD*%
G01*
G04 APERTURE LIST*
%ADD10C,0.300000*%
%ADD11C,0.150000*%
%ADD12C,0.010000*%
%ADD13C,0.120000*%
%ADD14C,0.200000*%
%ADD15R,1.600000X1.600000*%
%ADD16C,1.600000*%
G04 APERTURE END LIST*
D10*
X31363571Y-36464285D02*
X31363571Y-36178571D01*
X31435000Y-36035714D01*
X31577857Y-35892857D01*
X31863571Y-35821428D01*
X32363571Y-35821428D01*
X32649285Y-35892857D01*
X32792142Y-36035714D01*
X32863571Y-36178571D01*
X32863571Y-36464285D01*
X32792142Y-36607142D01*
X32649285Y-36750000D01*
X32363571Y-36821428D01*
X31863571Y-36821428D01*
X31577857Y-36750000D01*
X31435000Y-36607142D01*
X31363571Y-36464285D01*
X31863571Y-35178571D02*
X33363571Y-35178571D01*
X31935000Y-35178571D02*
X31863571Y-35035714D01*
X31863571Y-34750000D01*
X31935000Y-34607142D01*
X32006428Y-34535714D01*
X32149285Y-34464285D01*
X32577857Y-34464285D01*
X32720714Y-34535714D01*
X32792142Y-34607142D01*
X32863571Y-34750000D01*
X32863571Y-35035714D01*
X32792142Y-35178571D01*
X32792142Y-33250000D02*
X32863571Y-33392857D01*
X32863571Y-33678571D01*
X32792142Y-33821428D01*
X32649285Y-33892857D01*
X32077857Y-33892857D01*
X31935000Y-33821428D01*
X31863571Y-33678571D01*
X31863571Y-33392857D01*
X31935000Y-33250000D01*
X32077857Y-33178571D01*
X32220714Y-33178571D01*
X32363571Y-33892857D01*
X31863571Y-32535714D02*
X32863571Y-32535714D01*
X32006428Y-32535714D02*
X31935000Y-32464285D01*
X31863571Y-32321428D01*
X31863571Y-32107142D01*
X31935000Y-31964285D01*
X32077857Y-31892857D01*
X32863571Y-31892857D01*
X32435000Y-31250000D02*
X32435000Y-30535714D01*
X32863571Y-31392857D02*
X31363571Y-30892857D01*
X32863571Y-30392857D01*
X32863571Y-29892857D02*
X31863571Y-29892857D01*
X31363571Y-29892857D02*
X31435000Y-29964285D01*
X31506428Y-29892857D01*
X31435000Y-29821428D01*
X31363571Y-29892857D01*
X31506428Y-29892857D01*
X32863571Y-29178571D02*
X31863571Y-29178571D01*
X32149285Y-29178571D02*
X32006428Y-29107142D01*
X31935000Y-29035714D01*
X31863571Y-28892857D01*
X31863571Y-28750000D01*
X32863571Y-27107142D02*
X31363571Y-27107142D01*
X32863571Y-26250000D01*
X31363571Y-26250000D01*
X32863571Y-25321428D02*
X32792142Y-25464285D01*
X32720714Y-25535714D01*
X32577857Y-25607142D01*
X32149285Y-25607142D01*
X32006428Y-25535714D01*
X31935000Y-25464285D01*
X31863571Y-25321428D01*
X31863571Y-25107142D01*
X31935000Y-24964285D01*
X32006428Y-24892857D01*
X32149285Y-24821428D01*
X32577857Y-24821428D01*
X32720714Y-24892857D01*
X32792142Y-24964285D01*
X32863571Y-25107142D01*
X32863571Y-25321428D01*
X32863571Y-23535714D02*
X31363571Y-23535714D01*
X32792142Y-23535714D02*
X32863571Y-23678571D01*
X32863571Y-23964285D01*
X32792142Y-24107142D01*
X32720714Y-24178571D01*
X32577857Y-24250000D01*
X32149285Y-24250000D01*
X32006428Y-24178571D01*
X31935000Y-24107142D01*
X31863571Y-23964285D01*
X31863571Y-23678571D01*
X31935000Y-23535714D01*
X32792142Y-22250000D02*
X32863571Y-22392857D01*
X32863571Y-22678571D01*
X32792142Y-22821428D01*
X32649285Y-22892857D01*
X32077857Y-22892857D01*
X31935000Y-22821428D01*
X31863571Y-22678571D01*
X31863571Y-22392857D01*
X31935000Y-22250000D01*
X32077857Y-22178571D01*
X32220714Y-22178571D01*
X32363571Y-22892857D01*
X31363571Y-20607142D02*
X32863571Y-20107142D01*
X31363571Y-19607142D01*
X32863571Y-18321428D02*
X32863571Y-19178571D01*
X32863571Y-18750000D02*
X31363571Y-18750000D01*
X31577857Y-18892857D01*
X31720714Y-19035714D01*
X31792142Y-19178571D01*
X32720714Y-17678571D02*
X32792142Y-17607142D01*
X32863571Y-17678571D01*
X32792142Y-17750000D01*
X32720714Y-17678571D01*
X32863571Y-17678571D01*
X31363571Y-16250000D02*
X31363571Y-16964285D01*
X32077857Y-17035714D01*
X32006428Y-16964285D01*
X31935000Y-16821428D01*
X31935000Y-16464285D01*
X32006428Y-16321428D01*
X32077857Y-16250000D01*
X32220714Y-16178571D01*
X32577857Y-16178571D01*
X32720714Y-16250000D01*
X32792142Y-16321428D01*
X32863571Y-16464285D01*
X32863571Y-16821428D01*
X32792142Y-16964285D01*
X32720714Y-17035714D01*
D11*
X16600000Y-65161904D02*
X17057142Y-65161904D01*
X16828571Y-65961904D02*
X16828571Y-65161904D01*
X17247619Y-65161904D02*
X17780952Y-65961904D01*
X17780952Y-65161904D02*
X17247619Y-65961904D01*
X19761904Y-65961904D02*
X19495238Y-65580952D01*
X19304761Y-65961904D02*
X19304761Y-65161904D01*
X19609523Y-65161904D01*
X19685714Y-65200000D01*
X19723809Y-65238095D01*
X19761904Y-65314285D01*
X19761904Y-65428571D01*
X19723809Y-65504761D01*
X19685714Y-65542857D01*
X19609523Y-65580952D01*
X19304761Y-65580952D01*
X20028571Y-65161904D02*
X20561904Y-65961904D01*
X20561904Y-65161904D02*
X20028571Y-65961904D01*
X21895238Y-65200000D02*
X21819047Y-65161904D01*
X21704761Y-65161904D01*
X21590476Y-65200000D01*
X21514285Y-65276190D01*
X21476190Y-65352380D01*
X21438095Y-65504761D01*
X21438095Y-65619047D01*
X21476190Y-65771428D01*
X21514285Y-65847619D01*
X21590476Y-65923809D01*
X21704761Y-65961904D01*
X21780952Y-65961904D01*
X21895238Y-65923809D01*
X21933333Y-65885714D01*
X21933333Y-65619047D01*
X21780952Y-65619047D01*
X22276190Y-65961904D02*
X22276190Y-65161904D01*
X22733333Y-65961904D01*
X22733333Y-65161904D01*
X23114285Y-65961904D02*
X23114285Y-65161904D01*
X23304761Y-65161904D01*
X23419047Y-65200000D01*
X23495238Y-65276190D01*
X23533333Y-65352380D01*
X23571428Y-65504761D01*
X23571428Y-65619047D01*
X23533333Y-65771428D01*
X23495238Y-65847619D01*
X23419047Y-65923809D01*
X23304761Y-65961904D01*
X23114285Y-65961904D01*
X27342857Y-65161904D02*
X26961904Y-65161904D01*
X26923809Y-65542857D01*
X26961904Y-65504761D01*
X27038095Y-65466666D01*
X27228571Y-65466666D01*
X27304761Y-65504761D01*
X27342857Y-65542857D01*
X27380952Y-65619047D01*
X27380952Y-65809523D01*
X27342857Y-65885714D01*
X27304761Y-65923809D01*
X27228571Y-65961904D01*
X27038095Y-65961904D01*
X26961904Y-65923809D01*
X26923809Y-65885714D01*
X27609523Y-65161904D02*
X27876190Y-65961904D01*
X28142857Y-65161904D01*
X31380952Y-65161904D02*
X31876190Y-65161904D01*
X31609523Y-65466666D01*
X31723809Y-65466666D01*
X31800000Y-65504761D01*
X31838095Y-65542857D01*
X31876190Y-65619047D01*
X31876190Y-65809523D01*
X31838095Y-65885714D01*
X31800000Y-65923809D01*
X31723809Y-65961904D01*
X31495238Y-65961904D01*
X31419047Y-65923809D01*
X31380952Y-65885714D01*
X32104761Y-65161904D02*
X32371428Y-65961904D01*
X32638095Y-65161904D01*
X32828571Y-65161904D02*
X33323809Y-65161904D01*
X33057142Y-65466666D01*
X33171428Y-65466666D01*
X33247619Y-65504761D01*
X33285714Y-65542857D01*
X33323809Y-65619047D01*
X33323809Y-65809523D01*
X33285714Y-65885714D01*
X33247619Y-65923809D01*
X33171428Y-65961904D01*
X32942857Y-65961904D01*
X32866666Y-65923809D01*
X32828571Y-65885714D01*
X1866666Y-40685714D02*
X1828571Y-40723809D01*
X1714285Y-40761904D01*
X1638095Y-40761904D01*
X1523809Y-40723809D01*
X1447619Y-40647619D01*
X1409523Y-40571428D01*
X1371428Y-40419047D01*
X1371428Y-40304761D01*
X1409523Y-40152380D01*
X1447619Y-40076190D01*
X1523809Y-40000000D01*
X1638095Y-39961904D01*
X1714285Y-39961904D01*
X1828571Y-40000000D01*
X1866666Y-40038095D01*
X2628571Y-40761904D02*
X2171428Y-40761904D01*
X2400000Y-40761904D02*
X2400000Y-39961904D01*
X2323809Y-40076190D01*
X2247619Y-40152380D01*
X2171428Y-40190476D01*
X20585714Y-1461904D02*
X20319047Y-1080952D01*
X20128571Y-1461904D02*
X20128571Y-661904D01*
X20433333Y-661904D01*
X20509523Y-700000D01*
X20547619Y-738095D01*
X20585714Y-814285D01*
X20585714Y-928571D01*
X20547619Y-1004761D01*
X20509523Y-1042857D01*
X20433333Y-1080952D01*
X20128571Y-1080952D01*
X21347619Y-1461904D02*
X20890476Y-1461904D01*
X21119047Y-1461904D02*
X21119047Y-661904D01*
X21042857Y-776190D01*
X20966666Y-852380D01*
X20890476Y-890476D01*
X21614285Y-661904D02*
X22109523Y-661904D01*
X21842857Y-966666D01*
X21957142Y-966666D01*
X22033333Y-1004761D01*
X22071428Y-1042857D01*
X22109523Y-1119047D01*
X22109523Y-1309523D01*
X22071428Y-1385714D01*
X22033333Y-1423809D01*
X21957142Y-1461904D01*
X21728571Y-1461904D01*
X21652380Y-1423809D01*
X21614285Y-1385714D01*
X13561904Y-2014285D02*
X13180952Y-2280952D01*
X13561904Y-2471428D02*
X12761904Y-2471428D01*
X12761904Y-2166666D01*
X12800000Y-2090476D01*
X12838095Y-2052380D01*
X12914285Y-2014285D01*
X13028571Y-2014285D01*
X13104761Y-2052380D01*
X13142857Y-2090476D01*
X13180952Y-2166666D01*
X13180952Y-2471428D01*
X13561904Y-1252380D02*
X13561904Y-1709523D01*
X13561904Y-1480952D02*
X12761904Y-1480952D01*
X12876190Y-1557142D01*
X12952380Y-1633333D01*
X12990476Y-1709523D01*
X13028571Y-566666D02*
X13561904Y-566666D01*
X12723809Y-757142D02*
X13295238Y-947619D01*
X13295238Y-452380D01*
X18161904Y-3609523D02*
X18161904Y-3152380D01*
X18961904Y-3380952D02*
X18161904Y-3380952D01*
X18238095Y-2923809D02*
X18200000Y-2885714D01*
X18161904Y-2809523D01*
X18161904Y-2619047D01*
X18200000Y-2542857D01*
X18238095Y-2504761D01*
X18314285Y-2466666D01*
X18390476Y-2466666D01*
X18504761Y-2504761D01*
X18961904Y-2961904D01*
X18961904Y-2466666D01*
X14661904Y-3609523D02*
X14661904Y-3152380D01*
X15461904Y-3380952D02*
X14661904Y-3380952D01*
X14661904Y-2961904D02*
X14661904Y-2466666D01*
X14966666Y-2733333D01*
X14966666Y-2619047D01*
X15004761Y-2542857D01*
X15042857Y-2504761D01*
X15119047Y-2466666D01*
X15309523Y-2466666D01*
X15385714Y-2504761D01*
X15423809Y-2542857D01*
X15461904Y-2619047D01*
X15461904Y-2847619D01*
X15423809Y-2923809D01*
X15385714Y-2961904D01*
X16285714Y-6461904D02*
X16019047Y-6080952D01*
X15828571Y-6461904D02*
X15828571Y-5661904D01*
X16133333Y-5661904D01*
X16209523Y-5700000D01*
X16247619Y-5738095D01*
X16285714Y-5814285D01*
X16285714Y-5928571D01*
X16247619Y-6004761D01*
X16209523Y-6042857D01*
X16133333Y-6080952D01*
X15828571Y-6080952D01*
X17047619Y-6461904D02*
X16590476Y-6461904D01*
X16819047Y-6461904D02*
X16819047Y-5661904D01*
X16742857Y-5776190D01*
X16666666Y-5852380D01*
X16590476Y-5890476D01*
X17771428Y-5661904D02*
X17390476Y-5661904D01*
X17352380Y-6042857D01*
X17390476Y-6004761D01*
X17466666Y-5966666D01*
X17657142Y-5966666D01*
X17733333Y-6004761D01*
X17771428Y-6042857D01*
X17809523Y-6119047D01*
X17809523Y-6309523D01*
X17771428Y-6385714D01*
X17733333Y-6423809D01*
X17657142Y-6461904D01*
X17466666Y-6461904D01*
X17390476Y-6423809D01*
X17352380Y-6385714D01*
X13135714Y-6461904D02*
X12869047Y-6080952D01*
X12678571Y-6461904D02*
X12678571Y-5661904D01*
X12983333Y-5661904D01*
X13059523Y-5700000D01*
X13097619Y-5738095D01*
X13135714Y-5814285D01*
X13135714Y-5928571D01*
X13097619Y-6004761D01*
X13059523Y-6042857D01*
X12983333Y-6080952D01*
X12678571Y-6080952D01*
X13897619Y-6461904D02*
X13440476Y-6461904D01*
X13669047Y-6461904D02*
X13669047Y-5661904D01*
X13592857Y-5776190D01*
X13516666Y-5852380D01*
X13440476Y-5890476D01*
X14583333Y-5661904D02*
X14430952Y-5661904D01*
X14354761Y-5700000D01*
X14316666Y-5738095D01*
X14240476Y-5852380D01*
X14202380Y-6004761D01*
X14202380Y-6309523D01*
X14240476Y-6385714D01*
X14278571Y-6423809D01*
X14354761Y-6461904D01*
X14507142Y-6461904D01*
X14583333Y-6423809D01*
X14621428Y-6385714D01*
X14659523Y-6309523D01*
X14659523Y-6119047D01*
X14621428Y-6042857D01*
X14583333Y-6004761D01*
X14507142Y-5966666D01*
X14354761Y-5966666D01*
X14278571Y-6004761D01*
X14240476Y-6042857D01*
X14202380Y-6119047D01*
X19604761Y-6561904D02*
X19223809Y-6561904D01*
X19223809Y-5761904D01*
X19871428Y-6142857D02*
X20138095Y-6142857D01*
X20252380Y-6561904D02*
X19871428Y-6561904D01*
X19871428Y-5761904D01*
X20252380Y-5761904D01*
X20595238Y-6561904D02*
X20595238Y-5761904D01*
X20785714Y-5761904D01*
X20900000Y-5800000D01*
X20976190Y-5876190D01*
X21014285Y-5952380D01*
X21052380Y-6104761D01*
X21052380Y-6219047D01*
X21014285Y-6371428D01*
X20976190Y-6447619D01*
X20900000Y-6523809D01*
X20785714Y-6561904D01*
X20595238Y-6561904D01*
X21814285Y-6561904D02*
X21357142Y-6561904D01*
X21585714Y-6561904D02*
X21585714Y-5761904D01*
X21509523Y-5876190D01*
X21433333Y-5952380D01*
X21357142Y-5990476D01*
X19185714Y-13761904D02*
X18919047Y-13380952D01*
X18728571Y-13761904D02*
X18728571Y-12961904D01*
X19033333Y-12961904D01*
X19109523Y-13000000D01*
X19147619Y-13038095D01*
X19185714Y-13114285D01*
X19185714Y-13228571D01*
X19147619Y-13304761D01*
X19109523Y-13342857D01*
X19033333Y-13380952D01*
X18728571Y-13380952D01*
X19947619Y-13761904D02*
X19490476Y-13761904D01*
X19719047Y-13761904D02*
X19719047Y-12961904D01*
X19642857Y-13076190D01*
X19566666Y-13152380D01*
X19490476Y-13190476D01*
X20214285Y-12961904D02*
X20747619Y-12961904D01*
X20404761Y-13761904D01*
X19385714Y-15561904D02*
X19119047Y-15180952D01*
X18928571Y-15561904D02*
X18928571Y-14761904D01*
X19233333Y-14761904D01*
X19309523Y-14800000D01*
X19347619Y-14838095D01*
X19385714Y-14914285D01*
X19385714Y-15028571D01*
X19347619Y-15104761D01*
X19309523Y-15142857D01*
X19233333Y-15180952D01*
X18928571Y-15180952D01*
X20147619Y-15561904D02*
X19690476Y-15561904D01*
X19919047Y-15561904D02*
X19919047Y-14761904D01*
X19842857Y-14876190D01*
X19766666Y-14952380D01*
X19690476Y-14990476D01*
X20604761Y-15104761D02*
X20528571Y-15066666D01*
X20490476Y-15028571D01*
X20452380Y-14952380D01*
X20452380Y-14914285D01*
X20490476Y-14838095D01*
X20528571Y-14800000D01*
X20604761Y-14761904D01*
X20757142Y-14761904D01*
X20833333Y-14800000D01*
X20871428Y-14838095D01*
X20909523Y-14914285D01*
X20909523Y-14952380D01*
X20871428Y-15028571D01*
X20833333Y-15066666D01*
X20757142Y-15104761D01*
X20604761Y-15104761D01*
X20528571Y-15142857D01*
X20490476Y-15180952D01*
X20452380Y-15257142D01*
X20452380Y-15409523D01*
X20490476Y-15485714D01*
X20528571Y-15523809D01*
X20604761Y-15561904D01*
X20757142Y-15561904D01*
X20833333Y-15523809D01*
X20871428Y-15485714D01*
X20909523Y-15409523D01*
X20909523Y-15257142D01*
X20871428Y-15180952D01*
X20833333Y-15142857D01*
X20757142Y-15104761D01*
X17119047Y-38761904D02*
X17119047Y-37961904D01*
X17957142Y-38685714D02*
X17919047Y-38723809D01*
X17804761Y-38761904D01*
X17728571Y-38761904D01*
X17614285Y-38723809D01*
X17538095Y-38647619D01*
X17500000Y-38571428D01*
X17461904Y-38419047D01*
X17461904Y-38304761D01*
X17500000Y-38152380D01*
X17538095Y-38076190D01*
X17614285Y-38000000D01*
X17728571Y-37961904D01*
X17804761Y-37961904D01*
X17919047Y-38000000D01*
X17957142Y-38038095D01*
X18719047Y-38761904D02*
X18261904Y-38761904D01*
X18490476Y-38761904D02*
X18490476Y-37961904D01*
X18414285Y-38076190D01*
X18338095Y-38152380D01*
X18261904Y-38190476D01*
X19666666Y-12561904D02*
X19400000Y-12180952D01*
X19209523Y-12561904D02*
X19209523Y-11761904D01*
X19514285Y-11761904D01*
X19590476Y-11800000D01*
X19628571Y-11838095D01*
X19666666Y-11914285D01*
X19666666Y-12028571D01*
X19628571Y-12104761D01*
X19590476Y-12142857D01*
X19514285Y-12180952D01*
X19209523Y-12180952D01*
X20428571Y-12561904D02*
X19971428Y-12561904D01*
X20200000Y-12561904D02*
X20200000Y-11761904D01*
X20123809Y-11876190D01*
X20047619Y-11952380D01*
X19971428Y-11990476D01*
X6566666Y-64785714D02*
X6528571Y-64823809D01*
X6414285Y-64861904D01*
X6338095Y-64861904D01*
X6223809Y-64823809D01*
X6147619Y-64747619D01*
X6109523Y-64671428D01*
X6071428Y-64519047D01*
X6071428Y-64404761D01*
X6109523Y-64252380D01*
X6147619Y-64176190D01*
X6223809Y-64100000D01*
X6338095Y-64061904D01*
X6414285Y-64061904D01*
X6528571Y-64100000D01*
X6566666Y-64138095D01*
X7290476Y-64061904D02*
X6909523Y-64061904D01*
X6871428Y-64442857D01*
X6909523Y-64404761D01*
X6985714Y-64366666D01*
X7176190Y-64366666D01*
X7252380Y-64404761D01*
X7290476Y-64442857D01*
X7328571Y-64519047D01*
X7328571Y-64709523D01*
X7290476Y-64785714D01*
X7252380Y-64823809D01*
X7176190Y-64861904D01*
X6985714Y-64861904D01*
X6909523Y-64823809D01*
X6871428Y-64785714D01*
X26719047Y-41561904D02*
X26719047Y-40761904D01*
X27557142Y-41485714D02*
X27519047Y-41523809D01*
X27404761Y-41561904D01*
X27328571Y-41561904D01*
X27214285Y-41523809D01*
X27138095Y-41447619D01*
X27100000Y-41371428D01*
X27061904Y-41219047D01*
X27061904Y-41104761D01*
X27100000Y-40952380D01*
X27138095Y-40876190D01*
X27214285Y-40800000D01*
X27328571Y-40761904D01*
X27404761Y-40761904D01*
X27519047Y-40800000D01*
X27557142Y-40838095D01*
X28280952Y-40761904D02*
X27900000Y-40761904D01*
X27861904Y-41142857D01*
X27900000Y-41104761D01*
X27976190Y-41066666D01*
X28166666Y-41066666D01*
X28242857Y-41104761D01*
X28280952Y-41142857D01*
X28319047Y-41219047D01*
X28319047Y-41409523D01*
X28280952Y-41485714D01*
X28242857Y-41523809D01*
X28166666Y-41561904D01*
X27976190Y-41561904D01*
X27900000Y-41523809D01*
X27861904Y-41485714D01*
X19285714Y-43261904D02*
X19019047Y-42880952D01*
X18828571Y-43261904D02*
X18828571Y-42461904D01*
X19133333Y-42461904D01*
X19209523Y-42500000D01*
X19247619Y-42538095D01*
X19285714Y-42614285D01*
X19285714Y-42728571D01*
X19247619Y-42804761D01*
X19209523Y-42842857D01*
X19133333Y-42880952D01*
X18828571Y-42880952D01*
X19590476Y-42538095D02*
X19628571Y-42500000D01*
X19704761Y-42461904D01*
X19895238Y-42461904D01*
X19971428Y-42500000D01*
X20009523Y-42538095D01*
X20047619Y-42614285D01*
X20047619Y-42690476D01*
X20009523Y-42804761D01*
X19552380Y-43261904D01*
X20047619Y-43261904D01*
X20733333Y-42461904D02*
X20580952Y-42461904D01*
X20504761Y-42500000D01*
X20466666Y-42538095D01*
X20390476Y-42652380D01*
X20352380Y-42804761D01*
X20352380Y-43109523D01*
X20390476Y-43185714D01*
X20428571Y-43223809D01*
X20504761Y-43261904D01*
X20657142Y-43261904D01*
X20733333Y-43223809D01*
X20771428Y-43185714D01*
X20809523Y-43109523D01*
X20809523Y-42919047D01*
X20771428Y-42842857D01*
X20733333Y-42804761D01*
X20657142Y-42766666D01*
X20504761Y-42766666D01*
X20428571Y-42804761D01*
X20390476Y-42842857D01*
X20352380Y-42919047D01*
X19385714Y-40061904D02*
X19119047Y-39680952D01*
X18928571Y-40061904D02*
X18928571Y-39261904D01*
X19233333Y-39261904D01*
X19309523Y-39300000D01*
X19347619Y-39338095D01*
X19385714Y-39414285D01*
X19385714Y-39528571D01*
X19347619Y-39604761D01*
X19309523Y-39642857D01*
X19233333Y-39680952D01*
X18928571Y-39680952D01*
X19690476Y-39338095D02*
X19728571Y-39300000D01*
X19804761Y-39261904D01*
X19995238Y-39261904D01*
X20071428Y-39300000D01*
X20109523Y-39338095D01*
X20147619Y-39414285D01*
X20147619Y-39490476D01*
X20109523Y-39604761D01*
X19652380Y-40061904D01*
X20147619Y-40061904D01*
X20414285Y-39261904D02*
X20947619Y-39261904D01*
X20604761Y-40061904D01*
X27285714Y-38285714D02*
X27247619Y-38323809D01*
X27133333Y-38361904D01*
X27057142Y-38361904D01*
X26942857Y-38323809D01*
X26866666Y-38247619D01*
X26828571Y-38171428D01*
X26790476Y-38019047D01*
X26790476Y-37904761D01*
X26828571Y-37752380D01*
X26866666Y-37676190D01*
X26942857Y-37600000D01*
X27057142Y-37561904D01*
X27133333Y-37561904D01*
X27247619Y-37600000D01*
X27285714Y-37638095D01*
X28047619Y-38361904D02*
X27590476Y-38361904D01*
X27819047Y-38361904D02*
X27819047Y-37561904D01*
X27742857Y-37676190D01*
X27666666Y-37752380D01*
X27590476Y-37790476D01*
X28314285Y-37561904D02*
X28809523Y-37561904D01*
X28542857Y-37866666D01*
X28657142Y-37866666D01*
X28733333Y-37904761D01*
X28771428Y-37942857D01*
X28809523Y-38019047D01*
X28809523Y-38209523D01*
X28771428Y-38285714D01*
X28733333Y-38323809D01*
X28657142Y-38361904D01*
X28428571Y-38361904D01*
X28352380Y-38323809D01*
X28314285Y-38285714D01*
X33561904Y-11390476D02*
X33561904Y-10895238D01*
X33866666Y-11161904D01*
X33866666Y-11047619D01*
X33904761Y-10971428D01*
X33942857Y-10933333D01*
X34019047Y-10895238D01*
X34209523Y-10895238D01*
X34285714Y-10933333D01*
X34323809Y-10971428D01*
X34361904Y-11047619D01*
X34361904Y-11276190D01*
X34323809Y-11352380D01*
X34285714Y-11390476D01*
X33561904Y-10666666D02*
X34361904Y-10400000D01*
X33561904Y-10133333D01*
X33561904Y-9942857D02*
X33561904Y-9447619D01*
X33866666Y-9714285D01*
X33866666Y-9600000D01*
X33904761Y-9523809D01*
X33942857Y-9485714D01*
X34019047Y-9447619D01*
X34209523Y-9447619D01*
X34285714Y-9485714D01*
X34323809Y-9523809D01*
X34361904Y-9600000D01*
X34361904Y-9828571D01*
X34323809Y-9904761D01*
X34285714Y-9942857D01*
X27290476Y-7300000D02*
X27214285Y-7261904D01*
X27100000Y-7261904D01*
X26985714Y-7300000D01*
X26909523Y-7376190D01*
X26871428Y-7452380D01*
X26833333Y-7604761D01*
X26833333Y-7719047D01*
X26871428Y-7871428D01*
X26909523Y-7947619D01*
X26985714Y-8023809D01*
X27100000Y-8061904D01*
X27176190Y-8061904D01*
X27290476Y-8023809D01*
X27328571Y-7985714D01*
X27328571Y-7719047D01*
X27176190Y-7719047D01*
X27671428Y-8061904D02*
X27671428Y-7261904D01*
X28128571Y-8061904D01*
X28128571Y-7261904D01*
X28509523Y-8061904D02*
X28509523Y-7261904D01*
X28700000Y-7261904D01*
X28814285Y-7300000D01*
X28890476Y-7376190D01*
X28928571Y-7452380D01*
X28966666Y-7604761D01*
X28966666Y-7719047D01*
X28928571Y-7871428D01*
X28890476Y-7947619D01*
X28814285Y-8023809D01*
X28700000Y-8061904D01*
X28509523Y-8061904D01*
X9790476Y-13661904D02*
X10247619Y-13661904D01*
X10019047Y-14461904D02*
X10019047Y-13661904D01*
X10438095Y-13661904D02*
X10971428Y-14461904D01*
X10971428Y-13661904D02*
X10438095Y-14461904D01*
X11276190Y-14461904D02*
X11276190Y-13661904D01*
X11466666Y-13661904D01*
X11580952Y-13700000D01*
X11657142Y-13776190D01*
X11695238Y-13852380D01*
X11733333Y-14004761D01*
X11733333Y-14119047D01*
X11695238Y-14271428D01*
X11657142Y-14347619D01*
X11580952Y-14423809D01*
X11466666Y-14461904D01*
X11276190Y-14461904D01*
X9414285Y-11336000D02*
X10214285Y-11336000D01*
X10061904Y-12361904D02*
X9795238Y-11980952D01*
X9604761Y-12361904D02*
X9604761Y-11561904D01*
X9909523Y-11561904D01*
X9985714Y-11600000D01*
X10023809Y-11638095D01*
X10061904Y-11714285D01*
X10061904Y-11828571D01*
X10023809Y-11904761D01*
X9985714Y-11942857D01*
X9909523Y-11980952D01*
X9604761Y-11980952D01*
X10214285Y-11336000D02*
X10823809Y-11336000D01*
X10290476Y-11561904D02*
X10747619Y-11561904D01*
X10519047Y-12361904D02*
X10519047Y-11561904D01*
X10823809Y-11336000D02*
X11585714Y-11336000D01*
X10976190Y-12323809D02*
X11090476Y-12361904D01*
X11280952Y-12361904D01*
X11357142Y-12323809D01*
X11395238Y-12285714D01*
X11433333Y-12209523D01*
X11433333Y-12133333D01*
X11395238Y-12057142D01*
X11357142Y-12019047D01*
X11280952Y-11980952D01*
X11128571Y-11942857D01*
X11052380Y-11904761D01*
X11014285Y-11866666D01*
X10976190Y-11790476D01*
X10976190Y-11714285D01*
X11014285Y-11638095D01*
X11052380Y-11600000D01*
X11128571Y-11561904D01*
X11319047Y-11561904D01*
X11433333Y-11600000D01*
X2666666Y-17161904D02*
X2400000Y-16780952D01*
X2209523Y-17161904D02*
X2209523Y-16361904D01*
X2514285Y-16361904D01*
X2590476Y-16400000D01*
X2628571Y-16438095D01*
X2666666Y-16514285D01*
X2666666Y-16628571D01*
X2628571Y-16704761D01*
X2590476Y-16742857D01*
X2514285Y-16780952D01*
X2209523Y-16780952D01*
X2933333Y-16361904D02*
X3466666Y-17161904D01*
X3466666Y-16361904D02*
X2933333Y-17161904D01*
X3771428Y-17161904D02*
X3771428Y-16361904D01*
X3961904Y-16361904D01*
X4076190Y-16400000D01*
X4152380Y-16476190D01*
X4190476Y-16552380D01*
X4228571Y-16704761D01*
X4228571Y-16819047D01*
X4190476Y-16971428D01*
X4152380Y-17047619D01*
X4076190Y-17123809D01*
X3961904Y-17161904D01*
X3771428Y-17161904D01*
X10195238Y-6636000D02*
X10995238Y-6636000D01*
X10385714Y-7661904D02*
X10385714Y-6861904D01*
X10576190Y-6861904D01*
X10690476Y-6900000D01*
X10766666Y-6976190D01*
X10804761Y-7052380D01*
X10842857Y-7204761D01*
X10842857Y-7319047D01*
X10804761Y-7471428D01*
X10766666Y-7547619D01*
X10690476Y-7623809D01*
X10576190Y-7661904D01*
X10385714Y-7661904D01*
X10995238Y-6636000D02*
X11604761Y-6636000D01*
X11071428Y-6861904D02*
X11528571Y-6861904D01*
X11300000Y-7661904D02*
X11300000Y-6861904D01*
X11604761Y-6636000D02*
X12404761Y-6636000D01*
X12252380Y-7661904D02*
X11985714Y-7280952D01*
X11795238Y-7661904D02*
X11795238Y-6861904D01*
X12100000Y-6861904D01*
X12176190Y-6900000D01*
X12214285Y-6938095D01*
X12252380Y-7014285D01*
X12252380Y-7128571D01*
X12214285Y-7204761D01*
X12176190Y-7242857D01*
X12100000Y-7280952D01*
X11795238Y-7280952D01*
X17761904Y-46680952D02*
X16961904Y-46680952D01*
X17685714Y-45842857D02*
X17723809Y-45880952D01*
X17761904Y-45995238D01*
X17761904Y-46071428D01*
X17723809Y-46185714D01*
X17647619Y-46261904D01*
X17571428Y-46300000D01*
X17419047Y-46338095D01*
X17304761Y-46338095D01*
X17152380Y-46300000D01*
X17076190Y-46261904D01*
X17000000Y-46185714D01*
X16961904Y-46071428D01*
X16961904Y-45995238D01*
X17000000Y-45880952D01*
X17038095Y-45842857D01*
X16961904Y-45157142D02*
X16961904Y-45309523D01*
X17000000Y-45385714D01*
X17038095Y-45423809D01*
X17152380Y-45500000D01*
X17304761Y-45538095D01*
X17609523Y-45538095D01*
X17685714Y-45500000D01*
X17723809Y-45461904D01*
X17761904Y-45385714D01*
X17761904Y-45233333D01*
X17723809Y-45157142D01*
X17685714Y-45119047D01*
X17609523Y-45080952D01*
X17419047Y-45080952D01*
X17342857Y-45119047D01*
X17304761Y-45157142D01*
X17266666Y-45233333D01*
X17266666Y-45385714D01*
X17304761Y-45461904D01*
X17342857Y-45500000D01*
X17419047Y-45538095D01*
X13438095Y-12511904D02*
X13171428Y-12130952D01*
X12980952Y-12511904D02*
X12980952Y-11711904D01*
X13285714Y-11711904D01*
X13361904Y-11750000D01*
X13400000Y-11788095D01*
X13438095Y-11864285D01*
X13438095Y-11978571D01*
X13400000Y-12054761D01*
X13361904Y-12092857D01*
X13285714Y-12130952D01*
X12980952Y-12130952D01*
X13780952Y-12092857D02*
X14047619Y-12092857D01*
X14161904Y-12511904D02*
X13780952Y-12511904D01*
X13780952Y-11711904D01*
X14161904Y-11711904D01*
X14466666Y-12473809D02*
X14580952Y-12511904D01*
X14771428Y-12511904D01*
X14847619Y-12473809D01*
X14885714Y-12435714D01*
X14923809Y-12359523D01*
X14923809Y-12283333D01*
X14885714Y-12207142D01*
X14847619Y-12169047D01*
X14771428Y-12130952D01*
X14619047Y-12092857D01*
X14542857Y-12054761D01*
X14504761Y-12016666D01*
X14466666Y-11940476D01*
X14466666Y-11864285D01*
X14504761Y-11788095D01*
X14542857Y-11750000D01*
X14619047Y-11711904D01*
X14809523Y-11711904D01*
X14923809Y-11750000D01*
X15266666Y-12092857D02*
X15533333Y-12092857D01*
X15647619Y-12511904D02*
X15266666Y-12511904D01*
X15266666Y-11711904D01*
X15647619Y-11711904D01*
X15876190Y-11711904D02*
X16333333Y-11711904D01*
X16104761Y-12511904D02*
X16104761Y-11711904D01*
X13228571Y-15961904D02*
X13228571Y-16609523D01*
X13266666Y-16685714D01*
X13304761Y-16723809D01*
X13380952Y-16761904D01*
X13533333Y-16761904D01*
X13609523Y-16723809D01*
X13647619Y-16685714D01*
X13685714Y-16609523D01*
X13685714Y-15961904D01*
X14028571Y-16723809D02*
X14142857Y-16761904D01*
X14333333Y-16761904D01*
X14409523Y-16723809D01*
X14447619Y-16685714D01*
X14485714Y-16609523D01*
X14485714Y-16533333D01*
X14447619Y-16457142D01*
X14409523Y-16419047D01*
X14333333Y-16380952D01*
X14180952Y-16342857D01*
X14104761Y-16304761D01*
X14066666Y-16266666D01*
X14028571Y-16190476D01*
X14028571Y-16114285D01*
X14066666Y-16038095D01*
X14104761Y-16000000D01*
X14180952Y-15961904D01*
X14371428Y-15961904D01*
X14485714Y-16000000D01*
X14828571Y-16342857D02*
X15095238Y-16342857D01*
X15209523Y-16761904D02*
X14828571Y-16761904D01*
X14828571Y-15961904D01*
X15209523Y-15961904D01*
X16009523Y-16761904D02*
X15742857Y-16380952D01*
X15552380Y-16761904D02*
X15552380Y-15961904D01*
X15857142Y-15961904D01*
X15933333Y-16000000D01*
X15971428Y-16038095D01*
X16009523Y-16114285D01*
X16009523Y-16228571D01*
X15971428Y-16304761D01*
X15933333Y-16342857D01*
X15857142Y-16380952D01*
X15552380Y-16380952D01*
X19761904Y-52066666D02*
X18961904Y-52066666D01*
X19533333Y-51800000D01*
X18961904Y-51533333D01*
X19761904Y-51533333D01*
X18961904Y-51000000D02*
X18961904Y-50847619D01*
X19000000Y-50771428D01*
X19076190Y-50695238D01*
X19228571Y-50657142D01*
X19495238Y-50657142D01*
X19647619Y-50695238D01*
X19723809Y-50771428D01*
X19761904Y-50847619D01*
X19761904Y-51000000D01*
X19723809Y-51076190D01*
X19647619Y-51152380D01*
X19495238Y-51190476D01*
X19228571Y-51190476D01*
X19076190Y-51152380D01*
X19000000Y-51076190D01*
X18961904Y-51000000D01*
X19761904Y-50314285D02*
X18961904Y-50314285D01*
X18961904Y-50123809D01*
X19000000Y-50009523D01*
X19076190Y-49933333D01*
X19152380Y-49895238D01*
X19304761Y-49857142D01*
X19419047Y-49857142D01*
X19571428Y-49895238D01*
X19647619Y-49933333D01*
X19723809Y-50009523D01*
X19761904Y-50123809D01*
X19761904Y-50314285D01*
X19761904Y-49095238D02*
X19761904Y-49552380D01*
X19761904Y-49323809D02*
X18961904Y-49323809D01*
X19076190Y-49400000D01*
X19152380Y-49476190D01*
X19190476Y-49552380D01*
X28561904Y-52066666D02*
X27761904Y-52066666D01*
X28333333Y-51800000D01*
X27761904Y-51533333D01*
X28561904Y-51533333D01*
X27761904Y-51000000D02*
X27761904Y-50847619D01*
X27800000Y-50771428D01*
X27876190Y-50695238D01*
X28028571Y-50657142D01*
X28295238Y-50657142D01*
X28447619Y-50695238D01*
X28523809Y-50771428D01*
X28561904Y-50847619D01*
X28561904Y-51000000D01*
X28523809Y-51076190D01*
X28447619Y-51152380D01*
X28295238Y-51190476D01*
X28028571Y-51190476D01*
X27876190Y-51152380D01*
X27800000Y-51076190D01*
X27761904Y-51000000D01*
X28561904Y-50314285D02*
X27761904Y-50314285D01*
X27761904Y-50123809D01*
X27800000Y-50009523D01*
X27876190Y-49933333D01*
X27952380Y-49895238D01*
X28104761Y-49857142D01*
X28219047Y-49857142D01*
X28371428Y-49895238D01*
X28447619Y-49933333D01*
X28523809Y-50009523D01*
X28561904Y-50123809D01*
X28561904Y-50314285D01*
X27838095Y-49552380D02*
X27800000Y-49514285D01*
X27761904Y-49438095D01*
X27761904Y-49247619D01*
X27800000Y-49171428D01*
X27838095Y-49133333D01*
X27914285Y-49095238D01*
X27990476Y-49095238D01*
X28104761Y-49133333D01*
X28561904Y-49590476D01*
X28561904Y-49095238D01*
X23409523Y-57661904D02*
X23409523Y-56861904D01*
X23600000Y-56861904D01*
X23714285Y-56900000D01*
X23790476Y-56976190D01*
X23828571Y-57052380D01*
X23866666Y-57204761D01*
X23866666Y-57319047D01*
X23828571Y-57471428D01*
X23790476Y-57547619D01*
X23714285Y-57623809D01*
X23600000Y-57661904D01*
X23409523Y-57661904D01*
X24628571Y-57661904D02*
X24171428Y-57661904D01*
X24400000Y-57661904D02*
X24400000Y-56861904D01*
X24323809Y-56976190D01*
X24247619Y-57052380D01*
X24171428Y-57090476D01*
X26752380Y-56342857D02*
X26485714Y-56342857D01*
X26485714Y-56761904D02*
X26485714Y-55961904D01*
X26866666Y-55961904D01*
X27133333Y-56533333D02*
X27514285Y-56533333D01*
X27057142Y-56761904D02*
X27323809Y-55961904D01*
X27590476Y-56761904D01*
X27857142Y-56761904D02*
X27857142Y-55961904D01*
X28314285Y-56761904D01*
X28314285Y-55961904D01*
X20961904Y-57633333D02*
X20580952Y-57900000D01*
X20961904Y-58090476D02*
X20161904Y-58090476D01*
X20161904Y-57785714D01*
X20200000Y-57709523D01*
X20238095Y-57671428D01*
X20314285Y-57633333D01*
X20428571Y-57633333D01*
X20504761Y-57671428D01*
X20542857Y-57709523D01*
X20580952Y-57785714D01*
X20580952Y-58090476D01*
X20238095Y-57328571D02*
X20200000Y-57290476D01*
X20161904Y-57214285D01*
X20161904Y-57023809D01*
X20200000Y-56947619D01*
X20238095Y-56909523D01*
X20314285Y-56871428D01*
X20390476Y-56871428D01*
X20504761Y-56909523D01*
X20961904Y-57366666D01*
X20961904Y-56871428D01*
X17861904Y-62533333D02*
X17480952Y-62800000D01*
X17861904Y-62990476D02*
X17061904Y-62990476D01*
X17061904Y-62685714D01*
X17100000Y-62609523D01*
X17138095Y-62571428D01*
X17214285Y-62533333D01*
X17328571Y-62533333D01*
X17404761Y-62571428D01*
X17442857Y-62609523D01*
X17480952Y-62685714D01*
X17480952Y-62990476D01*
X17061904Y-62266666D02*
X17061904Y-61771428D01*
X17366666Y-62038095D01*
X17366666Y-61923809D01*
X17404761Y-61847619D01*
X17442857Y-61809523D01*
X17519047Y-61771428D01*
X17709523Y-61771428D01*
X17785714Y-61809523D01*
X17823809Y-61847619D01*
X17861904Y-61923809D01*
X17861904Y-62152380D01*
X17823809Y-62228571D01*
X17785714Y-62266666D01*
X1604761Y-68333333D02*
X1985714Y-68333333D01*
X1528571Y-68561904D02*
X1795238Y-67761904D01*
X2061904Y-68561904D01*
X2328571Y-68561904D02*
X2328571Y-67761904D01*
X2785714Y-68561904D01*
X2785714Y-67761904D01*
X3052380Y-67761904D02*
X3509523Y-67761904D01*
X3280952Y-68561904D02*
X3280952Y-67761904D01*
X4195238Y-68561904D02*
X3738095Y-68561904D01*
X3966666Y-68561904D02*
X3966666Y-67761904D01*
X3890476Y-67876190D01*
X3814285Y-67952380D01*
X3738095Y-67990476D01*
X2785714Y-63333333D02*
X3166666Y-63333333D01*
X2709523Y-63561904D02*
X2976190Y-62761904D01*
X3242857Y-63561904D01*
X3509523Y-63561904D02*
X3509523Y-62761904D01*
X3966666Y-63561904D01*
X3966666Y-62761904D01*
X4233333Y-62761904D02*
X4690476Y-62761904D01*
X4461904Y-63561904D02*
X4461904Y-62761904D01*
X24890476Y-63561904D02*
X24890476Y-64209523D01*
X24928571Y-64285714D01*
X24966666Y-64323809D01*
X25042857Y-64361904D01*
X25195238Y-64361904D01*
X25271428Y-64323809D01*
X25309523Y-64285714D01*
X25347619Y-64209523D01*
X25347619Y-63561904D01*
X26147619Y-64361904D02*
X25690476Y-64361904D01*
X25919047Y-64361904D02*
X25919047Y-63561904D01*
X25842857Y-63676190D01*
X25766666Y-63752380D01*
X25690476Y-63790476D01*
X3814285Y-40836000D02*
X4614285Y-40836000D01*
X4461904Y-41861904D02*
X4195238Y-41480952D01*
X4004761Y-41861904D02*
X4004761Y-41061904D01*
X4309523Y-41061904D01*
X4385714Y-41100000D01*
X4423809Y-41138095D01*
X4461904Y-41214285D01*
X4461904Y-41328571D01*
X4423809Y-41404761D01*
X4385714Y-41442857D01*
X4309523Y-41480952D01*
X4004761Y-41480952D01*
X4614285Y-40836000D02*
X5376190Y-40836000D01*
X4766666Y-41823809D02*
X4880952Y-41861904D01*
X5071428Y-41861904D01*
X5147619Y-41823809D01*
X5185714Y-41785714D01*
X5223809Y-41709523D01*
X5223809Y-41633333D01*
X5185714Y-41557142D01*
X5147619Y-41519047D01*
X5071428Y-41480952D01*
X4919047Y-41442857D01*
X4842857Y-41404761D01*
X4804761Y-41366666D01*
X4766666Y-41290476D01*
X4766666Y-41214285D01*
X4804761Y-41138095D01*
X4842857Y-41100000D01*
X4919047Y-41061904D01*
X5109523Y-41061904D01*
X5223809Y-41100000D01*
X5376190Y-40836000D02*
X5985714Y-40836000D01*
X5452380Y-41061904D02*
X5909523Y-41061904D01*
X5680952Y-41861904D02*
X5680952Y-41061904D01*
X18042857Y-15785714D02*
X18080952Y-15671428D01*
X18119047Y-15633333D01*
X18195238Y-15595238D01*
X18309523Y-15595238D01*
X18385714Y-15633333D01*
X18423809Y-15671428D01*
X18461904Y-15747619D01*
X18461904Y-16052380D01*
X17661904Y-16052380D01*
X17661904Y-15785714D01*
X17700000Y-15709523D01*
X17738095Y-15671428D01*
X17814285Y-15633333D01*
X17890476Y-15633333D01*
X17966666Y-15671428D01*
X18004761Y-15709523D01*
X18042857Y-15785714D01*
X18042857Y-16052380D01*
X17661904Y-15100000D02*
X17661904Y-14947619D01*
X17700000Y-14871428D01*
X17776190Y-14795238D01*
X17928571Y-14757142D01*
X18195238Y-14757142D01*
X18347619Y-14795238D01*
X18423809Y-14871428D01*
X18461904Y-14947619D01*
X18461904Y-15100000D01*
X18423809Y-15176190D01*
X18347619Y-15252380D01*
X18195238Y-15290476D01*
X17928571Y-15290476D01*
X17776190Y-15252380D01*
X17700000Y-15176190D01*
X17661904Y-15100000D01*
X17661904Y-14261904D02*
X17661904Y-14109523D01*
X17700000Y-14033333D01*
X17776190Y-13957142D01*
X17928571Y-13919047D01*
X18195238Y-13919047D01*
X18347619Y-13957142D01*
X18423809Y-14033333D01*
X18461904Y-14109523D01*
X18461904Y-14261904D01*
X18423809Y-14338095D01*
X18347619Y-14414285D01*
X18195238Y-14452380D01*
X17928571Y-14452380D01*
X17776190Y-14414285D01*
X17700000Y-14338095D01*
X17661904Y-14261904D01*
X17661904Y-13690476D02*
X17661904Y-13233333D01*
X18461904Y-13461904D02*
X17661904Y-13461904D01*
X34185714Y-6833333D02*
X34223809Y-6871428D01*
X34261904Y-6985714D01*
X34261904Y-7061904D01*
X34223809Y-7176190D01*
X34147619Y-7252380D01*
X34071428Y-7290476D01*
X33919047Y-7328571D01*
X33804761Y-7328571D01*
X33652380Y-7290476D01*
X33576190Y-7252380D01*
X33500000Y-7176190D01*
X33461904Y-7061904D01*
X33461904Y-6985714D01*
X33500000Y-6871428D01*
X33538095Y-6833333D01*
X33728571Y-6147619D02*
X34261904Y-6147619D01*
X33423809Y-6338095D02*
X33995238Y-6528571D01*
X33995238Y-6033333D01*
X22185714Y-64285714D02*
X22147619Y-64323809D01*
X22033333Y-64361904D01*
X21957142Y-64361904D01*
X21842857Y-64323809D01*
X21766666Y-64247619D01*
X21728571Y-64171428D01*
X21690476Y-64019047D01*
X21690476Y-63904761D01*
X21728571Y-63752380D01*
X21766666Y-63676190D01*
X21842857Y-63600000D01*
X21957142Y-63561904D01*
X22033333Y-63561904D01*
X22147619Y-63600000D01*
X22185714Y-63638095D01*
X22947619Y-64361904D02*
X22490476Y-64361904D01*
X22719047Y-64361904D02*
X22719047Y-63561904D01*
X22642857Y-63676190D01*
X22566666Y-63752380D01*
X22490476Y-63790476D01*
X23633333Y-63828571D02*
X23633333Y-64361904D01*
X23442857Y-63523809D02*
X23252380Y-64095238D01*
X23747619Y-64095238D01*
X31466666Y-1585714D02*
X31428571Y-1623809D01*
X31314285Y-1661904D01*
X31238095Y-1661904D01*
X31123809Y-1623809D01*
X31047619Y-1547619D01*
X31009523Y-1471428D01*
X30971428Y-1319047D01*
X30971428Y-1204761D01*
X31009523Y-1052380D01*
X31047619Y-976190D01*
X31123809Y-900000D01*
X31238095Y-861904D01*
X31314285Y-861904D01*
X31428571Y-900000D01*
X31466666Y-938095D01*
X31733333Y-861904D02*
X32228571Y-861904D01*
X31961904Y-1166666D01*
X32076190Y-1166666D01*
X32152380Y-1204761D01*
X32190476Y-1242857D01*
X32228571Y-1319047D01*
X32228571Y-1509523D01*
X32190476Y-1585714D01*
X32152380Y-1623809D01*
X32076190Y-1661904D01*
X31847619Y-1661904D01*
X31771428Y-1623809D01*
X31733333Y-1585714D01*
X33366666Y-2061904D02*
X32985714Y-2061904D01*
X32985714Y-1261904D01*
X34052380Y-2061904D02*
X33595238Y-2061904D01*
X33823809Y-2061904D02*
X33823809Y-1261904D01*
X33747619Y-1376190D01*
X33671428Y-1452380D01*
X33595238Y-1490476D01*
X13309523Y-69261904D02*
X13309523Y-68461904D01*
X13614285Y-68461904D01*
X13690476Y-68500000D01*
X13728571Y-68538095D01*
X13766666Y-68614285D01*
X13766666Y-68728571D01*
X13728571Y-68804761D01*
X13690476Y-68842857D01*
X13614285Y-68880952D01*
X13309523Y-68880952D01*
X14528571Y-69261904D02*
X14071428Y-69261904D01*
X14300000Y-69261904D02*
X14300000Y-68461904D01*
X14223809Y-68576190D01*
X14147619Y-68652380D01*
X14071428Y-68690476D01*
X23659523Y-15261904D02*
X23659523Y-14461904D01*
X23964285Y-14461904D01*
X24040476Y-14500000D01*
X24078571Y-14538095D01*
X24116666Y-14614285D01*
X24116666Y-14728571D01*
X24078571Y-14804761D01*
X24040476Y-14842857D01*
X23964285Y-14880952D01*
X23659523Y-14880952D01*
X24840476Y-14461904D02*
X24459523Y-14461904D01*
X24421428Y-14842857D01*
X24459523Y-14804761D01*
X24535714Y-14766666D01*
X24726190Y-14766666D01*
X24802380Y-14804761D01*
X24840476Y-14842857D01*
X24878571Y-14919047D01*
X24878571Y-15109523D01*
X24840476Y-15185714D01*
X24802380Y-15223809D01*
X24726190Y-15261904D01*
X24535714Y-15261904D01*
X24459523Y-15223809D01*
X24421428Y-15185714D01*
X17861904Y-59733333D02*
X17480952Y-60000000D01*
X17861904Y-60190476D02*
X17061904Y-60190476D01*
X17061904Y-59885714D01*
X17100000Y-59809523D01*
X17138095Y-59771428D01*
X17214285Y-59733333D01*
X17328571Y-59733333D01*
X17404761Y-59771428D01*
X17442857Y-59809523D01*
X17480952Y-59885714D01*
X17480952Y-60190476D01*
X17328571Y-59047619D02*
X17861904Y-59047619D01*
X17023809Y-59238095D02*
X17595238Y-59428571D01*
X17595238Y-58933333D01*
X28219047Y-6561904D02*
X28219047Y-5761904D01*
X29057142Y-6485714D02*
X29019047Y-6523809D01*
X28904761Y-6561904D01*
X28828571Y-6561904D01*
X28714285Y-6523809D01*
X28638095Y-6447619D01*
X28600000Y-6371428D01*
X28561904Y-6219047D01*
X28561904Y-6104761D01*
X28600000Y-5952380D01*
X28638095Y-5876190D01*
X28714285Y-5800000D01*
X28828571Y-5761904D01*
X28904761Y-5761904D01*
X29019047Y-5800000D01*
X29057142Y-5838095D01*
X29323809Y-5761904D02*
X29819047Y-5761904D01*
X29552380Y-6066666D01*
X29666666Y-6066666D01*
X29742857Y-6104761D01*
X29780952Y-6142857D01*
X29819047Y-6219047D01*
X29819047Y-6409523D01*
X29780952Y-6485714D01*
X29742857Y-6523809D01*
X29666666Y-6561904D01*
X29438095Y-6561904D01*
X29361904Y-6523809D01*
X29323809Y-6485714D01*
X24666666Y-36761904D02*
X24400000Y-36380952D01*
X24209523Y-36761904D02*
X24209523Y-35961904D01*
X24514285Y-35961904D01*
X24590476Y-36000000D01*
X24628571Y-36038095D01*
X24666666Y-36114285D01*
X24666666Y-36228571D01*
X24628571Y-36304761D01*
X24590476Y-36342857D01*
X24514285Y-36380952D01*
X24209523Y-36380952D01*
X25352380Y-35961904D02*
X25200000Y-35961904D01*
X25123809Y-36000000D01*
X25085714Y-36038095D01*
X25009523Y-36152380D01*
X24971428Y-36304761D01*
X24971428Y-36609523D01*
X25009523Y-36685714D01*
X25047619Y-36723809D01*
X25123809Y-36761904D01*
X25276190Y-36761904D01*
X25352380Y-36723809D01*
X25390476Y-36685714D01*
X25428571Y-36609523D01*
X25428571Y-36419047D01*
X25390476Y-36342857D01*
X25352380Y-36304761D01*
X25276190Y-36266666D01*
X25123809Y-36266666D01*
X25047619Y-36304761D01*
X25009523Y-36342857D01*
X24971428Y-36419047D01*
X30266666Y-44061904D02*
X30000000Y-43680952D01*
X29809523Y-44061904D02*
X29809523Y-43261904D01*
X30114285Y-43261904D01*
X30190476Y-43300000D01*
X30228571Y-43338095D01*
X30266666Y-43414285D01*
X30266666Y-43528571D01*
X30228571Y-43604761D01*
X30190476Y-43642857D01*
X30114285Y-43680952D01*
X29809523Y-43680952D01*
X30533333Y-43261904D02*
X31066666Y-43261904D01*
X30723809Y-44061904D01*
X24666666Y-35261904D02*
X24400000Y-34880952D01*
X24209523Y-35261904D02*
X24209523Y-34461904D01*
X24514285Y-34461904D01*
X24590476Y-34500000D01*
X24628571Y-34538095D01*
X24666666Y-34614285D01*
X24666666Y-34728571D01*
X24628571Y-34804761D01*
X24590476Y-34842857D01*
X24514285Y-34880952D01*
X24209523Y-34880952D01*
X25123809Y-34804761D02*
X25047619Y-34766666D01*
X25009523Y-34728571D01*
X24971428Y-34652380D01*
X24971428Y-34614285D01*
X25009523Y-34538095D01*
X25047619Y-34500000D01*
X25123809Y-34461904D01*
X25276190Y-34461904D01*
X25352380Y-34500000D01*
X25390476Y-34538095D01*
X25428571Y-34614285D01*
X25428571Y-34652380D01*
X25390476Y-34728571D01*
X25352380Y-34766666D01*
X25276190Y-34804761D01*
X25123809Y-34804761D01*
X25047619Y-34842857D01*
X25009523Y-34880952D01*
X24971428Y-34957142D01*
X24971428Y-35109523D01*
X25009523Y-35185714D01*
X25047619Y-35223809D01*
X25123809Y-35261904D01*
X25276190Y-35261904D01*
X25352380Y-35223809D01*
X25390476Y-35185714D01*
X25428571Y-35109523D01*
X25428571Y-34957142D01*
X25390476Y-34880952D01*
X25352380Y-34842857D01*
X25276190Y-34804761D01*
X24666666Y-33661904D02*
X24400000Y-33280952D01*
X24209523Y-33661904D02*
X24209523Y-32861904D01*
X24514285Y-32861904D01*
X24590476Y-32900000D01*
X24628571Y-32938095D01*
X24666666Y-33014285D01*
X24666666Y-33128571D01*
X24628571Y-33204761D01*
X24590476Y-33242857D01*
X24514285Y-33280952D01*
X24209523Y-33280952D01*
X25047619Y-33661904D02*
X25200000Y-33661904D01*
X25276190Y-33623809D01*
X25314285Y-33585714D01*
X25390476Y-33471428D01*
X25428571Y-33319047D01*
X25428571Y-33014285D01*
X25390476Y-32938095D01*
X25352380Y-32900000D01*
X25276190Y-32861904D01*
X25123809Y-32861904D01*
X25047619Y-32900000D01*
X25009523Y-32938095D01*
X24971428Y-33014285D01*
X24971428Y-33204761D01*
X25009523Y-33280952D01*
X25047619Y-33319047D01*
X25123809Y-33357142D01*
X25276190Y-33357142D01*
X25352380Y-33319047D01*
X25390476Y-33280952D01*
X25428571Y-33204761D01*
X24685714Y-32061904D02*
X24419047Y-31680952D01*
X24228571Y-32061904D02*
X24228571Y-31261904D01*
X24533333Y-31261904D01*
X24609523Y-31300000D01*
X24647619Y-31338095D01*
X24685714Y-31414285D01*
X24685714Y-31528571D01*
X24647619Y-31604761D01*
X24609523Y-31642857D01*
X24533333Y-31680952D01*
X24228571Y-31680952D01*
X25447619Y-32061904D02*
X24990476Y-32061904D01*
X25219047Y-32061904D02*
X25219047Y-31261904D01*
X25142857Y-31376190D01*
X25066666Y-31452380D01*
X24990476Y-31490476D01*
X25828571Y-32061904D02*
X25980952Y-32061904D01*
X26057142Y-32023809D01*
X26095238Y-31985714D01*
X26171428Y-31871428D01*
X26209523Y-31719047D01*
X26209523Y-31414285D01*
X26171428Y-31338095D01*
X26133333Y-31300000D01*
X26057142Y-31261904D01*
X25904761Y-31261904D01*
X25828571Y-31300000D01*
X25790476Y-31338095D01*
X25752380Y-31414285D01*
X25752380Y-31604761D01*
X25790476Y-31680952D01*
X25828571Y-31719047D01*
X25904761Y-31757142D01*
X26057142Y-31757142D01*
X26133333Y-31719047D01*
X26171428Y-31680952D01*
X26209523Y-31604761D01*
X32685714Y-44061904D02*
X32419047Y-43680952D01*
X32228571Y-44061904D02*
X32228571Y-43261904D01*
X32533333Y-43261904D01*
X32609523Y-43300000D01*
X32647619Y-43338095D01*
X32685714Y-43414285D01*
X32685714Y-43528571D01*
X32647619Y-43604761D01*
X32609523Y-43642857D01*
X32533333Y-43680952D01*
X32228571Y-43680952D01*
X32990476Y-43338095D02*
X33028571Y-43300000D01*
X33104761Y-43261904D01*
X33295238Y-43261904D01*
X33371428Y-43300000D01*
X33409523Y-43338095D01*
X33447619Y-43414285D01*
X33447619Y-43490476D01*
X33409523Y-43604761D01*
X32952380Y-44061904D01*
X33447619Y-44061904D01*
X33942857Y-43261904D02*
X34019047Y-43261904D01*
X34095238Y-43300000D01*
X34133333Y-43338095D01*
X34171428Y-43414285D01*
X34209523Y-43566666D01*
X34209523Y-43757142D01*
X34171428Y-43909523D01*
X34133333Y-43985714D01*
X34095238Y-44023809D01*
X34019047Y-44061904D01*
X33942857Y-44061904D01*
X33866666Y-44023809D01*
X33828571Y-43985714D01*
X33790476Y-43909523D01*
X33752380Y-43757142D01*
X33752380Y-43566666D01*
X33790476Y-43414285D01*
X33828571Y-43338095D01*
X33866666Y-43300000D01*
X33942857Y-43261904D01*
X32685714Y-39861904D02*
X32419047Y-39480952D01*
X32228571Y-39861904D02*
X32228571Y-39061904D01*
X32533333Y-39061904D01*
X32609523Y-39100000D01*
X32647619Y-39138095D01*
X32685714Y-39214285D01*
X32685714Y-39328571D01*
X32647619Y-39404761D01*
X32609523Y-39442857D01*
X32533333Y-39480952D01*
X32228571Y-39480952D01*
X32990476Y-39138095D02*
X33028571Y-39100000D01*
X33104761Y-39061904D01*
X33295238Y-39061904D01*
X33371428Y-39100000D01*
X33409523Y-39138095D01*
X33447619Y-39214285D01*
X33447619Y-39290476D01*
X33409523Y-39404761D01*
X32952380Y-39861904D01*
X33447619Y-39861904D01*
X34209523Y-39861904D02*
X33752380Y-39861904D01*
X33980952Y-39861904D02*
X33980952Y-39061904D01*
X33904761Y-39176190D01*
X33828571Y-39252380D01*
X33752380Y-39290476D01*
X17861904Y-56833333D02*
X17480952Y-57100000D01*
X17861904Y-57290476D02*
X17061904Y-57290476D01*
X17061904Y-56985714D01*
X17100000Y-56909523D01*
X17138095Y-56871428D01*
X17214285Y-56833333D01*
X17328571Y-56833333D01*
X17404761Y-56871428D01*
X17442857Y-56909523D01*
X17480952Y-56985714D01*
X17480952Y-57290476D01*
X17061904Y-56109523D02*
X17061904Y-56490476D01*
X17442857Y-56528571D01*
X17404761Y-56490476D01*
X17366666Y-56414285D01*
X17366666Y-56223809D01*
X17404761Y-56147619D01*
X17442857Y-56109523D01*
X17519047Y-56071428D01*
X17709523Y-56071428D01*
X17785714Y-56109523D01*
X17823809Y-56147619D01*
X17861904Y-56223809D01*
X17861904Y-56414285D01*
X17823809Y-56490476D01*
X17785714Y-56528571D01*
X29985714Y-39861904D02*
X29719047Y-39480952D01*
X29528571Y-39861904D02*
X29528571Y-39061904D01*
X29833333Y-39061904D01*
X29909523Y-39100000D01*
X29947619Y-39138095D01*
X29985714Y-39214285D01*
X29985714Y-39328571D01*
X29947619Y-39404761D01*
X29909523Y-39442857D01*
X29833333Y-39480952D01*
X29528571Y-39480952D01*
X30747619Y-39861904D02*
X30290476Y-39861904D01*
X30519047Y-39861904D02*
X30519047Y-39061904D01*
X30442857Y-39176190D01*
X30366666Y-39252380D01*
X30290476Y-39290476D01*
X31242857Y-39061904D02*
X31319047Y-39061904D01*
X31395238Y-39100000D01*
X31433333Y-39138095D01*
X31471428Y-39214285D01*
X31509523Y-39366666D01*
X31509523Y-39557142D01*
X31471428Y-39709523D01*
X31433333Y-39785714D01*
X31395238Y-39823809D01*
X31319047Y-39861904D01*
X31242857Y-39861904D01*
X31166666Y-39823809D01*
X31128571Y-39785714D01*
X31090476Y-39709523D01*
X31052380Y-39557142D01*
X31052380Y-39366666D01*
X31090476Y-39214285D01*
X31128571Y-39138095D01*
X31166666Y-39100000D01*
X31242857Y-39061904D01*
X23997619Y-561904D02*
X23616666Y-561904D01*
X23578571Y-942857D01*
X23616666Y-904761D01*
X23692857Y-866666D01*
X23883333Y-866666D01*
X23959523Y-904761D01*
X23997619Y-942857D01*
X24035714Y-1019047D01*
X24035714Y-1209523D01*
X23997619Y-1285714D01*
X23959523Y-1323809D01*
X23883333Y-1361904D01*
X23692857Y-1361904D01*
X23616666Y-1323809D01*
X23578571Y-1285714D01*
X24264285Y-561904D02*
X24530952Y-1361904D01*
X24797619Y-561904D01*
X2085714Y-13633333D02*
X2123809Y-13671428D01*
X2161904Y-13785714D01*
X2161904Y-13861904D01*
X2123809Y-13976190D01*
X2047619Y-14052380D01*
X1971428Y-14090476D01*
X1819047Y-14128571D01*
X1704761Y-14128571D01*
X1552380Y-14090476D01*
X1476190Y-14052380D01*
X1400000Y-13976190D01*
X1361904Y-13861904D01*
X1361904Y-13785714D01*
X1400000Y-13671428D01*
X1438095Y-13633333D01*
X1361904Y-13366666D02*
X1361904Y-12833333D01*
X2161904Y-13176190D01*
X1335714Y-8061904D02*
X1069047Y-7680952D01*
X878571Y-8061904D02*
X878571Y-7261904D01*
X1183333Y-7261904D01*
X1259523Y-7300000D01*
X1297619Y-7338095D01*
X1335714Y-7414285D01*
X1335714Y-7528571D01*
X1297619Y-7604761D01*
X1259523Y-7642857D01*
X1183333Y-7680952D01*
X878571Y-7680952D01*
X2097619Y-8061904D02*
X1640476Y-8061904D01*
X1869047Y-8061904D02*
X1869047Y-7261904D01*
X1792857Y-7376190D01*
X1716666Y-7452380D01*
X1640476Y-7490476D01*
X2402380Y-7338095D02*
X2440476Y-7300000D01*
X2516666Y-7261904D01*
X2707142Y-7261904D01*
X2783333Y-7300000D01*
X2821428Y-7338095D01*
X2859523Y-7414285D01*
X2859523Y-7490476D01*
X2821428Y-7604761D01*
X2364285Y-8061904D01*
X2859523Y-8061904D01*
X2835714Y-9283333D02*
X2873809Y-9321428D01*
X2911904Y-9435714D01*
X2911904Y-9511904D01*
X2873809Y-9626190D01*
X2797619Y-9702380D01*
X2721428Y-9740476D01*
X2569047Y-9778571D01*
X2454761Y-9778571D01*
X2302380Y-9740476D01*
X2226190Y-9702380D01*
X2150000Y-9626190D01*
X2111904Y-9511904D01*
X2111904Y-9435714D01*
X2150000Y-9321428D01*
X2188095Y-9283333D01*
X2188095Y-8978571D02*
X2150000Y-8940476D01*
X2111904Y-8864285D01*
X2111904Y-8673809D01*
X2150000Y-8597619D01*
X2188095Y-8559523D01*
X2264285Y-8521428D01*
X2340476Y-8521428D01*
X2454761Y-8559523D01*
X2911904Y-9016666D01*
X2911904Y-8521428D01*
X5909523Y-8101904D02*
X5909523Y-7301904D01*
X6214285Y-7301904D01*
X6290476Y-7340000D01*
X6328571Y-7378095D01*
X6366666Y-7454285D01*
X6366666Y-7568571D01*
X6328571Y-7644761D01*
X6290476Y-7682857D01*
X6214285Y-7720952D01*
X5909523Y-7720952D01*
X7052380Y-7301904D02*
X6900000Y-7301904D01*
X6823809Y-7340000D01*
X6785714Y-7378095D01*
X6709523Y-7492380D01*
X6671428Y-7644761D01*
X6671428Y-7949523D01*
X6709523Y-8025714D01*
X6747619Y-8063809D01*
X6823809Y-8101904D01*
X6976190Y-8101904D01*
X7052380Y-8063809D01*
X7090476Y-8025714D01*
X7128571Y-7949523D01*
X7128571Y-7759047D01*
X7090476Y-7682857D01*
X7052380Y-7644761D01*
X6976190Y-7606666D01*
X6823809Y-7606666D01*
X6747619Y-7644761D01*
X6709523Y-7682857D01*
X6671428Y-7759047D01*
X2185714Y-16061904D02*
X1919047Y-15680952D01*
X1728571Y-16061904D02*
X1728571Y-15261904D01*
X2033333Y-15261904D01*
X2109523Y-15300000D01*
X2147619Y-15338095D01*
X2185714Y-15414285D01*
X2185714Y-15528571D01*
X2147619Y-15604761D01*
X2109523Y-15642857D01*
X2033333Y-15680952D01*
X1728571Y-15680952D01*
X2947619Y-16061904D02*
X2490476Y-16061904D01*
X2719047Y-16061904D02*
X2719047Y-15261904D01*
X2642857Y-15376190D01*
X2566666Y-15452380D01*
X2490476Y-15490476D01*
X3709523Y-16061904D02*
X3252380Y-16061904D01*
X3480952Y-16061904D02*
X3480952Y-15261904D01*
X3404761Y-15376190D01*
X3328571Y-15452380D01*
X3252380Y-15490476D01*
X8085714Y-9661904D02*
X7819047Y-9280952D01*
X7628571Y-9661904D02*
X7628571Y-8861904D01*
X7933333Y-8861904D01*
X8009523Y-8900000D01*
X8047619Y-8938095D01*
X8085714Y-9014285D01*
X8085714Y-9128571D01*
X8047619Y-9204761D01*
X8009523Y-9242857D01*
X7933333Y-9280952D01*
X7628571Y-9280952D01*
X8390476Y-8938095D02*
X8428571Y-8900000D01*
X8504761Y-8861904D01*
X8695238Y-8861904D01*
X8771428Y-8900000D01*
X8809523Y-8938095D01*
X8847619Y-9014285D01*
X8847619Y-9090476D01*
X8809523Y-9204761D01*
X8352380Y-9661904D01*
X8847619Y-9661904D01*
X9152380Y-8938095D02*
X9190476Y-8900000D01*
X9266666Y-8861904D01*
X9457142Y-8861904D01*
X9533333Y-8900000D01*
X9571428Y-8938095D01*
X9609523Y-9014285D01*
X9609523Y-9090476D01*
X9571428Y-9204761D01*
X9114285Y-9661904D01*
X9609523Y-9661904D01*
X9566666Y-16585714D02*
X9528571Y-16623809D01*
X9414285Y-16661904D01*
X9338095Y-16661904D01*
X9223809Y-16623809D01*
X9147619Y-16547619D01*
X9109523Y-16471428D01*
X9071428Y-16319047D01*
X9071428Y-16204761D01*
X9109523Y-16052380D01*
X9147619Y-15976190D01*
X9223809Y-15900000D01*
X9338095Y-15861904D01*
X9414285Y-15861904D01*
X9528571Y-15900000D01*
X9566666Y-15938095D01*
X10252380Y-15861904D02*
X10100000Y-15861904D01*
X10023809Y-15900000D01*
X9985714Y-15938095D01*
X9909523Y-16052380D01*
X9871428Y-16204761D01*
X9871428Y-16509523D01*
X9909523Y-16585714D01*
X9947619Y-16623809D01*
X10023809Y-16661904D01*
X10176190Y-16661904D01*
X10252380Y-16623809D01*
X10290476Y-16585714D01*
X10328571Y-16509523D01*
X10328571Y-16319047D01*
X10290476Y-16242857D01*
X10252380Y-16204761D01*
X10176190Y-16166666D01*
X10023809Y-16166666D01*
X9947619Y-16204761D01*
X9909523Y-16242857D01*
X9871428Y-16319047D01*
X5840476Y-9361904D02*
X5840476Y-10009523D01*
X5878571Y-10085714D01*
X5916666Y-10123809D01*
X5992857Y-10161904D01*
X6145238Y-10161904D01*
X6221428Y-10123809D01*
X6259523Y-10085714D01*
X6297619Y-10009523D01*
X6297619Y-9361904D01*
X6640476Y-9438095D02*
X6678571Y-9400000D01*
X6754761Y-9361904D01*
X6945238Y-9361904D01*
X7021428Y-9400000D01*
X7059523Y-9438095D01*
X7097619Y-9514285D01*
X7097619Y-9590476D01*
X7059523Y-9704761D01*
X6602380Y-10161904D01*
X7097619Y-10161904D01*
X1785714Y-9283333D02*
X1823809Y-9321428D01*
X1861904Y-9435714D01*
X1861904Y-9511904D01*
X1823809Y-9626190D01*
X1747619Y-9702380D01*
X1671428Y-9740476D01*
X1519047Y-9778571D01*
X1404761Y-9778571D01*
X1252380Y-9740476D01*
X1176190Y-9702380D01*
X1100000Y-9626190D01*
X1061904Y-9511904D01*
X1061904Y-9435714D01*
X1100000Y-9321428D01*
X1138095Y-9283333D01*
X1404761Y-8826190D02*
X1366666Y-8902380D01*
X1328571Y-8940476D01*
X1252380Y-8978571D01*
X1214285Y-8978571D01*
X1138095Y-8940476D01*
X1100000Y-8902380D01*
X1061904Y-8826190D01*
X1061904Y-8673809D01*
X1100000Y-8597619D01*
X1138095Y-8559523D01*
X1214285Y-8521428D01*
X1252380Y-8521428D01*
X1328571Y-8559523D01*
X1366666Y-8597619D01*
X1404761Y-8673809D01*
X1404761Y-8826190D01*
X1442857Y-8902380D01*
X1480952Y-8940476D01*
X1557142Y-8978571D01*
X1709523Y-8978571D01*
X1785714Y-8940476D01*
X1823809Y-8902380D01*
X1861904Y-8826190D01*
X1861904Y-8673809D01*
X1823809Y-8597619D01*
X1785714Y-8559523D01*
X1709523Y-8521428D01*
X1557142Y-8521428D01*
X1480952Y-8559523D01*
X1442857Y-8597619D01*
X1404761Y-8673809D01*
X2800000Y-39550000D02*
X1200000Y-39550000D01*
X2800000Y-38450000D02*
X1200000Y-38450000D01*
X17800000Y-2100000D02*
X19400000Y-2100000D01*
X17800000Y-900000D02*
X19400000Y-900000D01*
X14300000Y-2100000D02*
X15900000Y-2100000D01*
X14300000Y-900000D02*
X15900000Y-900000D01*
X18950000Y-3800000D02*
X18250000Y-3800000D01*
X20050000Y-3950000D02*
X20050000Y-5100000D01*
X17150000Y-5100000D02*
X18000000Y-5100000D01*
X20050000Y-5100000D02*
X19200000Y-5100000D01*
X17150000Y-3950000D02*
X17150000Y-5100000D01*
X13650000Y-5100000D02*
X14500000Y-5100000D01*
X16550000Y-5100000D02*
X15700000Y-5100000D01*
X13650000Y-3950000D02*
X13650000Y-5100000D01*
X15450000Y-3800000D02*
X14750000Y-3800000D01*
X16550000Y-3950000D02*
X16550000Y-5100000D01*
X15500000Y-7950000D02*
X17100000Y-7950000D01*
X15500000Y-6850000D02*
X17100000Y-6850000D01*
X14300000Y-7950000D02*
X12700000Y-7950000D01*
X14300000Y-6850000D02*
X12700000Y-6850000D01*
X18300000Y-6850000D02*
X19900000Y-6850000D01*
X19250000Y-7400000D02*
X18950000Y-7150000D01*
X18950000Y-7150000D02*
X18950000Y-7650000D01*
X18950000Y-7650000D02*
X19250000Y-7400000D01*
X18300000Y-7950000D02*
X19900000Y-7950000D01*
X19900000Y-10350000D02*
X18300000Y-10350000D01*
X19900000Y-11450000D02*
X18300000Y-11450000D01*
X19100000Y-16950000D02*
X20700000Y-16950000D01*
X19100000Y-15850000D02*
X20700000Y-15850000D01*
X18300000Y-8550000D02*
X19900000Y-8550000D01*
X18300000Y-9650000D02*
X19900000Y-9650000D01*
X7500000Y-62550000D02*
X5900000Y-62550000D01*
X7500000Y-63650000D02*
X5900000Y-63650000D01*
X23300000Y-42700000D02*
X23300000Y-39700000D01*
X23300000Y-39700000D02*
X23400000Y-39700000D01*
X26200000Y-42700000D02*
X26300000Y-42700000D01*
X26300000Y-39700000D02*
X26200000Y-39700000D01*
X23400000Y-42700000D02*
X23300000Y-42700000D01*
X26300000Y-42700000D02*
X26300000Y-39700000D01*
X23000000Y-43200000D02*
G75*
G03*
X23000000Y-43200000I-200000J0D01*
G01*
X22350000Y-42000000D02*
X22350000Y-43600000D01*
X21250000Y-42000000D02*
X21250000Y-43600000D01*
X22350000Y-40700000D02*
X22350000Y-39100000D01*
X21250000Y-40700000D02*
X21250000Y-39100000D01*
X24500000Y-38550000D02*
X26100000Y-38550000D01*
X24500000Y-37450000D02*
X26100000Y-37450000D01*
X600000Y-44600000D02*
X600000Y-60600000D01*
X16600000Y-44600000D02*
X16600000Y-60600000D01*
X17453553Y-44100000D02*
G75*
G03*
X17453553Y-44100000I-353553J0D01*
G01*
D12*
X22868569Y-24030848D02*
X22877639Y-24008561D01*
X22877639Y-24008561D02*
X23112153Y-23611712D01*
X23112153Y-23611712D02*
X23472907Y-23208354D01*
X23472907Y-23208354D02*
X23922936Y-22837123D01*
X23922936Y-22837123D02*
X24129175Y-22700391D01*
X24129175Y-22700391D02*
X24620999Y-22396820D01*
X24620999Y-22396820D02*
X24363481Y-21940523D01*
X24363481Y-21940523D02*
X24130457Y-21367854D01*
X24130457Y-21367854D02*
X24047938Y-20767557D01*
X24047938Y-20767557D02*
X24112597Y-20171595D01*
X24112597Y-20171595D02*
X24321106Y-19611930D01*
X24321106Y-19611930D02*
X24655424Y-19136393D01*
X24655424Y-19136393D02*
X24884451Y-18928977D01*
X24884451Y-18928977D02*
X25185744Y-18711595D01*
X25185744Y-18711595D02*
X25513086Y-18511645D01*
X25513086Y-18511645D02*
X25820262Y-18356522D01*
X25820262Y-18356522D02*
X26061057Y-18273621D01*
X26061057Y-18273621D02*
X26122476Y-18266734D01*
X26122476Y-18266734D02*
X26176951Y-18184288D01*
X26176951Y-18184288D02*
X26220705Y-17945665D01*
X26220705Y-17945665D02*
X26251462Y-17563809D01*
X26251462Y-17563809D02*
X26253601Y-17521069D01*
X26253601Y-17521069D02*
X26284460Y-17101148D01*
X26284460Y-17101148D02*
X26336466Y-16801675D01*
X26336466Y-16801675D02*
X26419952Y-16574108D01*
X26419952Y-16574108D02*
X26476959Y-16471749D01*
X26476959Y-16471749D02*
X26770250Y-16145464D01*
X26770250Y-16145464D02*
X27160194Y-15957652D01*
X27160194Y-15957652D02*
X27644651Y-15909262D01*
X27644651Y-15909262D02*
X27735526Y-15914908D01*
X27735526Y-15914908D02*
X28159570Y-15996610D01*
X28159570Y-15996610D02*
X28482256Y-16179051D01*
X28482256Y-16179051D02*
X28742632Y-16489577D01*
X28742632Y-16489577D02*
X28863333Y-16704734D01*
X28863333Y-16704734D02*
X29075000Y-17123667D01*
X29075000Y-17123667D02*
X29094710Y-22246000D01*
X29094710Y-22246000D02*
X29098507Y-23313852D01*
X29098507Y-23313852D02*
X29100833Y-24225961D01*
X29100833Y-24225961D02*
X29101375Y-24995916D01*
X29101375Y-24995916D02*
X29099817Y-25637302D01*
X29099817Y-25637302D02*
X29095844Y-26163708D01*
X29095844Y-26163708D02*
X29089142Y-26588720D01*
X29089142Y-26588720D02*
X29079395Y-26925926D01*
X29079395Y-26925926D02*
X29066288Y-27188913D01*
X29066288Y-27188913D02*
X29049507Y-27391268D01*
X29049507Y-27391268D02*
X29028737Y-27546578D01*
X29028737Y-27546578D02*
X29003662Y-27668431D01*
X29003662Y-27668431D02*
X28973968Y-27770413D01*
X28973968Y-27770413D02*
X28966120Y-27793437D01*
X28966120Y-27793437D02*
X28724948Y-28325119D01*
X28724948Y-28325119D02*
X28421163Y-28707588D01*
X28421163Y-28707588D02*
X28067376Y-28942673D01*
X28067376Y-28942673D02*
X27596312Y-29081081D01*
X27596312Y-29081081D02*
X27394511Y-29070896D01*
X27394511Y-29070896D02*
X27394511Y-28649721D01*
X27394511Y-28649721D02*
X27773093Y-28617962D01*
X27773093Y-28617962D02*
X28103835Y-28433879D01*
X28103835Y-28433879D02*
X28375327Y-28110516D01*
X28375327Y-28110516D02*
X28576160Y-27660918D01*
X28576160Y-27660918D02*
X28684932Y-27174397D01*
X28684932Y-27174397D02*
X28701061Y-26970304D01*
X28701061Y-26970304D02*
X28713845Y-26622245D01*
X28713845Y-26622245D02*
X28723440Y-26149413D01*
X28723440Y-26149413D02*
X28730000Y-25571002D01*
X28730000Y-25571002D02*
X28733682Y-24906206D01*
X28733682Y-24906206D02*
X28734640Y-24174218D01*
X28734640Y-24174218D02*
X28733031Y-23394233D01*
X28733031Y-23394233D02*
X28729010Y-22585443D01*
X28729010Y-22585443D02*
X28722732Y-21767042D01*
X28722732Y-21767042D02*
X28714353Y-20958224D01*
X28714353Y-20958224D02*
X28704029Y-20178183D01*
X28704029Y-20178183D02*
X28691914Y-19446113D01*
X28691914Y-19446113D02*
X28678164Y-18781206D01*
X28678164Y-18781206D02*
X28662935Y-18202657D01*
X28662935Y-18202657D02*
X28646382Y-17729660D01*
X28646382Y-17729660D02*
X28628661Y-17381407D01*
X28628661Y-17381407D02*
X28609928Y-17177093D01*
X28609928Y-17177093D02*
X28603687Y-17145032D01*
X28603687Y-17145032D02*
X28431114Y-16751434D01*
X28431114Y-16751434D02*
X28168118Y-16473855D01*
X28168118Y-16473855D02*
X27837507Y-16332874D01*
X27837507Y-16332874D02*
X27688496Y-16319333D01*
X27688496Y-16319333D02*
X27291219Y-16363257D01*
X27291219Y-16363257D02*
X26999951Y-16504178D01*
X26999951Y-16504178D02*
X26805420Y-16755825D01*
X26805420Y-16755825D02*
X26698349Y-17131925D01*
X26698349Y-17131925D02*
X26669465Y-17646204D01*
X26669465Y-17646204D02*
X26674278Y-17820504D01*
X26674278Y-17820504D02*
X26704333Y-18538955D01*
X26704333Y-18538955D02*
X26238666Y-18684634D01*
X26238666Y-18684634D02*
X25775888Y-18848414D01*
X25775888Y-18848414D02*
X25428024Y-19023924D01*
X25428024Y-19023924D02*
X25141777Y-19242350D01*
X25141777Y-19242350D02*
X24946771Y-19440526D01*
X24946771Y-19440526D02*
X24641715Y-19896581D01*
X24641715Y-19896581D02*
X24483965Y-20407524D01*
X24483965Y-20407524D02*
X24472994Y-20945664D01*
X24472994Y-20945664D02*
X24608277Y-21483309D01*
X24608277Y-21483309D02*
X24889286Y-21992769D01*
X24889286Y-21992769D02*
X24997908Y-22131222D01*
X24997908Y-22131222D02*
X25140140Y-22326091D01*
X25140140Y-22326091D02*
X25217203Y-22483095D01*
X25217203Y-22483095D02*
X25221785Y-22512222D01*
X25221785Y-22512222D02*
X25149906Y-22603176D01*
X25149906Y-22603176D02*
X24962247Y-22731588D01*
X24962247Y-22731588D02*
X24699327Y-22869764D01*
X24699327Y-22869764D02*
X24697465Y-22870631D01*
X24697465Y-22870631D02*
X24222822Y-23144457D01*
X24222822Y-23144457D02*
X23801094Y-23487456D01*
X23801094Y-23487456D02*
X23465341Y-23866231D01*
X23465341Y-23866231D02*
X23248624Y-24247380D01*
X23248624Y-24247380D02*
X23206598Y-24376803D01*
X23206598Y-24376803D02*
X23148145Y-24798205D01*
X23148145Y-24798205D02*
X23202959Y-25208110D01*
X23202959Y-25208110D02*
X23379433Y-25662874D01*
X23379433Y-25662874D02*
X23406271Y-25717333D01*
X23406271Y-25717333D02*
X23721463Y-26191748D01*
X23721463Y-26191748D02*
X24113913Y-26516207D01*
X24113913Y-26516207D02*
X24579240Y-26689104D01*
X24579240Y-26689104D02*
X25113060Y-26708839D01*
X25113060Y-26708839D02*
X25710992Y-26573805D01*
X25710992Y-26573805D02*
X25729507Y-26567474D01*
X25729507Y-26567474D02*
X26054421Y-26475942D01*
X26054421Y-26475942D02*
X26258134Y-26484042D01*
X26258134Y-26484042D02*
X26366614Y-26607653D01*
X26366614Y-26607653D02*
X26405830Y-26862652D01*
X26405830Y-26862652D02*
X26408000Y-26982333D01*
X26408000Y-26982333D02*
X26446427Y-27415110D01*
X26446427Y-27415110D02*
X26550098Y-27838023D01*
X26550098Y-27838023D02*
X26701599Y-28196241D01*
X26701599Y-28196241D02*
X26863815Y-28417412D01*
X26863815Y-28417412D02*
X27088717Y-28558137D01*
X27088717Y-28558137D02*
X27364999Y-28645463D01*
X27364999Y-28645463D02*
X27394511Y-28649721D01*
X27394511Y-28649721D02*
X27394511Y-29070896D01*
X27394511Y-29070896D02*
X27163672Y-29059244D01*
X27163672Y-29059244D02*
X26781316Y-28884155D01*
X26781316Y-28884155D02*
X26461102Y-28562806D01*
X26461102Y-28562806D02*
X26214891Y-28102189D01*
X26214891Y-28102189D02*
X26115243Y-27791743D01*
X26115243Y-27791743D02*
X26044939Y-27497218D01*
X26044939Y-27497218D02*
X25997535Y-27251514D01*
X25997535Y-27251514D02*
X25984666Y-27135042D01*
X25984666Y-27135042D02*
X25962757Y-27038088D01*
X25962757Y-27038088D02*
X25866798Y-27014050D01*
X25866798Y-27014050D02*
X25667166Y-27046997D01*
X25667166Y-27046997D02*
X25007391Y-27120151D01*
X25007391Y-27120151D02*
X24403523Y-27053617D01*
X24403523Y-27053617D02*
X23874494Y-26851950D01*
X23874494Y-26851950D02*
X23439237Y-26519705D01*
X23439237Y-26519705D02*
X23428286Y-26508254D01*
X23428286Y-26508254D02*
X23119187Y-26082661D01*
X23119187Y-26082661D02*
X22898327Y-25575187D01*
X22898327Y-25575187D02*
X22776043Y-25032768D01*
X22776043Y-25032768D02*
X22762678Y-24502343D01*
X22762678Y-24502343D02*
X22868569Y-24030848D01*
X22868569Y-24030848D02*
X22868569Y-24030848D01*
G36*
X26781316Y-28884155D02*
G01*
X26461102Y-28562806D01*
X26214891Y-28102189D01*
X26115243Y-27791743D01*
X26044939Y-27497218D01*
X25997535Y-27251514D01*
X25984666Y-27135042D01*
X25962757Y-27038088D01*
X25866798Y-27014050D01*
X25667166Y-27046997D01*
X25007391Y-27120151D01*
X24403523Y-27053617D01*
X23874494Y-26851950D01*
X23439237Y-26519705D01*
X23428286Y-26508254D01*
X23119187Y-26082661D01*
X22898327Y-25575187D01*
X22776043Y-25032768D01*
X22770133Y-24798205D01*
X23148145Y-24798205D01*
X23202959Y-25208110D01*
X23379433Y-25662874D01*
X23406271Y-25717333D01*
X23721463Y-26191748D01*
X24113913Y-26516207D01*
X24579240Y-26689104D01*
X25113060Y-26708839D01*
X25710992Y-26573805D01*
X25729507Y-26567474D01*
X26054421Y-26475942D01*
X26258134Y-26484042D01*
X26366614Y-26607653D01*
X26405830Y-26862652D01*
X26408000Y-26982333D01*
X26446427Y-27415110D01*
X26550098Y-27838023D01*
X26701599Y-28196241D01*
X26863815Y-28417412D01*
X27088717Y-28558137D01*
X27364999Y-28645463D01*
X27394511Y-28649721D01*
X27773093Y-28617962D01*
X28103835Y-28433879D01*
X28375327Y-28110516D01*
X28576160Y-27660918D01*
X28684932Y-27174397D01*
X28701061Y-26970304D01*
X28713845Y-26622245D01*
X28723440Y-26149413D01*
X28730000Y-25571002D01*
X28733682Y-24906206D01*
X28734640Y-24174218D01*
X28733031Y-23394233D01*
X28729010Y-22585443D01*
X28722732Y-21767042D01*
X28714353Y-20958224D01*
X28704029Y-20178183D01*
X28691914Y-19446113D01*
X28678164Y-18781206D01*
X28662935Y-18202657D01*
X28646382Y-17729660D01*
X28628661Y-17381407D01*
X28609928Y-17177093D01*
X28603687Y-17145032D01*
X28431114Y-16751434D01*
X28168118Y-16473855D01*
X27837507Y-16332874D01*
X27688496Y-16319333D01*
X27291219Y-16363257D01*
X26999951Y-16504178D01*
X26805420Y-16755825D01*
X26698349Y-17131925D01*
X26669465Y-17646204D01*
X26674278Y-17820504D01*
X26704333Y-18538955D01*
X26238666Y-18684634D01*
X25775888Y-18848414D01*
X25428024Y-19023924D01*
X25141777Y-19242350D01*
X24946771Y-19440526D01*
X24641715Y-19896581D01*
X24483965Y-20407524D01*
X24472994Y-20945664D01*
X24608277Y-21483309D01*
X24889286Y-21992769D01*
X24997908Y-22131222D01*
X25140140Y-22326091D01*
X25217203Y-22483095D01*
X25221785Y-22512222D01*
X25149906Y-22603176D01*
X24962247Y-22731588D01*
X24699327Y-22869764D01*
X24697465Y-22870631D01*
X24222822Y-23144457D01*
X23801094Y-23487456D01*
X23465341Y-23866231D01*
X23248624Y-24247380D01*
X23206598Y-24376803D01*
X23148145Y-24798205D01*
X22770133Y-24798205D01*
X22762678Y-24502343D01*
X22868569Y-24030848D01*
X22877639Y-24008561D01*
X23112153Y-23611712D01*
X23472907Y-23208354D01*
X23922936Y-22837123D01*
X24129175Y-22700391D01*
X24620999Y-22396820D01*
X24363481Y-21940523D01*
X24130457Y-21367854D01*
X24047938Y-20767557D01*
X24112597Y-20171595D01*
X24321106Y-19611930D01*
X24655424Y-19136393D01*
X24884451Y-18928977D01*
X25185744Y-18711595D01*
X25513086Y-18511645D01*
X25820262Y-18356522D01*
X26061057Y-18273621D01*
X26122476Y-18266734D01*
X26176951Y-18184288D01*
X26220705Y-17945665D01*
X26251462Y-17563809D01*
X26253601Y-17521069D01*
X26284460Y-17101148D01*
X26336466Y-16801675D01*
X26419952Y-16574108D01*
X26476959Y-16471749D01*
X26770250Y-16145464D01*
X27160194Y-15957652D01*
X27644651Y-15909262D01*
X27735526Y-15914908D01*
X28159570Y-15996610D01*
X28482256Y-16179051D01*
X28742632Y-16489577D01*
X28863333Y-16704734D01*
X29075000Y-17123667D01*
X29094710Y-22246000D01*
X29098507Y-23313852D01*
X29100833Y-24225961D01*
X29101375Y-24995916D01*
X29099817Y-25637302D01*
X29095844Y-26163708D01*
X29089142Y-26588720D01*
X29079395Y-26925926D01*
X29066288Y-27188913D01*
X29049507Y-27391268D01*
X29028737Y-27546578D01*
X29003662Y-27668431D01*
X28973968Y-27770413D01*
X28966120Y-27793437D01*
X28724948Y-28325119D01*
X28421163Y-28707588D01*
X28067376Y-28942673D01*
X27596312Y-29081081D01*
X27394511Y-29070896D01*
X27163672Y-29059244D01*
X26781316Y-28884155D01*
G37*
X26781316Y-28884155D02*
X26461102Y-28562806D01*
X26214891Y-28102189D01*
X26115243Y-27791743D01*
X26044939Y-27497218D01*
X25997535Y-27251514D01*
X25984666Y-27135042D01*
X25962757Y-27038088D01*
X25866798Y-27014050D01*
X25667166Y-27046997D01*
X25007391Y-27120151D01*
X24403523Y-27053617D01*
X23874494Y-26851950D01*
X23439237Y-26519705D01*
X23428286Y-26508254D01*
X23119187Y-26082661D01*
X22898327Y-25575187D01*
X22776043Y-25032768D01*
X22770133Y-24798205D01*
X23148145Y-24798205D01*
X23202959Y-25208110D01*
X23379433Y-25662874D01*
X23406271Y-25717333D01*
X23721463Y-26191748D01*
X24113913Y-26516207D01*
X24579240Y-26689104D01*
X25113060Y-26708839D01*
X25710992Y-26573805D01*
X25729507Y-26567474D01*
X26054421Y-26475942D01*
X26258134Y-26484042D01*
X26366614Y-26607653D01*
X26405830Y-26862652D01*
X26408000Y-26982333D01*
X26446427Y-27415110D01*
X26550098Y-27838023D01*
X26701599Y-28196241D01*
X26863815Y-28417412D01*
X27088717Y-28558137D01*
X27364999Y-28645463D01*
X27394511Y-28649721D01*
X27773093Y-28617962D01*
X28103835Y-28433879D01*
X28375327Y-28110516D01*
X28576160Y-27660918D01*
X28684932Y-27174397D01*
X28701061Y-26970304D01*
X28713845Y-26622245D01*
X28723440Y-26149413D01*
X28730000Y-25571002D01*
X28733682Y-24906206D01*
X28734640Y-24174218D01*
X28733031Y-23394233D01*
X28729010Y-22585443D01*
X28722732Y-21767042D01*
X28714353Y-20958224D01*
X28704029Y-20178183D01*
X28691914Y-19446113D01*
X28678164Y-18781206D01*
X28662935Y-18202657D01*
X28646382Y-17729660D01*
X28628661Y-17381407D01*
X28609928Y-17177093D01*
X28603687Y-17145032D01*
X28431114Y-16751434D01*
X28168118Y-16473855D01*
X27837507Y-16332874D01*
X27688496Y-16319333D01*
X27291219Y-16363257D01*
X26999951Y-16504178D01*
X26805420Y-16755825D01*
X26698349Y-17131925D01*
X26669465Y-17646204D01*
X26674278Y-17820504D01*
X26704333Y-18538955D01*
X26238666Y-18684634D01*
X25775888Y-18848414D01*
X25428024Y-19023924D01*
X25141777Y-19242350D01*
X24946771Y-19440526D01*
X24641715Y-19896581D01*
X24483965Y-20407524D01*
X24472994Y-20945664D01*
X24608277Y-21483309D01*
X24889286Y-21992769D01*
X24997908Y-22131222D01*
X25140140Y-22326091D01*
X25217203Y-22483095D01*
X25221785Y-22512222D01*
X25149906Y-22603176D01*
X24962247Y-22731588D01*
X24699327Y-22869764D01*
X24697465Y-22870631D01*
X24222822Y-23144457D01*
X23801094Y-23487456D01*
X23465341Y-23866231D01*
X23248624Y-24247380D01*
X23206598Y-24376803D01*
X23148145Y-24798205D01*
X22770133Y-24798205D01*
X22762678Y-24502343D01*
X22868569Y-24030848D01*
X22877639Y-24008561D01*
X23112153Y-23611712D01*
X23472907Y-23208354D01*
X23922936Y-22837123D01*
X24129175Y-22700391D01*
X24620999Y-22396820D01*
X24363481Y-21940523D01*
X24130457Y-21367854D01*
X24047938Y-20767557D01*
X24112597Y-20171595D01*
X24321106Y-19611930D01*
X24655424Y-19136393D01*
X24884451Y-18928977D01*
X25185744Y-18711595D01*
X25513086Y-18511645D01*
X25820262Y-18356522D01*
X26061057Y-18273621D01*
X26122476Y-18266734D01*
X26176951Y-18184288D01*
X26220705Y-17945665D01*
X26251462Y-17563809D01*
X26253601Y-17521069D01*
X26284460Y-17101148D01*
X26336466Y-16801675D01*
X26419952Y-16574108D01*
X26476959Y-16471749D01*
X26770250Y-16145464D01*
X27160194Y-15957652D01*
X27644651Y-15909262D01*
X27735526Y-15914908D01*
X28159570Y-15996610D01*
X28482256Y-16179051D01*
X28742632Y-16489577D01*
X28863333Y-16704734D01*
X29075000Y-17123667D01*
X29094710Y-22246000D01*
X29098507Y-23313852D01*
X29100833Y-24225961D01*
X29101375Y-24995916D01*
X29099817Y-25637302D01*
X29095844Y-26163708D01*
X29089142Y-26588720D01*
X29079395Y-26925926D01*
X29066288Y-27188913D01*
X29049507Y-27391268D01*
X29028737Y-27546578D01*
X29003662Y-27668431D01*
X28973968Y-27770413D01*
X28966120Y-27793437D01*
X28724948Y-28325119D01*
X28421163Y-28707588D01*
X28067376Y-28942673D01*
X27596312Y-29081081D01*
X27394511Y-29070896D01*
X27163672Y-29059244D01*
X26781316Y-28884155D01*
D13*
X12650000Y-8630000D02*
X12650000Y-8900000D01*
X12650000Y-11570000D02*
X16550000Y-11570000D01*
X12650000Y-11570000D02*
X12650000Y-11300000D01*
X16550000Y-11570000D02*
X16550000Y-11300000D01*
X16550000Y-8630000D02*
X16550000Y-8900000D01*
X12650000Y-8630000D02*
X16550000Y-8630000D01*
X15454400Y-10100000D02*
G75*
G03*
X15454400Y-10100000I-854400J0D01*
G01*
X16550000Y-12730000D02*
X16550000Y-13000000D01*
X16550000Y-15670000D02*
X16550000Y-15400000D01*
X16550000Y-12730000D02*
X12650000Y-12730000D01*
X12650000Y-12730000D02*
X12650000Y-13000000D01*
X16550000Y-15670000D02*
X12650000Y-15670000D01*
X12650000Y-15670000D02*
X12650000Y-15400000D01*
X15454400Y-14200000D02*
G75*
G03*
X15454400Y-14200000I-854400J0D01*
G01*
D11*
X24500000Y-58600000D02*
X23500000Y-58000000D01*
X23500000Y-59200000D02*
X24500000Y-58600000D01*
X23500000Y-58000000D02*
X23500000Y-59200000D01*
X24500000Y-58000000D02*
X24500000Y-59200000D01*
X20050000Y-60300000D02*
X20050000Y-58700000D01*
X21150000Y-60300000D02*
X21150000Y-58700000D01*
X19350000Y-61600000D02*
X19350000Y-63200000D01*
X18250000Y-61600000D02*
X18250000Y-63200000D01*
X23600000Y-63050000D02*
X24600000Y-63050000D01*
X23600000Y-60150000D02*
X24600000Y-60150000D01*
D14*
X23700000Y-59800000D02*
G75*
G03*
X23700000Y-59800000I-100000J0D01*
G01*
D11*
X32500000Y-5850000D02*
X30500000Y-5850000D01*
X32500000Y-7550000D02*
X30500000Y-7550000D01*
X19750000Y-61400000D02*
X19750000Y-63400000D01*
X21450000Y-61400000D02*
X21450000Y-63400000D01*
X28200000Y-450000D02*
X30200000Y-450000D01*
X28200000Y-2150000D02*
X30200000Y-2150000D01*
X34100000Y-3500000D02*
X34100000Y-4300000D01*
X32100000Y-3500000D02*
X32100000Y-4300000D01*
X19350000Y-60300000D02*
X19350000Y-58700000D01*
X18250000Y-60300000D02*
X18250000Y-58700000D01*
D13*
X29600000Y-5460000D02*
X28800000Y-5460000D01*
X29600000Y-2340000D02*
X27800000Y-2340000D01*
X29600000Y-2340000D02*
X30400000Y-2340000D01*
X29600000Y-5460000D02*
X30400000Y-5460000D01*
D11*
X23400000Y-36950000D02*
X21800000Y-36950000D01*
X23400000Y-35850000D02*
X21800000Y-35850000D01*
X31200000Y-42950000D02*
X29600000Y-42950000D01*
X31200000Y-41850000D02*
X29600000Y-41850000D01*
X23400000Y-35450000D02*
X21800000Y-35450000D01*
X23400000Y-34350000D02*
X21800000Y-34350000D01*
X23400000Y-32750000D02*
X21800000Y-32750000D01*
X23400000Y-33850000D02*
X21800000Y-33850000D01*
X23400000Y-31150000D02*
X21800000Y-31150000D01*
X23400000Y-32250000D02*
X21800000Y-32250000D01*
X34000000Y-42950000D02*
X32400000Y-42950000D01*
X34000000Y-41850000D02*
X32400000Y-41850000D01*
X32400000Y-40250000D02*
X34000000Y-40250000D01*
X32400000Y-41350000D02*
X34000000Y-41350000D01*
X19350000Y-57500000D02*
X19350000Y-55900000D01*
X18250000Y-57500000D02*
X18250000Y-55900000D01*
X31200000Y-40250000D02*
X29600000Y-40250000D01*
X31200000Y-41350000D02*
X29600000Y-41350000D01*
X3200000Y-12550000D02*
X1600000Y-12550000D01*
X3200000Y-11450000D02*
X1600000Y-11450000D01*
X3400000Y-8600000D02*
X5000000Y-8600000D01*
X3400000Y-7500000D02*
X5000000Y-7500000D01*
X5000000Y-9850000D02*
X3400000Y-9850000D01*
X5000000Y-8750000D02*
X3400000Y-8750000D01*
X3550000Y-13200000D02*
X3550000Y-14800000D01*
X2450000Y-13200000D02*
X2450000Y-14800000D01*
X9500000Y-8600000D02*
X7900000Y-8600000D01*
X9500000Y-7500000D02*
X7900000Y-7500000D01*
X6900000Y-15750000D02*
X8500000Y-15750000D01*
X6900000Y-16850000D02*
X8500000Y-16850000D01*
D13*
X4490000Y-15010000D02*
X4965000Y-15010000D01*
X8710000Y-11265000D02*
X8710000Y-10790000D01*
X4490000Y-11265000D02*
X4490000Y-10790000D01*
X4490000Y-10790000D02*
X4965000Y-10790000D01*
X8710000Y-15010000D02*
X8235000Y-15010000D01*
X8710000Y-14535000D02*
X8710000Y-15010000D01*
X4490000Y-14535000D02*
X4490000Y-15010000D01*
D11*
X3200000Y-10050000D02*
X1600000Y-10050000D01*
X3200000Y-11150000D02*
X1600000Y-11150000D01*
D15*
X21330000Y-46155000D03*
D16*
X23870000Y-47425000D03*
X21330000Y-48695000D03*
X23870000Y-49965000D03*
X21330000Y-51235000D03*
X23870000Y-52505000D03*
X21330000Y-53775000D03*
X23870000Y-55045000D03*
D15*
X30130000Y-46155000D03*
D16*
X32670000Y-47425000D03*
X30130000Y-48695000D03*
X32670000Y-49965000D03*
X30130000Y-51235000D03*
X32670000Y-52505000D03*
X30130000Y-53775000D03*
X32670000Y-55045000D03*
D15*
X32740000Y-60400000D03*
D16*
X30200000Y-60400000D03*
X27660000Y-60400000D03*
X1700000Y-63200000D03*
D15*
X32300000Y-67600000D03*
D16*
X29800000Y-67600000D03*
X27300000Y-67600000D03*
X24800000Y-67600000D03*
X22300000Y-67600000D03*
X19800000Y-67600000D03*
X17300000Y-67600000D03*
D15*
X24200000Y-4250000D03*
D16*
X24200000Y-6750000D03*
X24200000Y-9250000D03*
X24200000Y-11750000D03*
M02*
